<?xml version="1.0" standalone="no"?>
<!DOCTYPE svg PUBLIC "-//W3C//DTD SVG 20010904//EN"
 "http://www.w3.org/TR/2001/REC-SVG-20010904/DTD/svg10.dtd">
<svg version="1.0" xmlns="http://www.w3.org/2000/svg"
 width="700.000000pt" height="700.000000pt" viewBox="0 0 700.000000 700.000000"
 preserveAspectRatio="xMidYMid meet">
<metadata>
Created by potrace 1.14, written by Peter Selinger 2001-2017
</metadata>
<g transform="translate(0.000000,700.000000) scale(0.100000,-0.100000)"
fill="#000000" stroke="none">
<path d="M2645 6389 c-302 -171 -964 -543 -1470 -827 -883 -496 -923 -520
-991 -588 -162 -160 -222 -405 -155 -625 22 -70 73 -161 123 -218 28 -32 200
-181 588 -511 68 -58 239 -203 379 -323 141 -120 279 -238 306 -261 28 -24 99
-85 160 -137 60 -52 121 -104 135 -115 14 -12 61 -52 105 -90 44 -38 103 -87
130 -109 28 -22 55 -44 61 -50 6 -5 35 -30 65 -55 29 -25 89 -76 134 -114 44
-37 103 -87 130 -111 94 -79 200 -170 230 -196 17 -14 145 -124 285 -243 140
-119 264 -225 275 -235 11 -10 67 -58 125 -106 58 -49 110 -94 116 -100 6 -5
22 -19 35 -30 118 -100 436 -371 445 -380 6 -5 33 -28 60 -50 27 -22 64 -54
84 -71 48 -42 67 -58 280 -239 102 -87 210 -180 241 -206 76 -66 110 -92 113
-88 1 2 22 58 45 124 24 66 54 147 66 180 13 33 56 148 95 255 40 107 108 291
151 408 44 117 79 215 79 218 0 3 6 20 14 37 7 18 24 59 36 92 12 33 26 71 32
85 6 14 23 63 40 110 16 47 33 94 38 105 5 11 55 144 111 295 56 151 144 390
196 530 53 140 99 266 103 280 5 14 20 57 35 95 15 39 42 113 61 165 19 52 38
104 43 115 5 11 20 52 34 90 142 385 339 919 613 1655 54 146 99 267 100 270
0 3 4 14 9 25 4 11 18 47 30 80 12 33 38 103 58 155 19 52 72 196 117 320 45
124 86 234 91 245 4 11 31 83 59 160 28 77 62 168 76 203 13 34 24 68 24 75 0
9 -396 12 -1898 14 l-1897 2 -550 -310z"/>
</g>
</svg>
