<svg width="56" height="56" viewBox="0 0 56 56" fill="none" xmlns="http://www.w3.org/2000/svg">
<path d="M16.5588 19.5334L18.2665 21.4783C17.5363 20.6467 16.5429 20.0302 15.3557 19.7538C14.2221 19.4899 13.0646 19.5734 11.9951 19.9311L10.2875 17.9862C11.3569 17.6285 12.5144 17.5451 13.6481 17.8089C14.8353 18.0853 15.8287 18.7018 16.5588 19.5334Z" fill="#069D6E"/>
<path d="M18.2665 21.5381C18.2499 21.5381 18.2334 21.5313 18.2216 21.5178C17.474 20.6664 16.4783 20.0766 15.3422 19.8121C14.2608 19.5604 13.1101 19.6212 12.0141 19.9878C11.9912 19.9955 11.966 19.9887 11.9502 19.9706L10.2426 18.0257C10.2293 18.0107 10.2245 17.99 10.2297 17.9707C10.235 17.9514 10.2495 17.9359 10.2684 17.9296C11.3855 17.556 12.5589 17.4941 13.6615 17.7508C14.8221 18.0209 15.8395 18.6237 16.6037 19.494L18.3113 21.4389C18.3331 21.4637 18.3307 21.5014 18.3059 21.5232C18.2945 21.5332 18.2804 21.5381 18.2664 21.5381L18.2665 21.5381ZM14.0044 19.5401C14.4653 19.5401 14.9231 19.5918 15.3693 19.6957C16.1451 19.8763 16.8569 20.2055 17.4718 20.6639L16.514 19.573C15.7664 18.7216 14.7707 18.1318 13.6345 17.8673C12.5815 17.6222 11.4625 17.6735 10.3922 18.015L12.014 19.862C12.6672 19.6478 13.339 19.5401 14.0044 19.5401Z" fill="#111111"/>
<path d="M52.0073 12.7705L42.0348 45.0959C41.098 48.1325 37.9029 50.0283 34.8974 49.3287L2.91486 41.8844L4.62253 43.8293L36.6051 51.2736C39.6107 51.9732 42.8057 50.0774 43.7425 47.0407L53.715 14.7154L52.0073 12.7705Z" fill="url(#paint0_linear_999_29197)"/>
<path d="M37.8693 51.4778C37.4439 51.4778 37.0158 51.4304 36.5915 51.3317L4.60897 43.8875C4.59684 43.8846 4.58584 43.8781 4.57765 43.8687L2.86992 41.9238C2.85283 41.9043 2.85026 41.8759 2.86359 41.8536C2.87697 41.8314 2.90327 41.8202 2.92843 41.8261L34.911 49.2705C37.881 49.9618 41.0514 48.0812 41.9777 45.0782L51.9502 12.7528C51.9566 12.7321 51.9737 12.7165 51.9949 12.712C52.016 12.7076 52.038 12.7147 52.0523 12.731L53.7599 14.6759C53.7736 14.6915 53.7782 14.7131 53.7721 14.7329L43.7997 47.0583C42.9874 49.6913 40.4821 51.4778 37.8693 51.4778ZM4.65475 43.7754L36.6186 51.2153C39.5887 51.9066 42.759 50.0261 43.6854 47.023L53.648 14.7296L52.0329 12.8901L42.0919 45.1134C41.1474 48.175 37.9142 50.0922 34.8839 49.3868L3.08251 41.9848L4.65475 43.7754Z" fill="#111111"/>
<path d="M52.0073 12.7705L42.0348 45.0958C41.098 48.1325 37.9029 50.0282 34.8974 49.3287L2.91486 41.8844L7.21126 27.9579C7.93149 28.7321 8.88618 29.306 10.0199 29.5698C13.2323 30.3176 16.65 28.2916 17.652 25.0437C18.654 21.7956 16.8605 18.5568 13.6481 17.8091C12.5144 17.5452 11.3569 17.6286 10.2875 17.9863L14.5838 4.05981L28.3627 7.267C27.524 8.03988 26.8699 9.03282 26.5168 10.1774C25.5147 13.4254 27.3071 16.664 30.5207 17.412C33.7331 18.1598 37.1508 16.1339 38.1528 12.8859C38.506 11.7413 38.5099 10.597 38.2285 9.56342L52.0074 12.7706L52.0073 12.7705Z" fill="#B6F1CF"/>
<path d="M36.1615 49.533C35.7361 49.533 35.3081 49.4857 34.8838 49.387L2.90122 41.9426C2.88502 41.9389 2.87121 41.9286 2.86291 41.9142C2.85466 41.8999 2.85275 41.8827 2.85765 41.8668L7.15405 27.9402C7.16027 27.9199 7.177 27.9043 7.1978 27.8996C7.21836 27.8947 7.24035 27.9015 7.25488 27.9172C7.99101 28.7085 8.95179 29.2599 10.0332 29.5117C13.2118 30.2514 16.6035 28.2392 17.5947 25.026C18.0846 23.4384 17.9216 21.8106 17.1357 20.4427C16.3829 19.1322 15.1395 18.2176 13.6344 17.8672C12.5531 17.6155 11.4024 17.6763 10.3063 18.0429C10.2851 18.0501 10.2617 18.0447 10.2455 18.029C10.2295 18.0134 10.2236 17.99 10.2302 17.9686L14.5266 4.04215C14.5358 4.0122 14.5667 3.99445 14.5973 4.00157L28.3761 7.20875C28.3977 7.21377 28.4147 7.23032 28.4203 7.25172C28.426 7.27312 28.4193 7.29589 28.4031 7.31089C27.5442 8.10248 26.9116 9.09978 26.5737 10.195C26.0839 11.783 26.2467 13.4108 27.0325 14.7786C27.7853 16.0888 29.0287 17.0034 30.5341 17.3537C33.7128 18.0936 37.1043 16.0812 38.0957 12.8682C38.4329 11.7749 38.4589 10.6375 38.1708 9.57898C38.1652 9.55866 38.1708 9.53696 38.1854 9.52178C38.2 9.50666 38.2215 9.50015 38.242 9.50505L52.0208 12.7122C52.037 12.716 52.0508 12.7263 52.0591 12.7407C52.0673 12.7551 52.0693 12.7722 52.0644 12.7881L42.0919 45.1134C41.2796 47.7464 38.7743 49.5329 36.1615 49.5329V49.533ZM2.99074 41.8408L34.9109 49.2705C37.8809 49.9619 41.0512 48.0813 41.9776 45.0782L51.9313 12.8141L38.3114 9.64401C38.5783 10.6969 38.5436 11.8216 38.2099 12.9034C37.3418 15.7171 34.6645 17.6261 31.8724 17.6263C31.4179 17.6263 30.9604 17.5757 30.507 17.4702C28.969 17.1122 27.6983 16.1775 26.9289 14.8381C26.1264 13.4413 25.9597 11.7798 26.4595 10.1598C26.7927 9.07952 27.4073 8.09298 28.2401 7.29977L14.6245 4.1306L10.3784 17.8939C11.4624 17.5523 12.595 17.5026 13.6615 17.7508C15.1992 18.1087 16.4699 19.0436 17.2394 20.3832C18.042 21.7802 18.2087 23.4415 17.709 25.0613C16.6996 28.3331 13.2441 30.3817 10.0062 29.628C8.93571 29.3789 7.98079 28.8421 7.23808 28.0732L2.99074 41.8408Z" fill="#111111"/>
<path d="M33.3397 20.2172C30.0611 19.4541 26.574 21.522 25.5517 24.8359L25.5496 24.8427C28.649 25.7237 30.3444 28.9295 29.356 32.1455C29.4486 32.1718 29.5424 32.1961 29.6374 32.2182C32.9161 32.9814 36.4031 30.9135 37.4254 27.5996C38.4477 24.2858 36.6184 20.9803 33.3397 20.2172" fill="#069D6E"/>
<path d="M31.0168 32.4356C30.553 32.4356 30.0864 32.384 29.6238 32.2763C29.5301 32.2546 29.4345 32.2298 29.3396 32.2029C29.3241 32.1985 29.3111 32.1881 29.3034 32.174C29.2958 32.1598 29.2941 32.1432 29.2988 32.1279C29.7811 30.5586 29.6368 28.94 28.8923 27.5702C28.1813 26.2619 26.9884 25.3137 25.5333 24.9C25.5179 24.8957 25.5049 24.8853 25.4972 24.8714C25.4895 24.8574 25.4877 24.8409 25.4923 24.8255C25.4923 24.8253 25.4944 24.8183 25.4945 24.8182C26.5244 21.4802 30.0497 19.3902 33.3532 20.159C34.922 20.5241 36.2183 21.4778 37.0034 22.8444C37.8221 24.2696 37.9922 25.9646 37.4824 27.6172C36.5969 30.4878 33.8654 32.4357 31.0167 32.4357L31.0168 32.4356ZM29.4309 32.1042C29.5046 32.1243 29.5784 32.143 29.6509 32.16C30.1047 32.2656 30.563 32.3162 31.018 32.3162C33.8156 32.3163 36.4982 30.4025 37.3683 27.5818C37.8682 25.9614 37.7018 24.3 36.8998 22.9038C36.1315 21.5664 34.8623 20.6329 33.3262 20.2753C30.0993 19.524 26.6567 21.5528 25.6249 24.8021C27.0844 25.2332 28.2805 26.194 28.9974 27.513C29.7481 28.8942 29.9013 30.5223 29.4309 32.1042Z" fill="#111111"/>
<path d="M25.2694 24.77C21.9908 24.0068 18.5037 26.0748 17.4814 29.3886C16.4591 32.7025 18.2884 36.0079 21.5671 36.7711C24.8458 37.5342 28.3317 35.466 29.354 32.1521C29.3547 32.1499 29.3554 32.1475 29.3561 32.1454C30.3445 28.9293 28.6491 25.7235 25.5497 24.8425C25.4575 24.8164 25.3642 24.7921 25.2695 24.77" fill="white"/>
<path d="M22.946 36.9884C22.4823 36.9884 22.016 36.9369 21.5536 36.8292C19.9847 36.4641 18.6884 35.5104 17.9034 34.1438C17.0846 32.7185 16.9145 31.0235 17.4243 29.371C18.4541 26.0329 21.9795 23.9427 25.283 24.7118C25.3751 24.7331 25.4703 24.7578 25.5659 24.7849C27.0522 25.2074 28.2709 26.1762 28.9973 27.513C29.7573 28.9113 29.905 30.5626 29.4131 32.1629L29.4113 32.1691C28.5255 35.0403 25.7941 36.9882 22.946 36.9885L22.946 36.9884ZM23.8888 24.6719C21.0911 24.6719 18.4086 26.5856 17.5385 29.4062C17.0385 31.0267 17.2049 32.6881 18.007 34.0843C18.7753 35.4218 20.0445 36.3553 21.5806 36.7128C24.8235 37.4674 28.2852 35.4138 29.2969 32.1344L29.2985 32.1286C29.7811 30.5585 29.6367 28.9398 28.8923 27.57C28.1813 26.2617 26.9884 25.3135 25.5333 24.8999C25.4394 24.8733 25.3461 24.8491 25.2558 24.8282C24.802 24.7226 24.3438 24.6719 23.8888 24.6719Z" fill="#111111"/>
<path d="M24.9773 27.1619L24.311 27.0068L24.0459 27.8662C23.5649 27.8137 23.1485 27.8888 22.7976 28.0931C22.4404 28.3021 22.1953 28.6201 22.0638 29.0464C21.9345 29.4657 21.9673 29.8435 22.1635 30.1801C22.3587 30.5164 22.7352 30.8405 23.2933 31.1512C23.6901 31.386 23.9561 31.6076 24.0898 31.8133C24.2244 32.0204 24.2545 32.2441 24.1808 32.4831C24.0935 32.7661 23.917 32.9653 23.6515 33.0792C23.386 33.1932 23.0662 33.2055 22.6902 33.118C22.3074 33.0288 22.0402 32.8626 21.8913 32.6187C21.7424 32.3748 21.7238 32.0735 21.8354 31.7119L21.0412 31.527C20.8826 32.041 20.9077 32.4838 21.1167 32.8545C21.3211 33.2165 21.6748 33.4795 22.1726 33.6486L21.9413 34.3982L22.6076 34.5533L22.8371 33.8095L22.8455 33.8102C23.3853 33.8826 23.8421 33.8194 24.215 33.619C24.588 33.4185 24.8422 33.0989 24.9776 32.66C25.0627 32.3839 25.0786 32.1301 25.0266 31.8976C24.9746 31.6651 24.8496 31.4429 24.6528 31.2312C24.4549 31.0192 24.1578 30.7991 23.7611 30.5681C23.3645 30.3371 23.0944 30.1207 22.9532 29.9194C22.8108 29.7179 22.7814 29.4833 22.8634 29.2177C22.9518 28.9312 23.1113 28.7281 23.341 28.6108C23.57 28.4919 23.8563 28.4732 24.1968 28.5524C24.5225 28.6282 24.7485 28.7972 24.8738 29.0579C24.9988 29.3198 25.0047 29.6343 24.8913 30.0016L24.8832 30.0282L25.6728 30.212L25.6822 30.1857C25.8465 29.6532 25.8424 29.2017 25.6686 28.8319C25.4957 28.4636 25.1774 28.1926 24.7149 28.0206L24.7126 28.0201L24.9773 27.1619" fill="#069D6E"/>
<path d="M22.6077 34.6131C22.6032 34.6131 22.5987 34.6126 22.5941 34.6115L21.9279 34.4565C21.9117 34.4527 21.8979 34.4424 21.8896 34.428C21.8813 34.4137 21.8794 34.3965 21.8843 34.3806L22.0986 33.686C21.6142 33.5109 21.2666 33.2413 21.0648 32.8839C20.8483 32.5002 20.8212 32.0378 20.9842 31.5094C20.9934 31.4795 21.0242 31.4618 21.0548 31.4689L21.8491 31.6537C21.8652 31.6575 21.8791 31.6677 21.8874 31.6822C21.8956 31.6965 21.8975 31.7137 21.8926 31.7296C21.7856 32.0767 21.8018 32.3574 21.9425 32.5876C22.0817 32.8157 22.3379 32.9746 22.7039 33.0597C23.0659 33.144 23.3768 33.1321 23.628 33.0243C23.8788 32.9165 24.0409 32.7338 24.1238 32.4654C24.1927 32.2417 24.1653 32.039 24.0397 31.8458C23.9111 31.6478 23.6497 31.4314 23.263 31.2026C22.6997 30.8891 22.312 30.5549 22.1119 30.2101C21.9082 29.8606 21.8727 29.4631 22.0067 29.0288C22.1422 28.5898 22.3981 28.2577 22.7674 28.0415C23.1153 27.8388 23.5306 27.7584 24.0032 27.8017L24.2539 26.9891C24.2632 26.9592 24.294 26.9415 24.3246 26.9486L24.9908 27.1037C25.007 27.1074 25.0208 27.1177 25.0291 27.1321C25.0374 27.1464 25.0393 27.1636 25.0344 27.1795L24.7862 27.984C25.2349 28.1619 25.5498 28.4384 25.7227 28.8065C25.902 29.1879 25.9075 29.6578 25.7393 30.2033L25.729 30.232C25.7188 30.2606 25.6888 30.2768 25.6592 30.2701L24.8695 30.0863C24.8533 30.0825 24.8395 30.0723 24.8312 30.0578C24.8229 30.0435 24.8211 30.0262 24.826 30.0104L24.8342 29.9839C24.9424 29.6332 24.9375 29.3302 24.8198 29.0836C24.7032 28.841 24.489 28.6818 24.1832 28.6106C23.857 28.5346 23.5829 28.5525 23.3685 28.6638C23.1544 28.7731 23.0038 28.9654 22.9206 29.2353C22.8434 29.4856 22.87 29.6981 23.0019 29.8849C23.1375 30.0779 23.4029 30.2903 23.7912 30.5163C24.1982 30.7533 24.4943 30.9738 24.6964 31.1903C24.9002 31.4095 25.0309 31.643 25.0849 31.8844C25.1391 32.1269 25.1222 32.3937 25.0347 32.6775C24.8951 33.1298 24.6289 33.4643 24.2433 33.6715C23.871 33.8714 23.4124 33.9397 22.8795 33.8747L22.6647 34.5708C22.6568 34.5963 22.6333 34.6129 22.6077 34.6129L22.6077 34.6131ZM22.0174 34.3546L22.567 34.4825L22.78 33.7919C22.7883 33.7651 22.8149 33.747 22.8421 33.75L22.8505 33.7508C23.3788 33.8215 23.8275 33.7595 24.1867 33.5664C24.5437 33.3746 24.7905 33.0637 24.9205 32.6424C25.0018 32.3788 25.0179 32.1326 24.9683 31.9108C24.919 31.6903 24.798 31.4754 24.609 31.272C24.4177 31.0671 24.1222 30.8476 23.7311 30.6198C23.3278 30.385 23.0496 30.1609 22.9042 29.9539C22.7516 29.7379 22.7187 29.4843 22.8063 29.2002C22.8994 28.8983 23.0701 28.6822 23.3137 28.5577C23.5538 28.4332 23.8556 28.4119 24.2103 28.4944C24.553 28.5742 24.7943 28.7551 24.9276 29.0322C25.0547 29.2985 25.0652 29.6186 24.9588 29.9846L25.6331 30.1416C25.784 29.6382 25.778 29.2055 25.6144 28.8575C25.449 28.5053 25.1395 28.2427 24.6947 28.0771C24.6811 28.0723 24.6689 28.0628 24.6617 28.0503C24.6534 28.036 24.6504 28.0185 24.6553 28.0026L24.9011 27.2057L24.3516 27.0778L24.1029 27.8839C24.0944 27.9113 24.0672 27.9284 24.0393 27.9257C23.5726 27.8746 23.1649 27.9484 22.8276 28.1449C22.4851 28.3453 22.2472 28.6546 22.1208 29.0641C21.9971 29.4652 22.0288 29.8306 22.2152 30.1501C22.4043 30.4762 22.7768 30.7955 23.3224 31.0991C23.7265 31.3381 24.001 31.5672 24.1399 31.7808C24.2839 32.0025 24.3169 32.2448 24.2379 32.5008C24.1455 32.8004 23.9561 33.0135 23.6751 33.1343C23.4 33.2524 23.064 33.2665 22.6767 33.1762C22.2783 33.0835 21.997 32.9065 21.8404 32.65C21.6918 32.4066 21.6649 32.1059 21.7605 31.7558L21.0825 31.5981C20.9474 32.0713 20.9764 32.484 21.1688 32.8252C21.3632 33.1695 21.7074 33.4275 22.1917 33.5921C22.2224 33.6025 22.2392 33.6354 22.2296 33.6663L22.0173 34.3546H22.0174Z" fill="#111111"/>
<defs>
<linearGradient id="paint0_linear_999_29197" x1="22.2622" y1="46.0112" x2="49.8354" y2="20.6942" gradientUnits="userSpaceOnUse">
<stop stop-color="#111111"/>
<stop offset="0.478" stop-color="#3658C1"/>
</linearGradient>
</defs>
</svg>
