<svg width="57" height="56" viewBox="0 0 57 56" fill="none" xmlns="http://www.w3.org/2000/svg">
<path d="M47.6168 10.4065C47.4387 9.11839 46.6992 7.90619 45.431 7.06065C42.8201 5.32003 38.9413 5.78354 36.7849 8.09391C34.6285 10.4043 27.5033 18.0387 27.5033 18.0387C27.3162 18.2392 27.1514 18.4469 27.0026 18.6592L27.7258 23.8866C27.8745 23.6744 28.0393 23.4667 28.2264 23.2662L37.508 13.3213C39.6644 11.011 43.5433 10.5475 46.1542 12.2881C47.4223 13.1334 48.1616 14.3458 48.3399 15.6339L47.6168 10.4065Z" fill="#069D6E"/>
<path d="M27.7258 24.0864C27.7102 24.0864 27.6946 24.0846 27.6791 24.0808C27.5992 24.0614 27.5393 23.9953 27.5281 23.914L26.805 18.6866C26.798 18.6367 26.8102 18.5857 26.8393 18.5444C27.0045 18.3092 27.174 18.0993 27.3575 17.9026L36.6392 7.95773C38.8591 5.57867 42.8525 5.10158 45.5421 6.89451C46.814 7.74245 47.6212 8.97981 47.8148 10.3789L48.5379 15.6058V15.6066C48.5531 15.7158 48.4766 15.8167 48.3673 15.8316C48.2563 15.8468 48.1572 15.7701 48.1423 15.6611C47.9645 14.3768 47.2194 13.2379 46.0436 12.4541C43.5099 10.765 39.7467 11.2155 37.6542 13.4574L28.3726 23.4022C28.2011 23.5859 28.0431 23.7818 27.8894 24.0013C27.8514 24.0554 27.7899 24.0864 27.7258 24.0864ZM27.2114 18.7104L27.8578 23.3834C27.9299 23.2961 28.004 23.2119 28.0805 23.1298L37.3621 13.185C39.5822 10.8061 43.576 10.3288 46.2651 12.1217C46.9436 12.5743 47.49 13.1374 47.8815 13.7771L47.4191 10.4337C47.2412 9.14916 46.4961 8.01045 45.3205 7.22662C42.7868 5.53753 39.0234 5.98786 36.9311 8.22993L27.6495 18.1748C27.4953 18.3401 27.3514 18.5158 27.2114 18.7104Z" fill="#111111"/>
<path d="M49.762 2.42047C55.2645 6.08882 56.0427 13.0341 51.4985 17.9033L42.2168 27.8481C40.8025 29.3634 39.0364 30.5014 37.109 31.2403C34.7501 32.1437 32.15 32.4479 29.6547 32.1138C27.6383 31.843 25.6916 31.154 23.9983 30.0253C22.3052 28.8965 21.0617 27.4563 20.2794 25.8634C22.5013 24.0473 25.9438 23.7967 28.3281 25.3862C30.7137 26.9766 34.1562 26.7262 36.3781 24.9099C36.5878 24.7381 36.7869 24.5534 36.9742 24.3529L46.2558 14.4081C48.412 12.0977 48.0422 8.80159 45.4313 7.06078C42.8203 5.32016 38.9415 5.78367 36.7851 8.09404L27.5035 18.0389C27.3164 18.2394 27.1516 18.4471 27.0028 18.6593C24.5075 18.325 21.906 18.6284 19.5471 19.5318C19.9485 17.7757 20.8466 16.059 22.2609 14.5437L31.5425 4.59884C36.0867 -0.270131 44.261 -1.24708 49.762 2.42047Z" fill="#B6F1CF"/>
<path d="M31.6583 32.4467C30.9802 32.4467 30.3018 32.4018 29.6282 32.3117C27.5307 32.0299 25.5456 31.2966 23.8877 30.1915C22.2292 29.0859 20.9195 27.6197 20.1001 25.9516C20.0592 25.8683 20.0809 25.7676 20.153 25.7089C22.463 23.8211 26.0251 23.611 28.4389 25.2202C30.7136 26.7368 34.0722 26.5371 36.2517 24.7555C36.4596 24.5852 36.6537 24.4039 36.8283 24.2169L46.1099 14.2721C47.1174 13.1927 47.5867 11.8623 47.4309 10.5257C47.2769 9.20324 46.5275 8.03178 45.3206 7.22718C42.7868 5.53809 39.0236 5.98842 36.9313 8.23049L27.6497 18.1753C27.478 18.3592 27.32 18.5551 27.1664 18.7742C27.1235 18.8353 27.0506 18.8667 26.9763 18.8575C24.5002 18.5258 21.9554 18.8235 19.6184 19.7186C19.5493 19.7452 19.4719 19.731 19.4161 19.6829C19.3604 19.6345 19.3361 19.5595 19.3524 19.4876C19.7722 17.6509 20.7274 15.8943 22.1149 14.4075L31.3965 4.46268C36.0049 -0.474781 44.2932 -1.46571 49.8731 2.25436C52.5701 4.05249 54.2458 6.67839 54.5917 9.64838C54.9412 12.6487 53.8945 15.6287 51.6447 18.0395L42.363 27.9843C40.9789 29.4673 39.187 30.6578 37.1807 31.4268C35.417 32.1024 33.5388 32.4467 31.6585 32.4467H31.6583ZM20.5305 25.9186C21.3227 27.4643 22.5571 28.8243 24.1092 29.859C25.717 30.9308 27.6435 31.6419 29.6811 31.9157C32.1562 32.2472 34.6996 31.949 37.0376 31.0538C38.9875 30.3063 40.7279 29.1508 42.0707 27.7119L51.3523 17.7671C53.5209 15.4436 54.5304 12.5766 54.1947 9.69471C53.8626 6.84315 52.249 4.3189 49.6512 2.58687C44.2271 -1.02936 36.169 -0.0655891 31.6885 4.73528L22.4069 14.6801C21.1591 16.0169 20.2739 17.5776 19.8319 19.2142C22.0942 18.4118 24.5303 18.1472 26.9096 18.4461C27.052 18.2508 27.199 18.0723 27.3571 17.9029L36.6387 7.95809C38.8586 5.57903 42.8521 5.10193 45.5417 6.89487C46.8478 7.76558 47.6594 9.03849 47.8271 10.4793C47.9967 11.9342 47.4902 13.3778 46.4014 14.5443L37.1198 24.4891C36.9329 24.689 36.7258 24.8827 36.5041 25.0643C34.194 26.9525 30.6317 27.1622 28.2169 25.5522C25.9858 24.0648 22.711 24.2295 20.5301 25.9184L20.5305 25.9186Z" fill="#111111"/>
<path d="M55.0905 14.6974L54.3674 9.46997C54.765 12.3447 53.8358 15.3988 51.4983 17.9032L42.2166 27.8481C40.8023 29.3634 39.0362 30.5013 37.1088 31.2402C34.7499 32.1437 32.1498 32.4478 29.6545 32.1137C27.6381 31.8429 25.6914 31.154 23.9981 30.0252C22.305 28.8965 21.0615 27.4563 20.2792 25.8634L21.0024 31.0909C21.7846 32.6839 23.0282 34.1239 24.7212 35.2527C26.4143 36.3814 28.3612 37.0704 30.3776 37.3412C32.8729 37.6755 35.4731 37.3711 37.832 36.4677C39.7593 35.7288 41.5255 34.5909 42.9398 33.0755L52.2214 23.1307C54.5589 20.626 55.4881 17.5721 55.0905 14.6974Z" fill="#069D6E"/>
<path d="M32.3815 37.6741C31.7033 37.6741 31.0249 37.6294 30.3513 37.5391C28.2536 37.2573 26.2687 36.524 24.6108 35.4187C22.9523 34.3129 21.6426 32.8469 20.8232 31.1788C20.8138 31.1596 20.8077 31.1392 20.8047 31.1181L20.0815 25.8906C20.0682 25.7936 20.1273 25.7009 20.2207 25.6723C20.3156 25.6434 20.4154 25.6873 20.4584 25.7752C21.2468 27.3802 22.5091 28.7923 24.109 29.8589C25.7168 30.9307 27.6433 31.6419 29.6809 31.9157C32.1558 32.247 34.6996 31.949 37.0373 31.0538C38.9872 30.3063 40.7277 29.1508 42.0705 27.7119L51.3521 17.7671C53.577 15.3832 54.5773 12.4464 54.1695 9.49738C54.1543 9.38814 54.2306 9.28729 54.34 9.27211C54.4493 9.25614 54.5499 9.33342 54.5651 9.44266C54.5657 9.44585 54.5661 9.44885 54.5665 9.45205L55.2882 14.6701C55.713 17.7405 54.6757 20.7938 52.3674 23.2671L43.0858 33.2117C41.7016 34.6947 39.9097 35.8852 37.9035 36.6542C36.1397 37.3298 34.2617 37.6741 32.3815 37.6741ZM21.1959 31.0314C21.9849 32.6246 23.2418 34.0263 24.8323 35.0866C26.4399 36.1584 28.3666 36.8697 30.4042 37.1433C32.8795 37.4746 35.4229 37.1769 37.7607 36.2814C39.7106 35.5339 41.451 34.3782 42.7938 32.9393L52.0754 22.9947C54.3003 20.6109 55.3006 17.674 54.8928 14.725L54.5493 12.2435C54.2352 14.3294 53.2455 16.3242 51.6442 18.0397L42.3626 27.9845C40.9785 29.4675 39.1865 30.6579 37.1803 31.427C34.7799 32.3464 32.1682 32.652 29.628 32.3119C27.5305 32.0301 25.5454 31.2968 23.8875 30.1916C22.5457 29.2972 21.4321 28.1666 20.6219 26.8839L21.1957 31.0316L21.1959 31.0314Z" fill="#111111"/>
<path d="M20.2792 25.8632C20.0695 26.035 19.8678 26.2199 19.6817 26.4192L10.3991 36.3652C9.29036 37.5533 8.84981 39.0015 9.03853 40.3649L9.76166 45.5923C9.57294 44.229 10.0135 42.7805 11.1224 41.5925L20.405 31.6464C20.5912 31.4471 20.7929 31.2622 21.0026 31.0905L20.2794 25.863L20.2792 25.8632Z" fill="#069D6E"/>
<path d="M9.76146 45.7923C9.66321 45.7923 9.57773 45.72 9.56396 45.6199L8.84083 40.3925C8.63494 38.9041 9.13639 37.4257 10.2531 36.2291L19.5357 26.2831C19.7175 26.0883 19.925 25.8952 20.1526 25.7089C20.2085 25.663 20.2846 25.651 20.3521 25.6774C20.4194 25.7037 20.4672 25.7644 20.4769 25.8359L21.2001 31.0633C21.2097 31.1322 21.1827 31.2011 21.129 31.2453C20.9147 31.421 20.7202 31.6019 20.551 31.7831L11.2684 41.7291C10.2352 42.8361 9.77045 44.1984 9.95937 45.5652C9.97454 45.6744 9.89826 45.7753 9.78882 45.7905C9.77963 45.7917 9.77025 45.7923 9.76126 45.7923H9.76146ZM20.1319 26.2551C20.0236 26.3545 19.9218 26.455 19.8281 26.5556L10.5455 36.5017C9.51223 37.6086 9.04752 38.971 9.23644 40.3378L9.69816 43.6744C9.92242 42.879 10.3538 42.1239 10.9765 41.4567L20.2591 31.5107C20.4172 31.3413 20.5954 31.1728 20.7895 31.0084L20.1319 26.2551Z" fill="#111111"/>
<path d="M37.109 31.2402C36.7076 32.9964 35.8095 34.7131 34.3952 36.2284L25.1126 46.1744C20.5694 51.0422 12.3965 52.02 6.8941 48.3516C4.22247 46.5705 2.66438 44.0159 2.28894 41.3017L3.01207 46.5291C3.38751 49.2433 4.94559 51.7979 7.61722 53.579C13.1196 57.2474 21.2925 56.2696 25.8358 51.4019L35.1184 41.4559C36.5327 39.9405 37.4307 38.2239 37.8321 36.4677L37.109 31.2402Z" fill="#069D6E"/>
<path d="M15.2627 55.998C12.5153 55.998 9.7854 55.2645 7.50639 53.7451C4.87969 51.9941 3.21337 49.4411 2.81416 46.5564L2.09163 41.3333C2.09163 41.332 2.09123 41.3302 2.09103 41.329C2.07586 41.2197 2.15214 41.1189 2.26158 41.1037C2.37122 41.0885 2.47147 41.165 2.48665 41.2742C2.87008 44.0441 4.47469 46.4985 7.00493 48.1854C12.4287 51.8012 20.4863 50.8382 24.9664 46.0382L34.2491 36.0921C35.5885 34.6571 36.5101 32.9638 36.9143 31.1956C36.9357 31.1016 37.0195 31.0374 37.1178 31.0406C37.2141 31.0448 37.2937 31.1173 37.3067 31.2128L38.0298 36.4402C38.0332 36.4642 38.0322 36.4885 38.0266 36.5121C37.6069 38.349 36.6517 40.1056 35.2644 41.5922L25.9817 51.5382C23.256 54.4586 19.2418 55.9982 15.2627 55.9982V55.998ZM2.86449 44.0054L3.20977 46.5017C3.5932 49.2716 5.19782 51.7259 7.72806 53.4128C13.1518 57.029 21.2094 56.0657 25.6896 51.2656L34.9722 41.3196C36.3026 39.8941 37.2208 38.2138 37.6292 36.4584L37.0425 32.2169C36.5454 33.7129 35.6919 35.1316 34.5414 36.3645L25.2588 46.3106C20.6509 51.2476 12.3634 52.2373 6.78346 48.5177C5.0055 47.3322 3.66729 45.7795 2.86469 44.0052L2.86449 44.0054Z" fill="#111111"/>
<path d="M32.6577 20.7469C34.3507 21.8757 35.5957 23.3167 36.3781 24.9097C34.1562 26.7258 30.7137 26.9765 28.3281 25.386C25.9438 23.7964 22.5013 24.047 20.2794 25.8633C20.0698 26.0351 19.8681 26.22 19.6819 26.4193L10.3993 36.3653C8.24313 38.6757 8.61417 41.9706 11.2251 43.7114C13.836 45.452 17.7139 44.9897 19.8701 42.6793L29.1527 32.7333C29.3388 32.534 29.5059 32.3259 29.6547 32.1136C32.15 32.4479 34.7501 32.1436 37.109 31.2401C36.7076 32.9963 35.8096 34.713 34.3953 36.2283L25.1127 46.1744C20.5694 51.0421 12.3966 52.0199 6.89413 48.3515C1.3931 44.684 0.613461 37.7379 5.15671 32.8699L14.4393 22.9239C15.8536 21.4085 17.6198 20.2706 19.5471 19.5317C21.906 18.6283 24.5076 18.3249 27.0029 18.6592C29.0181 18.9312 30.9646 19.618 32.6579 20.7467L32.6577 20.7469Z" fill="white"/>
<path d="M14.5395 50.7706C11.7922 50.7706 9.06228 50.0371 6.78326 48.5177C4.08647 46.7198 2.41056 44.0937 2.06467 41.1231C1.71539 38.123 2.76144 35.1434 5.0105 32.7338L14.2931 22.7877C15.6775 21.3047 17.4692 20.1143 19.4752 19.3453C21.8744 18.4264 24.4862 18.1211 27.029 18.4612C29.1297 18.7447 31.1141 19.4777 32.7683 20.5806C34.4278 21.687 35.7378 23.1534 36.557 24.8215C36.598 24.9048 36.5762 25.0054 36.5041 25.0642C34.1947 26.9519 30.632 27.162 28.217 25.5518C25.9434 24.0361 22.585 24.2358 20.4054 26.0175C20.1917 26.1925 19.9972 26.3736 19.8277 26.5551L10.5451 36.5012C9.53797 37.5802 9.06887 38.9102 9.22444 40.246C9.37841 41.5684 10.1281 42.7399 11.3355 43.5449C13.8689 45.234 17.6315 44.7845 19.7236 42.5428L29.0062 32.5968C29.1804 32.4102 29.3433 32.2091 29.4907 31.9987C29.5337 31.9375 29.6054 31.9056 29.6808 31.9154C32.1558 32.2469 34.6994 31.9489 37.0373 31.0535C37.1064 31.0271 37.1841 31.0409 37.2396 31.0892C37.2953 31.1375 37.3197 31.2126 37.3033 31.2845C36.8835 33.1214 35.9284 34.878 34.541 36.3646L25.2584 46.3106C22.5327 49.231 18.5184 50.7704 14.5395 50.7706ZM24.996 18.7256C23.1641 18.7256 21.3354 19.0607 19.6182 19.7185C17.6685 20.466 15.9281 21.6215 14.5853 23.0603L5.30266 33.0064C3.13489 35.3289 2.12598 38.195 2.46149 41.077C2.79359 43.9291 4.407 46.4536 7.00474 48.1854C12.4285 51.8012 20.4861 50.8385 24.9663 46.0382L34.2489 36.0922C35.4964 34.7556 36.3817 33.1949 36.8236 31.5581C34.561 32.3611 32.1254 32.6265 29.7471 32.327C29.6082 32.5169 29.4576 32.6988 29.2984 32.8694L20.0158 42.8154C17.7961 45.1934 13.803 45.6701 11.114 43.8772C9.80757 43.0063 8.99578 41.733 8.82783 40.2923C8.65848 38.8381 9.16473 37.395 10.2531 36.2288L19.5357 26.2827C19.7174 26.088 19.9249 25.8949 20.1526 25.7086C22.4624 23.8204 26.0245 23.6103 28.4387 25.2197C30.6704 26.7077 33.9455 26.5432 36.1267 24.8543C35.3346 23.3086 34.0999 21.9482 32.5468 20.9129C30.9428 19.8435 29.0162 19.1326 26.9759 18.8572C26.3192 18.7693 25.657 18.7256 24.996 18.7256Z" fill="#111111"/>
</svg>
