<svg width="320" height="310" viewBox="0 0 320 310" fill="none" xmlns="http://www.w3.org/2000/svg">
<g clip-path="url(#clip0_999_28804)">
<path d="M170.1 48.0968C172.333 47.6509 174.816 49.1936 175.646 51.5428L240.622 235.448C241.452 237.797 240.315 240.062 238.082 240.508L151.917 257.716C149.679 258.163 147.197 256.621 146.366 254.272L81.3899 70.3666C80.56 68.0175 81.6966 65.7519 83.935 65.305L170.1 48.0968ZM141.332 64.3415C143.014 64.0056 143.878 62.2839 143.252 60.5139C142.626 58.7439 140.741 57.5729 139.059 57.9087L117.355 62.2433C115.673 62.5792 114.809 64.3009 115.434 66.07C116.06 67.8391 117.946 69.0118 119.628 68.676L141.332 64.3415" fill="white"/>
<path d="M151.378 257.914C149.245 258.037 147.026 256.522 146.246 254.314L81.2693 70.4093C80.8361 69.1831 80.9146 67.9046 81.4849 66.9015C81.7397 66.4553 82.0887 66.07 82.5076 65.7726C82.9266 65.4751 83.4053 65.2727 83.9106 65.1793L170.075 47.9713C172.364 47.5141 174.917 49.0972 175.766 51.5002L240.743 235.406C241.176 236.632 241.097 237.911 240.527 238.915C240.273 239.36 239.925 239.745 239.507 240.042C239.089 240.339 238.611 240.541 238.107 240.634L151.942 257.842C151.756 257.879 151.567 257.903 151.378 257.914ZM170.1 48.0967L170.125 48.2223L83.96 65.4304C83.491 65.5169 83.0465 65.7047 82.6575 65.9806C82.2685 66.2565 81.9443 66.614 81.7076 67.028C81.1741 67.9666 81.1024 69.1679 81.5108 70.324L146.487 254.229C147.295 256.516 149.72 258.025 151.892 257.591L238.057 240.383C238.525 240.296 238.969 240.109 239.357 239.833C239.745 239.558 240.068 239.201 240.304 238.788C240.838 237.849 240.91 236.647 240.501 235.49L175.525 51.5854C174.716 49.2977 172.295 47.789 170.125 48.2223L170.1 48.0967ZM119.224 68.8561C117.599 68.9496 115.908 67.7948 115.314 66.1126C114.984 65.1797 115.046 64.2037 115.484 63.4345C115.677 63.0939 115.943 62.7996 116.261 62.5722C116.58 62.3448 116.945 62.1897 117.33 62.1177L139.035 57.7832C140.78 57.4347 142.727 58.6406 143.374 60.4717C143.703 61.4046 143.642 62.3809 143.204 63.15C143.011 63.4906 142.745 63.7849 142.426 64.0123C142.107 64.2398 141.743 64.3949 141.358 64.4669L119.653 68.8014C119.511 68.8296 119.368 68.8479 119.224 68.8561ZM139.482 57.9836C139.348 57.9912 139.215 58.0081 139.084 58.0343L117.38 62.3688C117.031 62.4338 116.7 62.5741 116.411 62.78C116.122 62.986 115.881 63.2525 115.705 63.5611C115.305 64.2656 115.25 65.1646 115.555 66.0274C116.161 67.7433 117.976 68.8746 119.602 68.5503L141.307 64.2158C141.656 64.1508 141.987 64.0105 142.276 63.8045C142.565 63.5986 142.806 63.332 142.982 63.0235C143.382 62.3189 143.437 61.4199 143.132 60.557C142.575 58.9802 140.995 57.8965 139.482 57.9836Z" fill="#111111"/>
<path d="M139.059 57.9088C140.741 57.5729 142.627 58.7454 143.253 60.5146C143.878 62.2839 143.014 64.0056 141.332 64.3415L119.628 68.676C117.946 69.0119 116.06 67.8394 115.435 66.0701C114.809 64.3008 115.674 62.5792 117.355 62.2434L139.059 57.9088Z" fill="#B6F1CF"/>
<path d="M119.224 68.8561C117.599 68.9496 115.908 67.7948 115.314 66.1127C114.985 65.1799 115.046 64.2038 115.484 63.4346C115.677 63.094 115.943 62.7997 116.261 62.5723C116.58 62.3448 116.945 62.1898 117.33 62.1178L139.035 57.7832C140.78 57.4344 142.727 58.6408 143.374 60.4718C143.703 61.4047 143.641 62.3809 143.204 63.15C143.011 63.4906 142.745 63.7849 142.426 64.0123C142.107 64.2398 141.743 64.3949 141.357 64.4669L119.653 68.8014C119.511 68.8296 119.368 68.8479 119.224 68.8561ZM139.482 57.9835C139.348 57.9911 139.216 58.0081 139.084 58.0342L117.38 62.3688C117.031 62.4338 116.7 62.5742 116.411 62.7801C116.122 62.986 115.881 63.2526 115.705 63.5612C115.305 64.2657 115.25 65.1647 115.555 66.0275C116.112 67.6044 117.691 68.6881 119.205 68.6011C119.338 68.5935 119.471 68.5765 119.602 68.5504L141.307 64.2158C141.656 64.1508 141.987 64.0105 142.276 63.8046C142.565 63.5987 142.806 63.3321 142.982 63.0236C143.382 62.3189 143.437 61.42 143.132 60.5571C142.575 58.9802 140.996 57.8964 139.482 57.9835Z" fill="#111111"/>
<path d="M239.233 243.766L153.062 260.975C149.126 261.761 144.741 259.036 143.276 254.889L78.2995 70.9838C77.2969 68.1457 77.9203 65.3765 79.6767 63.6583L74.2033 69.0125C72.4469 70.7307 71.8235 73.5 72.8263 76.3381L137.803 260.243C139.268 264.391 143.652 267.115 147.589 266.329L233.76 249.12C234.931 248.898 236.011 248.338 236.867 247.509L242.341 242.155C241.484 242.984 240.404 243.544 239.233 243.766Z" fill="url(#paint0_linear_999_28804)"/>
<path d="M146.634 266.579C142.917 266.793 139.045 264.144 137.682 260.286L72.7055 76.3805C71.7205 73.5926 72.2602 70.7342 74.1138 68.9209L79.5872 63.5667C79.5991 63.5544 79.6133 63.5447 79.629 63.5381C79.6447 63.5314 79.6616 63.528 79.6787 63.528C79.6958 63.5279 79.7127 63.5313 79.7284 63.5379C79.7441 63.5445 79.7584 63.5542 79.7703 63.5664C79.7823 63.5786 79.7916 63.5931 79.7979 63.609C79.8042 63.6248 79.8072 63.6418 79.8068 63.6589C79.8064 63.6759 79.8026 63.6927 79.7956 63.7083C79.7886 63.7239 79.7786 63.7379 79.7661 63.7495C77.9845 65.4927 77.4688 68.2481 78.4202 70.9408L143.397 254.846C144.723 258.599 148.483 261.177 152.089 260.97C152.408 260.952 152.724 260.912 153.037 260.849L239.208 243.64C240.354 243.421 241.411 242.873 242.251 242.063C242.275 242.04 242.308 242.027 242.342 242.027C242.376 242.027 242.408 242.041 242.432 242.065C242.456 242.09 242.469 242.122 242.469 242.156C242.468 242.19 242.454 242.223 242.43 242.246L236.957 247.601C236.082 248.445 234.979 249.017 233.785 249.245L147.614 266.455C147.291 266.519 146.963 266.561 146.634 266.579ZM78.5203 64.9685L74.2927 69.1041C72.5111 70.8473 71.9954 73.6025 72.9468 76.2954L137.923 260.2C139.366 264.284 143.691 266.977 147.564 266.204L233.735 248.994C234.881 248.775 235.938 248.228 236.778 247.418L241.014 243.274C240.461 243.562 239.87 243.77 239.258 243.891L153.087 261.1C149.094 261.897 144.639 259.13 143.155 254.931L78.179 71.0266C77.4202 68.879 77.5661 66.6898 78.5203 64.9685Z" fill="#111111"/>
<path d="M168.949 44.8394C172.891 44.0521 177.276 46.7766 178.741 50.9246L243.718 234.829C245.183 238.977 243.175 242.978 239.234 243.765L153.063 260.974C149.126 261.76 144.742 259.036 143.277 254.888L78.2995 70.9838C76.8341 66.8358 78.842 62.8349 82.7837 62.0482L168.949 44.8394ZM240.622 235.448L175.646 51.5428C174.815 49.1937 172.333 47.6509 170.1 48.0967L83.9351 65.3049C81.6967 65.7519 80.5598 68.0173 81.3899 70.3667L146.366 254.272C147.196 256.621 149.679 258.164 151.917 257.716L238.082 240.508C240.315 240.062 241.452 237.797 240.622 235.448Z" fill="#B6F1CF"/>
<path d="M152.108 261.225C148.39 261.439 144.519 258.79 143.155 254.931L78.179 71.0265C77.4233 68.8875 77.5596 66.6585 78.5531 64.911C78.9947 64.1368 79.5999 63.4683 80.3264 62.9521C81.0529 62.4359 81.8832 62.0844 82.7595 61.9221L168.924 44.714C172.92 43.9158 177.378 46.6828 178.862 50.882L243.838 234.787C244.594 236.926 244.458 239.155 243.464 240.902C243.023 241.676 242.417 242.345 241.691 242.861C240.965 243.377 240.134 243.729 239.258 243.891L153.087 261.1C152.764 261.165 152.437 261.206 152.108 261.225ZM168.974 44.9649L82.8093 62.173C81.9691 62.3284 81.173 62.6652 80.4763 63.1599C79.7796 63.6547 79.1992 64.2954 78.7756 65.0375C77.8188 66.7204 77.689 68.8723 78.4203 70.9413L143.397 254.846C144.723 258.599 148.483 261.177 152.089 260.97C152.408 260.952 152.724 260.912 153.037 260.849L239.208 243.64C240.048 243.485 240.844 243.148 241.541 242.653C242.238 242.159 242.818 241.518 243.242 240.776C244.199 239.093 244.328 236.941 243.597 234.872L178.621 50.9672C177.178 46.8834 172.851 44.1909 168.974 44.9649ZM151.378 257.914C149.245 258.037 147.026 256.522 146.246 254.314L81.2693 70.4093C80.8361 69.1833 80.9146 67.9047 81.4849 66.9017C81.7396 66.4554 82.0887 66.0701 82.5076 65.7727C82.9266 65.4752 83.4053 65.2727 83.9106 65.1794L170.075 47.9713C172.364 47.5143 174.917 49.0973 175.766 51.5002L240.743 235.406C241.176 236.632 241.097 237.911 240.527 238.915C240.273 239.36 239.925 239.745 239.507 240.042C239.089 240.339 238.611 240.541 238.107 240.634L151.942 257.842C151.756 257.879 151.568 257.903 151.378 257.914ZM170.656 48.1546C170.478 48.1648 170.3 48.1874 170.125 48.2223L83.9601 65.4304C83.4909 65.5168 83.0462 65.7045 82.657 65.9805C82.2678 66.2565 81.9435 66.614 81.7067 67.0282C81.1731 67.9667 81.1014 69.168 81.5098 70.3241L146.487 254.229C147.295 256.517 149.72 258.025 151.892 257.591L238.057 240.383C238.525 240.297 238.969 240.109 239.357 239.833C239.745 239.558 240.068 239.201 240.304 238.788C240.838 237.849 240.91 236.647 240.501 235.49L175.525 51.5855C174.782 49.4832 172.676 48.0384 170.656 48.1546Z" fill="#111111"/>
</g>
<g clip-path="url(#clip1_999_28804)">
<path d="M218.66 100.307L221.835 102.875L212.319 106.082L209.144 103.514L218.66 100.307Z" fill="#069D6E"/>
<path d="M212.319 106.202C212.292 106.202 212.265 106.192 212.243 106.175L209.069 103.607C209.052 103.594 209.039 103.576 209.031 103.556C209.024 103.536 209.022 103.514 209.026 103.493C209.029 103.471 209.039 103.452 209.053 103.435C209.067 103.419 209.085 103.407 209.106 103.4L218.622 100.193C218.661 100.18 218.704 100.188 218.736 100.214L221.911 102.781C221.928 102.795 221.94 102.813 221.948 102.833C221.956 102.853 221.957 102.875 221.954 102.896C221.95 102.917 221.94 102.937 221.926 102.953C221.912 102.969 221.894 102.982 221.873 102.989L212.358 106.195C212.345 106.199 212.332 106.202 212.319 106.202ZM209.39 103.558L212.343 105.947L221.589 102.831L218.636 100.442L209.39 103.558Z" fill="#111111"/>
<path d="M252.984 67.3334L256.159 69.9008C261.596 74.2985 264.106 81.1808 262.111 88.4959C258.971 100.009 245.859 108.235 232.826 106.867C228.551 106.419 224.815 104.993 221.835 102.875L218.66 100.307C221.641 102.426 225.377 103.851 229.652 104.3C242.685 105.667 255.796 97.4417 258.936 85.9284C260.931 78.6133 258.422 71.731 252.984 67.3334Z" fill="#069D6E"/>
<path d="M235.665 107.135C234.716 107.135 233.765 107.087 232.814 106.987C228.668 106.552 224.848 105.164 221.765 102.973L218.584 100.401C218.56 100.381 218.545 100.353 218.541 100.322C218.537 100.291 218.546 100.26 218.565 100.235C218.584 100.21 218.611 100.193 218.642 100.189C218.673 100.184 218.705 100.191 218.73 100.209C221.779 102.377 225.56 103.75 229.664 104.18C230.604 104.279 231.548 104.328 232.493 104.328C244.473 104.328 255.927 96.5046 258.82 85.897C260.735 78.8742 258.525 71.9695 252.908 67.4269C252.896 67.417 252.885 67.4048 252.878 67.3909C252.87 67.377 252.865 67.3617 252.863 67.3459C252.861 67.3301 252.863 67.3141 252.867 67.2988C252.872 67.2835 252.879 67.2693 252.889 67.257C252.899 67.2446 252.912 67.2344 252.926 67.2269C252.94 67.2193 252.955 67.2146 252.971 67.2131C252.987 67.2115 253.003 67.2132 253.018 67.2178C253.033 67.2225 253.048 67.2301 253.06 67.2403L256.235 69.8078C261.928 74.4122 264.168 81.4103 262.227 88.5278C259.306 99.2364 247.749 107.135 235.665 107.136L235.665 107.135ZM220.37 101.535L221.911 102.781C224.954 104.944 228.735 106.317 232.839 106.748C233.778 106.846 234.723 106.895 235.668 106.895C247.648 106.896 259.101 99.0722 261.995 88.4645C263.91 81.4417 261.7 74.537 256.083 69.9944L255.275 69.3413C259.305 73.8357 260.717 79.854 259.052 85.9602C256.132 96.6687 244.574 104.567 232.49 104.568C231.541 104.568 230.59 104.519 229.639 104.419C226.259 104.065 223.094 103.076 220.37 101.536L220.37 101.535Z" fill="#111111"/>
<path d="M241.023 62.6047C254.056 63.9719 262.076 74.4141 258.936 85.9284C255.796 97.4416 242.685 105.667 229.652 104.3C225.377 103.851 221.641 102.426 218.66 100.307L209.144 103.514L214.257 95.936C211.298 91.787 210.232 86.5058 211.739 80.9772C214.88 69.463 227.991 61.2375 241.023 62.6047Z" fill="white"/>
<path d="M232.49 104.568C231.541 104.568 230.591 104.519 229.639 104.419C225.516 103.987 221.715 102.611 218.641 100.441L209.183 103.628C209.159 103.636 209.133 103.636 209.109 103.629C209.085 103.622 209.064 103.607 209.049 103.587C209.034 103.567 209.025 103.543 209.024 103.518C209.024 103.492 209.031 103.468 209.045 103.447L214.111 95.9378C211.051 91.6047 210.167 86.2843 211.623 80.9458C214.773 69.3957 227.969 61.115 241.036 62.4852C247.69 63.1832 253.401 66.3479 256.706 71.1675C259.65 75.4607 260.483 80.714 259.052 85.96C256.132 96.6684 244.574 104.568 232.49 104.568V104.568ZM218.66 100.187C218.685 100.187 218.709 100.195 218.73 100.209C221.779 102.377 225.56 103.75 229.664 104.18C242.62 105.54 255.7 97.3376 258.82 85.8969C260.232 80.7201 259.41 75.5374 256.507 71.3033C253.243 66.5418 247.594 63.4149 241.011 62.7243C228.054 61.365 214.976 69.5677 211.856 81.009C210.412 86.3045 211.299 91.5809 214.355 95.8665C214.369 95.8864 214.377 95.9102 214.377 95.9346C214.378 95.9591 214.371 95.983 214.357 96.0033L209.443 103.286L218.622 100.193C218.634 100.189 218.647 100.187 218.66 100.187V100.187Z" fill="#111111"/>
<path d="M247.944 74.955C248.479 75.011 248.957 75.2756 249.265 75.7416C249.915 76.7232 249.559 78.2283 248.472 79.1009L232.224 92.1652C231.656 92.6218 230.996 92.8174 230.402 92.7552C229.915 92.7041 229.473 92.4782 229.164 92.0818L223.318 84.5824C222.6 83.6604 222.861 82.154 223.903 81.2173C224.494 80.6847 225.211 80.4512 225.852 80.5184C226.338 80.5694 226.779 80.7935 227.09 81.1914L231.716 87.1283L246.123 75.5456C246.694 75.0866 247.353 74.893 247.944 74.955Z" fill="#B6F1CF"/>
<path d="M230.617 92.8864C230.541 92.8864 230.465 92.8826 230.39 92.8746C229.856 92.8185 229.386 92.5632 229.068 92.1556L223.223 84.6562C222.468 83.6869 222.737 82.1042 223.822 81.128C224.419 80.5911 225.162 80.3253 225.864 80.3989C226.398 80.4549 226.867 80.7101 227.185 81.1176L231.736 86.9579L246.047 75.4519C246.618 74.9927 247.314 74.768 247.957 74.8353C248.548 74.8973 249.049 75.1957 249.366 75.6752C250.048 76.7062 249.681 78.2849 248.548 79.1944L232.299 92.2586C231.795 92.6639 231.193 92.8863 230.617 92.8863L230.617 92.8864ZM225.632 80.6273C225.061 80.6273 224.47 80.8685 223.983 81.3066C222.99 82.2003 222.734 83.6368 223.413 84.5086L229.259 92.0079C229.536 92.3635 229.947 92.5864 230.415 92.6356C230.995 92.6968 231.627 92.4909 232.148 92.0715L248.397 79.0072C249.436 78.1733 249.78 76.7381 249.165 75.8077C248.888 75.3893 248.45 75.1288 247.932 75.0743C247.353 75.0134 246.72 75.2194 246.198 75.639L231.792 87.2218C231.78 87.2318 231.765 87.2393 231.75 87.2437C231.735 87.2481 231.719 87.2494 231.703 87.2476C231.687 87.2458 231.672 87.2408 231.658 87.2329C231.644 87.2251 231.631 87.2146 231.622 87.202L226.995 81.2651C226.714 80.9046 226.314 80.6877 225.839 80.6379C225.77 80.6307 225.701 80.6271 225.632 80.6272L225.632 80.6273Z" fill="#111111"/>
</g>
<g clip-path="url(#clip2_999_28804)">
<path d="M98.1657 86.2724C97.4609 86.4141 96.6418 86.1795 96.0066 85.5812C95.0252 84.6635 94.8528 83.2383 95.611 82.403C95.8755 82.1102 96.2191 81.9273 96.5953 81.8517C97.3012 81.7097 98.1227 81.9452 98.7576 82.5408C99.7389 83.4585 99.9114 84.8837 99.1532 85.719C98.8877 86.0126 98.5431 86.1965 98.1657 86.2724ZM95.5588 77.709L95.7341 79.1083C95.6892 79.1156 95.6446 79.1239 95.6002 79.1329C95.0829 79.2369 94.6005 79.4349 94.1654 79.7246L93.0605 78.6937L91.7729 80.1178L92.8721 81.1499C92.6027 81.649 92.4433 82.2072 92.3932 82.7872L91.0077 82.7276L91.2678 84.8366L92.6533 84.8962C92.8583 85.5064 93.1587 86.0804 93.5431 86.5968L92.6882 87.5453L94.3474 89.0973L95.204 88.1545C95.7546 88.5138 96.3463 88.7708 96.9414 88.9203L97.1166 90.3196L99.1997 90.4142L99.0303 89.0139C99.0746 89.0064 99.1188 88.9982 99.1629 88.9893C99.6754 88.8873 100.163 88.6863 100.599 88.3977L101.698 89.4294L102.993 88.0098L101.892 86.972C102.161 86.4733 102.321 85.915 102.371 85.3347L103.756 85.3947L103.498 83.2914L102.111 83.2258C101.92 82.6378 101.619 82.0593 101.221 81.5256L102.078 80.5824L100.417 79.0248L99.5601 79.9675C99.0096 79.6086 98.418 79.3516 97.8228 79.2017L97.6475 77.8024L95.559 77.7089" fill="#B6F1CF"/>
<path d="M99.1998 90.5421H99.1941L97.111 90.4475C97.0809 90.4461 97.0522 90.4341 97.0301 90.4137C97.0079 90.3932 96.9937 90.3656 96.9899 90.3357L96.8255 89.0223C96.2679 88.873 95.7309 88.6372 95.2263 88.3206L94.4421 89.1835C94.4307 89.196 94.4169 89.2061 94.4016 89.2133C94.3862 89.2204 94.3696 89.2245 94.3527 89.2251C94.3357 89.2262 94.3187 89.2237 94.3027 89.2178C94.2868 89.2119 94.2723 89.2027 94.2601 89.1908L92.6009 87.6387C92.5764 87.6159 92.5619 87.5843 92.5604 87.5509C92.559 87.5174 92.5708 87.4847 92.5932 87.4598L93.3786 86.5886C93.0334 86.107 92.7581 85.579 92.5607 85.0204L91.2624 84.9645C91.2322 84.9632 91.2034 84.9512 91.1812 84.9307C91.159 84.9102 91.1447 84.8825 91.141 84.8525L90.881 82.7433C90.8788 82.7249 90.8806 82.7062 90.8863 82.6885C90.8919 82.6708 90.9014 82.6546 90.914 82.6409C90.9396 82.6135 90.9757 82.5992 91.0134 82.6001L92.2781 82.6544C92.3376 82.1247 92.4839 81.6287 92.714 81.1767L91.6856 80.2109C91.6612 80.188 91.6468 80.1565 91.6454 80.123C91.644 80.0896 91.6559 80.057 91.6783 80.0322L92.9659 78.608C92.9889 78.5827 93.0211 78.5677 93.0552 78.5661C93.0722 78.5651 93.0892 78.5676 93.1052 78.5735C93.1211 78.5794 93.1357 78.5886 93.1479 78.6004L94.1799 79.5633C94.607 79.2943 95.08 79.106 95.5752 79.0077L95.5923 79.0044L95.4322 77.7249C95.4299 77.7065 95.4316 77.6877 95.4373 77.67C95.443 77.6523 95.4524 77.636 95.465 77.6223C95.4774 77.6084 95.4929 77.5974 95.5101 77.5904C95.5274 77.5833 95.5461 77.5802 95.5647 77.5814L97.6532 77.675C97.6833 77.6763 97.712 77.6883 97.7341 77.7087C97.7563 77.7292 97.7705 77.7569 97.7742 77.7868L97.9387 79.1001C98.4962 79.2498 99.0333 79.4855 99.5379 79.8019L100.322 78.9389C100.345 78.9136 100.377 78.8986 100.411 78.8972C100.428 78.8962 100.445 78.8988 100.461 78.9047C100.477 78.9107 100.492 78.9199 100.504 78.9317L102.165 80.4894C102.19 80.5123 102.204 80.5439 102.206 80.5774C102.207 80.6109 102.195 80.6436 102.172 80.6684L101.386 81.5342C101.742 82.0282 102.017 82.5549 102.204 83.1022L103.504 83.1637C103.534 83.1651 103.563 83.1772 103.585 83.1977C103.607 83.2182 103.621 83.2458 103.625 83.2758L103.883 85.379C103.885 85.3975 103.884 85.4161 103.878 85.4338C103.872 85.4514 103.863 85.4676 103.85 85.4812C103.837 85.4948 103.822 85.5056 103.805 85.5126C103.788 85.5197 103.769 85.523 103.751 85.5223L102.486 85.4676C102.427 85.9975 102.28 86.4937 102.05 86.9455L103.081 87.9169C103.105 87.9399 103.119 87.9716 103.121 88.005C103.122 88.0385 103.11 88.0712 103.087 88.0959L101.792 89.5153C101.781 89.5278 101.767 89.5379 101.752 89.5451C101.736 89.5522 101.72 89.5562 101.703 89.5569C101.686 89.5578 101.669 89.5551 101.653 89.5492C101.637 89.5432 101.622 89.534 101.61 89.5222L100.584 88.559C100.157 88.8277 99.6834 89.016 99.1881 89.1143L99.1717 89.1175L99.3266 90.3984C99.3288 90.4164 99.3271 90.4346 99.3217 90.4518C99.3163 90.4691 99.3074 90.485 99.2954 90.4985C99.2834 90.5121 99.2686 90.5229 99.2521 90.5303C99.2357 90.5377 99.2178 90.5415 99.1997 90.5415L99.1998 90.5421ZM97.2302 90.1969L99.0548 90.2797L98.9036 89.0294C98.8996 88.9968 98.9084 88.9639 98.928 88.9376C98.9477 88.9113 98.9767 88.8935 99.0091 88.888C99.0519 88.8808 99.095 88.8728 99.1377 88.8642C99.641 88.7628 100.109 88.5701 100.528 88.2914C100.552 88.2754 100.581 88.2681 100.609 88.2705C100.638 88.2729 100.665 88.285 100.686 88.3047L101.691 89.2476L102.814 88.0168L101.804 87.0652C101.784 87.0459 101.77 87.0204 101.766 86.9926C101.761 86.9648 101.766 86.9363 101.779 86.9115C102.038 86.4336 102.194 85.8995 102.243 85.324C102.249 85.2559 102.305 85.2027 102.376 85.2073L103.611 85.2607L103.385 83.4141L102.105 83.3536C102.079 83.3523 102.054 83.3432 102.033 83.3275C102.012 83.3117 101.997 83.2901 101.989 83.2654C101.8 82.6827 101.507 82.1233 101.118 81.6021C101.101 81.5783 101.092 81.5491 101.093 81.5195C101.095 81.4899 101.106 81.4617 101.126 81.4398L101.899 80.5898L100.424 79.2069L99.6543 80.0536C99.6339 80.0761 99.6061 80.0906 99.576 80.0945C99.5458 80.0984 99.5153 80.0913 99.4898 80.0747C98.9572 79.7275 98.3857 79.4757 97.7911 79.3259C97.7661 79.3196 97.7436 79.3059 97.7265 79.2866C97.7095 79.2674 97.6987 79.2434 97.6955 79.2178L97.5335 77.9254L95.7042 77.8434L95.8605 79.0925C95.8646 79.1252 95.8558 79.1583 95.836 79.1848C95.8162 79.2112 95.787 79.229 95.7544 79.2343C95.7109 79.2416 95.6679 79.2495 95.6249 79.2582C95.122 79.3594 94.6547 79.5521 94.236 79.8309C94.212 79.8469 94.1834 79.8544 94.1547 79.852C94.126 79.8497 94.0989 79.8377 94.0779 79.818L93.0679 78.8756L91.9515 80.1102L92.9591 81.0566C92.9797 81.0759 92.9933 81.1014 92.9978 81.1292C93.0023 81.157 92.9975 81.1855 92.984 81.2103C92.7257 81.6887 92.5697 82.2228 92.5201 82.798C92.5177 82.831 92.5024 82.8617 92.4776 82.8835C92.4527 82.9053 92.4203 82.9165 92.3873 82.9147L91.1526 82.8616L91.3809 84.7134L92.6583 84.7684C92.6841 84.7695 92.709 84.7784 92.7296 84.794C92.7503 84.8095 92.7657 84.831 92.7739 84.8555C92.9753 85.4526 93.2692 86.0144 93.645 86.5203C93.6626 86.544 93.6715 86.573 93.6702 86.6026C93.6688 86.6321 93.6572 86.6602 93.6374 86.6822L92.8665 87.5375L94.3394 88.9151L95.1088 88.0683C95.1293 88.0459 95.1571 88.0315 95.1872 88.0276C95.2173 88.0238 95.2478 88.0307 95.2733 88.0472C95.8059 88.3948 96.3775 88.6467 96.9719 88.796C97.023 88.809 97.061 88.8519 97.0677 88.9042L97.2296 90.1967L97.2302 90.1969ZM97.7507 86.4412C97.105 86.4412 96.445 86.1699 95.9189 85.6743C94.8902 84.7124 94.7095 83.2062 95.5163 82.3174C95.7899 82.0146 96.1543 81.8101 96.5701 81.7265C97.3469 81.5703 98.1971 81.8399 98.845 82.4477C99.8738 83.4099 100.055 84.916 99.2479 85.8049C98.973 86.1091 98.6074 86.314 98.1909 86.3978C98.0462 86.427 97.8987 86.4413 97.7507 86.4413V86.4412ZM97.0123 81.9385C96.8803 81.9385 96.7491 81.9512 96.6204 81.9771C96.2589 82.0497 95.9425 82.2268 95.7058 82.4889C94.9921 83.2753 95.1663 84.6207 96.0939 85.4882C96.6806 86.0407 97.4457 86.2873 98.1405 86.1473C98.5029 86.0744 98.8203 85.8967 99.0585 85.6335C99.772 84.8472 99.5978 83.5018 98.6703 82.6343C98.1913 82.1848 97.5937 81.9387 97.0123 81.9387V81.9385Z" fill="#111111"/>
<path d="M173.986 63.2519L165.929 64.8723C165.357 64.9874 165.067 65.5653 165.281 66.1677C165.495 66.7701 166.129 67.1624 166.701 67.0472L174.759 65.4268C175.331 65.3116 175.62 64.7335 175.407 64.1314C175.193 63.529 174.559 63.1367 173.986 63.2519Z" fill="#B6F1CF"/>
<path d="M166.502 67.1945C165.938 67.1945 165.367 66.7903 165.161 66.2105C165.04 65.8702 165.062 65.5142 165.221 65.2337C165.365 64.9795 165.607 64.8065 165.904 64.7469L173.961 63.1266C174.591 63.0007 175.294 63.4313 175.527 64.0887C175.648 64.4289 175.626 64.7849 175.467 65.0654C175.323 65.3196 175.08 65.4925 174.784 65.5521L166.727 67.1725C166.653 67.1873 166.577 67.1947 166.502 67.1946L166.502 67.1945ZM174.19 63.3595C174.13 63.3595 174.07 63.3653 174.012 63.3772L165.954 64.9976C165.732 65.0424 165.55 65.171 165.443 65.3598C165.321 65.5756 165.306 65.8545 165.402 66.1249C165.594 66.667 166.166 67.0248 166.676 66.9218L174.733 65.3014C174.956 65.2566 175.138 65.1282 175.245 64.9393C175.367 64.7235 175.382 64.4445 175.286 64.1741C175.116 63.6946 174.649 63.3595 174.19 63.3595Z" fill="#111111"/>
<path d="M175.39 67.2045L167.332 68.8249C166.76 68.9401 166.473 69.524 166.686 70.1261C166.898 70.7225 167.534 71.121 168.107 71.0059L176.164 69.3855C176.737 69.2703 177.024 68.6862 176.812 68.0898C176.598 67.4877 175.963 67.0893 175.39 67.2045Z" fill="#B6F1CF"/>
<path d="M167.908 71.1532C167.343 71.1532 166.772 70.7489 166.566 70.1689C166.444 69.8265 166.467 69.4682 166.627 69.1856C166.771 68.9315 167.013 68.759 167.307 68.6997L175.364 67.0792C175.995 66.9523 176.698 67.3866 176.932 68.0468C177.053 68.386 177.03 68.742 176.871 69.0237C176.726 69.2784 176.484 69.4514 176.189 69.5108L168.132 71.1312C168.058 71.146 167.983 71.1534 167.907 71.1533L167.908 71.1532ZM175.415 67.3297L167.358 68.9503C167.137 68.9947 166.956 69.123 166.849 69.3116C166.726 69.5296 166.71 69.811 166.807 70.0833C166.999 70.6256 167.571 70.9829 168.082 70.8805L176.139 69.2601C176.36 69.2155 176.541 69.087 176.648 68.8977C176.771 68.6806 176.787 68.4016 176.691 68.1325C176.498 67.5871 175.925 67.2267 175.415 67.3297H175.415Z" fill="#111111"/>
<path d="M176.795 71.163L168.738 72.7834C168.165 72.8985 167.876 73.4767 168.09 74.0788C168.304 74.6812 168.938 75.0737 169.51 74.9586L177.567 73.3382C178.14 73.2229 178.429 72.6449 178.215 72.0425C178.002 71.4404 177.368 71.0479 176.795 71.163" fill="#B6F1CF"/>
<path d="M169.311 75.106C168.746 75.106 168.175 74.7016 167.969 74.1215C167.848 73.7813 167.87 73.4253 168.029 73.1448C168.173 72.8905 168.416 72.7177 168.713 72.658L176.77 71.0375C177.4 70.9112 178.102 71.3423 178.336 71.9994C178.456 72.3401 178.435 72.6962 178.276 72.9765C178.131 73.2307 177.889 73.4036 177.592 73.4633L169.535 75.0838C169.461 75.0985 169.386 75.1059 169.311 75.1059L169.311 75.106ZM176.82 71.2882L168.763 72.9087C168.54 72.9535 168.359 73.0821 168.252 73.2709C168.129 73.4868 168.114 73.7657 168.21 74.036C168.403 74.5783 168.975 74.9362 169.485 74.8333L177.542 73.2128C177.765 73.168 177.946 73.0395 178.053 72.8507C178.176 72.6349 178.191 72.3558 178.095 72.085C177.902 71.5432 177.33 71.1857 176.82 71.2882ZM191.781 243.968C190.03 243.968 188.233 243.438 186.584 242.417C184.413 241.073 182.758 239.039 181.924 236.69C181.087 234.331 181.174 231.937 182.169 229.947C183.167 227.953 184.956 226.606 187.207 226.153C189.452 225.702 191.883 226.195 194.051 227.543C196.222 228.887 197.878 230.923 198.713 233.276C199.549 235.631 199.462 238.023 198.467 240.013C197.475 242.005 195.688 243.352 193.435 243.805C192.891 243.914 192.337 243.969 191.781 243.968ZM188.861 226.246C188.322 226.245 187.785 226.298 187.257 226.404C185.085 226.841 183.359 228.14 182.398 230.062C181.434 231.989 181.351 234.312 182.165 236.604C182.979 238.899 184.597 240.886 186.719 242.2C188.838 243.512 191.205 243.993 193.385 243.555C195.559 243.118 197.282 241.819 198.238 239.898V239.898C199.202 237.972 199.285 235.65 198.472 233.362C197.656 231.063 196.038 229.074 193.916 227.76C192.313 226.763 190.564 226.246 188.861 226.246L188.861 226.246Z" fill="#111111"/>
<path d="M188.055 228.597C184.702 229.272 182.998 232.678 184.25 236.203C185.501 239.729 189.233 242.036 192.587 241.362C195.939 240.687 197.645 237.287 196.394 233.761C195.142 230.235 191.408 227.923 188.055 228.597Z" fill="#B6F1CF"/>
<path d="M191.405 241.606C188.348 241.606 185.25 239.403 184.129 236.246C183.482 234.423 183.596 232.521 184.442 231.029C185.199 229.693 186.473 228.785 188.03 228.472C191.438 227.787 195.244 230.14 196.514 233.718C197.161 235.54 197.047 237.439 196.202 238.93C195.445 240.266 194.17 241.174 192.612 241.487C192.213 241.567 191.809 241.606 191.405 241.606ZM188.08 228.723C186.597 229.021 185.384 229.885 184.664 231.155C183.855 232.583 183.748 234.407 184.37 236.161C185.455 239.217 188.45 241.351 191.4 241.351C191.79 241.351 192.178 241.314 192.561 241.236C194.046 240.938 195.26 240.074 195.98 238.804C196.788 237.378 196.895 235.555 196.273 233.804C195.044 230.341 191.368 228.062 188.08 228.723L188.08 228.723Z" fill="#111111"/>
<path d="M208.542 200.505C207.853 198.563 205.798 197.291 203.953 197.663L153.769 207.755C151.923 208.126 150.985 210 151.675 211.941C152.364 213.883 154.418 215.155 156.264 214.783L206.448 204.691C208.294 204.32 209.231 202.446 208.542 200.505Z" fill="white"/>
<path d="M155.615 214.975C153.909 214.975 152.18 213.746 151.554 211.984C151.192 210.965 151.256 209.9 151.73 209.065C152.155 208.315 152.87 207.806 153.744 207.63L203.927 197.537C205.83 197.155 207.954 198.467 208.662 200.462C209.024 201.482 208.96 202.546 208.486 203.381C208.062 204.131 207.346 204.64 206.473 204.816L156.289 214.909C156.067 214.953 155.841 214.975 155.615 214.975L155.615 214.975ZM204.606 197.726C204.395 197.726 204.185 197.746 203.978 197.788L153.794 207.88C152.994 208.041 152.34 208.507 151.952 209.191C151.515 209.962 151.458 210.949 151.795 211.899C152.462 213.779 154.456 215.017 156.239 214.658L206.422 204.565C207.222 204.405 207.876 203.939 208.264 203.255C208.701 202.484 208.758 201.497 208.421 200.548C207.831 198.886 206.206 197.726 204.606 197.726Z" fill="#111111"/>
<path d="M187.132 201.045L153.769 207.755C151.923 208.126 150.985 210 151.675 211.941C152.364 213.883 154.418 215.155 156.264 214.783L189.627 208.074C191.473 207.702 192.411 205.829 191.722 203.887C191.032 201.946 188.978 200.674 187.132 201.045Z" fill="#069D6E"/>
<path d="M155.615 214.975C153.909 214.975 152.18 213.746 151.554 211.984C151.192 210.965 151.256 209.9 151.73 209.065C152.155 208.315 152.87 207.806 153.744 207.63L187.107 200.92C189.009 200.538 191.134 201.849 191.842 203.845C192.204 204.864 192.14 205.928 191.666 206.764C191.241 207.514 190.526 208.023 189.652 208.199L156.289 214.909C156.067 214.953 155.841 214.975 155.615 214.975ZM187.157 201.171L153.794 207.88C152.994 208.041 152.34 208.507 151.952 209.191C151.515 209.962 151.458 210.949 151.795 211.899C152.463 213.779 154.457 215.018 156.239 214.658L189.602 207.948C190.402 207.787 191.056 207.322 191.444 206.638C191.881 205.867 191.938 204.88 191.601 203.93C190.934 202.05 188.94 200.811 187.157 201.171ZM136.613 191.344C136.534 191.344 136.457 191.319 136.392 191.273C136.328 191.228 136.279 191.163 136.252 191.089L132.105 179.408C132.071 179.312 132.077 179.207 132.12 179.115C132.164 179.023 132.242 178.952 132.338 178.918C132.434 178.884 132.539 178.89 132.631 178.933C132.723 178.977 132.794 179.055 132.828 179.151L136.864 190.519L147.641 188.351C147.741 188.331 147.845 188.352 147.929 188.408C148.014 188.464 148.073 188.552 148.093 188.652C148.113 188.751 148.093 188.855 148.036 188.94C147.98 189.024 147.892 189.083 147.793 189.103L136.689 191.336C136.664 191.341 136.639 191.344 136.613 191.344L136.613 191.344ZM196.588 179.282C196.492 179.282 196.401 179.247 196.33 179.183C196.259 179.119 196.215 179.031 196.206 178.937C196.196 178.842 196.223 178.747 196.279 178.671C196.336 178.594 196.419 178.542 196.512 178.523L207.187 176.376L203.188 165.112C203.171 165.065 203.164 165.014 203.166 164.964C203.169 164.914 203.181 164.865 203.203 164.819C203.225 164.774 203.255 164.733 203.292 164.699C203.33 164.665 203.373 164.639 203.421 164.623C203.468 164.606 203.519 164.598 203.569 164.601C203.619 164.604 203.669 164.616 203.714 164.638C203.76 164.659 203.8 164.69 203.834 164.727C203.868 164.765 203.894 164.808 203.911 164.856L208.058 176.537C208.076 176.588 208.083 176.643 208.078 176.698C208.074 176.753 208.057 176.806 208.03 176.854C208.003 176.902 207.966 176.943 207.921 176.975C207.877 177.007 207.826 177.03 207.772 177.041L196.664 179.275C196.638 179.28 196.613 179.282 196.588 179.282ZM185.304 113.976C185.225 113.976 185.148 113.952 185.083 113.906C185.018 113.86 184.969 113.796 184.943 113.721L180.909 102.358L170.126 104.527C170.026 104.547 169.923 104.527 169.838 104.47C169.753 104.414 169.695 104.326 169.675 104.227C169.654 104.127 169.675 104.023 169.731 103.939C169.787 103.854 169.875 103.795 169.975 103.775L181.083 101.541C181.174 101.523 181.268 101.538 181.348 101.584C181.428 101.629 181.489 101.702 181.52 101.789L185.665 113.464C185.686 113.522 185.692 113.584 185.684 113.645C185.676 113.706 185.653 113.764 185.617 113.814C185.582 113.864 185.535 113.905 185.481 113.933C185.426 113.962 185.366 113.976 185.304 113.976ZM114.221 128.272C114.142 128.272 114.065 128.247 114 128.202C113.935 128.156 113.886 128.091 113.86 128.017L109.715 116.341C109.696 116.289 109.689 116.234 109.694 116.179C109.699 116.125 109.715 116.072 109.742 116.024C109.769 115.976 109.806 115.934 109.851 115.902C109.895 115.87 109.946 115.848 110 115.837L121.104 113.604C121.203 113.584 121.307 113.604 121.392 113.66C121.476 113.717 121.535 113.804 121.555 113.904C121.575 114.004 121.555 114.107 121.499 114.192C121.442 114.277 121.355 114.335 121.255 114.356L110.585 116.501L114.582 127.76C114.603 127.818 114.609 127.88 114.601 127.941C114.593 128.001 114.57 128.059 114.534 128.11C114.499 128.16 114.452 128.201 114.398 128.229C114.343 128.257 114.283 128.272 114.221 128.272ZM164.314 175.626C164.296 175.626 164.278 175.622 164.262 175.615C164.245 175.608 164.231 175.597 164.219 175.584C164.207 175.57 164.198 175.554 164.192 175.537C164.187 175.52 164.185 175.502 164.187 175.484C164.39 173.642 165.159 163.821 160.351 151.388C160.339 151.356 160.341 151.322 160.354 151.291C160.368 151.261 160.393 151.237 160.425 151.225C160.456 151.213 160.49 151.214 160.521 151.227C160.552 151.24 160.576 151.265 160.589 151.296C165.419 163.784 164.645 173.659 164.441 175.512C164.433 175.578 164.378 175.626 164.314 175.626Z" fill="#111111"/>
<path d="M172.151 174.468H172.148C172.114 174.467 172.082 174.453 172.058 174.429C172.035 174.404 172.022 174.371 172.023 174.338C172.157 168.638 171.016 159.206 167.409 149.831C165.812 145.68 160.814 143.224 156.923 144.677C155.45 145.227 154.281 146.325 153.632 147.769C152.891 149.42 152.89 151.384 153.631 153.299C157.16 162.424 157.197 169.627 156.905 173.109C156.904 173.126 156.899 173.142 156.891 173.157C156.884 173.172 156.873 173.185 156.86 173.196C156.847 173.207 156.832 173.215 156.816 173.22C156.8 173.225 156.784 173.227 156.767 173.225C156.733 173.223 156.702 173.206 156.68 173.181C156.658 173.155 156.647 173.121 156.65 173.087C156.94 169.628 156.903 162.468 153.393 153.391C152.627 151.412 152.63 149.378 153.399 147.665C154.076 146.158 155.296 145.012 156.833 144.438C158.75 143.721 161.037 143.886 163.109 144.889C165.197 145.9 166.851 147.668 167.648 149.739C171.268 159.149 172.413 168.619 172.279 174.343C172.278 174.377 172.264 174.409 172.24 174.432C172.216 174.455 172.184 174.468 172.151 174.468Z" fill="#111111"/>
<path d="M149.302 167.43C149.27 167.43 149.24 167.418 149.216 167.396C149.193 167.375 149.178 167.346 149.175 167.314C148.901 164.546 147.974 159.763 146.192 154.64C144.923 150.992 144.899 147.397 146.125 144.244C147.347 141.097 149.692 138.694 152.906 137.297C156.27 135.833 160.603 136.034 164.794 137.849C169.018 139.678 172.425 142.874 174.14 146.619C176.951 152.754 178.551 160.879 179.399 166.615C179.401 166.631 179.4 166.648 179.396 166.665C179.392 166.681 179.385 166.696 179.375 166.71C179.365 166.723 179.352 166.735 179.338 166.743C179.324 166.752 179.308 166.758 179.291 166.76C179.257 166.765 179.223 166.756 179.196 166.736C179.169 166.716 179.151 166.686 179.146 166.652C178.301 160.933 176.706 152.833 173.908 146.726C172.219 143.037 168.86 139.887 164.692 138.083C160.567 136.297 156.308 136.096 153.008 137.531C146.617 140.311 143.913 147.312 146.433 154.556C148.223 159.7 149.154 164.506 149.43 167.289C149.431 167.307 149.429 167.325 149.424 167.342C149.418 167.359 149.409 167.374 149.397 167.388C149.385 167.401 149.37 167.412 149.354 167.419C149.338 167.426 149.32 167.43 149.302 167.43L149.302 167.43Z" fill="#111111"/>
<path d="M137.738 147.689C137.735 147.689 137.733 147.689 137.731 147.689C137.714 147.688 137.697 147.684 137.682 147.676C137.667 147.669 137.654 147.659 137.642 147.646C137.631 147.634 137.623 147.619 137.617 147.604C137.611 147.588 137.609 147.571 137.61 147.554C138.119 138.398 142.93 131.828 150.809 129.528C155.322 128.21 160.493 128.472 165.369 130.265C170.546 132.17 175.038 135.615 178.359 140.228C178.379 140.256 178.387 140.29 178.381 140.324C178.376 140.357 178.357 140.387 178.33 140.407C178.302 140.427 178.268 140.435 178.235 140.429C178.201 140.424 178.171 140.405 178.151 140.378C171.65 131.344 160.435 126.984 150.88 129.773C143.112 132.041 138.368 138.527 137.865 147.568C137.863 147.601 137.849 147.632 137.825 147.654C137.802 147.677 137.77 147.689 137.738 147.689H137.738ZM136.868 128.966C136.844 128.966 136.82 128.959 136.799 128.946C136.778 128.933 136.762 128.914 136.752 128.891C136.742 128.869 136.738 128.844 136.742 128.819C136.746 128.795 136.756 128.772 136.773 128.754C139.911 125.204 144.539 122.653 149.804 121.571C155.342 120.434 161.158 120.947 166.623 123.056C166.654 123.069 166.678 123.093 166.691 123.124C166.704 123.154 166.705 123.189 166.693 123.22C166.681 123.251 166.657 123.276 166.627 123.29C166.597 123.304 166.562 123.305 166.531 123.294C155.735 119.128 143.576 121.442 136.964 128.923C136.952 128.937 136.938 128.948 136.921 128.955C136.905 128.963 136.887 128.966 136.868 128.966H136.868ZM168.222 175.638H168.217C168.2 175.637 168.184 175.633 168.169 175.626C168.153 175.619 168.14 175.609 168.128 175.597C168.117 175.585 168.108 175.57 168.102 175.554C168.097 175.539 168.094 175.522 168.095 175.505C168.34 169.391 168.047 161.684 164.012 150.885C163.63 149.863 162.688 148.912 161.553 148.402C160.596 147.972 159.628 147.905 158.83 148.214C156.771 149.01 156.723 151.244 157.308 152.916C160.245 161.312 161.392 168.772 160.626 174.487L160.607 174.632C160.602 174.665 160.585 174.696 160.558 174.716C160.531 174.737 160.497 174.746 160.464 174.742C160.447 174.74 160.431 174.735 160.416 174.727C160.402 174.718 160.389 174.707 160.379 174.694C160.369 174.68 160.361 174.665 160.357 174.649C160.352 174.633 160.351 174.616 160.353 174.599L160.373 174.453C161.134 168.777 159.99 161.359 157.067 153C156.247 150.657 156.903 148.685 158.738 147.976C159.6 147.642 160.638 147.711 161.658 148.169C162.853 148.706 163.846 149.712 164.251 150.795C168.302 161.637 168.596 169.376 168.35 175.515C168.349 175.548 168.335 175.58 168.311 175.602C168.287 175.625 168.255 175.638 168.222 175.638L168.222 175.638Z" fill="#111111"/>
<path d="M175.933 171.753C175.9 171.752 175.869 171.74 175.845 171.718C175.821 171.695 175.807 171.665 175.805 171.632C175.378 164.394 173.719 156.517 171.133 149.451C168.579 142.473 161.116 139.262 156.016 140.743C153.399 141.503 151.419 143.109 150.291 145.387C149.01 147.975 148.971 151.256 150.183 154.39C153.205 162.205 153.206 168.391 153.206 170.719C153.206 170.753 153.193 170.786 153.169 170.81C153.145 170.834 153.112 170.847 153.079 170.847C153.045 170.847 153.012 170.834 152.988 170.81C152.964 170.786 152.951 170.753 152.951 170.719C152.95 168.404 152.95 162.253 149.944 154.482C148.707 151.282 148.749 147.925 150.062 145.274C151.223 142.929 153.257 141.278 155.945 140.497C158.459 139.767 161.648 140.182 164.475 141.608C167.685 143.227 170.135 145.981 171.372 149.363C173.967 156.452 175.632 164.355 176.06 171.617C176.062 171.651 176.051 171.684 176.028 171.71C176.006 171.735 175.974 171.75 175.94 171.752L175.932 171.753L175.933 171.753Z" fill="#111111"/>
<path d="M144.652 161.873C144.624 161.873 144.596 161.863 144.574 161.845C144.551 161.828 144.535 161.803 144.528 161.775C144.339 161.002 143.932 159.731 143.502 158.386C142.966 156.709 142.411 154.974 142.124 153.759C139.72 143.561 144.288 135.195 153.491 132.941C157.075 132.063 161.449 132.53 165.494 134.22C168.684 135.553 173.172 138.265 176.439 143.612C178.714 147.336 180.443 153.715 181.274 156.78C181.338 157.016 181.397 157.233 181.451 157.431C181.459 157.463 181.455 157.498 181.438 157.527C181.421 157.556 181.393 157.578 181.361 157.587C181.328 157.596 181.294 157.591 181.264 157.575C181.235 157.558 181.213 157.531 181.204 157.498C181.15 157.301 181.091 157.083 181.027 156.847C180.199 153.793 178.477 147.438 176.221 143.745C170.661 134.645 160.392 131.514 153.552 133.19C144.497 135.408 140.004 143.65 142.373 153.7C142.657 154.906 143.236 156.714 143.746 158.309C144.177 159.658 144.585 160.933 144.777 161.715C144.781 161.733 144.782 161.753 144.778 161.772C144.773 161.791 144.765 161.809 144.753 161.824C144.741 161.839 144.726 161.851 144.708 161.86C144.691 161.868 144.672 161.873 144.652 161.873L144.652 161.873Z" fill="#111111"/>
<path d="M135.995 137.582C135.973 137.582 135.952 137.576 135.933 137.566C135.914 137.555 135.898 137.54 135.887 137.522C135.875 137.504 135.869 137.483 135.867 137.461C135.866 137.44 135.87 137.418 135.88 137.399C138.772 131.316 143.653 127.241 149.993 125.614C157.499 123.687 166.371 125.523 173.145 130.404C173.173 130.424 173.191 130.454 173.197 130.487C173.202 130.521 173.194 130.555 173.174 130.583C173.155 130.61 173.125 130.629 173.091 130.634C173.058 130.64 173.024 130.631 172.996 130.612C166.281 125.774 157.491 123.954 150.056 125.861C143.792 127.469 138.97 131.497 136.11 137.509C136.089 137.554 136.043 137.581 135.995 137.581L135.995 137.582ZM141.661 120.394C141.633 120.394 141.605 120.385 141.583 120.367C141.561 120.35 141.545 120.326 141.538 120.298C141.531 120.27 141.533 120.241 141.545 120.215C141.556 120.189 141.576 120.168 141.601 120.154C144.929 118.36 151.492 116.78 156.716 117.246C156.749 117.249 156.78 117.265 156.802 117.291C156.824 117.317 156.834 117.35 156.831 117.384C156.83 117.401 156.825 117.417 156.818 117.432C156.81 117.447 156.799 117.46 156.786 117.471C156.773 117.482 156.759 117.49 156.742 117.495C156.726 117.5 156.71 117.502 156.693 117.5C151.518 117.039 145.017 118.602 141.722 120.379C141.703 120.389 141.683 120.395 141.661 120.394Z" fill="#111111"/>
</g>
<g clip-path="url(#clip3_999_28804)">
<path d="M96.089 179.721C96.1818 179.835 95.879 180.265 95.2241 180.897L62.9105 212.096L93.92 250.354L126.234 219.156C126.889 218.523 127.191 218.094 127.099 217.979L96.089 179.721Z" fill="#B6F1CF"/>
<path d="M93.9801 250.495C93.9494 250.508 93.9153 250.511 93.8829 250.503C93.8505 250.495 93.8216 250.477 93.8007 250.451L62.7912 212.192C62.767 212.162 62.7549 212.125 62.7573 212.086C62.7597 212.048 62.7763 212.012 62.804 211.985L95.1174 180.787C95.8327 180.096 95.9352 179.839 95.9496 179.785C95.9339 179.751 95.9312 179.713 95.9419 179.677C95.9527 179.641 95.9762 179.61 96.008 179.59C96.0398 179.571 96.0777 179.563 96.1146 179.569C96.1515 179.576 96.1849 179.595 96.2084 179.624L127.218 217.883C127.291 217.973 127.462 218.183 126.34 219.266L94.0267 250.464C94.0132 250.477 93.9975 250.488 93.9801 250.495ZM63.1184 212.108L93.9341 250.128L126.127 219.046C126.821 218.376 126.938 218.113 126.958 218.049L96.1605 180.053C96.0415 180.255 95.7987 180.555 95.3307 181.007L63.1184 212.108Z" fill="#111111"/>
<path d="M102.132 220.851L97.7182 215.406C98.6274 212.955 98.1399 209.86 96.2532 207.532C93.7061 204.39 89.5706 203.84 87.0172 206.306C84.4639 208.771 84.4588 213.318 87.0059 216.461C88.8931 218.789 91.6501 219.694 93.9906 219.007L98.4032 224.451C99.4264 225.714 101.101 225.934 102.125 224.945C103.151 223.955 103.155 222.114 102.132 220.851Z" fill="#069D6E"/>
<path d="M101.519 225.529C101.183 225.671 100.813 225.735 100.43 225.712C99.6268 225.664 98.8446 225.239 98.2839 224.548L93.9349 219.182C91.4852 219.853 88.7293 218.83 86.8865 216.557C84.2945 213.359 84.3053 208.711 86.9105 206.195C88.0632 205.083 89.5913 204.524 91.2135 204.621C93.1361 204.737 95.0166 205.762 96.3727 207.435C98.214 209.707 98.8058 212.814 97.8921 215.377L102.251 220.755C103.325 222.079 103.316 224.009 102.232 225.055C102.025 225.255 101.784 225.416 101.519 225.529ZM88.7408 205.342C88.1484 205.594 87.6019 205.954 87.124 206.416C84.6304 208.824 84.631 213.286 87.1256 216.364C88.9149 218.572 91.5928 219.551 93.9477 218.86C93.9768 218.851 94.0078 218.852 94.0367 218.861C94.0656 218.87 94.0912 218.887 94.1102 218.91L98.5228 224.355C99.0296 224.98 99.7315 225.363 100.448 225.406C101.043 225.442 101.6 225.239 102.019 224.835C102.991 223.896 102.988 222.152 102.012 220.948L97.5987 215.503C97.582 215.482 97.5709 215.457 97.5666 215.431C97.5623 215.405 97.5649 215.378 97.5742 215.353C98.4937 212.875 97.9283 209.843 96.134 207.629C94.8319 206.022 93.0315 205.038 91.1948 204.927C90.3329 204.875 89.499 205.019 88.7408 205.342Z" fill="#111111"/>
<path d="M87.0476 184.641C88.0305 183.692 89.4372 182.643 90.1863 182.3L95.6463 179.8C96.3968 179.456 96.207 179.948 95.2242 180.897L62.9105 212.095C61.9258 213.046 60.5209 214.094 59.7705 214.438L54.3104 216.938C53.5613 217.281 53.7493 216.791 54.7341 215.84L87.0476 184.641Z" fill="white"/>
<path d="M54.3041 217.108C54.0891 217.2 53.8501 217.263 53.7381 217.099C53.675 217.007 53.5277 216.791 54.6272 215.73L86.9408 184.531C87.9335 183.573 89.3607 182.509 90.1223 182.161L95.5824 179.66C95.8135 179.555 96.0945 179.456 96.219 179.638C96.282 179.73 96.4293 179.946 95.3307 181.007L63.0172 212.206C62.0247 213.164 60.5968 214.228 59.8343 214.577L54.3743 217.077C54.3513 217.088 54.3278 217.098 54.3041 217.108ZM54.0387 216.879C54.0849 216.866 54.1519 216.842 54.2465 216.798L59.7065 214.298C60.4427 213.961 61.8322 212.923 62.8038 211.985L95.1173 180.787C95.6662 180.257 95.8543 179.982 95.9185 179.858C95.8471 179.88 95.7774 179.907 95.7101 179.939L90.25 182.439C89.5148 182.776 88.1258 183.813 87.1541 184.751L54.8406 215.95C54.2916 216.48 54.1032 216.755 54.0387 216.879Z" fill="#111111"/>
<path d="M61.8319 210.36C60.8303 211.327 60.6368 211.828 61.4001 211.478C62.165 211.128 63.5966 210.06 64.5981 209.093C65.5996 208.126 65.7945 207.624 65.0296 207.974C64.2663 208.324 62.8334 209.393 61.8319 210.36Z" fill="white"/>
<path d="M61.3929 211.649C61.175 211.742 60.933 211.806 60.8201 211.641C60.7564 211.548 60.6071 211.329 61.7253 210.249C62.7364 209.273 64.1902 208.19 64.9661 207.835C65.2001 207.727 65.4851 207.628 65.6106 207.811C65.6742 207.905 65.8235 208.123 64.7049 209.203C63.6936 210.179 62.2398 211.263 61.464 211.618C61.4407 211.629 61.4169 211.639 61.3929 211.649ZM61.1182 211.423C61.1654 211.41 61.2354 211.385 61.3362 211.339C62.0858 210.996 63.5011 209.939 64.4914 208.983C65.0595 208.434 65.2489 208.153 65.312 208.03C65.2646 208.043 65.1944 208.067 65.0934 208.113C64.3438 208.457 62.9286 209.514 61.9383 210.47C61.3704 211.018 61.1811 211.299 61.1182 211.423Z" fill="#111111"/>
<path d="M85.3587 187.645C84.3571 188.612 84.1637 189.113 84.927 188.763C85.6919 188.413 87.1234 187.345 88.1249 186.378C89.1284 185.409 89.3213 184.909 88.5564 185.259C87.7932 185.609 86.3621 186.676 85.3587 187.645Z" fill="white"/>
<path d="M84.9197 188.934C84.7019 189.027 84.4598 189.091 84.347 188.926C84.2832 188.832 84.1339 188.614 85.252 187.534C86.263 186.558 87.7168 185.475 88.4928 185.12C88.7271 185.012 89.0124 184.913 89.1378 185.096C89.2015 185.189 89.3507 185.408 88.2316 186.488C87.2206 187.464 85.7668 188.547 84.9909 188.903C84.9673 188.914 84.9436 188.924 84.9197 188.934ZM84.6452 188.708C84.6925 188.695 84.7626 188.67 84.8633 188.624C85.6128 188.281 87.0283 187.224 88.0183 186.268C88.5865 185.719 88.7762 185.438 88.8394 185.315C88.7918 185.328 88.7214 185.352 88.6203 185.398C87.8708 185.742 86.4554 186.799 85.4652 187.755C84.8973 188.303 84.708 188.584 84.6452 188.708Z" fill="#111111"/>
<path d="M62.9105 212.095C61.9258 213.046 60.5209 214.094 59.7705 214.438L54.3103 216.938C54.0602 217.052 53.9147 217.074 53.8681 217.017L84.8776 255.276C84.924 255.333 85.0697 255.311 85.3198 255.197L90.7798 252.696C91.5303 252.353 92.9352 251.305 93.9199 250.354L62.9105 212.095Z" fill="#B6F1CF"/>
<path d="M85.31 255.369C85.0955 255.46 84.8753 255.516 84.7584 255.372L53.7487 217.113C53.7251 217.084 53.7129 217.047 53.7145 217.01C53.7161 216.973 53.7313 216.937 53.7574 216.91C53.7834 216.883 53.8185 216.866 53.8559 216.863C53.8933 216.86 53.9304 216.871 53.9604 216.894C53.9878 216.892 54.0679 216.88 54.2466 216.798L59.7067 214.298C60.4429 213.961 61.8324 212.923 62.8039 211.985C62.8192 211.97 62.8375 211.959 62.8575 211.952C62.8775 211.944 62.8988 211.941 62.9201 211.942C62.9413 211.944 62.9621 211.949 62.981 211.959C63 211.969 63.0167 211.982 63.03 211.999L94.0395 250.258C94.0637 250.287 94.0758 250.325 94.0734 250.363C94.071 250.402 94.0544 250.438 94.0267 250.464C93.0342 251.423 91.6063 252.486 90.8438 252.836L85.3838 255.336C85.3593 255.347 85.3348 255.358 85.31 255.369ZM84.9755 255.152C85.0076 255.15 85.0883 255.134 85.256 255.057L90.716 252.557C91.4269 252.231 92.747 251.253 93.7118 250.341L62.8959 212.321C61.9113 213.248 60.5662 214.242 59.8342 214.577L54.3741 217.077C54.3098 217.107 54.2438 217.135 54.1792 217.156L84.9755 255.152Z" fill="#111111"/>
<path d="M77.1112 176.695C72.625 171.16 65.8484 169.363 60.5233 171.802L57.8382 173.031C63.1634 170.593 69.9401 172.39 74.4261 177.924L83.8145 189.508L86.4997 188.278L77.1112 176.695Z" fill="#069D6E"/>
<path d="M83.8746 189.649C83.8439 189.662 83.8098 189.665 83.7774 189.656C83.7451 189.648 83.7162 189.63 83.6953 189.604L74.3068 178.021C72.1503 175.36 69.4177 173.498 66.4043 172.635C63.4947 171.802 60.4746 171.994 57.902 173.171C57.8242 173.209 57.7337 173.172 57.6985 173.095C57.6633 173.019 57.6972 172.927 57.7743 172.892L60.4594 171.663C63.1003 170.453 66.1945 170.258 69.1744 171.111C72.2485 171.991 75.0344 173.889 77.2306 176.598L86.6191 188.182C86.6338 188.2 86.6442 188.221 86.6494 188.244C86.6546 188.267 86.6545 188.29 86.6492 188.313C86.6438 188.336 86.6333 188.357 86.6184 188.375C86.6036 188.393 86.5848 188.408 86.5635 188.417L83.8783 189.647L83.8746 189.649ZM60.3114 172.068C62.2993 171.662 64.4218 171.749 66.4894 172.341C69.5636 173.221 72.3494 175.118 74.5456 177.828L83.8591 189.319L86.2559 188.221L76.9919 176.791C74.8354 174.131 72.1028 172.269 69.0894 171.406C66.1798 170.573 63.1602 170.764 60.5871 171.941L60.3114 172.068Z" fill="#111111"/>
<path d="M56.5089 167.542L53.8238 168.772C54.3624 168.443 54.9157 168.149 55.4813 167.89L58.1665 166.66C57.6008 166.919 57.0474 167.213 56.5089 167.542Z" fill="white"/>
<path d="M53.8836 168.913C53.8479 168.928 53.8079 168.929 53.7715 168.916C53.7351 168.903 53.705 168.877 53.6873 168.842C53.6696 168.808 53.6656 168.768 53.676 168.731C53.6865 168.693 53.7106 168.662 53.7437 168.641C54.2817 168.312 54.8449 168.012 55.4174 167.75L58.1023 166.521L58.1025 166.521C58.1208 166.512 58.1407 166.507 58.1609 166.506C58.1811 166.505 58.2013 166.508 58.2203 166.515C58.2392 166.523 58.2566 166.533 58.2713 166.547C58.2861 166.561 58.2978 166.578 58.306 166.596C58.3229 166.633 58.3244 166.675 58.3102 166.713C58.296 166.752 58.2672 166.782 58.2302 166.799C57.6689 167.057 57.1166 167.35 56.5888 167.673C56.5836 167.676 56.5782 167.679 56.5726 167.682L53.8876 168.911L53.8836 168.913Z" fill="#111111"/>
<path d="M53.7125 169.71C61.1806 162.5 73.3859 164.121 80.8357 173.312L90.1274 184.776L86.4996 188.278L77.1111 176.695C71.6299 169.932 62.7292 168.75 57.2344 174.056C51.7397 179.361 51.7309 189.145 57.2121 195.907L66.6006 207.491L62.971 210.995L53.6793 199.531C46.2295 190.34 46.2445 176.92 53.7125 169.71Z" fill="#B6F1CF"/>
<path d="M63.0309 211.136C63.0002 211.149 62.966 211.152 62.9336 211.144C62.9013 211.136 62.8724 211.117 62.8514 211.092L53.5597 199.628C46.0424 190.353 46.063 176.882 53.6059 169.6C56.9144 166.405 61.319 164.802 66.0085 165.083C71.5907 165.419 77.0385 168.383 80.9553 173.215L90.2469 184.679C90.2711 184.709 90.2832 184.746 90.2808 184.785C90.2785 184.823 90.2618 184.859 90.2341 184.886L86.6064 188.388C86.591 188.403 86.5728 188.414 86.5528 188.422C86.5328 188.429 86.5115 188.432 86.4902 188.431C86.469 188.43 86.4482 188.424 86.4293 188.414C86.4103 188.405 86.3936 188.391 86.3803 188.374L76.9918 176.791C74.1586 173.296 70.2381 171.153 66.2354 170.912C62.8813 170.711 59.7226 171.866 57.3412 174.165C51.9113 179.408 51.9069 189.118 57.3315 195.811L66.72 207.394C66.7441 207.423 66.7562 207.461 66.7539 207.499C66.7515 207.538 66.7348 207.574 66.7072 207.6L63.0776 211.105C63.0642 211.118 63.0483 211.129 63.0309 211.136ZM53.7125 169.71L53.8192 169.82C50.2375 173.278 48.2616 178.27 48.2553 183.878C48.249 189.491 50.2178 195.016 53.7987 199.434L62.985 210.768L66.3928 207.478L57.0927 196.004C51.5706 189.191 51.5864 179.295 57.1279 173.945C59.572 171.585 62.8132 170.4 66.2543 170.606C70.3428 170.852 74.3436 173.036 77.2306 176.598L86.5136 188.051L89.9194 184.763L80.7162 173.408C76.8536 168.642 71.4859 165.72 65.9894 165.389C61.3869 165.113 57.0648 166.686 53.819 169.82L53.7125 169.71Z" fill="#111111"/>
<path d="M53.8238 168.772C52.815 169.39 51.8773 170.117 51.0274 170.94C45.1719 176.593 43.8984 186.064 47.2126 194.321C48.1441 196.644 49.4187 198.815 50.9941 200.761L60.2859 212.225L62.971 210.995L53.6793 199.531C52.1038 197.585 50.8292 195.415 49.8977 193.091C46.5835 184.834 47.857 175.363 53.7125 169.71C54.585 168.868 55.5222 168.146 56.5087 167.542L53.8238 168.772Z" fill="white"/>
<path d="M60.3458 212.366C60.3151 212.379 60.281 212.381 60.2487 212.373C60.2163 212.365 60.1875 212.347 60.1665 212.321L50.8748 200.857C49.2893 198.9 48.0069 196.716 47.0702 194.378C43.6388 185.83 45.1862 176.366 50.9209 170.829C51.7791 169.999 52.7258 169.266 53.7439 168.641C53.7491 168.638 53.7545 168.635 53.7601 168.633L56.4452 167.403C56.5199 167.368 56.6065 167.399 56.6446 167.47C56.6828 167.542 56.6585 167.631 56.589 167.673C55.601 168.277 54.6691 169 53.8194 169.82C48.1735 175.271 46.6549 184.6 50.0402 193.034C50.9656 195.344 52.2325 197.501 53.7987 199.435L63.0904 210.898C63.1052 210.916 63.1156 210.938 63.1208 210.961C63.126 210.983 63.126 211.007 63.1206 211.03C63.1152 211.053 63.1047 211.074 63.0898 211.092C63.075 211.11 63.0562 211.125 63.0348 211.134L60.3497 212.364L60.3458 212.366ZM53.8959 168.907C52.9108 169.511 51.9816 170.231 51.134 171.05C45.4884 176.5 43.9698 185.829 47.3551 194.264C48.2805 196.573 49.5474 198.73 51.1136 200.664L60.3305 212.036L62.7273 210.938L53.5599 199.628C51.9744 197.67 50.6919 195.486 49.7551 193.149C46.3239 184.6 47.8713 175.136 53.6059 169.6C54.0418 169.179 54.5006 168.782 54.98 168.411L53.8959 168.907Z" fill="#111111"/>
</g>
<defs>
<linearGradient id="paint0_linear_999_28804" x1="107.954" y1="64.6624" x2="192.686" y2="257.128" gradientUnits="userSpaceOnUse">
<stop stop-color="#111111"/>
<stop offset="0.31" stop-color="#36C170"/>
<stop offset="0.761" stop-color="#36C170"/>
<stop offset="1" stop-color="#111111"/>
</linearGradient>
<clipPath id="clip0_999_28804">
<rect width="162.432" height="220.288" fill="white" transform="translate(70.8632 50.2871) rotate(-3.29302)"/>
</clipPath>
<clipPath id="clip1_999_28804">
<rect width="53.888" height="44.8" fill="white" transform="translate(209.024 62.3361)"/>
</clipPath>
<clipPath id="clip2_999_28804">
<rect width="118.016" height="180.864" fill="white" transform="translate(90.88 63.104)"/>
</clipPath>
<clipPath id="clip3_999_28804">
<rect width="67.328" height="92.416" fill="white" transform="translate(36.1883 175.831) rotate(-23.0331)"/>
</clipPath>
</defs>
</svg>
