<svg width="119" height="35" viewBox="0 0 119 35" fill="none" xmlns="http://www.w3.org/2000/svg">
<g clip-path="url(#clip0_558_10418)">
<path d="M50.3348 14.2387C53.3785 14.2387 54.7729 12.7454 54.7729 10.9974C54.7729 6.6702 47.4446 8.63865 47.4446 5.38047C47.4446 4.1926 48.4137 3.22536 50.5899 3.22536C51.644 3.22536 52.8344 3.54774 53.8545 4.20955L54.2794 3.20835C53.3274 2.54654 51.9331 2.15625 50.5899 2.15625C47.5636 2.15625 46.2033 3.66655 46.2033 5.41443C46.2033 9.80956 53.5313 7.80717 53.5313 11.0653C53.5313 12.2363 52.5624 13.1695 50.3348 13.1695C48.7708 13.1695 47.2575 12.5587 46.4074 11.7272L45.9143 12.6944C46.7985 13.6108 48.5497 14.2387 50.3348 14.2387Z" fill="#03090C"/>
<path d="M62.7167 14.2387C66.2875 14.2387 68.9569 11.6763 68.9569 8.19745C68.9569 4.71865 66.2875 2.15625 62.7167 2.15625C59.1124 2.15625 56.46 4.73566 56.46 8.19745C56.46 11.6592 59.1124 14.2387 62.7167 14.2387ZM62.7167 13.1186C59.8434 13.1186 57.701 11.0314 57.701 8.19745C57.701 5.36352 59.8434 3.27626 62.7167 3.27626C65.573 3.27626 67.6984 5.36352 67.6984 8.19745C67.6984 11.0314 65.573 13.1186 62.7167 13.1186Z" fill="#03090C"/>
<path d="M76.9455 14.2387C78.6971 14.2387 80.2613 13.6448 81.3154 12.4908L80.5163 11.6932C79.5473 12.6944 78.3569 13.1186 76.9966 13.1186C74.1233 13.1186 71.9639 11.0144 71.9639 8.19745C71.9639 5.38047 74.1233 3.27626 76.9966 3.27626C78.3569 3.27626 79.5473 3.70051 80.5163 4.6847L81.3154 3.88717C80.2613 2.73321 78.6971 2.15625 76.9626 2.15625C73.3753 2.15625 70.7229 4.71865 70.7229 8.19745C70.7229 11.6763 73.3753 14.2387 76.9455 14.2387Z" fill="#03090C"/>
<path d="M83.9977 14.1371H85.2557V2.2583H83.9977V14.1371Z" fill="#03090C"/>
<path d="M98.0204 14.1371H99.3466L93.906 2.2583H92.6645L87.2239 14.1371H88.5331L89.9615 10.9638H96.5925L98.0204 14.1371ZM90.4204 9.94557L93.2767 3.56498L96.133 9.94557H90.4204Z" fill="#03090C"/>
<path d="M101.315 14.1371H109.239V13.051H102.574V2.2583H101.315V14.1371Z" fill="#03090C"/>
<path d="M48.9918 32.7347H51.7462V23.096H55.555V20.856H45.1832V23.096H48.9918V32.7347Z" fill="#03090C"/>
<path d="M67.5785 32.7347L64.9091 28.9166C66.4562 28.2547 67.357 26.9481 67.357 25.1662C67.357 22.502 65.368 20.856 62.1885 20.856H57.0366V32.7347H59.7912V29.4257H62.1885H62.3243L64.62 32.7347H67.5785ZM64.5689 25.1662C64.5689 26.456 63.7187 27.2365 62.0352 27.2365H59.7912V23.096H62.0352C63.7187 23.096 64.5689 23.8596 64.5689 25.1662Z" fill="#03090C"/>
<path d="M78.432 32.7347H81.3224L76.0005 20.856H73.28L67.9752 32.7347H70.798L71.8521 30.1893H77.3779L78.432 32.7347ZM72.7359 28.102L74.6232 23.5541L76.5106 28.102H72.7359Z" fill="#03090C"/>
<path d="M82.557 32.7347H87.964C91.8574 32.7347 94.5269 30.3929 94.5269 26.7954C94.5269 23.1978 91.8574 20.856 87.964 20.856H82.557V32.7347ZM85.3116 30.4778V23.1129H87.8283C90.1916 23.1129 91.7387 24.5214 91.7387 26.7954C91.7387 29.0693 90.1916 30.4778 87.8283 30.4778H85.3116Z" fill="#03090C"/>
<path d="M99.3418 30.5287V27.7796H104.868V25.6414H99.3418V23.062H105.598V20.856H96.6042V32.7347H105.819V30.5287H99.3418Z" fill="#03090C"/>
<path d="M118.553 32.7347L115.883 28.9166C117.43 28.2547 118.332 26.9481 118.332 25.1662C118.332 22.502 116.343 20.856 113.163 20.856H108.011V32.7347H110.766V29.4257H113.163H113.299L115.594 32.7347H118.553ZM115.544 25.1662C115.544 26.456 114.693 27.2365 113.01 27.2365H110.766V23.096H113.01C114.693 23.096 115.544 23.8596 115.544 25.1662Z" fill="#03090C"/>
<path d="M25.3497 35L38.3142 0L29.3878 2.54545L6.64685 15.9091L25.3497 35Z" fill="url(#paint0_linear_558_10418)"/>
<path d="M1.20305 14.3954L25.3497 35L17.486 0L1.7427 8.85941C-0.314494 10.017 -0.591979 12.8637 1.20305 14.3954Z" fill="url(#paint1_linear_558_10418)"/>
<path d="M1.20305 14.3954L25.3497 35L38.1974 0.0556641L2.20172 8.74854C1.89716 8.82208 1.59754 8.92894 1.34791 9.11795C-0.342643 10.398 -0.46995 12.9679 1.20305 14.3954Z" fill="url(#paint2_linear_558_10418)"/>
<path d="M38.314 0H17.4858L1.73684 8.8626C-0.318769 10.0194 -0.597781 12.863 1.19395 14.3959L10.8973 22.697C9.46816 21.4743 9.60067 19.2284 11.1638 18.1816L38.314 0Z" fill="url(#paint3_linear_558_10418)"/>
<path d="M30.4504 0H19.3987L2.70792 9.68913C0.684703 10.8636 0.427502 13.6795 2.2046 15.1998L7.49688 19.7273C6.06739 18.5043 6.19937 16.2581 7.76228 15.2103L30.4504 0Z" fill="url(#paint4_linear_558_10418)"/>
<path d="M23.0118 0H17.4859L1.72986 8.87173C-0.334857 10.0343 -0.604058 12.8957 1.20773 14.4216L4.36782 17.0829C2.78123 15.7467 2.92615 13.2639 4.6575 12.1206L23.0118 0Z" fill="url(#paint5_linear_558_10418)"/>
</g>
<defs>
<linearGradient id="paint0_linear_558_10418" x1="28.0104" y1="16.1246" x2="-8.39019" y2="51.531" gradientUnits="userSpaceOnUse">
<stop offset="0.10651" stop-color="#00746B"/>
<stop offset="0.537132" stop-color="#6FECE3"/>
<stop offset="0.760384" stop-color="#8CF4C3"/>
<stop offset="0.977965" stop-color="#004F49"/>
</linearGradient>
<linearGradient id="paint1_linear_558_10418" x1="12.7432" y1="17.7187" x2="1.43955" y2="41.94" gradientUnits="userSpaceOnUse">
<stop offset="0.10651" stop-color="#0BA499"/>
<stop offset="0.537132" stop-color="#6FECE3"/>
<stop offset="0.760384" stop-color="#8CF4C3"/>
<stop offset="0.977965" stop-color="#028B82"/>
</linearGradient>
<linearGradient id="paint2_linear_558_10418" x1="14.506" y1="11.6059" x2="27.2478" y2="31.9598" gradientUnits="userSpaceOnUse">
<stop offset="0.109977" stop-color="#06433F"/>
<stop offset="0.296412" stop-color="#004F49" stop-opacity="0"/>
</linearGradient>
<linearGradient id="paint3_linear_558_10418" x1="33.9382" y1="-3.00667" x2="7.14316" y2="24.7419" gradientUnits="userSpaceOnUse">
<stop offset="0.10651" stop-color="#05915E"/>
<stop offset="0.364188" stop-color="#3CD077"/>
<stop offset="0.537132" stop-color="#6FECB0"/>
<stop offset="0.788628" stop-color="#60FFB4"/>
<stop offset="0.977965" stop-color="#004F49"/>
</linearGradient>
<linearGradient id="paint4_linear_558_10418" x1="21.8893" y1="-0.708333" x2="3.97794" y2="19.625" gradientUnits="userSpaceOnUse">
<stop offset="0.10651" stop-color="#0AA46C"/>
<stop offset="0.364188" stop-color="#40CE79"/>
<stop offset="0.537132" stop-color="#6FECB0"/>
<stop offset="0.760384" stop-color="#60FFB4"/>
<stop offset="0.977965" stop-color="#004F49"/>
</linearGradient>
<linearGradient id="paint5_linear_558_10418" x1="16.1519" y1="-0.613388" x2="0.535448" y2="15.7903" gradientUnits="userSpaceOnUse">
<stop offset="0.10651" stop-color="#017C50"/>
<stop offset="0.364188" stop-color="#3BBC6E"/>
<stop offset="0.537132" stop-color="#6FECB0"/>
<stop offset="0.744375" stop-color="#60FFB4"/>
<stop offset="0.977965" stop-color="#004F49"/>
</linearGradient>
<clipPath id="clip0_558_10418">
<rect width="119" height="35" fill="white"/>
</clipPath>
</defs>
</svg>
