<svg width="37" height="37" viewBox="0 0 37 37" fill="none" xmlns="http://www.w3.org/2000/svg">
<path d="M24.4769 35.3893L36.9889 1.61084L28.374 4.06746L6.42676 16.9647L24.4769 35.3893Z" fill="url(#paint0_linear_852_10999)"/>
<path d="M1.17284 15.5039L24.4768 35.3893L16.8875 1.61084L1.69365 10.161C-0.291744 11.2783 -0.559544 14.0256 1.17284 15.5039Z" fill="url(#paint1_linear_852_10999)"/>
<path d="M1.17284 15.5038L24.4768 35.3893L36.876 1.66455L2.13665 10.054C1.84272 10.125 1.55356 10.2281 1.31264 10.4106C-0.31891 11.6459 -0.441774 14.1261 1.17284 15.5038Z" fill="url(#paint2_linear_852_10999)"/>
<path d="M36.9884 1.61084H16.8871L1.68779 10.1641C-0.296074 11.2805 -0.565348 14.0249 1.16385 15.5043L10.5286 23.5157C9.14928 22.3357 9.27717 20.1682 10.7857 19.1579L36.9884 1.61084Z" fill="url(#paint3_linear_852_10999)"/>
<path d="M29.3994 1.61084H18.7334L2.62516 10.9618C0.672554 12.0953 0.424331 14.8129 2.1394 16.2801L7.24697 20.6496C5.86738 19.4694 5.99476 17.3016 7.50311 16.2903L29.3994 1.61084Z" fill="url(#paint4_linear_852_10999)"/>
<path d="M22.2204 1.61084H16.8874L1.68121 10.1729C-0.311451 11.2949 -0.571257 14.0565 1.1773 15.5291L4.2271 18.0976C2.69588 16.808 2.83574 14.4118 4.50667 13.3084L22.2204 1.61084Z" fill="url(#paint5_linear_852_10999)"/>
<defs>
<linearGradient id="paint0_linear_852_10999" x1="27.0447" y1="17.1727" x2="-8.08547" y2="51.3433" gradientUnits="userSpaceOnUse">
<stop offset="0.10651" stop-color="#00746B"/>
<stop offset="0.537132" stop-color="#6FECE3"/>
<stop offset="0.760384" stop-color="#8CF4C3"/>
<stop offset="0.977965" stop-color="#004F49"/>
</linearGradient>
<linearGradient id="paint1_linear_852_10999" x1="12.3102" y1="18.7111" x2="1.40109" y2="42.0871" gradientUnits="userSpaceOnUse">
<stop offset="0.10651" stop-color="#0BA499"/>
<stop offset="0.537132" stop-color="#6FECE3"/>
<stop offset="0.760384" stop-color="#8CF4C3"/>
<stop offset="0.977965" stop-color="#028B82"/>
</linearGradient>
<linearGradient id="paint2_linear_852_10999" x1="14.0115" y1="12.8116" x2="26.3086" y2="32.4552" gradientUnits="userSpaceOnUse">
<stop offset="0.109977" stop-color="#06433F"/>
<stop offset="0.296412" stop-color="#004F49" stop-opacity="0"/>
</linearGradient>
<linearGradient id="paint3_linear_852_10999" x1="32.7653" y1="-1.29089" x2="6.90543" y2="25.4892" gradientUnits="userSpaceOnUse">
<stop offset="0.10651" stop-color="#05915E"/>
<stop offset="0.364188" stop-color="#3CD077"/>
<stop offset="0.537132" stop-color="#6FECB0"/>
<stop offset="0.788628" stop-color="#60FFB4"/>
<stop offset="0.977965" stop-color="#004F49"/>
</linearGradient>
<linearGradient id="paint4_linear_852_10999" x1="21.1371" y1="0.927228" x2="3.85086" y2="20.5509" gradientUnits="userSpaceOnUse">
<stop offset="0.10651" stop-color="#0AA46C"/>
<stop offset="0.364188" stop-color="#40CE79"/>
<stop offset="0.537132" stop-color="#6FECB0"/>
<stop offset="0.760384" stop-color="#60FFB4"/>
<stop offset="0.977965" stop-color="#004F49"/>
</linearGradient>
<linearGradient id="paint5_linear_852_10999" x1="15.5999" y1="1.01886" x2="0.528478" y2="16.8501" gradientUnits="userSpaceOnUse">
<stop offset="0.10651" stop-color="#017C50"/>
<stop offset="0.364188" stop-color="#3BBC6E"/>
<stop offset="0.537132" stop-color="#6FECB0"/>
<stop offset="0.744375" stop-color="#60FFB4"/>
<stop offset="0.977965" stop-color="#004F49"/>
</linearGradient>
</defs>
</svg>
