<svg width="88" height="88" viewBox="0 0 88 88" fill="none" xmlns="http://www.w3.org/2000/svg">
<g clip-path="url(#clip0_1759_68571)">
<path d="M56.9484 22.6899L75.3863 31.1173L44.5897 73.1067L26.1518 64.6792L56.9484 22.6899Z" fill="#B6F1CF"/>
<path d="M44.6 73.1638C44.5887 73.1659 44.5767 73.1646 44.5656 73.1595L26.1277 64.732C26.1199 64.7285 26.1129 64.7232 26.1074 64.7166C26.1018 64.71 26.0978 64.7023 26.0956 64.6939C26.0935 64.6856 26.0932 64.6769 26.0948 64.6684C26.0965 64.66 26.1 64.652 26.1051 64.6451L56.9017 22.6557C56.918 22.6336 56.9476 22.6258 56.9726 22.6373L75.4105 31.0647C75.4183 31.0683 75.4253 31.0735 75.4308 31.0801C75.4364 31.0867 75.4404 31.0945 75.4425 31.1028C75.4447 31.1111 75.445 31.1198 75.4434 31.1283C75.4417 31.1367 75.4382 31.1447 75.4331 31.1517L44.6365 73.1411C44.6277 73.153 44.6147 73.1612 44.6 73.1638ZM26.2407 64.6562L44.5709 73.0345L75.2975 31.1406L56.9673 22.7623L26.2407 64.6562Z" fill="#111111"/>
<path d="M70.0321 30.94L59.8101 26.2678C58.875 27.5428 57.0567 28.0927 55.7501 27.4955L45.9061 40.9171L40.6778 48.0457L30.8338 61.4673C32.1404 62.0646 32.4416 63.5832 31.5064 64.8583L41.7284 69.5304C42.6636 68.2554 44.4819 67.7056 45.7885 68.3028L55.6325 54.8811L60.8608 47.7526L70.7048 34.3309C69.3982 33.7337 69.097 32.2151 70.0321 30.94Z" fill="white"/>
<path d="M41.7388 69.5875C41.7275 69.5896 41.7155 69.5883 41.7044 69.5832L31.4824 64.9111C31.4745 64.9075 31.4676 64.9022 31.462 64.8956C31.4565 64.8891 31.4525 64.8813 31.4503 64.873C31.4481 64.8646 31.4478 64.8559 31.4495 64.8475C31.4511 64.839 31.4546 64.831 31.4597 64.8241C31.9257 64.1888 32.0965 63.4542 31.9284 62.8086C31.7803 62.2398 31.383 61.7822 30.8097 61.5201C30.8019 61.5166 30.7949 61.5113 30.7894 61.5047C30.7838 61.4981 30.7798 61.4904 30.7776 61.482C30.7755 61.4737 30.7752 61.465 30.7768 61.4565C30.7785 61.4481 30.782 61.4401 30.7871 61.4332L55.7033 27.4613C55.7113 27.4505 55.7226 27.4429 55.7355 27.4395C55.7485 27.4361 55.7621 27.4373 55.7743 27.4428C57.0554 28.0284 58.845 27.486 59.7635 26.2336C59.7797 26.2115 59.8093 26.2037 59.8344 26.2151L70.0564 30.8874C70.0642 30.8909 70.0712 30.8962 70.0767 30.9028C70.0823 30.9094 70.0863 30.9171 70.0885 30.9254C70.0906 30.9338 70.0909 30.9425 70.0893 30.9509C70.0877 30.9594 70.0842 30.9674 70.0791 30.9743C69.6131 31.6096 69.4423 32.3443 69.6103 32.9898C69.7584 33.5586 70.1557 34.0162 70.729 34.2782C70.7369 34.2818 70.7438 34.2871 70.7494 34.2937C70.7549 34.3002 70.7589 34.308 70.7611 34.3163C70.7633 34.3246 70.7635 34.3334 70.7619 34.3418C70.7603 34.3503 70.7568 34.3583 70.7517 34.3652L45.8354 68.3371C45.8191 68.3593 45.7895 68.367 45.7644 68.3556C44.4833 67.7701 42.6938 68.3125 41.7753 69.5648C41.7662 69.5771 41.753 69.585 41.7388 69.5875ZM31.5946 64.8349L41.71 69.4584C42.657 68.205 44.4575 67.6609 45.7695 68.2309L70.6166 34.3533C70.0455 34.0722 69.6495 33.6008 69.498 33.0191C69.3262 32.3593 69.4888 31.6138 69.9441 30.9636L59.8287 26.3401C58.8817 27.5935 57.0812 28.1377 55.7692 27.5675L30.9221 61.4451C31.4933 61.7263 31.8892 62.1977 32.0407 62.7793C32.2125 63.4392 32.0499 64.1847 31.5946 64.8349Z" fill="#111111"/>
<path d="M42.8786 49.0515C42.842 51.211 43.9904 53.1613 46.1768 54.1607C48.3631 55.16 51.0766 54.9749 53.4303 53.8744L42.8786 49.0515Z" fill="#B6F1CF"/>
<path d="M50.972 54.721C49.2688 55.0285 47.5732 54.8628 46.1526 54.2135C44.0279 53.2423 42.7822 51.3123 42.8206 49.0507C42.8207 49.0411 42.8233 49.0316 42.828 49.0232C42.8327 49.0148 42.8395 49.0078 42.8476 49.0026C42.8558 48.9975 42.8651 48.9945 42.8747 48.9938C42.8843 48.9932 42.8939 48.9949 42.9027 48.9989L53.4544 53.8218C53.4645 53.8264 53.473 53.8338 53.479 53.8431C53.485 53.8524 53.4882 53.8632 53.4883 53.8743C53.4883 53.8853 53.4852 53.8961 53.4793 53.9055C53.4733 53.9148 53.4649 53.9223 53.4549 53.927C52.6466 54.305 51.8084 54.57 50.972 54.721ZM42.9357 49.1415C42.932 51.3173 44.1473 53.1695 46.2009 54.1081C48.2557 55.0473 50.8975 54.9584 53.2913 53.8748L42.9357 49.1415Z" fill="#111111"/>
<path d="M48.1061 41.9227L58.6597 46.7465C58.6971 44.5871 57.5488 42.6373 55.3619 41.6376C53.1749 40.638 50.4604 40.8223 48.1061 41.9227Z" fill="#B6F1CF"/>
<path d="M58.6698 46.8034C58.6583 46.8054 58.6463 46.804 58.6354 46.799L48.0817 41.9752C48.0717 41.9706 48.0632 41.9633 48.0572 41.954C48.0512 41.9447 48.048 41.9339 48.0479 41.9228C48.0479 41.9118 48.051 41.9009 48.0569 41.8916C48.0628 41.8822 48.0713 41.8748 48.0813 41.8701C50.5359 40.7228 53.2665 40.6161 55.3858 41.5848C57.5112 42.5563 58.7567 44.4862 58.7175 46.7473C58.7172 46.7607 58.7123 46.7736 58.7036 46.7838C58.6949 46.794 58.683 46.8009 58.6698 46.8034ZM48.245 41.9224L58.6024 46.6565C58.607 44.4813 57.3917 42.6291 55.3375 41.6902C53.2816 40.7505 50.639 40.8389 48.245 41.9224Z" fill="#111111"/>
<path d="M44.164 40.1211L38.9357 47.2496L57.3736 55.677L62.6019 48.5485L44.164 40.1211Z" fill="#069D6E"/>
<path d="M57.3839 55.7342C57.3726 55.7362 57.3606 55.7349 57.3495 55.7299L38.9116 47.3023C38.9038 47.2988 38.8968 47.2935 38.8913 47.2869C38.8857 47.2803 38.8817 47.2726 38.8795 47.2643C38.8774 47.2559 38.8771 47.2472 38.8787 47.2388C38.8803 47.2303 38.8838 47.2223 38.889 47.2154L44.1173 40.0869C44.1252 40.0761 44.1366 40.0684 44.1495 40.0651C44.1624 40.0617 44.1761 40.0629 44.1882 40.0684L62.6261 48.4959C62.6339 48.4995 62.6409 48.5047 62.6464 48.5113C62.652 48.5179 62.656 48.5256 62.6582 48.534C62.6603 48.5423 62.6606 48.551 62.659 48.5595C62.6574 48.5679 62.6539 48.5759 62.6488 48.5829L57.4204 55.7114C57.4116 55.7234 57.3986 55.7315 57.3839 55.7342ZM39.0246 47.2265L57.3548 55.6047L62.5132 48.5716L44.1829 40.1934L39.0246 47.2265Z" fill="#111111"/>
<path d="M43.5066 41.0177L39.5934 46.3531L58.0313 54.7806L61.9445 49.4451L43.5066 41.0177Z" fill="white"/>
<path d="M58.0416 54.8377C58.03 54.8398 58.018 54.8383 58.0072 54.8333L39.5693 46.4058C39.5615 46.4023 39.5545 46.397 39.549 46.3904C39.5434 46.3838 39.5394 46.3761 39.5373 46.3678C39.5351 46.3594 39.5348 46.3507 39.5364 46.3423C39.5381 46.3338 39.5416 46.3258 39.5467 46.3189L43.4599 40.9835C43.4762 40.9613 43.5058 40.9536 43.5309 40.965L61.9687 49.3925C61.9766 49.396 61.9835 49.4013 61.9891 49.4079C61.9946 49.4145 61.9986 49.4222 62.0008 49.4305C62.003 49.4389 62.0032 49.4476 62.0016 49.456C62 49.4645 61.9965 49.4725 61.9914 49.4794L58.0781 54.8149C58.0693 54.8269 58.0563 54.835 58.0416 54.8377ZM39.6824 46.33L58.0126 54.7083L61.8558 49.4683L43.5255 41.0901L39.6824 46.33Z" fill="#111111"/>
<path d="M75.3859 31.1174L77.2947 34.8543L46.4981 76.8437L44.5893 73.1068L75.3859 31.1174Z" fill="#069D6E"/>
<path d="M46.5083 76.9008C46.496 76.903 46.4834 76.9012 46.4722 76.8957C46.4611 76.8902 46.452 76.8812 46.4463 76.8701L44.5376 73.1332C44.5327 73.1237 44.5306 73.1129 44.5315 73.1022C44.5323 73.0915 44.5362 73.0813 44.5425 73.0726L75.3391 31.0832C75.345 31.0752 75.3528 31.0689 75.3618 31.0648C75.3708 31.0607 75.3807 31.0589 75.3906 31.0597C75.4004 31.0605 75.4099 31.0638 75.4182 31.0693C75.4264 31.0748 75.4331 31.0823 75.4376 31.0911L77.3463 34.828C77.3512 34.8376 77.3533 34.8483 77.3524 34.859C77.3516 34.8697 77.3477 34.88 77.3414 34.8886L46.5447 76.878C46.5359 76.89 46.5229 76.8982 46.5083 76.9008ZM44.6571 73.1124L46.5069 76.7337L77.2267 34.849L75.377 31.2276L44.6571 73.1124Z" fill="#111111"/>
<path d="M64.5113 52.2842L62.6025 48.5473L57.3742 55.6759L59.2829 59.4128L64.5113 52.2842Z" fill="#111111"/>
<path d="M59.2931 59.4699C59.2809 59.4721 59.2683 59.4703 59.2571 59.4648C59.2459 59.4593 59.2369 59.4503 59.2312 59.4392L57.3225 55.7023C57.3176 55.6927 57.3155 55.682 57.3163 55.6713C57.3172 55.6606 57.321 55.6504 57.3274 55.6417L62.5557 48.5132C62.5616 48.5052 62.5694 48.4988 62.5784 48.4947C62.5874 48.4906 62.5973 48.4889 62.6072 48.4897C62.617 48.4904 62.6265 48.4938 62.6348 48.4993C62.643 48.5048 62.6497 48.5123 62.6542 48.5211L64.5629 52.258C64.5678 52.2676 64.5699 52.2783 64.569 52.289C64.5682 52.2997 64.5643 52.3099 64.558 52.3186L59.3296 59.4471C59.3208 59.4591 59.3078 59.4673 59.2931 59.4699ZM57.442 55.6814L59.2917 59.3028L64.4433 52.2789L62.5936 48.6575L57.442 55.6814Z" fill="#111111"/>
<path d="M63.8538 53.1808L61.9451 49.4439L58.0319 54.7794L59.9406 58.5163L63.8538 53.1808Z" fill="#B6F1CF"/>
<path d="M59.9509 58.5732C59.9386 58.5754 59.926 58.5736 59.9148 58.5681C59.9037 58.5625 59.8946 58.5536 59.8889 58.5425L57.9802 54.8056C57.9753 54.796 57.9732 54.7853 57.9741 54.7746C57.9749 54.7639 57.9788 54.7536 57.9851 54.745L61.8984 49.4095C61.9042 49.4015 61.912 49.3952 61.921 49.3911C61.93 49.387 61.9399 49.3852 61.9498 49.386C61.9597 49.3868 61.9692 49.3901 61.9774 49.3956C61.9856 49.4011 61.9923 49.4086 61.9968 49.4174L63.9056 53.1543C63.9105 53.1639 63.9126 53.1746 63.9117 53.1853C63.9108 53.196 63.907 53.2063 63.9007 53.2149L59.9874 58.5503C59.9784 58.5626 59.9653 58.5706 59.9509 58.5732ZM58.0997 54.7847L59.9495 58.406L63.7859 53.1753L61.9362 49.5539L58.0997 54.7847Z" fill="#111111"/>
<path d="M44.5892 73.1069L46.498 76.8439L28.0602 68.4164L26.1514 64.6794L44.5892 73.1069Z" fill="#069D6E"/>
<path d="M46.5083 76.9008C46.497 76.9028 46.4849 76.9015 46.4739 76.8964L28.036 68.469C28.0241 68.4636 28.0144 68.4543 28.0085 68.4426L26.0997 64.7057C26.0942 64.695 26.0922 64.6828 26.094 64.6709C26.0957 64.659 26.1012 64.6479 26.1095 64.6392C26.1178 64.6305 26.1287 64.6246 26.1405 64.6224C26.1524 64.6201 26.1646 64.6216 26.1756 64.6266L44.6134 73.0541C44.6253 73.0595 44.635 73.0688 44.6409 73.0805L46.5497 76.8174C46.5538 76.8255 46.5559 76.8344 46.556 76.8434C46.556 76.8524 46.554 76.8614 46.55 76.8695C46.5459 76.8776 46.5401 76.8846 46.5329 76.8901C46.5256 76.8955 46.5172 76.8992 46.5083 76.9008ZM28.1026 68.372L46.3706 76.7218L44.5467 73.1511L26.2788 64.8013L28.1026 68.372Z" fill="#111111"/>
</g>
<g clip-path="url(#clip1_1759_68571)">
<path d="M40.1935 53.2926L26.6126 59.7703C26.0548 60.0363 25.2758 59.7856 24.8696 59.2092L8.32674 35.7379C8.03671 35.3264 8.01653 34.8596 8.23325 34.5301L8.0062 34.8753C7.78945 35.2048 7.80962 35.6716 8.09969 36.0831L24.6425 59.5545C25.0487 60.1308 25.8277 60.3816 26.3856 60.1155L39.9664 53.6378C40.1247 53.5624 40.2479 53.4532 40.3339 53.3224L40.561 52.9772C40.4749 53.108 40.3517 53.2172 40.1935 53.2926Z" fill="#111111"/>
<path d="M25.6429 60.2392C25.2472 60.1673 24.8576 59.9329 24.608 59.5786L8.06513 36.1073C7.77621 35.6974 7.73924 35.2049 7.9709 34.8526L8.19791 34.5074C8.20398 34.4981 8.21346 34.4917 8.22427 34.4895C8.23508 34.4872 8.24634 34.4894 8.25556 34.4954C8.26478 34.5015 8.27121 34.511 8.27344 34.5218C8.27567 34.5326 8.27352 34.5439 8.26745 34.5531C8.05144 34.8816 8.08698 35.3264 8.3602 35.714L24.9031 59.1854C25.2969 59.7442 26.0555 59.9898 26.5942 59.7329L40.175 53.2552C40.3228 53.1847 40.4408 53.0835 40.5257 52.9545C40.5287 52.95 40.5326 52.946 40.5371 52.943C40.5416 52.9399 40.5467 52.9377 40.552 52.9366C40.5574 52.9355 40.5629 52.9355 40.5683 52.9365C40.5736 52.9376 40.5788 52.9396 40.5833 52.9426C40.5879 52.9456 40.5918 52.9495 40.5949 52.9541C40.5979 52.9586 40.6001 52.9637 40.6012 52.969C40.6023 52.9744 40.6023 52.9799 40.6013 52.9853C40.6003 52.9906 40.5982 52.9958 40.5952 53.0003L40.3681 53.3456C40.2748 53.4875 40.1455 53.5985 39.9838 53.6757L26.4029 60.1533C26.1734 60.2628 25.9068 60.2871 25.6429 60.2392ZM8.05927 34.8697L8.0404 34.8984C7.8244 35.2268 7.85992 35.6717 8.13311 36.0592L24.6759 59.5306C25.0698 60.0895 25.8284 60.335 26.3671 60.0781L39.9479 53.6004C40.0957 53.5299 40.2137 53.4287 40.2986 53.2997L40.3167 53.2721C40.2826 53.2936 40.2472 53.3131 40.2108 53.3304L26.6299 59.8081C26.0563 60.0817 25.2511 59.8239 24.835 59.2335L8.29218 35.7621C8.09299 35.4795 8.01354 35.1577 8.05927 34.8697Z" fill="#111111"/>
<path d="M40.467 51.7696C40.8733 52.346 40.7492 53.0275 40.193 53.2928L26.6121 59.7705C26.0543 60.0365 25.2753 59.7858 24.8691 59.2094L8.32629 35.738C7.9212 35.1633 8.04254 34.481 8.60036 34.2149L22.1812 27.7372C22.7374 27.4719 23.5191 27.7235 23.9242 28.2983L40.467 51.7696Z" fill="#069D6E"/>
<path d="M25.8704 59.894C25.4748 59.8222 25.0851 59.5877 24.8355 59.2335L8.29266 35.7621C8.07402 35.4518 7.99573 35.0936 8.07794 34.7793C8.14756 34.5132 8.32684 34.2994 8.58283 34.1773L22.1637 27.6996C22.7373 27.4261 23.5425 27.6838 23.9586 28.2743L40.5015 51.7457C40.7201 52.0559 40.7984 52.414 40.7162 52.7281C40.6466 52.9944 40.4672 53.2083 40.2113 53.3304L26.6304 59.8081C26.4009 59.9176 26.1343 59.942 25.8704 59.894ZM22.9097 27.6948C22.6627 27.65 22.4137 27.6727 22.1995 27.7748L8.61861 34.2525C8.38516 34.3639 8.22172 34.5585 8.15843 34.8004C8.08245 35.0909 8.15618 35.4239 8.36067 35.7141L24.9035 59.1855C25.2974 59.7443 26.0559 59.9898 26.5946 59.7329L40.1755 53.2552C40.409 53.1439 40.5724 52.9492 40.6357 52.7071C40.7117 52.4167 40.6379 52.0838 40.4334 51.7937L23.8906 28.3223C23.6534 27.9858 23.2838 27.7628 22.9097 27.6948Z" fill="#111111"/>
<path d="M18.1134 37.992L15.4164 34.1655C15.3453 34.0647 15.2072 34.0203 15.1097 34.0668L14.0772 34.5592C13.9781 34.6065 13.9564 34.7271 14.0274 34.8279L16.7244 38.6545C16.7966 38.7569 16.9335 38.7997 17.0326 38.7524L18.0651 38.26C18.1626 38.2135 18.1856 38.0944 18.1134 37.992Z" fill="white"/>
<path d="M16.8926 38.8088C16.8107 38.7933 16.738 38.7466 16.6898 38.6785L13.9928 34.852C13.9487 34.7894 13.9332 34.7162 13.9503 34.6511C13.9652 34.5938 14.0037 34.5479 14.0587 34.5216L15.0912 34.0292C15.2065 33.9742 15.3673 34.0246 15.4497 34.1415L18.1467 37.968C18.1911 38.031 18.2068 38.1043 18.1898 38.1692C18.175 38.226 18.1368 38.2716 18.0824 38.2976L17.0499 38.7901C17.0016 38.8131 16.9465 38.8186 16.8926 38.8088ZM15.2304 34.0933C15.194 34.0867 15.1576 34.0898 15.127 34.1044L14.0945 34.5968C14.0616 34.6125 14.0396 34.6386 14.0308 34.6722C14.02 34.7135 14.0309 34.7615 14.0608 34.8039L16.7578 38.6305C16.8179 38.7157 16.9328 38.7536 17.0141 38.7148L18.0466 38.2224C18.079 38.2069 18.1007 38.1812 18.1093 38.1481C18.1201 38.1071 18.1089 38.0589 18.0787 38.016L15.3817 34.1895C15.3456 34.1382 15.2879 34.1037 15.2304 34.0933Z" fill="#111111"/>
<path d="M22.1036 43.6534L19.4066 39.8269C19.3355 39.7261 19.1974 39.6817 19.1 39.7281L18.0675 40.2206C17.9683 40.2679 17.9466 40.3885 18.0177 40.4893L20.7147 44.3159C20.7856 44.4166 20.9238 44.4611 21.0228 44.4138L22.0553 43.9214C22.1528 43.8749 22.1746 43.7542 22.1036 43.6534Z" fill="white"/>
<path d="M20.8841 44.4693C20.8055 44.455 20.7289 44.4092 20.68 44.3399L17.9831 40.5133C17.939 40.4508 17.9235 40.3776 17.9405 40.3125C17.9555 40.2552 17.994 40.2092 18.0489 40.183L19.0814 39.6906C19.1967 39.6356 19.3575 39.6859 19.44 39.8028L22.137 43.6294C22.1811 43.692 22.1966 43.7654 22.1795 43.8307C22.1646 43.8876 22.1266 43.9332 22.0726 43.9589L21.0401 44.4514C20.9928 44.474 20.938 44.4791 20.8841 44.4693ZM19.2207 39.7547C19.1842 39.7481 19.1479 39.7511 19.1172 39.7658L18.0847 40.2582C18.0518 40.2739 18.0298 40.3 18.021 40.3336C18.0102 40.3749 18.0211 40.4229 18.051 40.4653L20.748 44.2919C20.8071 44.3757 20.9245 44.4143 21.0043 44.3762L22.0368 43.8838C22.0688 43.8685 22.0903 43.8429 22.099 43.8097C22.1099 43.7682 22.0989 43.72 22.0689 43.6774L19.3719 39.8509C19.3358 39.7996 19.2781 39.7651 19.2207 39.7547Z" fill="#111111"/>
<path d="M26.0928 49.3131L23.3958 45.4865C23.3249 45.3858 23.1866 45.3413 23.0892 45.3878L22.0567 45.8803C21.9576 45.9275 21.9359 46.0482 22.0069 46.1489L24.7039 49.9755C24.7761 50.0779 24.913 50.1207 25.0121 50.0735L26.0446 49.581C26.1421 49.5346 26.165 49.4155 26.0928 49.3131Z" fill="white"/>
<path d="M24.8721 50.1298C24.7901 50.1144 24.7174 50.0677 24.6693 49.9996L21.9723 46.173C21.9282 46.1105 21.9127 46.0373 21.9298 45.9722C21.9447 45.9149 21.9832 45.8689 22.0382 45.8427L23.0707 45.3502C23.1859 45.2952 23.3468 45.3456 23.4292 45.4625L26.1262 49.2891C26.1705 49.3521 26.1863 49.4254 26.1693 49.4903C26.1544 49.5471 26.1163 49.5927 26.0618 49.6186L25.0293 50.1111C24.981 50.1342 24.9259 50.1396 24.8721 50.1298ZM23.2099 45.4143C23.1734 45.4077 23.1371 45.4108 23.1064 45.4254L22.0739 45.9179C22.0411 45.9336 22.0191 45.9596 22.0103 45.9932C21.9994 46.0346 22.0104 46.0826 22.0402 46.1249L24.7372 49.9515C24.7974 50.0368 24.9123 50.0746 24.9935 50.0359L26.026 49.5434C26.0584 49.528 26.0802 49.5023 26.0888 49.4692C26.0995 49.4281 26.0883 49.38 26.0581 49.3371L23.3612 45.5106C23.325 45.4593 23.2673 45.4248 23.2099 45.4143Z" fill="#111111"/>
<path d="M30.0826 54.9745L27.3856 51.1479C27.3134 51.0455 27.1764 51.0027 27.0789 51.0492L26.0464 51.5417C25.9473 51.5889 25.9245 51.7079 25.9966 51.8103L28.6936 55.6369C28.7646 55.7377 28.9027 55.7822 29.0018 55.7349L30.0343 55.2424C30.1319 55.1959 30.1536 55.0752 30.0826 54.9745Z" fill="white"/>
<path d="M28.8639 55.7904C28.7854 55.7762 28.7087 55.7304 28.6599 55.6611L25.9629 51.8345C25.9186 51.7716 25.9029 51.6984 25.9198 51.6338C25.9347 51.5766 25.9734 51.5306 26.0288 51.5042L27.0613 51.0118C27.1785 50.9558 27.336 51.0051 27.4198 51.124L30.1168 54.9506C30.1609 55.0132 30.1764 55.0866 30.1593 55.1519C30.1444 55.2088 30.1065 55.2544 30.0524 55.2802L29.0199 55.7726C28.9726 55.7952 28.9178 55.8002 28.8639 55.7904ZM27.2015 51.0753C27.165 51.0686 27.1284 51.072 27.097 51.0869L26.0645 51.5794C26.0313 51.5952 26.009 51.6214 26.0003 51.6549C25.9896 51.6957 26.0008 51.7437 26.0309 51.7865L28.7279 55.6131C28.787 55.6969 28.9044 55.7355 28.9842 55.6974L30.0167 55.205C30.0486 55.1897 30.0702 55.1641 30.0789 55.1309C30.0898 55.0893 30.0788 55.0412 30.0488 54.9986L27.3518 51.172C27.3152 51.1201 27.2584 51.0856 27.2015 51.0753Z" fill="#111111"/>
<path d="M22.2988 35.0774L20.2595 32.1839C20.093 31.9477 19.7715 31.843 19.5429 31.952L17.7288 32.8173C17.4987 32.9271 17.4495 33.2087 17.6159 33.4448L19.6553 36.3383C19.8229 36.5761 20.1433 36.6792 20.3734 36.5695L22.1875 35.7042C22.416 35.5952 22.4664 35.3152 22.2988 35.0774Z" fill="#B6F1CF"/>
<path d="M20.0639 36.6443C19.8946 36.6136 19.7281 36.5136 19.6216 36.3624L17.5823 33.469C17.4881 33.3353 17.4545 33.1803 17.4903 33.0437C17.5208 32.927 17.5993 32.8332 17.7113 32.7798L19.5254 31.9146C19.7711 31.7973 20.1158 31.9075 20.2939 32.1601L22.3332 35.0535C22.4277 35.1877 22.4616 35.3428 22.4259 35.4792C22.3955 35.5954 22.3174 35.6888 22.2058 35.742L20.3917 36.6072C20.2926 36.6544 20.1776 36.665 20.0639 36.6443ZM19.8373 31.9588C19.741 31.9413 19.6443 31.9501 19.5611 31.9897L17.7471 32.855C17.6576 32.8977 17.5949 32.9722 17.5707 33.0647C17.5412 33.1775 17.5702 33.3074 17.6503 33.4209L19.6896 36.3144C19.8453 36.5353 20.1442 36.6329 20.3559 36.532L22.1699 35.6667C22.259 35.6242 22.3213 35.5501 22.3453 35.4581C22.3748 35.3455 22.3455 35.2156 22.2652 35.1015L20.2258 32.2081C20.1315 32.0743 19.985 31.9856 19.8373 31.9588Z" fill="#111111"/>
<path d="M18.1887 34.3084C18.18 34.3068 18.172 34.3025 18.166 34.2962C18.1599 34.2898 18.156 34.2817 18.1548 34.2729C18.1536 34.2642 18.1553 34.2553 18.1595 34.2475C18.1637 34.2398 18.1702 34.2336 18.1782 34.2298L20.8217 32.9689C20.8317 32.9641 20.8432 32.9635 20.8536 32.9672C20.864 32.9709 20.8725 32.9786 20.8772 32.9886C20.882 32.9985 20.8825 33.01 20.8788 33.0204C20.8752 33.0308 20.8675 33.0393 20.8575 33.0441L18.214 34.305C18.2061 34.3088 18.1972 34.31 18.1887 34.3084ZM19.0698 35.5586C19.0611 35.557 19.0532 35.5528 19.0471 35.5464C19.041 35.54 19.0371 35.5319 19.036 35.5231C19.0348 35.5144 19.0364 35.5055 19.0406 35.4978C19.0448 35.49 19.0514 35.4838 19.0594 35.48L21.7029 34.2191C21.7129 34.2143 21.7243 34.2138 21.7347 34.2174C21.7451 34.2211 21.7537 34.2288 21.7584 34.2388C21.7631 34.2488 21.7637 34.2602 21.76 34.2706C21.7564 34.281 21.7487 34.2895 21.7387 34.2943L19.0951 35.5552C19.0873 35.559 19.0784 35.5602 19.0698 35.5586Z" fill="#111111"/>
<path d="M21.7133 35.9679C21.7026 35.9659 21.693 35.9598 21.6867 35.9509L19.0422 32.1987C19.0388 32.1943 19.0364 32.1892 19.035 32.1838C19.0337 32.1784 19.0335 32.1727 19.0343 32.1672C19.0352 32.1617 19.0371 32.1564 19.0401 32.1517C19.043 32.147 19.0469 32.1429 19.0514 32.1397C19.056 32.1364 19.0611 32.1342 19.0666 32.133C19.072 32.1318 19.0777 32.1317 19.0831 32.1327C19.0886 32.1338 19.0938 32.1359 19.0985 32.139C19.1031 32.1421 19.1071 32.1461 19.1101 32.1507L21.7547 35.9029C21.7595 35.9096 21.7621 35.9177 21.7623 35.9259C21.7625 35.9342 21.7602 35.9423 21.7558 35.9493C21.7513 35.9562 21.7449 35.9617 21.7374 35.965C21.7298 35.9684 21.7214 35.9693 21.7133 35.9679ZM20.8326 36.3879C20.8219 36.386 20.8123 36.3799 20.8061 36.371L18.1614 32.6187C18.1582 32.6143 18.1559 32.6092 18.1546 32.6038C18.1533 32.5985 18.1531 32.5929 18.154 32.5874C18.1549 32.582 18.1569 32.5768 18.1598 32.5721C18.1628 32.5674 18.1666 32.5634 18.1711 32.5602C18.1756 32.557 18.1807 32.5547 18.1861 32.5535C18.1915 32.5524 18.1971 32.5522 18.2025 32.5532C18.2079 32.5542 18.2131 32.5563 18.2177 32.5593C18.2224 32.5623 18.2263 32.5662 18.2295 32.5707L20.874 36.3229C20.8788 36.3297 20.8814 36.3377 20.8816 36.346C20.8818 36.3542 20.8795 36.3624 20.8751 36.3693C20.8707 36.3763 20.8643 36.3818 20.8567 36.3851C20.8491 36.3884 20.8407 36.3894 20.8326 36.3879Z" fill="#111111"/>
</g>
<g clip-path="url(#clip2_1759_68571)">
<path d="M25.5318 18.3042L24.6345 19.6212C24.4387 19.9057 24.1882 20.1483 23.8978 20.3348C21.8993 21.6385 18.0873 20.6505 15.3854 18.1303C13.0936 15.9926 12.3337 13.4402 13.3712 11.9176L14.2686 10.6008C13.2312 12.1233 13.9909 14.6758 16.2827 16.8133C18.9844 19.3335 22.7966 20.3215 24.7951 19.0178C25.0855 18.8313 25.336 18.5887 25.5318 18.3042Z" fill="url(#paint0_linear_1759_68571)"/>
<path d="M22.5192 20.8877C20.4192 21.225 17.5257 20.1859 15.3556 18.1619C13.0905 16.0492 12.2597 13.4714 13.3352 11.8933L14.2326 10.5764C14.2358 10.5718 14.2398 10.5677 14.2446 10.5646C14.2493 10.5615 14.2547 10.5594 14.2602 10.5583C14.2658 10.5573 14.2715 10.5573 14.2771 10.5585C14.2826 10.5597 14.2879 10.5619 14.2926 10.5651C14.2973 10.5683 14.3013 10.5724 14.3044 10.5772C14.3075 10.582 14.3097 10.5873 14.3107 10.5929C14.3118 10.5985 14.3117 10.6042 14.3105 10.6098C14.3094 10.6153 14.3071 10.6206 14.3039 10.6253C13.253 12.1675 14.0787 14.699 16.3117 16.7818C18.9968 19.286 22.7917 20.2729 24.7712 18.9816C25.0561 18.7985 25.3019 18.5606 25.4944 18.2817L25.4957 18.2799C25.5023 18.2706 25.5122 18.2643 25.5233 18.2622C25.5345 18.2602 25.546 18.2627 25.5554 18.2691C25.5647 18.2755 25.5712 18.2853 25.5734 18.2965C25.5756 18.3076 25.5733 18.3192 25.5671 18.3287L24.6698 19.6455C24.4706 19.9346 24.2161 20.1811 23.921 20.3708C23.5191 20.6332 23.0439 20.8034 22.5192 20.8877ZM13.9318 11.1715L13.4066 11.9421C12.3557 13.4842 13.1815 16.0158 15.4144 18.0985C18.0995 20.6029 21.8943 21.5898 23.8738 20.2984C24.1594 20.1149 24.4057 19.8764 24.5984 19.5966L25.1257 18.8228C25.0286 18.9069 24.9259 18.9842 24.8184 19.0542C22.8077 20.3659 18.9651 19.3749 16.2531 16.8451C14.2538 14.9806 13.372 12.7537 13.9318 11.1715Z" fill="#111111"/>
<path d="M15.0055 9.88708C17.004 8.58337 20.8148 9.57025 23.5195 12.0929C26.2212 14.6131 26.7937 17.7144 24.7954 19.0181C22.797 20.3218 18.9846 19.3336 16.2827 16.8135C13.5782 14.291 13.007 11.1908 15.0055 9.88708Z" fill="#B6F1CF"/>
<path d="M23.4163 19.5709C21.3163 19.9082 18.4228 18.8691 16.2527 16.8451C14.5733 15.2788 13.6493 13.4264 13.7814 11.8904C13.8559 11.0194 14.271 10.3141 14.9813 9.85073C16.992 8.539 20.835 9.53056 23.5481 12.061C25.2266 13.6265 26.1499 15.4784 26.0179 17.0146C25.9432 17.8857 25.5283 18.5909 24.8181 19.0542C24.4162 19.3164 23.941 19.4866 23.4163 19.5709ZM16.4015 9.41731C15.8873 9.4999 15.4221 9.66668 15.0285 9.9233C14.3413 10.3716 13.9398 11.0544 13.8673 11.8978C13.7377 13.4075 14.6514 15.2333 16.3115 16.7817C18.4625 18.7878 21.3261 19.8201 23.3977 19.4876C23.912 19.405 24.377 19.2383 24.771 18.9815C25.458 18.5333 25.8594 17.8506 25.9319 17.0071C26.0615 15.4971 25.1484 13.6718 23.4894 12.1242C21.3375 10.1175 18.4733 9.08454 16.4015 9.41731Z" fill="#111111"/>
<path d="M22.8487 12.5283C20.6462 10.4739 17.5402 9.66956 15.9108 10.7325C14.2825 11.7947 14.748 14.3215 16.9506 16.3759C19.1544 18.4315 22.2605 19.2359 23.8888 18.1736C25.5182 17.1107 25.0526 14.5838 22.8487 12.5283Z" fill="white"/>
<path d="M22.768 18.6318C21.0538 18.9071 18.6923 18.0594 16.9214 16.4076C15.5517 15.1301 14.7985 13.6186 14.9061 12.3643C14.9672 11.6519 15.3066 11.0751 15.8875 10.6962C17.5295 9.62495 20.6657 10.4326 22.8785 12.4965C24.2488 13.7746 25.0026 15.2865 24.8949 16.5408C24.8337 17.2535 24.4939 17.8306 23.9128 18.2098C23.5649 18.4293 23.1749 18.573 22.768 18.6318ZM17.0518 10.357C16.6547 10.4144 16.2741 10.5547 15.9346 10.7688C15.3768 11.1326 15.0509 11.6869 14.992 12.3718C14.8865 13.5998 15.6298 15.0848 16.98 16.3442C18.7319 17.9782 21.0634 18.8192 22.7491 18.5487C23.1459 18.4914 23.5262 18.3513 23.8653 18.1374C24.4237 17.7732 24.7497 17.2185 24.8085 16.5334C24.9139 15.3054 24.1704 13.82 22.8194 12.5599C21.0686 10.9268 18.7377 10.0862 17.0518 10.357Z" fill="#111111"/>
<path d="M17.0108 11.3381L16.5873 11.6144L17.3189 12.2968C17.0696 12.533 16.9726 12.813 17.03 13.1356C17.0877 13.4662 17.2982 13.8006 17.6615 14.1391C18.0176 14.4712 18.4001 14.6873 18.8089 14.7874C19.2196 14.8877 19.689 14.878 20.222 14.7595C20.6127 14.6825 20.9376 14.6709 21.1942 14.7244C21.4541 14.7793 21.6935 14.9057 21.8856 15.0895C22.1268 15.3145 22.2491 15.5374 22.2521 15.7564C22.2541 15.976 22.1368 16.163 21.8974 16.3192C21.7786 16.3972 21.6449 16.4497 21.5048 16.4731C21.3647 16.4966 21.2213 16.4905 21.0836 16.4553C20.7835 16.3872 20.4801 16.2095 20.1732 15.9223L19.6677 16.2521C20.1063 16.6612 20.5485 16.9209 20.997 17.0353C21.433 17.1457 21.8348 17.1106 22.2035 16.9375L22.8423 17.5333L23.2658 17.2569L22.6322 16.666L22.6367 16.6609C22.9283 16.4051 23.0524 16.1101 23.0089 15.7758C22.9659 15.4439 22.7575 15.1012 22.3846 14.7534C22.1705 14.5488 21.9254 14.3795 21.6585 14.2515C21.4049 14.1361 21.1327 14.0671 20.8548 14.0478C20.5147 14.0309 20.1739 14.0599 19.8416 14.134C19.4543 14.2128 19.1332 14.2293 18.8783 14.1835C18.6229 14.1374 18.3813 14.0088 18.1555 13.7982C17.9116 13.5707 17.7781 13.3552 17.7578 13.1536C17.7355 12.9513 17.8328 12.7794 18.0496 12.638C18.2566 12.5029 18.5155 12.4813 18.8212 12.5744C19.1265 12.6656 19.4362 12.8577 19.7502 13.1505L19.7734 13.1722L20.2761 12.8443L20.2529 12.8226C19.7987 12.3991 19.3563 12.1211 18.9259 11.9888C18.4933 11.8558 18.099 11.8656 17.743 12.018L17.7411 12.0193L17.0108 11.3381Z" fill="#B6F1CF"/>
<path d="M22.8497 17.5758C22.8432 17.5769 22.8366 17.5764 22.8303 17.5745C22.824 17.5726 22.8182 17.5692 22.8134 17.5647L22.1959 16.9887C21.8236 17.1561 21.417 17.1859 20.987 17.0771C20.5327 16.9612 20.0791 16.6942 19.6389 16.2835C19.6341 16.279 19.6304 16.2735 19.628 16.2674C19.6256 16.2612 19.6247 16.2546 19.6253 16.2481C19.6258 16.2416 19.6279 16.2352 19.6313 16.2296C19.6346 16.2239 19.6392 16.2192 19.6447 16.2156L20.1502 15.8858C20.1583 15.8805 20.1679 15.8781 20.1775 15.8789C20.1872 15.8798 20.1962 15.8838 20.2033 15.8904C20.5045 16.1713 20.8041 16.3471 21.0937 16.4129C21.2258 16.4466 21.3634 16.4524 21.4978 16.43C21.6322 16.4076 21.7604 16.3574 21.8744 16.2827C22.1018 16.1344 22.2114 15.9623 22.2095 15.7566C22.2067 15.5506 22.0881 15.3367 21.8568 15.121C21.6703 14.9429 21.4381 14.8202 21.1861 14.7666C20.9354 14.7144 20.6139 14.7264 20.2309 14.8017C19.695 14.9208 19.213 14.9301 18.7994 14.8292C18.3858 14.7282 17.9932 14.5066 17.6328 14.1703C17.264 13.8262 17.0471 13.4807 16.9881 13.1427C16.931 12.8212 17.0214 12.537 17.257 12.2972L16.5586 11.646C16.5538 11.6416 16.55 11.636 16.5477 11.6299C16.5453 11.6238 16.5444 11.6172 16.5449 11.6106C16.5455 11.6041 16.5475 11.5977 16.5509 11.5921C16.5543 11.5864 16.5589 11.5816 16.5644 11.5781L16.9879 11.3018C16.996 11.2966 17.0056 11.2942 17.0152 11.295C17.0248 11.2958 17.0338 11.2999 17.0409 11.3065L17.7505 11.9682C18.1084 11.822 18.5082 11.8149 18.9393 11.9473C19.3739 12.0809 19.826 12.3648 20.2829 12.791L20.3062 12.8127C20.311 12.8172 20.3147 12.8227 20.3171 12.8288C20.3194 12.835 20.3204 12.8416 20.3198 12.8481C20.3192 12.8547 20.3172 12.861 20.3138 12.8666C20.3105 12.8723 20.3058 12.8771 20.3003 12.8807L19.7977 13.2085C19.7896 13.2139 19.7799 13.2163 19.7703 13.2155C19.7606 13.2146 19.7515 13.2106 19.7444 13.2039L19.7212 13.1823C19.4137 12.8954 19.1069 12.7049 18.8093 12.6159C18.5169 12.527 18.2695 12.5466 18.0736 12.6743C17.8698 12.8074 17.7806 12.9625 17.8012 13.1489C17.8201 13.3388 17.9493 13.5464 18.1853 13.7665C18.404 13.9705 18.6399 14.0965 18.8864 14.141C19.1338 14.1857 19.4523 14.1691 19.8334 14.0916C20.1696 14.0169 20.5143 13.9877 20.8583 14.0046C21.1413 14.0245 21.4184 14.0948 21.6768 14.2122C21.9479 14.3422 22.1968 14.5141 22.4144 14.7217C22.7933 15.075 23.0078 15.4278 23.0522 15.7702C23.0958 16.1062 22.976 16.4074 22.6961 16.6659L23.2956 17.2251C23.3004 17.2295 23.3041 17.2351 23.3065 17.2412C23.3089 17.2473 23.3098 17.2539 23.3092 17.2605C23.3087 17.267 23.3066 17.2734 23.3033 17.279C23.2999 17.2847 23.2953 17.2894 23.2898 17.293L22.8662 17.5693C22.8612 17.5726 22.8556 17.5748 22.8497 17.5758ZM22.1973 16.8946C22.2038 16.8935 22.2104 16.894 22.2167 16.8959C22.223 16.8978 22.2287 16.9012 22.2336 16.9056L22.8475 17.4783L23.1965 17.2507L22.6034 16.6975C22.595 16.6897 22.5901 16.6789 22.5896 16.6675C22.5891 16.6561 22.5932 16.6449 22.6009 16.6365L22.6054 16.6314C22.6064 16.6302 22.6076 16.6291 22.6088 16.628C22.8875 16.3836 23.0079 16.0987 22.9667 15.7811C22.925 15.4592 22.7194 15.124 22.3558 14.7849C22.1448 14.5835 21.9036 14.4167 21.6409 14.2906C21.3919 14.1775 21.1249 14.1098 20.8522 14.0907C20.5161 14.0744 20.1794 14.1031 19.8509 14.1762C19.4592 14.2558 19.1296 14.2726 18.8714 14.226C18.6084 14.1784 18.3578 14.0451 18.1268 13.8296C17.8749 13.5947 17.7366 13.3686 17.7156 13.1576C17.6915 12.9392 17.7962 12.752 18.0268 12.6015C18.245 12.4591 18.5165 12.4361 18.8345 12.5328C19.1442 12.6254 19.462 12.8222 19.7789 13.1173L20.2069 12.8381C19.7656 12.4298 19.3307 12.1579 18.9141 12.0298C18.4939 11.9008 18.1062 11.9099 17.7617 12.0571C17.7538 12.0609 17.7449 12.0623 17.7362 12.0611C17.7275 12.06 17.7193 12.0563 17.7126 12.0506L17.0068 11.3928L16.6579 11.6206L17.349 12.2653C17.3534 12.2693 17.3568 12.2742 17.3592 12.2796C17.3616 12.285 17.3628 12.2908 17.3628 12.2968C17.3628 12.3027 17.3617 12.3085 17.3593 12.314C17.357 12.3194 17.3536 12.3243 17.3493 12.3284C17.1118 12.5534 17.0189 12.8225 17.0732 13.1282C17.1288 13.4472 17.337 13.7766 17.6916 14.1074C18.0411 14.4334 18.4207 14.648 18.8198 14.7455C19.2206 14.8433 19.6893 14.8338 20.2131 14.7173C20.6083 14.6394 20.9415 14.6276 21.2036 14.6821C21.4711 14.7389 21.7176 14.869 21.9156 15.0579C22.1648 15.2904 22.2928 15.5252 22.2959 15.7559C22.2981 15.9904 22.1721 16.1921 21.9215 16.3554C21.7979 16.4366 21.6588 16.4911 21.5131 16.5156C21.3673 16.54 21.218 16.5338 21.0747 16.4974C20.778 16.4301 20.4735 16.255 20.1692 15.9769L19.7385 16.2579C20.1551 16.6373 20.5821 16.8846 21.0082 16.9933C21.4286 17.0996 21.8248 17.0677 22.1858 16.8982C22.1894 16.8965 22.1933 16.8953 22.1973 16.8946Z" fill="#111111"/>
</g>
<g clip-path="url(#clip3_1759_68571)">
<path d="M39.7682 25.3043C41.085 28.9227 38.9425 33.587 34.9812 35.7215C31.02 37.856 26.7398 36.6526 25.423 33.0342C24.1062 29.4159 26.2513 24.7524 30.2123 22.6177C34.1733 20.483 38.4514 21.686 39.7682 25.3043Z" fill="#B6F1CF"/>
<path d="M28.88 36.4799C28.8122 36.4568 28.7451 36.4326 28.6782 36.4071C27.1247 35.8156 25.9536 34.6234 25.3809 33.0498C24.0587 29.4173 26.2169 24.7195 30.1914 22.5778C32.3017 21.4407 34.6066 21.2051 36.515 21.9316C38.0679 22.523 39.2387 23.7151 39.8114 25.2889C41.1338 28.9222 38.9769 33.6203 35.0034 35.7614C32.9669 36.8588 30.7485 37.1164 28.88 36.4799ZM36.2841 21.9449C34.44 21.3167 32.2489 21.5722 30.2346 22.6577C26.2981 24.7789 24.159 29.4268 25.4663 33.0188C26.0297 34.5673 27.1819 35.7404 28.7105 36.3223C30.5951 37.0398 32.8729 36.8061 34.9603 35.6816C38.8956 33.5612 41.0336 28.9127 39.7261 25.3198C39.1625 23.7713 38.0105 22.5982 36.4827 22.0165C36.4169 21.9914 36.3507 21.9676 36.2841 21.9449Z" fill="#111111"/>
<path d="M38.4413 26.0202C37.3683 23.0721 33.8816 22.0918 30.6541 23.831C27.4247 25.5711 25.6778 29.3715 26.7507 32.3197C27.8243 35.2696 31.311 36.2499 34.5405 34.5097C37.7679 32.7706 39.5149 28.9702 38.4413 26.0202Z" fill="white"/>
<path d="M29.5647 35.1364C29.5094 35.1176 29.4545 35.0978 29.4001 35.0771C28.1318 34.5943 27.1758 33.6205 26.708 32.3351C25.6293 29.3711 27.3898 25.5382 30.6325 23.7909C32.3541 22.8632 34.2349 22.6712 35.7926 23.2642C36.4139 23.4974 36.9767 23.8636 37.4416 24.337C37.9065 24.8104 38.2622 25.3796 38.4839 26.0047C39.563 28.9697 37.8035 32.8029 34.562 34.5496C32.8996 35.4454 31.0893 35.6557 29.5647 35.1364ZM35.5987 23.2908C34.0981 22.7796 32.315 22.9876 30.6756 23.8708C27.4708 25.5975 25.7294 29.3808 26.7934 32.3043C27.0107 32.9175 27.3595 33.4758 27.8154 33.9402C28.2713 34.4045 28.8232 34.7637 29.4325 34.9925C29.486 35.0128 29.5399 35.0323 29.5941 35.0508C31.0949 35.562 32.8789 35.3538 34.519 34.47C37.7223 32.7436 39.4628 28.96 38.3985 26.0357C38.1812 25.4228 37.8325 24.8648 37.3768 24.4007C36.9211 23.9366 36.3694 23.5776 35.7603 23.349C35.7068 23.3286 35.6529 23.3092 35.5987 23.2908Z" fill="#111111"/>
<path d="M37.3926 27.1595L37.1136 26.3928L36.0416 26.9705C35.7787 26.4716 35.4247 26.1575 34.9796 26.0283C34.5243 25.8955 34.0307 25.9728 33.499 26.2601C32.9772 26.5413 32.6052 26.9339 32.383 27.4378C32.1602 27.9442 32.0724 28.6032 32.1161 29.4203C32.1352 30.0132 32.0806 30.4723 31.9538 30.7948C31.8367 31.1065 31.6098 31.3646 31.3156 31.5208C30.9621 31.7113 30.6372 31.7378 30.3429 31.6008C30.0482 31.4621 29.8229 31.1786 29.6653 30.7452C29.5049 30.3047 29.5034 29.8966 29.658 29.5261C29.814 29.1528 30.1185 28.8461 30.5684 28.6037L30.2351 27.6884C29.5924 28.0348 29.1492 28.4823 28.8991 29.0321C28.6574 29.5673 28.6178 30.1485 28.7704 30.7727L27.8345 31.2771L28.1136 32.0439L29.042 31.5436L29.0476 31.553C29.3275 32.1231 29.6962 32.4857 30.1536 32.6407C30.6077 32.7947 31.1117 32.7256 31.6582 32.4311C31.9801 32.2638 32.2627 32.0298 32.4871 31.7448C32.7036 31.4512 32.8557 31.1151 32.9334 30.7587C33.0231 30.3715 33.0573 29.8834 33.0361 29.2944C33.0139 28.7053 33.0608 28.2482 33.177 27.9232C33.2938 27.5979 33.5182 27.3448 33.8492 27.1664C34.2066 26.9739 34.5241 26.9266 34.7986 27.0287C35.0745 27.128 35.2839 27.3739 35.4268 27.7665C35.4946 27.947 35.5225 28.1401 35.5086 28.3323C35.4946 28.5246 35.4391 28.7115 35.3459 28.8803C35.1578 29.2461 34.8337 29.5529 34.3737 29.8008L34.3396 29.8191L34.6708 30.7293L34.7049 30.7109C35.3704 30.3523 35.8382 29.9164 36.1083 29.4032C36.3797 28.8872 36.4515 28.3327 36.3238 27.7396L36.3226 27.7362L37.3927 27.1595" fill="#B6F1CF"/>
<path d="M28.0981 32.087L28.0965 32.0864C28.0904 32.0841 28.0849 32.0805 28.0803 32.0759C28.0758 32.0712 28.0722 32.0657 28.07 32.0595L27.7909 31.2927C27.7872 31.2825 27.7873 31.2713 27.7912 31.2611C27.795 31.2509 27.8024 31.2425 27.812 31.2373L28.7173 30.7495C28.5714 30.1256 28.6183 29.5417 28.8568 29.0139C29.1102 28.4563 29.5663 27.9971 30.2126 27.6489C30.2184 27.6458 30.2247 27.644 30.2312 27.6436C30.2377 27.6432 30.2442 27.6441 30.2503 27.6465C30.2564 27.6488 30.2619 27.6524 30.2665 27.657C30.2711 27.6616 30.2746 27.6672 30.2768 27.6733L30.61 28.5886C30.6137 28.5989 30.6136 28.6101 30.6097 28.6203C30.6058 28.6305 30.5984 28.6389 30.5888 28.6441C30.1486 28.8813 29.8491 29.1841 29.6988 29.5441C29.5484 29.9041 29.5513 30.3029 29.7067 30.7302C29.8589 31.1483 30.0792 31.4275 30.3611 31.5603C30.6407 31.6904 30.9543 31.6639 31.293 31.4814C31.5774 31.3298 31.7968 31.08 31.9105 30.7787C32.0349 30.4623 32.0885 30.0059 32.0697 29.4222C32.0256 28.6026 32.1166 27.9286 32.3404 27.4201C32.565 26.9094 32.9472 26.5059 33.4764 26.2207C34.0174 25.9293 34.527 25.85 34.9913 25.9853C35.4337 26.1129 35.7929 26.4236 36.059 26.9094L37.0911 26.3533C37.0968 26.3502 37.1032 26.3484 37.1097 26.3479C37.1162 26.3475 37.1227 26.3485 37.1288 26.3508C37.1349 26.3531 37.1404 26.3567 37.145 26.3614C37.1496 26.366 37.1531 26.3716 37.1553 26.3777L37.4344 27.1445C37.4381 27.1548 37.438 27.166 37.4341 27.1762C37.4302 27.1863 37.4228 27.1948 37.4132 27.1999L36.3736 27.7599C36.4977 28.3241 36.4176 28.9138 36.1476 29.4244C35.8746 29.9433 35.3961 30.3896 34.7255 30.751L34.6915 30.7693C34.6857 30.7724 34.6794 30.7742 34.6729 30.7746C34.6664 30.775 34.6599 30.7741 34.6538 30.7718C34.6477 30.7695 34.6422 30.7658 34.6376 30.7612C34.633 30.7566 34.6295 30.751 34.6272 30.7449L34.296 29.8347C34.2923 29.8245 34.2924 29.8133 34.2963 29.8031C34.3001 29.7929 34.3075 29.7845 34.3171 29.7793L34.3512 29.7609C34.8008 29.5186 35.1216 29.2154 35.3046 28.8596C35.3947 28.6964 35.4485 28.5155 35.462 28.3295C35.4756 28.1435 35.4487 27.9568 35.3832 27.7821C35.2459 27.4046 35.0437 27.1655 34.7824 27.0715C34.5222 26.9747 34.2154 27.0203 33.8699 27.2065C33.5505 27.3786 33.3315 27.6249 33.2188 27.9386C33.1052 28.2552 33.0586 28.7109 33.0805 29.2928C33.1026 29.8799 33.0677 30.3766 32.9767 30.769C32.8973 31.1316 32.7426 31.4734 32.5225 31.7723C32.294 32.0623 32.0064 32.3005 31.6789 32.4712C31.1234 32.7706 30.605 32.8421 30.1382 32.6837C29.68 32.5283 29.3045 32.1658 29.0221 31.6055L28.1342 32.0839C28.1287 32.0869 28.1227 32.0887 28.1165 32.0892C28.1103 32.0897 28.104 32.089 28.0981 32.087ZM27.8897 31.2985L28.1376 31.9792L29.0198 31.5038C29.0301 31.4983 29.0421 31.4969 29.0534 31.5001C29.0646 31.5032 29.0743 31.5105 29.0803 31.5205L29.0859 31.5299C29.3607 32.0894 29.7238 32.4476 30.1675 32.5979C30.6095 32.7477 31.1035 32.6783 31.636 32.3914C31.9521 32.2268 32.2297 31.997 32.4505 31.7174C32.6627 31.4286 32.8119 31.0985 32.8884 30.7485C32.9775 30.364 33.0117 29.8753 32.9899 29.2963C32.9673 28.6942 33.0142 28.2404 33.1335 27.908C33.254 27.5725 33.4873 27.3095 33.8269 27.1267C34.1964 26.9276 34.5284 26.8805 34.8137 26.9863C35.1012 27.0898 35.3217 27.3472 35.4688 27.7511C35.5388 27.9376 35.5676 28.1369 35.5532 28.3354C35.5388 28.534 35.4816 28.7271 35.3854 28.9014C35.1941 29.2734 34.8608 29.5895 34.395 29.8406L34.6948 30.6645C35.3428 30.313 35.8045 29.8816 36.067 29.3823C36.3315 28.8815 36.4066 28.3021 36.2786 27.7503C36.276 27.7402 36.2766 27.7296 36.2804 27.7199C36.2843 27.7102 36.2911 27.702 36.3 27.6965L37.3356 27.1385L37.0877 26.4579L36.0619 27.0106C36.0566 27.0135 36.0508 27.0152 36.0448 27.0158C36.0389 27.0164 36.0328 27.0158 36.0271 27.0141C36.0214 27.0123 36.016 27.0094 36.0114 27.0056C36.0068 27.0018 36.003 26.9971 36.0002 26.9918C35.7439 26.5055 35.3959 26.1961 34.9658 26.0722C34.525 25.9438 34.0383 26.0206 33.5193 26.3004C33.0084 26.5757 32.6396 26.9647 32.4233 27.4564C32.2053 27.9518 32.1168 28.6119 32.1602 29.4182C32.1794 30.0152 32.1238 30.4837 31.9947 30.8117C31.8734 31.1331 31.6392 31.3995 31.3359 31.5611C30.9706 31.7578 30.6296 31.7852 30.3224 31.6425C30.0176 31.4991 29.7817 31.2026 29.621 30.7612C29.4575 30.3119 29.4554 29.8907 29.6146 29.5092C29.7691 29.1391 30.0706 28.8277 30.5109 28.5831L30.2092 27.7541C29.6057 28.0891 29.1785 28.5254 28.9397 29.051C28.7054 29.5697 28.6628 30.1455 28.8137 30.7621C28.8161 30.7718 28.8152 30.7821 28.8111 30.7913C28.807 30.8005 28.8 30.808 28.7911 30.8128L27.8897 31.2985Z" fill="#111111"/>
<path d="M40.8062 26.3075C40.5191 25.5025 40.0513 24.7738 39.4388 24.1773L38.4011 23.1742C39.0136 23.7707 39.4814 24.4994 39.7685 25.3043C41.0854 28.9227 38.9428 33.587 34.9816 35.7215C31.9464 37.357 28.7238 37.0328 26.7905 35.1639L27.8281 36.167C29.7613 38.0358 32.9839 38.3601 36.0193 36.7246C39.9804 34.5902 42.123 29.9258 40.8062 26.3075Z" fill="url(#paint1_linear_1759_68571)"/>
<path d="M29.9123 37.4828C29.1207 37.217 28.3981 36.7787 27.7966 36.1996L26.7589 35.1965C26.7503 35.1882 26.7453 35.1767 26.7451 35.1647C26.7449 35.1526 26.7495 35.141 26.7579 35.1324C26.7662 35.1237 26.7777 35.1187 26.7898 35.1186C26.8018 35.1184 26.8134 35.1229 26.8221 35.1313C27.7768 36.0542 29.0403 36.6006 30.4762 36.7116C31.9479 36.8253 33.4983 36.4691 34.9599 35.6815C38.8953 33.5611 41.0333 28.9127 39.7258 25.3198C39.4413 24.5211 38.9773 23.7982 38.3694 23.2068C38.3608 23.1984 38.3558 23.1869 38.3556 23.1749C38.3554 23.1629 38.36 23.1512 38.3683 23.1426C38.3767 23.1339 38.3882 23.129 38.4002 23.1288C38.4123 23.1286 38.4239 23.1332 38.4326 23.1415L39.4703 24.1447C40.088 24.7457 40.5596 25.4803 40.8487 26.292C42.1711 29.9254 40.0142 34.6235 36.0407 36.7646C34.5638 37.5605 32.996 37.9203 31.5069 37.8052C30.964 37.7651 30.4282 37.6568 29.9123 37.4828ZM27.5395 35.8249L27.8598 36.1344C28.8144 37.0573 30.078 37.6038 31.5139 37.7147C32.9856 37.8284 34.536 37.4722 35.9976 36.6847C39.933 34.5643 42.071 29.9158 40.7634 26.3229C40.4789 25.5243 40.0149 24.8014 39.4071 24.21L39.0837 23.8971C39.3883 24.3259 39.6331 24.7941 39.8113 25.2889C41.1337 28.9223 38.9768 33.6204 35.0033 35.7615C33.5263 36.5574 31.9586 36.9172 30.4695 36.8021C29.3748 36.7175 28.3786 36.3833 27.5395 35.8249Z" fill="#111111"/>
</g>
<defs>
<linearGradient id="paint0_linear_1759_68571" x1="14.0154" y1="11.0648" x2="22.4737" y2="20.4587" gradientUnits="userSpaceOnUse">
<stop stop-color="#36C170"/>
<stop offset="0.204" stop-color="#B0FFD1"/>
<stop offset="1" stop-color="#36C170"/>
</linearGradient>
<linearGradient id="paint1_linear_1759_68571" x1="27.5408" y1="34.5625" x2="40.9548" y2="28.1589" gradientUnits="userSpaceOnUse">
<stop offset="0.176" stop-color="#36C170"/>
<stop offset="0.801" stop-color="#B0FFD1"/>
<stop offset="1" stop-color="#36C170"/>
</linearGradient>
<clipPath id="clip0_1759_68571">
<rect width="55.744" height="51.552" fill="white" transform="translate(19.7158 29.3521) rotate(-10.2324)"/>
</clipPath>
<clipPath id="clip1_1759_68571">
<rect width="35.488" height="31.616" fill="white" transform="translate(9.65039 25.2019) rotate(10.296)"/>
</clipPath>
<clipPath id="clip2_1759_68571">
<rect width="12.576" height="12.384" fill="white" transform="translate(12.2607 9.99438) rotate(-9.12482)"/>
</clipPath>
<clipPath id="clip3_1759_68571">
<rect width="15.584" height="16.928" fill="white" transform="translate(28.4688 19.1465) rotate(18.811)"/>
</clipPath>
</defs>
</svg>
