<svg width="88" height="88" viewBox="0 0 88 88" fill="none" xmlns="http://www.w3.org/2000/svg">
<g clip-path="url(#clip0_1759_68200)">
<path d="M59.138 22.3083L60.7695 22.6301C60.743 22.6145 60.7168 22.6045 60.6916 22.5995L59.0602 22.2777C59.0854 22.2827 59.1116 22.2927 59.138 22.3083Z" fill="white"/>
<path d="M60.7665 22.6623C60.7738 22.6629 60.7811 22.6609 60.7871 22.6568C60.7932 22.6527 60.7977 22.6467 60.7998 22.6397C60.802 22.6327 60.8018 22.6252 60.7992 22.6184C60.7966 22.6116 60.7917 22.6059 60.7854 22.6021C60.7565 22.5851 60.7269 22.5734 60.6974 22.5676L59.0663 22.2458L59.0659 22.2458C59.0618 22.2449 59.0575 22.2449 59.0533 22.2458C59.0491 22.2466 59.0452 22.2483 59.0416 22.2506C59.0381 22.253 59.0351 22.2561 59.0327 22.2596C59.0303 22.2631 59.0287 22.2671 59.0279 22.2713C59.0271 22.2755 59.0271 22.2798 59.0279 22.2839C59.0287 22.2881 59.0304 22.2921 59.0328 22.2956C59.0351 22.2991 59.0382 22.3022 59.0417 22.3045C59.0453 22.3069 59.0492 22.3085 59.0534 22.3093L59.0536 22.3094C59.0758 22.3137 59.0984 22.3227 59.121 22.3361C59.1242 22.3379 59.1276 22.3393 59.1312 22.34L60.7627 22.6618C60.764 22.6621 60.7652 22.6622 60.7665 22.6623Z" fill="#111111"/>
<path d="M53.8626 39.8439L59.8198 27.6076C59.8592 27.5267 59.94 27.4873 60.0148 27.502L61.6462 27.8239C61.5715 27.8091 61.4906 27.8485 61.4512 27.9295L55.494 40.1658C55.4555 40.245 55.3749 40.2857 55.2992 40.2707L53.6678 39.9489C53.7434 39.9638 53.824 39.9232 53.8626 39.8439Z" fill="url(#paint0_linear_1759_68200)"/>
<path d="M55.3167 40.3058C55.4008 40.312 55.4836 40.2628 55.5238 40.1801L61.481 27.9438C61.5126 27.8788 61.5764 27.8433 61.64 27.8557L61.6406 27.8558C61.6448 27.8566 61.6491 27.8565 61.6533 27.8557C61.6574 27.8548 61.6614 27.8531 61.6649 27.8507C61.6684 27.8483 61.6714 27.8453 61.6738 27.8417C61.6761 27.8381 61.6777 27.8342 61.6785 27.83C61.6793 27.8258 61.6793 27.8215 61.6784 27.8173C61.6775 27.8132 61.6758 27.8092 61.6734 27.8057C61.671 27.8022 61.668 27.7992 61.6644 27.7968C61.6609 27.7945 61.6569 27.7929 61.6527 27.7921L60.0217 27.4704C59.9301 27.4523 59.8354 27.503 59.7913 27.5936L53.8341 39.8299C53.8031 39.8936 53.7378 39.9295 53.675 39.9173L53.6747 39.9173C53.6663 39.9157 53.6576 39.9175 53.6505 39.9223C53.6433 39.927 53.6384 39.9344 53.6367 39.9428C53.6358 39.947 53.6358 39.9513 53.6367 39.9554C53.6375 39.9596 53.6392 39.9636 53.6415 39.9671C53.6439 39.9706 53.647 39.9737 53.6505 39.976C53.654 39.9784 53.658 39.98 53.6622 39.9809L55.2936 40.3027C55.3013 40.3042 55.309 40.3052 55.3167 40.3058ZM61.4969 27.8274C61.4652 27.85 61.4397 27.8803 61.4227 27.9154L55.4656 40.1517C55.4345 40.2156 55.3689 40.2513 55.3062 40.2391L53.8187 39.9457C53.8502 39.9232 53.8756 39.8931 53.8924 39.8582L59.8495 27.6219C59.8813 27.5567 59.9455 27.5215 60.0091 27.534L61.4969 27.8274Z" fill="#111111"/>
<path d="M60.7697 22.6302L64.9351 26.2611C64.9494 26.269 64.9648 26.2746 64.9808 26.2778L63.3493 25.9559C63.3336 25.9528 63.3182 25.9473 63.3036 25.9393L59.1382 22.3083L60.7697 22.6302Z" fill="white"/>
<path d="M64.9779 26.3099C64.9861 26.3105 64.9943 26.308 65.0007 26.3028C65.0071 26.2976 65.0113 26.2901 65.0124 26.2819C65.0135 26.2737 65.0114 26.2654 65.0066 26.2587C65.0018 26.252 64.9946 26.2474 64.9865 26.2458C64.9748 26.2435 64.9635 26.2396 64.953 26.2341L60.7904 22.6056C60.7861 22.6019 60.7809 22.5993 60.7754 22.5982L59.1439 22.2764C59.1369 22.2751 59.1297 22.2761 59.1233 22.2792C59.117 22.2824 59.1118 22.2876 59.1087 22.294C59.1056 22.3004 59.1046 22.3076 59.106 22.3146C59.1074 22.3216 59.1111 22.3279 59.1164 22.3326L63.2818 25.9635C63.2835 25.9651 63.2854 25.9664 63.2875 25.9675C63.3047 25.977 63.3232 25.9837 63.3425 25.9875L64.9736 26.3093L64.9739 26.3094C64.9752 26.3096 64.9765 26.3098 64.9779 26.3099ZM60.7544 22.6601L64.8331 26.2156L63.355 25.924C63.3434 25.9217 63.3322 25.9177 63.3216 25.9123L59.2503 22.3634L60.7544 22.6601Z" fill="#111111"/>
<path d="M64.4985 31.0825L69.9059 19.9754C69.9444 19.8962 70.0251 19.8555 70.1007 19.8705L71.7322 20.1923C71.6565 20.1774 71.5759 20.2181 71.5373 20.2973L66.1299 31.4043C66.0933 31.4797 66.0207 31.519 65.9367 31.5024L64.3052 31.1806C64.3893 31.1971 64.4618 31.1578 64.4985 31.0825Z" fill="url(#paint1_linear_1759_68200)"/>
<path d="M65.9586 31.5381C66.0444 31.5445 66.1197 31.5004 66.1595 31.4187L71.5669 20.3116C71.5979 20.2479 71.6632 20.2118 71.726 20.2241L71.7263 20.2242C71.7348 20.2258 71.7435 20.2241 71.7506 20.2193C71.7578 20.2145 71.7627 20.2071 71.7644 20.1987C71.766 20.1902 71.7643 20.1815 71.7595 20.1744C71.7547 20.1672 71.7473 20.1623 71.7389 20.1606L70.1074 19.8388C70.0158 19.8206 69.9211 19.8711 69.8771 19.9614L64.4698 31.0685C64.4388 31.1321 64.38 31.1623 64.3121 31.149L64.3119 31.1489C64.3034 31.1473 64.2947 31.149 64.2876 31.1538C64.2804 31.1586 64.2755 31.166 64.2738 31.1745C64.2722 31.1829 64.2739 31.1916 64.2787 31.1988C64.2835 31.2059 64.2909 31.2108 64.2994 31.2125L65.9308 31.5343C65.94 31.5361 65.9493 31.5374 65.9586 31.5381ZM71.5824 20.1958C71.5508 20.2183 71.5255 20.2484 71.5086 20.2832L66.1013 31.3903C66.0702 31.4541 66.0112 31.4841 65.9434 31.4708L64.4616 31.1785C64.4887 31.1584 64.5115 31.1309 64.5281 31.0968L69.9355 19.9898C69.9666 19.9259 70.0322 19.8901 70.0949 19.9024L71.5824 20.1958Z" fill="#111111"/>
<path d="M71.8966 12.2893L73.5281 12.6112C73.5131 12.6029 73.497 12.597 73.4803 12.5937L71.8488 12.2719C71.8656 12.2752 71.8817 12.2811 71.8966 12.2893Z" fill="white"/>
<path d="M73.5262 12.6436C73.5335 12.6441 73.5409 12.6421 73.547 12.6379C73.553 12.6337 73.5575 12.6275 73.5596 12.6205C73.5617 12.6134 73.5613 12.6058 73.5585 12.5989C73.5557 12.5921 73.5506 12.5864 73.5441 12.5829C73.5263 12.573 73.507 12.566 73.4869 12.5621L71.8556 12.2402L71.8555 12.2402C71.8471 12.2386 71.8384 12.2404 71.8313 12.2452C71.8241 12.2499 71.8192 12.2573 71.8175 12.2657C71.8158 12.2741 71.8176 12.2829 71.8223 12.29C71.8271 12.2971 71.8346 12.3021 71.843 12.3037C71.8565 12.3064 71.8695 12.3112 71.8815 12.3178C71.8844 12.3194 71.8875 12.3206 71.8908 12.3212L73.5222 12.643C73.5235 12.6433 73.5248 12.6435 73.5262 12.6436Z" fill="#111111"/>
<path d="M73.5278 12.6112C73.5807 12.6402 73.6195 12.6981 73.6214 12.7724L73.8383 21.0106C73.8417 21.1398 73.7322 21.2351 73.6234 21.2137L71.992 20.8918C72.1007 20.9132 72.2103 20.818 72.2068 20.6887L71.99 12.4505C71.988 12.3762 71.9492 12.3184 71.8964 12.2893L73.5278 12.6112Z" fill="white"/>
<path d="M73.6404 21.2486C73.6926 21.2525 73.7454 21.235 73.7881 21.1989C73.8428 21.1527 73.8731 21.0838 73.8711 21.0098L73.6543 12.7716C73.6521 12.6903 73.6109 12.6197 73.5439 12.5829C73.541 12.5813 73.5379 12.5801 73.5346 12.5795L71.9032 12.2577C71.8956 12.2562 71.8877 12.2574 71.8809 12.2612C71.8742 12.265 71.869 12.2711 71.8664 12.2784C71.8637 12.2856 71.8638 12.2936 71.8665 12.3009C71.8692 12.3081 71.8745 12.3141 71.8813 12.3178C71.9278 12.3434 71.9565 12.3934 71.958 12.4515L72.1749 20.6896C72.1763 20.7439 72.1544 20.7942 72.1148 20.8276C72.0811 20.8561 72.0389 20.8679 71.9992 20.8603L71.9986 20.8602C71.9902 20.8585 71.9815 20.8603 71.9744 20.8651C71.9672 20.8699 71.9623 20.8773 71.9606 20.8857C71.9598 20.8898 71.9598 20.8941 71.9606 20.8983C71.9614 20.9025 71.9631 20.9065 71.9655 20.91C71.9678 20.9135 71.9709 20.9165 71.9744 20.9189C71.978 20.9213 71.9819 20.9229 71.9861 20.9237L73.6176 21.2456C73.6251 21.247 73.6327 21.248 73.6404 21.2486ZM73.5169 12.642C73.5609 12.6682 73.588 12.7169 73.5895 12.7733L73.8063 21.0115C73.8078 21.0657 73.7859 21.116 73.7463 21.1494C73.7124 21.178 73.6701 21.1897 73.6301 21.182L72.142 20.8885C72.147 20.8849 72.1519 20.8811 72.1566 20.8771C72.2114 20.8309 72.2416 20.762 72.2397 20.688L72.0228 12.4498C72.0221 12.4119 72.012 12.3747 71.9936 12.3415L73.5169 12.642Z" fill="#111111"/>
<path d="M71.897 12.2895C71.8442 12.2605 71.7773 12.2603 71.7191 12.3016L65.2647 16.8757C65.1483 16.9582 65.1526 17.1441 65.2744 17.211L67.0706 18.1975C67.1572 18.2451 67.1896 18.3619 67.1429 18.4579L63.544 25.8501C63.4962 25.9483 63.3874 25.9854 63.3035 25.9393L59.1381 22.3083C59.0238 22.2407 58.9149 22.2778 58.8671 22.376L51.1014 38.3271C51.0547 38.4231 51.0856 38.5391 51.1737 38.5875L53.6215 39.9319C53.7081 39.9795 53.8165 39.9401 53.8633 39.844L59.8205 27.6077C59.8683 27.5095 59.9771 27.4725 60.062 27.5191L64.2264 31.1495C64.3422 31.2179 64.4511 31.1809 64.4989 31.0827L69.9062 19.9756C69.953 19.8796 70.0615 19.8402 70.148 19.8877L71.9442 20.8742C72.0661 20.9411 72.2114 20.8375 72.2075 20.6889L71.9906 12.4507C71.9886 12.3764 71.9499 12.3185 71.897 12.2895Z" fill="#069D6E"/>
<path d="M53.6848 39.984C53.7102 39.9859 53.7357 39.9828 53.7599 39.9751C53.8164 39.9571 53.8645 39.9145 53.8919 39.8583L59.849 27.622C59.8692 27.5806 59.9024 27.5508 59.9427 27.538C59.9591 27.5326 59.9764 27.5306 59.9936 27.5319C60.0108 27.5333 60.0276 27.5381 60.043 27.546L64.2046 31.174C64.2061 31.1753 64.2077 31.1764 64.2094 31.1774C64.2744 31.2158 64.3407 31.2266 64.401 31.2084C64.4555 31.1921 64.5004 31.1524 64.5275 31.0969L69.9348 19.9898C69.9545 19.9494 69.9886 19.919 70.0282 19.9064C70.0453 19.9009 70.0632 19.8989 70.0811 19.9006C70.0989 19.9022 70.1162 19.9075 70.1319 19.9161L71.9281 20.9027C71.9911 20.9373 72.066 20.9353 72.1286 20.8971C72.1992 20.8542 72.2416 20.774 72.2393 20.6881L72.0225 12.4499C72.0203 12.3685 71.9791 12.2979 71.9121 12.2611C71.8443 12.2239 71.7649 12.2291 71.6999 12.2752L65.2455 16.8493C65.1794 16.8961 65.1429 16.9739 65.1476 17.0575C65.1521 17.1358 65.1935 17.2038 65.2583 17.2394L67.0545 18.226C67.1262 18.2653 67.1526 18.363 67.1132 18.4438L63.5144 25.836C63.4942 25.8775 63.4609 25.9074 63.4205 25.9202C63.3868 25.9308 63.3518 25.9282 63.3215 25.9125L59.1589 22.284C59.1574 22.2827 59.1558 22.2815 59.1541 22.2805C59.0908 22.2431 59.0234 22.2323 58.9642 22.2501C58.9096 22.2665 58.8645 22.3062 58.8374 22.3619L51.0717 38.3131C51.0166 38.4262 51.0543 38.5592 51.1576 38.6159L53.6054 39.9603C53.6298 39.9738 53.657 39.9819 53.6848 39.984ZM59.9981 27.4673C59.9732 27.4654 59.9478 27.4684 59.923 27.4763C59.8657 27.4945 59.8187 27.5362 59.7907 27.5936L53.8336 39.83C53.814 39.8703 53.7799 39.9007 53.7402 39.9133C53.7232 39.9189 53.7052 39.9209 53.6874 39.9193C53.6696 39.9176 53.6523 39.9123 53.6366 39.9036L51.1888 38.5592C51.1171 38.5198 51.0907 38.4221 51.13 38.3414L58.8957 22.3903C58.9148 22.3511 58.9458 22.3233 58.9829 22.3122C59.0244 22.2997 59.0713 22.3075 59.1186 22.3348L63.2817 25.9638C63.2835 25.9653 63.2854 25.9666 63.2874 25.9677C63.334 25.9934 63.3883 25.9984 63.4401 25.9819C63.4976 25.9637 63.5446 25.9219 63.5727 25.8643L67.1715 18.4721C67.2257 18.3608 67.1872 18.2249 67.0858 18.1692L65.2895 17.1827C65.2444 17.1579 65.2155 17.1097 65.2124 17.0538C65.2088 16.9927 65.2352 16.936 65.2829 16.9021L71.7373 12.3281C71.7816 12.2967 71.8353 12.2929 71.8809 12.3179C71.9275 12.3435 71.9562 12.3935 71.9577 12.4516L72.1745 20.6898C72.1762 20.7526 72.1457 20.8109 72.0949 20.8418C72.0518 20.8681 72.0024 20.8696 71.9593 20.8459L70.1631 19.8594C70.1397 19.8465 70.1139 19.8385 70.0874 19.836C70.0608 19.8335 70.034 19.8364 70.0086 19.8447C69.9521 19.8626 69.904 19.9052 69.8766 19.9615L64.4692 31.0685C64.4499 31.1082 64.4198 31.1352 64.3823 31.1464C64.3405 31.159 64.293 31.1509 64.2448 31.1231L60.0828 27.4947C60.081 27.4932 60.0791 27.4919 60.077 27.4908C60.0527 27.4774 60.0258 27.4693 59.9981 27.4673Z" fill="#111111"/>
</g>
<g clip-path="url(#clip1_1759_68200)">
<path d="M14.9209 40.3496C16.6229 42.4688 16.2533 46.075 14.0941 48.4041C11.935 50.7332 8.80367 50.9034 7.10166 48.7843C5.39965 46.6652 5.77115 43.0588 7.9303 40.7297C10.0894 38.4007 13.2189 38.2305 14.9209 40.3496Z" fill="#B6F1CF"/>
<path d="M10.1931 50.3017C10.1426 50.3017 10.0923 50.3008 10.0419 50.299C8.86985 50.2575 7.81659 49.7269 7.07617 48.805C5.36708 46.6771 5.7395 43.0444 7.9063 40.7071C9.05679 39.4661 10.5431 38.7836 11.9819 38.8347C13.1535 38.8763 14.2065 39.4069 14.947 40.3288C16.6565 42.4572 16.2849 46.0899 14.1187 48.4265C13.0085 49.6242 11.5857 50.3016 10.1931 50.3017ZM11.8307 38.8983C10.4571 38.8983 9.05258 39.568 7.95483 40.7522C5.80949 43.0664 5.43845 46.6602 7.12771 48.7635C7.85592 49.6701 8.89166 50.1919 10.0442 50.2328C10.0937 50.2346 10.1435 50.2355 10.1932 50.2355C11.5674 50.2355 12.9723 49.5657 14.0701 48.3815C16.2149 46.0679 16.5851 42.4741 14.8954 40.3703C14.1672 39.4636 13.1316 38.9418 11.9796 38.9009C11.93 38.8991 11.8803 38.8983 11.8307 38.8983Z" fill="#111111"/>
<path d="M14.1981 41.1306C12.8113 39.404 10.2606 39.5426 8.50134 41.4403C6.74104 43.3392 6.43906 46.2777 7.82584 48.0044C9.21346 49.7321 11.7642 49.5934 13.5245 47.6946C15.2838 45.7968 15.5858 42.8583 14.1981 41.1306Z" fill="white"/>
<path d="M10.3447 49.2476C10.3035 49.2476 10.2624 49.2469 10.2213 49.2455C9.26451 49.2115 8.40445 48.7781 7.79963 48.025C6.4051 46.2888 6.70877 43.3247 8.47662 41.4177C9.41527 40.4052 10.6275 39.8486 11.8027 39.8901C12.7593 39.924 13.6191 40.3572 14.2235 41.1098C15.6185 42.8466 15.3156 45.8106 13.5484 47.717C12.6421 48.6946 11.481 49.2476 10.3447 49.2476ZM11.6792 39.9541C10.5615 39.9541 9.41848 40.4992 8.52518 41.4627C6.77878 43.3466 6.47644 46.2718 7.85124 47.9835C8.44381 48.7213 9.28639 49.146 10.2237 49.1792C11.3794 49.2198 12.5738 48.6708 13.4999 47.6719C15.2457 45.7887 15.5471 42.8635 14.1719 41.1512C13.5797 40.4139 12.7375 39.9895 11.8004 39.9563C11.7601 39.9549 11.7196 39.9541 11.6792 39.9541Z" fill="#111111"/>
<path d="M13.7564 42.1312L13.3957 41.6821L12.8113 42.3125C12.5224 42.0389 12.2141 41.9089 11.8881 41.9245C11.5539 41.9395 11.242 42.1043 10.9523 42.4167C10.6679 42.7235 10.5084 43.0711 10.4751 43.4582C10.4415 43.8475 10.5326 44.3081 10.7478 44.8443C10.8953 45.2364 10.9633 45.5558 10.9519 45.8002C10.9406 46.0447 10.8539 46.2553 10.691 46.431C10.4983 46.6388 10.2873 46.7305 10.0598 46.706C9.83149 46.6804 9.61657 46.5421 9.41268 46.2883C9.20548 46.0303 9.11163 45.7578 9.1306 45.4749C9.1498 45.1898 9.28341 44.9154 9.52865 44.6509L9.09812 44.1148C8.74778 44.4928 8.55358 44.8928 8.51177 45.3174C8.47208 45.7303 8.57785 46.1278 8.82167 46.5104L8.31152 47.0607L8.67223 47.5098L9.1783 46.9639L9.1842 46.9689C9.50074 47.2863 9.82987 47.4447 10.17 47.4442C10.5081 47.4437 10.8289 47.2827 11.1268 46.9614C11.3143 46.7592 11.4465 46.5429 11.5241 46.3138C11.5999 46.0848 11.625 45.8312 11.5977 45.5529C11.5696 45.2736 11.4821 44.9395 11.3332 44.5506C11.1844 44.1617 11.1115 43.8459 11.1155 43.6018C11.1195 43.3577 11.2118 43.1374 11.3922 42.9428C11.587 42.7326 11.7883 42.6288 11.9948 42.6345C12.2015 42.638 12.3975 42.7551 12.5819 42.9847C12.7582 43.2042 12.8254 43.4602 12.7812 43.7477C12.7388 44.035 12.5919 44.3143 12.3415 44.5845L12.3229 44.6045L12.751 45.1376L12.7696 45.1175C13.1323 44.7262 13.3455 44.3282 13.4091 43.9236C13.4729 43.5168 13.3945 43.1295 13.1747 42.7624L13.1731 42.7604L13.7564 42.1312Z" fill="#B6F1CF"/>
<path d="M8.67215 47.5428L8.67096 47.5428C8.6662 47.5426 8.66154 47.5415 8.65729 47.5393C8.65304 47.5372 8.6493 47.5342 8.64633 47.5305L8.28562 47.0813C8.28064 47.0751 8.27806 47.0673 8.27834 47.0594C8.27862 47.0514 8.28174 47.0439 8.28714 47.038L8.78 46.5064C8.54092 46.1225 8.43956 45.7215 8.47872 45.3141C8.52113 44.8834 8.72131 44.4724 9.07374 44.0922C9.07692 44.0886 9.08086 44.0858 9.08527 44.084C9.08967 44.0821 9.09443 44.0813 9.0992 44.0816C9.1088 44.0819 9.1178 44.0864 9.12383 44.0939L9.55435 44.63C9.55933 44.6362 9.56191 44.644 9.56163 44.6519C9.56135 44.6599 9.55823 44.6675 9.55283 44.6733C9.31302 44.932 9.18206 45.2024 9.16355 45.477C9.14515 45.7515 9.23761 46.0174 9.43839 46.2674C9.63493 46.5121 9.84518 46.6485 10.0634 46.6729C10.2792 46.6961 10.4822 46.6072 10.6666 46.4084C10.823 46.2397 10.9078 46.0346 10.9188 45.7986C10.9299 45.5588 10.8619 45.2417 10.7167 44.8559C10.5007 44.3179 10.4082 43.8464 10.442 43.4553C10.4758 43.0625 10.6393 42.7054 10.928 42.3941C11.223 42.0759 11.5455 41.9067 11.8865 41.8914C12.2107 41.8759 12.5213 42.0017 12.8095 42.2656L13.3713 41.6596C13.3745 41.6561 13.3785 41.6533 13.3829 41.6515C13.3873 41.6496 13.392 41.6488 13.3968 41.6489C13.4015 41.6491 13.4062 41.6503 13.4104 41.6525C13.4147 41.6546 13.4184 41.6576 13.4214 41.6613L13.7821 42.1104C13.7871 42.1166 13.7896 42.1244 13.7894 42.1323C13.7891 42.1403 13.786 42.1478 13.7806 42.1537L13.2143 42.7645C13.4288 43.1316 13.5054 43.5232 13.4417 43.9287C13.3774 44.338 13.1594 44.7456 12.7937 45.14L12.7752 45.16C12.7686 45.1671 12.7596 45.1719 12.7497 45.1706C12.745 45.1704 12.7403 45.1692 12.736 45.1671C12.7318 45.165 12.7281 45.1619 12.7251 45.1582L12.297 44.6252C12.292 44.619 12.2894 44.6112 12.2897 44.6033C12.29 44.5953 12.2931 44.5878 12.2985 44.5819L12.3171 44.5619C12.562 44.2977 12.7071 44.0221 12.7483 43.7428C12.791 43.4654 12.7262 43.2173 12.556 43.0053C12.3786 42.7845 12.1896 42.6709 11.9941 42.6675C11.7988 42.6625 11.6044 42.7623 11.4164 42.9652C11.2425 43.1528 11.1523 43.3671 11.1485 43.6022C11.1446 43.8396 11.2171 44.1547 11.3641 44.5387C11.5123 44.9262 11.602 45.2663 11.6305 45.5495C11.658 45.8298 11.6327 46.0903 11.5554 46.3241C11.4762 46.5578 11.3402 46.7797 11.1509 46.9839C10.8479 47.3107 10.5178 47.4767 10.1699 47.4772H10.1681C9.8273 47.4772 9.49487 47.3204 9.17958 47.011L8.69638 47.5322C8.6933 47.5356 8.68955 47.5382 8.68538 47.5401C8.68121 47.5419 8.6767 47.5428 8.67215 47.5428ZM8.35511 47.0621L8.6739 47.459L9.15392 46.9413C9.15971 46.935 9.16771 46.9312 9.17623 46.9307C9.18476 46.9302 9.19314 46.933 9.19964 46.9385L9.20553 46.9435C9.51556 47.2543 9.83872 47.4109 10.1681 47.4109H10.1698C10.4986 47.4105 10.8124 47.2516 11.1024 46.9388C11.2853 46.7415 11.4166 46.5276 11.4927 46.3031C11.567 46.0784 11.5913 45.8269 11.5647 45.556C11.5367 45.2788 11.4484 44.9444 11.3022 44.5623C11.1502 44.1649 11.0782 43.8505 11.0823 43.6011C11.0865 43.3492 11.1825 43.12 11.3678 42.9201C11.5695 42.7027 11.7808 42.5969 11.9956 42.6012C12.2113 42.6049 12.4174 42.7269 12.6076 42.9638C12.79 43.1908 12.8594 43.4562 12.8138 43.7526C12.7707 44.0448 12.6202 44.332 12.3665 44.6059L12.7527 45.0868C13.1047 44.7047 13.3145 44.3116 13.3763 43.9184C13.4385 43.5217 13.3612 43.1387 13.1465 42.7799C13.1384 42.7671 13.1384 42.7488 13.1487 42.7378L13.7125 42.1295L13.3938 41.7327L12.8355 42.3349C12.8325 42.3381 12.8289 42.3407 12.8249 42.3425C12.821 42.3444 12.8167 42.3454 12.8123 42.3455C12.8079 42.3457 12.8035 42.3451 12.7994 42.3435C12.7953 42.342 12.7916 42.3396 12.7884 42.3365C12.507 42.07 12.2048 41.9424 11.8896 41.9575C11.5664 41.972 11.2592 42.1341 10.9765 42.4392C10.6981 42.7394 10.5405 43.0832 10.5079 43.461C10.4751 43.8416 10.566 44.3029 10.7783 44.8319C10.927 45.2268 10.9964 45.5529 10.9849 45.8017C10.9731 46.0537 10.8824 46.273 10.7151 46.4534C10.5158 46.6684 10.2943 46.7645 10.0561 46.7388C9.81975 46.7123 9.59461 46.5677 9.38675 46.3089C9.17521 46.0456 9.07788 45.7642 9.09744 45.4726C9.11648 45.19 9.24681 44.9131 9.4849 44.6494L9.09632 44.1656C8.77004 44.5269 8.58445 44.9153 8.54456 45.3205C8.5061 45.7204 8.60869 46.1148 8.84942 46.4925C8.85336 46.4986 8.85514 46.506 8.85449 46.5133C8.85383 46.5206 8.85077 46.5274 8.84578 46.5328L8.35511 47.0621Z" fill="#111111"/>
<path d="M15.8429 40.7838C15.445 40.2883 14.969 39.918 14.4456 39.6711L13.5247 39.2368C14.0481 39.4837 14.5241 39.854 14.9221 40.3495C16.6241 42.4686 16.2544 46.0749 14.0953 48.4039C12.4408 50.1886 10.2156 50.7057 8.5 49.8966L9.42091 50.3309C11.1366 51.14 13.3618 50.6229 15.0162 48.8383C17.1753 46.5092 17.545 42.9029 15.8429 40.7838Z" fill="url(#paint2_linear_1759_68200)"/>
<path d="M11.1111 50.7371C10.5131 50.7372 9.93663 50.6111 9.40633 50.361L8.48542 49.9267C8.4814 49.9249 8.47778 49.9223 8.47477 49.9191C8.47176 49.9159 8.46942 49.9121 8.46789 49.908C8.46636 49.9038 8.46566 49.8994 8.46585 49.895C8.46604 49.8906 8.4671 49.8863 8.46898 49.8823C8.47085 49.8783 8.4735 49.8748 8.47678 49.8718C8.48005 49.8689 8.48388 49.8666 8.48804 49.8652C8.49219 49.8637 8.4966 49.8631 8.50099 49.8634C8.50539 49.8637 8.50968 49.8648 8.51363 49.8668C9.36064 50.2663 10.3283 50.3438 11.3119 50.091C12.3201 49.8319 13.274 49.2408 14.0705 48.3816C16.2153 46.068 16.5855 42.4742 14.8958 40.3704C14.5098 39.8898 14.0436 39.5186 13.5101 39.267C13.5061 39.2652 13.5025 39.2626 13.4995 39.2594C13.4964 39.2562 13.4941 39.2524 13.4926 39.2483C13.491 39.2441 13.4904 39.2397 13.4905 39.2353C13.4907 39.2309 13.4918 39.2266 13.4937 39.2226C13.4955 39.2186 13.4982 39.2151 13.5015 39.2121C13.5047 39.2092 13.5086 39.2069 13.5127 39.2055C13.5169 39.204 13.5213 39.2034 13.5257 39.2037C13.5301 39.204 13.5344 39.2051 13.5383 39.2071L14.4592 39.6413C15.0019 39.8973 15.4759 40.2748 15.8683 40.7632C17.5777 42.8916 17.2061 46.5243 15.0399 48.861C14.2347 49.7295 13.2697 50.3273 12.2492 50.5895C11.8656 50.688 11.4841 50.7371 11.1111 50.7371ZM9.16099 50.172L9.43457 50.3011C10.2816 50.7006 11.2492 50.778 12.2328 50.5253C13.241 50.2662 14.1949 49.6751 14.9914 48.8159C17.1362 46.5023 17.5064 42.9085 15.8167 40.8047C15.4307 40.3242 14.9645 39.9529 14.4311 39.7013L14.1544 39.5708C14.4463 39.7819 14.7116 40.0353 14.9475 40.329C16.6569 42.4574 16.2853 46.09 14.1191 48.4267C13.314 49.2953 12.3489 49.893 11.3284 50.1553C10.5824 50.3469 9.84516 50.3513 9.16099 50.172Z" fill="#111111"/>
</g>
<g clip-path="url(#clip2_1759_68200)">
<path d="M16.3247 15.4029L16.8654 14.9351C16.0805 15.6142 15.6701 16.6916 15.872 17.837L24.748 68.1821C25.0615 69.9602 26.732 71.227 28.4805 71.0124L62.4876 66.8384C63.11 66.762 63.6581 66.5083 64.0918 66.1329L63.5511 66.6008C63.1173 66.9762 62.5692 67.2299 61.9469 67.3063L27.9398 71.4802C26.1913 71.6949 24.5207 70.4281 24.2073 68.6499L15.3313 18.3048C15.1294 17.1595 15.5398 16.0821 16.3247 15.4029Z" fill="url(#paint3_linear_1759_68200)"/>
<path d="M27.5537 71.5359C27.6829 71.5359 27.8127 71.5281 27.9431 71.512L61.9503 67.3381C62.558 67.2635 63.1186 67.017 63.5715 66.6251L64.1122 66.1572C64.1185 66.1516 64.1224 66.1438 64.123 66.1353C64.1235 66.1269 64.1208 66.1186 64.1152 66.1123C64.1097 66.1059 64.1019 66.1019 64.0935 66.1013C64.0851 66.1006 64.0768 66.1033 64.0703 66.1088C63.6271 66.4923 63.0783 66.7336 62.4832 66.8067L28.476 70.9806C26.7474 71.1925 25.0889 69.9349 24.7789 68.1766L15.903 17.8315C15.7093 16.7331 16.0767 15.6594 16.8858 14.9593C16.8921 14.9537 16.8959 14.9459 16.8965 14.9375C16.8971 14.9291 16.8943 14.9208 16.8888 14.9144C16.8833 14.908 16.8754 14.9041 16.867 14.9034C16.8586 14.9028 16.8503 14.9055 16.8439 14.9109L16.3032 15.3788C15.4769 16.0938 15.1016 17.1897 15.2992 18.3105L24.1751 68.6556C24.4676 70.3143 25.9387 71.5359 27.5537 71.5359ZM63.6058 66.5107L63.5296 66.5767C63.0864 66.9602 62.5375 67.2016 61.9424 67.2746L27.9353 71.4486C26.2064 71.6607 24.5481 70.4028 24.2382 68.6445L15.3622 18.2993C15.1686 17.201 15.536 16.1273 16.345 15.4272L16.4161 15.3657C15.8939 16.0506 15.6805 16.9385 15.8399 17.8426L24.7159 68.1877C25.0083 69.8464 26.4794 71.0679 28.0944 71.068C28.2245 71.068 28.3546 71.0601 28.4838 71.0442L62.4909 66.8702C62.8884 66.8214 63.2657 66.6991 63.6058 66.5107Z" fill="#111111"/>
<path d="M18.4691 14.2296C16.7206 14.4443 15.558 16.0587 15.8715 17.837L24.7475 68.1821C25.061 69.9602 26.7315 71.227 28.48 71.0124L62.4871 66.8385C64.2356 66.6238 65.3982 65.0094 65.0847 63.2312L56.2087 12.8861C55.8953 11.1078 54.2247 9.84107 52.4762 10.0557L18.4691 14.2296Z" fill="#069D6E"/>
<path d="M28.0951 71.0678C28.2242 71.0678 28.3541 71.0601 28.4846 71.044L62.4917 66.8701C63.3314 66.767 64.0668 66.3414 64.5625 65.6717C65.0759 64.978 65.2727 64.1093 65.1169 63.2255L56.241 12.8805C55.9251 11.0891 54.235 9.80724 52.473 10.0239L18.4659 14.1978C17.6262 14.3009 16.8907 14.7265 16.3951 15.3963C15.8817 16.0899 15.6849 16.9586 15.8407 17.8425L24.7166 68.1876C25.0091 69.8463 26.4802 71.0678 28.0951 71.0678ZM52.8627 10.064C54.4475 10.064 55.8908 11.2631 56.1779 12.8916L65.0539 63.2367C65.2066 64.103 65.0138 64.9542 64.5111 65.6336C64.0259 66.2891 63.306 66.7057 62.4839 66.8066L28.4768 70.9805C28.349 70.9962 28.2214 71.0039 28.0949 71.0039C26.5101 71.004 25.0668 69.8048 24.7797 68.1764L15.9037 17.8313C15.751 16.965 15.9437 16.1137 16.4465 15.4343C16.9316 14.7788 17.6515 14.3622 18.4736 14.2613L52.4808 10.0874C52.6075 10.0718 52.735 10.064 52.8627 10.064Z" fill="#111111"/>
<path d="M17.6786 18.2388C17.4884 17.1602 18.1945 16.1797 19.2551 16.0495L52.3518 11.9873C53.4143 11.8569 54.4288 12.6262 54.619 13.7048L63.2795 62.828C63.47 63.9085 62.764 64.889 61.7015 65.0194L28.6048 69.0816C27.5442 69.2118 26.5296 68.4425 26.3391 67.362L17.6786 18.2388Z" fill="white"/>
<path d="M28.371 69.1281C28.4498 69.1281 28.529 69.1233 28.6086 69.1135L61.7053 65.0513C62.219 64.9883 62.6689 64.728 62.972 64.3183C63.2859 63.8942 63.4062 63.363 63.311 62.8226L54.6504 13.6994C54.4576 12.6058 53.4247 11.8234 52.3478 11.9558L19.2511 16.0179C18.7383 16.0809 18.289 16.341 17.9859 16.7505C17.6722 17.1744 17.5518 17.705 17.6469 18.2446L26.3074 67.3677C26.4862 68.3814 27.3847 69.1281 28.371 69.1281ZM52.5864 12.0051C53.543 12.0051 54.4142 12.7284 54.5874 13.7105L63.2479 62.8337C63.3401 63.3567 63.2239 63.8704 62.9206 64.2802C62.628 64.6756 62.1936 64.9269 61.6975 64.9878L28.6008 69.05C27.5582 69.1775 26.5577 68.4183 26.3705 67.3565L17.71 18.2334C17.6179 17.7113 17.7342 17.1982 18.0374 16.7886C18.3299 16.3933 18.7637 16.1422 19.2589 16.0814L52.3557 12.0192C52.4322 12.0099 52.5093 12.0052 52.5864 12.0051ZM35.5676 12.6816C35.7846 12.655 35.9923 12.8126 36.0309 13.0313C36.0698 13.2519 35.9252 13.4526 35.7082 13.4793C35.4932 13.5057 35.2855 13.3481 35.2466 13.1276C35.208 12.9088 35.3525 12.708 35.5676 12.6816Z" fill="#111111"/>
<path d="M35.6609 13.514C35.6779 13.514 35.695 13.513 35.7122 13.5109C35.8241 13.4971 35.9222 13.4403 35.9885 13.3508C36.0569 13.2584 36.0831 13.1429 36.0625 13.0256C36.0208 12.7897 35.7971 12.6208 35.5637 12.6497C35.4528 12.6633 35.3553 12.72 35.2892 12.8093C35.2209 12.9016 35.1946 13.0166 35.2151 13.133C35.2538 13.3524 35.4479 13.514 35.6609 13.514ZM35.6159 12.7105C35.7993 12.7105 35.9663 12.8489 35.9994 13.0368C36.017 13.1365 35.9948 13.2346 35.937 13.3127C35.8813 13.388 35.7987 13.4358 35.7043 13.4474C35.5051 13.4717 35.314 13.3258 35.2781 13.1219C35.2606 13.0229 35.2829 12.9255 35.3406 12.8474C35.3962 12.7723 35.4782 12.7247 35.5715 12.7132C35.5862 12.7114 35.6011 12.7105 35.6159 12.7105Z" fill="#111111"/>
</g>
<g clip-path="url(#clip3_1759_68200)">
<path d="M15.782 63.3162C13.2408 60.1785 13.1581 55.6741 15.5973 53.2542C16.0189 52.8358 16.4883 52.5072 16.9896 52.2659L15.8896 52.7954C15.3884 53.0367 14.9189 53.3654 14.4973 53.7837C12.0582 56.2036 12.1409 60.7081 14.682 63.8457C16.7842 66.4413 19.9105 67.2888 22.3088 66.1343L23.4088 65.6047C21.0105 66.7593 17.8842 65.9118 15.782 63.3162Z" fill="url(#paint4_linear_1759_68200)"/>
<path d="M20.0454 66.67C19.4942 66.67 18.9317 66.5894 18.3752 66.4271C16.9671 66.0165 15.6814 65.1308 14.657 63.8659C13.4235 62.3429 12.7249 60.4537 12.6899 58.5462C12.6548 56.637 13.2886 54.9377 14.4746 53.7611C14.8903 53.3486 15.3617 53.014 15.8755 52.7666L16.9755 52.2371C16.9793 52.2352 16.9834 52.2342 16.9876 52.2339C16.9918 52.2337 16.996 52.2343 17 52.2357C17.004 52.2371 17.0076 52.2392 17.0108 52.242C17.0139 52.2448 17.0165 52.2482 17.0183 52.252C17.0201 52.2558 17.0212 52.2599 17.0214 52.2641C17.0216 52.2683 17.021 52.2725 17.0197 52.2765C17.0183 52.2805 17.0161 52.2841 17.0133 52.2873C17.0105 52.2904 17.0071 52.293 17.0033 52.2948C16.4958 52.5391 16.0303 52.8696 15.6197 53.277C13.196 55.6816 13.2799 60.1762 15.8068 63.2961C16.8229 64.5508 18.0977 65.4291 19.4932 65.8361C20.843 66.2298 22.2286 66.1374 23.3947 65.576C23.4024 65.5726 23.411 65.5723 23.4188 65.5752C23.4266 65.578 23.433 65.5838 23.4366 65.5913C23.4403 65.5988 23.4408 65.6075 23.4382 65.6154C23.4355 65.6233 23.4299 65.6298 23.4225 65.6337L22.3225 66.1632C21.6233 66.4998 20.8463 66.6699 20.0454 66.67ZM16.2803 52.6429L15.9033 52.8244C15.3959 53.0686 14.9304 53.3991 14.5197 53.8065C12.096 56.2111 12.1799 60.7057 14.7068 63.8257C15.723 65.0804 16.9977 65.9587 18.3932 66.3656C19.743 66.7593 21.1286 66.667 22.2947 66.1055L22.6777 65.9211C21.674 66.2197 20.5629 66.2148 19.4752 65.8976C18.0672 65.4869 16.7814 64.6013 15.757 63.3364C14.5235 61.8134 13.8249 59.9242 13.7899 58.0167C13.7548 56.1075 14.3886 54.4081 15.5746 53.2315C15.7922 53.0152 16.0284 52.8182 16.2803 52.6429Z" fill="#111111"/>
<path d="M15.5969 53.2542C18.036 50.8343 22.0737 51.4149 24.6149 54.5526C27.1561 57.6902 27.2389 62.1973 24.7997 64.6172C22.3606 67.0371 18.3228 66.4539 15.7817 63.3163C13.2405 60.1786 13.1578 55.6742 15.5969 53.2542Z" fill="#B6F1CF"/>
<path d="M21.1471 66.1423C21.0461 66.1423 20.9447 66.1395 20.8428 66.134C18.9679 66.0322 17.1141 65.0124 15.7566 63.3364C14.5231 61.8133 13.8245 59.9241 13.7895 58.0166C13.7544 56.1075 14.3882 54.4081 15.5742 53.2315C16.6289 52.1851 18.0429 51.654 19.5558 51.7363C21.43 51.8382 23.283 52.8573 24.6396 54.5324C27.1873 57.678 27.2691 62.2122 24.8221 64.6399C23.8392 65.615 22.5437 66.1423 21.1471 66.1423ZM15.6193 53.2769C13.1956 55.6816 13.2795 60.1761 15.8064 63.2961C17.1525 64.9581 18.9894 65.9692 20.8462 66.0701C20.9469 66.0756 21.0473 66.0783 21.147 66.0783C22.5267 66.0784 23.8062 65.5576 24.777 64.5944C27.2013 62.1892 27.1173 57.6935 24.5898 54.5726C23.2446 52.9116 21.4085 51.9011 19.5523 51.8003C18.0576 51.7193 16.6609 52.2435 15.6193 53.2769Z" fill="#111111"/>
<path d="M16.4495 54.3057C14.4621 56.2774 14.5295 59.9488 16.6 62.5054C18.6718 65.0634 21.9619 65.5376 23.9493 63.5659C25.9379 61.593 25.8704 57.9215 23.7987 55.3634C21.7282 52.8069 18.4381 52.3328 16.4495 54.3057Z" fill="white"/>
<path d="M20.9728 64.8148C20.8904 64.8148 20.8077 64.8125 20.7245 64.808C19.1951 64.7249 17.6827 63.893 16.5752 62.5255C14.4978 59.9605 14.4313 56.2629 16.427 54.2829C17.2879 53.4288 18.4418 52.9951 19.6765 53.0625C21.2054 53.1456 22.717 53.9769 23.8237 55.3433C25.9017 57.9091 25.9683 61.608 23.9719 63.5886C23.1697 64.3844 22.1125 64.8148 20.9728 64.8148ZM16.4721 54.3284C14.4991 56.2859 14.5677 59.945 16.625 62.4852C17.7211 63.8386 19.2166 64.6619 20.728 64.744C21.9437 64.8105 23.0796 64.3836 23.9268 63.5431C25.9005 61.585 25.8318 57.9246 23.7739 55.3836C22.6786 54.0312 21.1839 53.2085 19.673 53.1264C18.457 53.0601 17.32 53.4872 16.4721 54.3284Z" fill="#111111"/>
<path d="M17.5579 54.9536L17.041 55.4664L17.7288 56.3156C17.4115 56.7276 17.2548 57.1694 17.2611 57.6386C17.2664 58.1195 17.4406 58.5705 17.7815 58.9914C18.1162 59.4048 18.5011 59.6389 18.9347 59.6921C19.3708 59.7457 19.8913 59.6209 20.501 59.3186C20.9465 59.1115 21.3076 59.0181 21.5817 59.0377C21.8559 59.0574 22.0895 59.1849 22.2811 59.4216C22.5079 59.7016 22.6036 60.0065 22.5681 60.3334C22.5315 60.6615 22.3688 60.9688 22.0766 61.2587C21.7796 61.5533 21.4703 61.6846 21.1533 61.6535C20.8337 61.622 20.5302 61.4261 20.2415 61.0697L19.6245 61.6819C20.0369 62.191 20.4795 62.4758 20.9549 62.5416C21.4173 62.6043 21.8674 62.4576 22.3056 62.112L22.906 62.8533L23.4229 62.3405L22.8273 61.605L22.8331 61.5966C23.2007 61.1455 23.39 60.6742 23.4011 60.1849C23.4123 59.6984 23.2426 59.2347 22.8921 58.8019C22.6714 58.5293 22.4331 58.3363 22.1785 58.2215C21.9239 58.1094 21.6399 58.0698 21.3264 58.1054C21.0117 58.1421 20.6334 58.2634 20.1915 58.4722C19.7496 58.6811 19.3923 58.7817 19.1182 58.7727C18.8442 58.7636 18.5999 58.6279 18.3877 58.3657C18.1584 58.0826 18.0487 57.7916 18.0623 57.4947C18.0734 57.1973 18.2117 56.9169 18.4759 56.6547C18.7286 56.4041 19.0185 56.3109 19.3398 56.3784C19.6612 56.4433 19.9698 56.6583 20.2645 57.0223L20.2864 57.0492L20.8999 56.4406L20.878 56.4136C20.4511 55.8864 20.0115 55.5743 19.5592 55.4774C19.1046 55.3801 18.6668 55.4877 18.2469 55.7989L18.2445 55.8012L17.5579 54.9536Z" fill="#B6F1CF"/>
<path d="M22.9057 62.8854L22.904 62.8854C22.8995 62.8851 22.8952 62.884 22.8912 62.8819C22.8872 62.8799 22.8837 62.877 22.8809 62.8736L22.3002 62.1566C21.861 62.4951 21.407 62.6354 20.9504 62.5735C20.4681 62.5066 20.0135 62.2135 19.5994 61.7021C19.5944 61.6959 19.5919 61.6881 19.5923 61.6802C19.5927 61.6723 19.5961 61.6648 19.6017 61.6592L20.2187 61.0471C20.2219 61.0439 20.2257 61.0414 20.2299 61.0398C20.2341 61.0382 20.2386 61.0376 20.243 61.0379C20.2475 61.0381 20.2519 61.0393 20.2559 61.0413C20.2599 61.0434 20.2634 61.0462 20.2662 61.0497C20.5491 61.3989 20.8485 61.5914 21.1562 61.6217C21.4633 61.6519 21.7654 61.5221 22.0538 61.236C22.3422 60.9498 22.5 60.6535 22.5361 60.3299C22.5705 60.0127 22.4763 59.7138 22.256 59.4418C22.0714 59.2139 21.8437 59.0887 21.5792 59.0697C21.3107 59.0505 20.9524 59.144 20.5143 59.3476C19.9023 59.6511 19.3692 59.7779 18.9306 59.724C18.4904 59.6699 18.0954 59.4302 17.7563 59.0116C17.4116 58.586 17.2341 58.1242 17.2288 57.639C17.2226 57.1724 17.377 56.7275 17.6878 56.3163L17.0159 55.4866C17.0109 55.4804 17.0084 55.4726 17.0088 55.4647C17.0093 55.4568 17.0126 55.4493 17.0183 55.4437L17.5351 54.9309C17.5383 54.9277 17.5421 54.9252 17.5463 54.9237C17.5505 54.9221 17.555 54.9214 17.5595 54.9217C17.5639 54.9219 17.5683 54.9231 17.5723 54.9252C17.5763 54.9272 17.5798 54.93 17.5826 54.9335L18.2496 55.7571C18.6693 55.4536 19.1119 55.3491 19.5657 55.4462C20.0231 55.5442 20.4729 55.8629 20.9027 56.3935L20.9245 56.4205C20.9349 56.4332 20.9339 56.4518 20.9222 56.4634L20.3087 57.0721C20.3055 57.0753 20.3017 57.0777 20.2975 57.0793C20.2933 57.0809 20.2888 57.0816 20.2844 57.0813C20.2799 57.0811 20.2755 57.0799 20.2715 57.0779C20.2675 57.0758 20.264 57.073 20.2612 57.0695L20.2394 57.0425C19.9504 56.6858 19.6456 56.473 19.3332 56.4099C19.0237 56.3448 18.7428 56.4349 18.4983 56.6775C18.2408 56.933 18.1048 57.2083 18.094 57.496C18.0809 57.783 18.188 58.0688 18.4123 58.3457C18.6176 58.5991 18.8553 58.732 19.119 58.7408C19.385 58.7495 19.7414 58.6495 20.1775 58.4433C20.6179 58.2353 21.0031 58.1108 21.3225 58.0736C21.6387 58.0378 21.931 58.0777 22.1911 58.1922C22.4505 58.3091 22.6946 58.5075 22.9168 58.7818C23.2706 59.2188 23.4443 59.6911 23.4329 60.1857C23.4218 60.6763 23.2316 61.1536 22.8678 61.6045L23.4476 62.3204C23.4526 62.3266 23.4552 62.3344 23.4547 62.3423C23.4543 62.3502 23.4509 62.3577 23.4453 62.3633L22.9284 62.8762C22.9223 62.8821 22.9142 62.8854 22.9057 62.8854ZM22.3053 62.08C22.3146 62.08 22.3239 62.0841 22.3302 62.0919L22.9083 62.8057L23.3796 62.3382L22.8022 61.6252C22.7978 61.6199 22.7953 61.6132 22.795 61.6063C22.7948 61.5994 22.7968 61.5926 22.8007 61.5869L22.8065 61.5785C23.1692 61.1332 23.3579 60.6648 23.3689 60.1842C23.3799 59.7052 23.211 59.2469 22.8669 58.8221C22.6511 58.5556 22.4149 58.3634 22.165 58.2507C21.9156 58.1409 21.6344 58.1027 21.3297 58.1372C21.0174 58.1736 20.6389 58.2961 20.2049 58.5012C19.7531 58.7147 19.3975 58.8143 19.1169 58.8047C18.8338 58.7954 18.5799 58.6545 18.3625 58.3859C18.128 58.0965 18.0162 57.7961 18.03 57.4933C18.0413 57.1892 18.1837 56.8993 18.4531 56.632C18.7139 56.3733 19.0144 56.2774 19.3461 56.3471C19.6731 56.4131 19.9903 56.6333 20.2887 57.0016L20.8565 56.4382L20.8529 56.4338C20.4325 55.9148 19.995 55.6036 19.5522 55.5087C19.1099 55.414 18.6777 55.5199 18.2674 55.8233L18.2667 55.824C18.2635 55.8272 18.2597 55.8296 18.2555 55.8312C18.2513 55.8328 18.2469 55.8334 18.2424 55.8332C18.2379 55.8329 18.2336 55.8318 18.2296 55.8297C18.2256 55.8277 18.2221 55.8248 18.2193 55.8214L17.5551 55.0013L17.0839 55.4687L17.7535 56.2955C17.758 56.3011 17.7605 56.308 17.7606 56.3152C17.7607 56.3224 17.7583 56.3294 17.7539 56.3351C17.4419 56.7403 17.2868 57.1787 17.2929 57.6381C17.2981 58.1086 17.4707 58.5571 17.8061 58.9712C18.1343 59.3765 18.5153 59.6083 18.9384 59.6603C19.3644 59.7126 19.8853 59.588 20.4865 59.2899C20.9354 59.0812 21.3044 58.9857 21.5837 59.0058C21.8667 59.0261 22.1096 59.1592 22.3058 59.4015C22.5372 59.6872 22.6361 60.0019 22.5997 60.3369C22.5624 60.6709 22.394 60.9887 22.0989 61.2814C21.7964 61.5816 21.4771 61.7174 21.1499 61.6854C20.8328 61.6541 20.5265 61.4631 20.2388 61.1173L19.6674 61.6841C20.0661 62.1686 20.5005 62.4464 20.9591 62.5099C21.4063 62.5705 21.8526 62.4282 22.2855 62.0868C22.2913 62.0823 22.2983 62.08 22.3053 62.08Z" fill="#111111"/>
</g>
<g clip-path="url(#clip4_1759_68200)">
<path d="M27.7165 52.4776L48.7289 49.8976C48.9012 49.8764 49.0669 50.0021 49.0981 50.1793L49.2771 51.1949C49.3083 51.3722 49.1927 51.5305 49.0204 51.5517L28.0081 54.1316C27.8357 54.1528 27.6704 54.029 27.6392 53.8517L27.4602 52.836C27.4289 52.6589 27.5442 52.4987 27.7165 52.4776Z" fill="#069D6E"/>
<path d="M27.9703 54.1663C27.7968 54.1663 27.6389 54.0353 27.6075 53.8574L27.4285 52.8417C27.4116 52.7455 27.433 52.651 27.4889 52.5755C27.5426 52.5028 27.6221 52.4566 27.7128 52.4455L48.7251 49.8656C48.9143 49.8424 49.096 49.9806 49.1301 50.1737L49.3091 51.1894C49.3259 51.285 49.3047 51.3789 49.2493 51.4538C49.1956 51.5264 49.1157 51.5726 49.0245 51.5838L28.0122 54.1638C27.9982 54.1655 27.9842 54.1663 27.9703 54.1663ZM27.7207 52.5097C27.6478 52.5186 27.584 52.5556 27.5409 52.6139C27.4957 52.675 27.4784 52.752 27.4922 52.8305L27.6712 53.8461C27.6993 54.005 27.8486 54.1188 28.0043 54.0995L49.0167 51.5196C49.0901 51.5106 49.1543 51.4735 49.1974 51.4153C49.2421 51.3548 49.2592 51.2786 49.2454 51.2006L49.0664 50.185C49.0383 50.0251 48.8887 49.9107 48.733 49.9297L27.7207 52.5097Z" fill="#111111"/>
<path d="M28.498 41.8627L30.7419 41.5872L31.8066 47.628L29.5627 47.9035L28.498 41.8627Z" fill="#B6F1CF"/>
<path d="M29.5628 47.936C29.5552 47.936 29.5478 47.9334 29.542 47.9285C29.5362 47.9236 29.5323 47.9168 29.5309 47.9093L28.4663 41.8684C28.4655 41.8641 28.4657 41.8597 28.4667 41.8554C28.4677 41.8511 28.4695 41.8471 28.4722 41.8436C28.4748 41.84 28.4781 41.8371 28.4819 41.8349C28.4857 41.8326 28.4899 41.8312 28.4942 41.8307L30.7381 41.5552C30.7464 41.5542 30.7546 41.5563 30.7613 41.5613C30.768 41.5662 30.7725 41.5735 30.7739 41.5817L31.8385 47.6225C31.8393 47.6269 31.8392 47.6313 31.8382 47.6356C31.8372 47.6399 31.8353 47.6439 31.8327 47.6474C31.8301 47.6509 31.8268 47.6539 31.823 47.6561C31.8192 47.6583 31.815 47.6598 31.8106 47.6603L29.5667 47.9358C29.5654 47.9359 29.5641 47.936 29.5628 47.936ZM28.5359 41.8908L29.5893 47.8678L31.7689 47.6002L30.7155 41.6232L28.5359 41.8908Z" fill="#111111"/>
<path d="M32.4424 38.7677L34.6864 38.4922L36.2014 47.0884L33.9574 47.364L32.4424 38.7677Z" fill="#B6F1CF"/>
<path d="M33.9574 47.3965C33.9498 47.3965 33.9425 47.3938 33.9367 47.3889C33.9309 47.384 33.9269 47.3772 33.9256 47.3698L32.4107 38.7735C32.4099 38.7692 32.41 38.7647 32.411 38.7605C32.412 38.7562 32.4139 38.7522 32.4165 38.7486C32.4191 38.7451 32.4224 38.7421 32.4262 38.7399C32.43 38.7377 32.4342 38.7363 32.4386 38.7357L34.6826 38.4602C34.6908 38.4592 34.6991 38.4614 34.7057 38.4663C34.7124 38.4713 34.7169 38.4785 34.7184 38.4867L36.2333 47.0829C36.2341 47.0873 36.234 47.0917 36.233 47.096C36.232 47.1003 36.2301 47.1043 36.2275 47.1078C36.2249 47.1114 36.2216 47.1143 36.2178 47.1165C36.214 47.1187 36.2098 47.1202 36.2054 47.1207L33.9614 47.3962C33.9601 47.3964 33.9588 47.3965 33.9574 47.3965ZM32.4803 38.7958L33.984 47.3283L36.1638 47.0606L34.66 38.5282L32.4803 38.7958Z" fill="#111111"/>
<path d="M36.5273 36.4635L38.7713 36.188L40.5973 46.5489L38.3533 46.8244L36.5273 36.4635Z" fill="#B6F1CF"/>
<path d="M38.3534 46.8566C38.3458 46.8566 38.3385 46.854 38.3326 46.8491C38.3268 46.8442 38.3229 46.8374 38.3216 46.8299L36.4956 36.4691C36.4948 36.4647 36.495 36.4603 36.496 36.456C36.497 36.4517 36.4988 36.4477 36.5015 36.4442C36.5041 36.4406 36.5074 36.4377 36.5112 36.4355C36.515 36.4333 36.5192 36.4318 36.5235 36.4313L38.7675 36.1558C38.7757 36.1548 38.784 36.1569 38.7907 36.1619C38.7973 36.1668 38.8019 36.1741 38.8033 36.1822L40.6293 46.5431C40.6301 46.5474 40.6299 46.5519 40.6289 46.5562C40.6279 46.5604 40.6261 46.5645 40.6235 46.568C40.6208 46.5715 40.6175 46.5745 40.6137 46.5767C40.61 46.5789 40.6057 46.5803 40.6014 46.5809L38.3574 46.8564C38.3561 46.8566 38.3547 46.8566 38.3534 46.8566ZM36.5652 36.4914L38.38 46.7884L40.5597 46.5208L38.745 36.2237L36.5652 36.4914Z" fill="#111111"/>
<path d="M40.417 33.0499L42.6609 32.7744L44.9933 46.009L42.7494 46.2845L40.417 33.0499Z" fill="#B6F1CF"/>
<path d="M42.7495 46.317C42.7419 46.317 42.7345 46.3143 42.7287 46.3094C42.7229 46.3046 42.719 46.2978 42.7177 46.2903L40.3853 33.0557C40.3845 33.0514 40.3846 33.0469 40.3856 33.0426C40.3866 33.0384 40.3885 33.0343 40.3911 33.0308C40.3937 33.0273 40.397 33.0243 40.4008 33.0221C40.4046 33.0199 40.4088 33.0185 40.4132 33.0179L42.6571 32.7424C42.6653 32.7414 42.6736 32.7436 42.6802 32.7486C42.6869 32.7535 42.6914 32.7608 42.6929 32.7689L45.0253 46.0035C45.0261 46.0078 45.0259 46.0122 45.0249 46.0165C45.0239 46.0208 45.0221 46.0248 45.0194 46.0284C45.0168 46.0319 45.0135 46.0349 45.0097 46.0371C45.0059 46.0393 45.0017 46.0407 44.9974 46.0412L42.7535 46.3168C42.7522 46.3169 42.7508 46.317 42.7495 46.317ZM40.4549 33.078L42.776 46.2488L44.9557 45.9812L42.6345 32.8104L40.4549 33.078Z" fill="#111111"/>
<path d="M44.2119 29.1071L46.4559 28.8315L49.3881 45.4695L47.1441 45.745L44.2119 29.1071Z" fill="#B6F1CF"/>
<path d="M47.1442 45.7773C47.1287 45.7773 47.1152 45.7662 47.1124 45.7506L44.1802 29.1126C44.1794 29.1082 44.1795 29.1038 44.1805 29.0995C44.1815 29.0953 44.1834 29.0912 44.186 29.0877C44.1886 29.0842 44.1919 29.0812 44.1957 29.079C44.1995 29.0768 44.2037 29.0754 44.2081 29.0748L46.4521 28.7993C46.4603 28.7983 46.4686 28.8005 46.4752 28.8054C46.4819 28.8104 46.4864 28.8176 46.4879 28.8258L49.4201 45.4637C49.4209 45.4681 49.4207 45.4725 49.4197 45.4768C49.4187 45.4811 49.4169 45.4851 49.4143 45.4886C49.4116 45.4922 49.4083 45.4951 49.4046 45.4973C49.4008 45.4995 49.3966 45.501 49.3922 45.5015L47.1482 45.7771C47.1469 45.7772 47.1455 45.7773 47.1442 45.7773ZM44.2498 29.1349L47.1708 45.7091L49.3505 45.4414L46.4295 28.8673L44.2498 29.1349Z" fill="#111111"/>
<path d="M47.8691 24.3785L50.1131 24.103L53.7836 44.9296L51.5395 45.2051L47.8691 24.3785Z" fill="#B6F1CF"/>
<path d="M51.5406 45.2376C51.533 45.2376 51.5257 45.2349 51.5198 45.23C51.514 45.2252 51.5101 45.2184 51.5088 45.2109L47.8384 24.3843C47.8376 24.38 47.8377 24.3755 47.8387 24.3713C47.8398 24.367 47.8416 24.363 47.8442 24.3594C47.8468 24.3559 47.8501 24.3529 47.8539 24.3507C47.8577 24.3485 47.8619 24.3471 47.8663 24.3466L50.1103 24.071C50.1185 24.07 50.1268 24.0722 50.1335 24.0772C50.1401 24.0821 50.1446 24.0894 50.1461 24.0975L53.8165 44.9241C53.8173 44.9284 53.8171 44.9329 53.8161 44.9372C53.8151 44.9414 53.8133 44.9455 53.8106 44.949C53.808 44.9525 53.8047 44.9555 53.8009 44.9577C53.7971 44.9599 53.7929 44.9613 53.7886 44.9619L51.5446 45.2374C51.5433 45.2375 51.5419 45.2376 51.5406 45.2376ZM47.908 24.4066L51.5672 45.1694L53.7469 44.9018L50.0877 24.139L47.908 24.4066Z" fill="#111111"/>
<path d="M26.6604 48.2928C26.6528 48.2928 26.6454 48.2901 26.6396 48.2852C26.6338 48.2803 26.6299 48.2735 26.6286 48.266L22.2251 23.3178C22.2236 23.3093 22.2255 23.3006 22.2305 23.2936C22.2354 23.2866 22.2429 23.2818 22.2513 23.2803C22.2598 23.2788 22.2685 23.2807 22.2755 23.2856C22.2825 23.2906 22.2873 23.2981 22.2888 23.3065L26.687 48.2246L56.8444 44.5229C56.8486 44.5224 56.8529 44.5226 56.857 44.5238C56.8611 44.5249 56.865 44.5268 56.8684 44.5294C56.8717 44.532 56.8746 44.5353 56.8767 44.539C56.8788 44.5427 56.8801 44.5468 56.8807 44.551C56.8812 44.5553 56.8809 44.5596 56.8797 44.5637C56.8786 44.5678 56.8766 44.5716 56.874 44.575C56.8713 44.5783 56.868 44.5811 56.8643 44.5832C56.8606 44.5853 56.8565 44.5866 56.8523 44.5871L26.6644 48.2925C26.663 48.2927 26.6617 48.2928 26.6604 48.2928ZM27.9804 56.4294C27.9722 56.4294 27.9644 56.4262 27.9584 56.4206C27.9524 56.4149 27.9489 56.4072 27.9484 56.399C27.9479 56.3908 27.9505 56.3828 27.9557 56.3764C27.961 56.3701 27.9684 56.366 27.9766 56.365L46.966 54.0334C46.9703 54.0329 46.9745 54.0332 46.9786 54.0343C46.9827 54.0355 46.9866 54.0374 46.9899 54.04C46.9932 54.0426 46.996 54.0459 46.9981 54.0496C47.0002 54.0533 47.0016 54.0574 47.0021 54.0616C47.0026 54.0658 47.0023 54.0701 47.0012 54.0742C47 54.0783 46.9981 54.0821 46.9955 54.0854C46.9929 54.0888 46.9896 54.0916 46.9859 54.0937C46.9822 54.0958 46.9781 54.0971 46.9739 54.0976L27.9845 56.4292C27.9831 56.4294 27.9818 56.4294 27.9804 56.4294ZM28.3643 58.6075C28.356 58.6075 28.3481 58.6044 28.3421 58.5987C28.3361 58.5931 28.3324 58.5853 28.3319 58.5771C28.3314 58.5689 28.3341 58.5607 28.3394 58.5544C28.3447 58.5481 28.3522 58.544 28.3604 58.543L36.7369 57.5145C36.7452 57.5138 36.7536 57.5164 36.7601 57.5216C36.7666 57.5269 36.7708 57.5345 36.7718 57.5429C36.7729 57.5512 36.7706 57.5596 36.7656 57.5663C36.7605 57.573 36.753 57.5775 36.7447 57.5788L28.3683 58.6073C28.3669 58.6074 28.3656 58.6075 28.3643 58.6075ZM39.1834 57.2791C39.1752 57.279 39.1673 57.2759 39.1613 57.2702C39.1554 57.2646 39.1518 57.2569 39.1513 57.2487C39.1508 57.2405 39.1534 57.2324 39.1587 57.2261C39.1639 57.2198 39.1713 57.2157 39.1795 57.2147L53.7671 55.4235C53.7756 55.4225 53.7842 55.4249 53.7909 55.4302C53.7977 55.4355 53.8021 55.4432 53.8031 55.4517C53.8042 55.4602 53.8018 55.4688 53.7965 55.4756C53.7912 55.4823 53.7835 55.4867 53.775 55.4878L39.1874 57.2789C39.186 57.279 39.1847 57.2791 39.1834 57.2791ZM28.7478 60.7838C28.7396 60.7838 28.7316 60.7806 28.7256 60.775C28.7196 60.7693 28.716 60.7616 28.7155 60.7534C28.715 60.7451 28.7177 60.737 28.723 60.7307C28.7282 60.7243 28.7358 60.7203 28.7439 60.7193L43.15 58.9505C43.1582 58.9499 43.1664 58.9526 43.1727 58.9579C43.1791 58.9631 43.1832 58.9707 43.1842 58.9789C43.1852 58.9871 43.1831 58.9954 43.1781 59.0021C43.1732 59.0087 43.166 59.0133 43.1578 59.0147L28.7518 60.7835C28.7505 60.7837 28.7492 60.7838 28.7478 60.7838ZM45.5196 58.7245C45.5114 58.7244 45.5035 58.7213 45.4975 58.7156C45.4916 58.71 45.488 58.7023 45.4875 58.6941C45.487 58.6859 45.4897 58.6778 45.4949 58.6715C45.5001 58.6652 45.5076 58.6611 45.5157 58.66L52.8807 57.7557C52.889 57.755 52.8974 57.7575 52.9039 57.7628C52.9104 57.7681 52.9147 57.7757 52.9157 57.784C52.9167 57.7924 52.9144 57.8008 52.9094 57.8075C52.9043 57.8142 52.8968 57.8187 52.8885 57.82L45.5236 58.7243C45.5223 58.7244 45.5209 58.7245 45.5196 58.7245Z" fill="#111111"/>
</g>
<g clip-path="url(#clip5_1759_68200)">
<path d="M66.9224 50.3523L76.1731 56.7794L55.1873 76.6965L45.9365 70.2694L66.9224 50.3523Z" fill="#B6F1CF"/>
<path d="M55.1873 76.7286C55.181 76.7286 55.1745 76.7267 55.1689 76.7229L45.9182 70.2958C45.9142 70.2931 45.9109 70.2895 45.9086 70.2853C45.9062 70.2812 45.9048 70.2766 45.9044 70.2718C45.904 70.267 45.9047 70.2622 45.9065 70.2578C45.9082 70.2533 45.9109 70.2493 45.9144 70.246L66.9002 50.3289C66.9113 50.3184 66.9283 50.3171 66.9408 50.3258L76.1916 56.7529C76.1955 56.7556 76.1988 56.7592 76.2012 56.7633C76.2036 56.7675 76.205 56.7721 76.2054 56.7769C76.2057 56.7817 76.205 56.7864 76.2033 56.7909C76.2016 56.7954 76.1989 56.7994 76.1954 56.8027L55.2095 76.7198C55.2035 76.7255 55.1956 76.7286 55.1873 76.7286ZM45.9874 70.2655L55.1842 76.655L76.1223 56.7832L66.9256 50.3937L45.9874 70.2655Z" fill="#111111"/>
<path d="M73.2623 56.1538L68.1337 52.5906C67.4964 53.1954 66.4478 53.3165 65.7923 52.8611L59.0843 59.2275L55.5215 62.6088L48.8135 68.9752C49.469 69.4307 49.4839 70.2906 48.8466 70.8955L53.9752 74.4586C54.6125 73.8538 55.6611 73.7327 56.3166 74.1881L63.0247 67.8217L66.5874 64.4404L73.2954 58.074C72.6399 57.6186 72.6251 56.7586 73.2623 56.1538Z" fill="white"/>
<path d="M53.9753 74.491C53.9689 74.491 53.9624 74.4891 53.9569 74.4853L48.8282 70.9221C48.8243 70.9194 48.821 70.9158 48.8186 70.9117C48.8162 70.9075 48.8148 70.9029 48.8144 70.8981C48.8141 70.8934 48.8148 70.8886 48.8165 70.8841C48.8182 70.8796 48.8209 70.8756 48.8244 70.8723C49.1419 70.571 49.3079 70.1862 49.2797 69.8167C49.2548 69.4911 49.0828 69.2017 48.7951 69.0018C48.7912 68.9991 48.7879 68.9956 48.7855 68.9914C48.7831 68.9873 48.7817 68.9826 48.7813 68.9779C48.781 68.9731 48.7817 68.9683 48.7834 68.9638C48.7851 68.9594 48.7878 68.9554 48.7913 68.9521L65.7701 52.838C65.7755 52.8329 65.7825 52.8298 65.7899 52.8292C65.7973 52.8287 65.8046 52.8306 65.8107 52.8349C66.4535 53.2815 67.4856 53.1615 68.1116 52.5674C68.1226 52.5569 68.1396 52.5556 68.1522 52.5644L73.2808 56.1276C73.2848 56.1303 73.288 56.1338 73.2904 56.138C73.2928 56.1421 73.2942 56.1468 73.2946 56.1515C73.295 56.1563 73.2943 56.1611 73.2925 56.1656C73.2908 56.17 73.2881 56.174 73.2846 56.1773C72.9671 56.4787 72.8012 56.8635 72.8293 57.233C72.8542 57.5586 73.0263 57.848 73.3139 58.0478C73.3179 58.0505 73.3211 58.0541 73.3235 58.0582C73.3259 58.0624 73.3273 58.067 73.3277 58.0718C73.3281 58.0765 73.3273 58.0813 73.3256 58.0858C73.3239 58.0903 73.3212 58.0943 73.3177 58.0976L56.3389 74.2117C56.3278 74.2222 56.3109 74.2235 56.2983 74.2148C55.6555 73.7682 54.6234 73.8882 53.9975 74.4822C53.9913 74.4881 53.9833 74.491 53.9753 74.491ZM48.8971 70.8916L53.9723 74.4176C54.6139 73.8258 55.6522 73.706 56.3134 74.1471L73.245 58.0777C72.9604 57.8677 72.7904 57.5709 72.765 57.2379C72.7362 56.8602 72.8987 56.4687 73.2119 56.1581L68.1367 52.6321C67.4951 53.2239 66.4568 53.3437 65.7956 52.9025L48.864 68.9719C49.1486 69.182 49.3186 69.4788 49.344 69.8118C49.3728 70.1895 49.2103 70.581 48.8971 70.8916Z" fill="#111111"/>
<path d="M56.6265 63.3762C56.3933 64.5532 56.8287 65.7328 57.9257 66.495C59.0227 67.2571 60.5248 67.4237 61.9205 67.0543L56.6265 63.3762Z" fill="#B6F1CF"/>
<path d="M60.4927 67.2745C59.5309 67.2745 58.62 67.0166 57.9073 66.5214C56.8413 65.7808 56.3506 64.6026 56.5948 63.3699C56.5959 63.3647 56.5982 63.3598 56.6016 63.3557C56.605 63.3515 56.6094 63.3483 56.6144 63.3463C56.6193 63.3443 56.6247 63.3436 56.6301 63.3442C56.6354 63.3448 56.6405 63.3467 56.6449 63.3498L61.9389 67.0279C61.944 67.0314 61.9479 67.0363 61.9503 67.0419C61.9526 67.0476 61.9533 67.0538 61.9523 67.0599C61.9512 67.0659 61.9484 67.0715 61.9443 67.0761C61.9401 67.0806 61.9347 67.0838 61.9288 67.0854C61.4495 67.2123 60.965 67.2745 60.4927 67.2745ZM56.6489 63.431C56.432 64.6202 56.9138 65.7527 57.9441 66.4686C58.975 67.1848 60.4285 67.3969 61.8445 67.0407L56.6489 63.431Z" fill="#111111"/>
<path d="M60.1885 59.9945L65.4835 63.6733C65.7171 62.4964 65.2816 61.317 64.1844 60.5547C63.0871 59.7924 61.5845 59.6252 60.1885 59.9945Z" fill="#B6F1CF"/>
<path d="M65.4835 63.7054C65.477 63.7054 65.4706 63.7034 65.4651 63.6996L60.1701 60.0208C60.165 60.0173 60.1611 60.0124 60.1587 60.0067C60.1564 60.0011 60.1557 59.9948 60.1567 59.9888C60.1578 59.9827 60.1606 59.9771 60.1647 59.9726C60.1689 59.9681 60.1743 59.9648 60.1802 59.9633C61.6357 59.5783 63.1395 59.7894 64.2028 60.5282C65.2692 61.269 65.7597 62.4471 65.5151 63.6794C65.5136 63.6867 65.5097 63.6933 65.5039 63.698C65.4982 63.7028 65.4909 63.7053 65.4835 63.7054ZM60.2645 60.008L65.4611 63.6184C65.6783 62.4296 65.1966 61.2971 64.166 60.581C63.1345 59.8644 61.6806 59.6519 60.2645 60.008Z" fill="#111111"/>
<path d="M58.2112 58.6206L54.6484 62.0019L63.8992 68.429L67.462 65.0477L58.2112 58.6206Z" fill="#069D6E"/>
<path d="M63.8992 68.4612C63.8929 68.4612 63.8864 68.4593 63.8808 68.4554L54.6301 62.0283C54.6261 62.0256 54.6229 62.022 54.6205 62.0179C54.6181 62.0137 54.6167 62.0091 54.6163 62.0043C54.6159 61.9996 54.6166 61.9948 54.6184 61.9903C54.6201 61.9858 54.6228 61.9818 54.6263 61.9785L58.189 58.5972C58.1944 58.5921 58.2014 58.589 58.2088 58.5885C58.2162 58.5879 58.2236 58.5899 58.2296 58.5941L67.4804 65.0212C67.4844 65.024 67.4876 65.0275 67.49 65.0317C67.4924 65.0358 67.4938 65.0404 67.4942 65.0452C67.4946 65.05 67.4938 65.0548 67.4921 65.0592C67.4904 65.0637 67.4877 65.0677 67.4842 65.071L63.9215 68.4523C63.9155 68.458 63.9075 68.4612 63.8992 68.4612ZM54.6993 61.998L63.8961 68.3876L67.4112 65.0515L58.2144 58.662L54.6993 61.998Z" fill="#111111"/>
<path d="M57.7623 59.0459L55.0957 61.5767L64.3465 68.0038L67.0131 65.473L57.7623 59.0459Z" fill="white"/>
<path d="M64.3465 68.0359C64.3399 68.0359 64.3335 68.0339 64.3281 68.0302L55.0773 61.6031C55.0734 61.6003 55.0701 61.5968 55.0677 61.5926C55.0654 61.5885 55.0639 61.5839 55.0636 61.5791C55.0632 61.5743 55.0639 61.5695 55.0656 61.5651C55.0674 61.5606 55.0701 61.5566 55.0735 61.5533L57.7402 59.0225C57.7512 59.012 57.7682 59.0107 57.7808 59.0194L67.0315 65.4465C67.0355 65.4492 67.0387 65.4528 67.0411 65.4569C67.0435 65.4611 67.0449 65.4657 67.0453 65.4705C67.0457 65.4753 67.045 65.4801 67.0432 65.4845C67.0415 65.489 67.0388 65.493 67.0353 65.4963L64.3687 68.0271C64.3627 68.0328 64.3548 68.0359 64.3465 68.0359ZM55.1466 61.5728L64.3434 67.9623L66.9623 65.4768L57.7655 59.0873L55.1466 61.5728Z" fill="#111111"/>
<path d="M76.1734 56.7793L76.8483 59.0107L55.8624 78.9278L55.1875 76.6964L76.1734 56.7793Z" fill="#069D6E"/>
<path d="M55.8624 78.96C55.8555 78.96 55.8487 78.9578 55.8432 78.9536C55.8376 78.9495 55.8335 78.9437 55.8315 78.9371L55.1566 76.7057C55.1549 76.7 55.1548 76.6939 55.1564 76.6881C55.1579 76.6824 55.161 76.6771 55.1653 76.673L76.1512 56.7559C76.1552 56.7521 76.16 56.7494 76.1654 56.7481C76.1707 56.7467 76.1763 56.7467 76.1816 56.7481C76.1869 56.7496 76.1918 56.7523 76.1958 56.7561C76.1997 56.7599 76.2026 56.7647 76.2042 56.77L76.8791 59.0014C76.8808 59.0071 76.8809 59.0132 76.8794 59.0189C76.8779 59.0247 76.8748 59.0299 76.8704 59.034L55.8846 78.9511C55.8786 78.9568 55.8706 78.96 55.8624 78.96ZM55.2241 76.7061L55.8781 78.8685L76.8116 59.001L76.1576 56.8386L55.2241 76.7061Z" fill="#111111"/>
<path d="M68.1371 67.2783L67.4622 65.0469L63.8994 68.4282L64.5743 70.6596L68.1371 67.2783Z" fill="#111111"/>
<path d="M64.5743 70.6918C64.5674 70.6918 64.5606 70.6896 64.5551 70.6854C64.5495 70.6813 64.5455 70.6755 64.5435 70.6689L63.8686 68.4375C63.8668 68.4318 63.8667 68.4257 63.8683 68.4199C63.8698 68.4142 63.8729 68.4089 63.8772 68.4048L67.44 65.0235C67.444 65.0197 67.4489 65.017 67.4542 65.0157C67.4595 65.0143 67.4651 65.0143 67.4704 65.0157C67.4758 65.0171 67.4806 65.0199 67.4846 65.0237C67.4885 65.0275 67.4915 65.0323 67.493 65.0375L68.1679 67.269C68.1697 67.2747 68.1698 67.2807 68.1682 67.2865C68.1667 67.2923 68.1636 67.2975 68.1593 67.3016L64.5965 70.6829C64.5905 70.6886 64.5826 70.6918 64.5743 70.6918ZM63.936 68.4379L64.59 70.6003L68.1005 67.2686L67.4464 65.1061L63.936 68.4379Z" fill="#111111"/>
<path d="M67.6892 67.7036L67.0142 65.4722L64.3477 68.003L65.0226 70.2344L67.6892 67.7036Z" fill="#B6F1CF"/>
<path d="M65.0225 70.2666C65.0156 70.2665 65.0089 70.2643 65.0033 70.2602C64.9978 70.2561 64.9937 70.2503 64.9917 70.2437L64.3168 68.0122C64.3151 68.0065 64.315 68.0005 64.3165 67.9947C64.318 67.9889 64.3211 67.9837 64.3255 67.9796L66.9921 65.4488C66.9961 65.445 67.001 65.4423 67.0063 65.4409C67.0116 65.4396 67.0172 65.4396 67.0225 65.441C67.0278 65.4424 67.0327 65.4452 67.0367 65.449C67.0406 65.4528 67.0435 65.4576 67.0451 65.4628L67.7201 67.6942C67.7218 67.7 67.7219 67.706 67.7204 67.7118C67.7188 67.7176 67.7157 67.7228 67.7114 67.7269L65.0448 70.2577C65.0387 70.2635 65.0307 70.2666 65.0225 70.2666ZM64.3842 68.0126L65.0383 70.175L67.6526 67.6939L66.9985 65.5315L64.3842 68.0126Z" fill="#111111"/>
<path d="M55.1873 76.6964L55.8622 78.9278L46.6115 72.5007L45.9365 70.2693L55.1873 76.6964Z" fill="#069D6E"/>
<path d="M55.8622 78.96C55.8558 78.96 55.8494 78.9581 55.8438 78.9542L46.593 72.5272C46.5871 72.523 46.5827 72.517 46.5806 72.51L45.9057 70.2786C45.9037 70.2722 45.9038 70.2653 45.906 70.259C45.9081 70.2527 45.9122 70.2471 45.9176 70.2432C45.923 70.2393 45.9295 70.2371 45.9362 70.2371C45.9429 70.237 45.9495 70.239 45.955 70.2428L55.2057 76.67C55.2117 76.6741 55.2161 76.6801 55.2182 76.6871L55.8931 78.9185C55.8945 78.9233 55.8948 78.9284 55.894 78.9333C55.8931 78.9383 55.8911 78.943 55.8881 78.947C55.8851 78.951 55.8812 78.9543 55.8767 78.9566C55.8722 78.9588 55.8672 78.96 55.8622 78.96ZM46.639 72.4807L55.8046 78.8485L55.1597 76.7164L45.9941 70.3485L46.639 72.4807Z" fill="#111111"/>
</g>
<defs>
<linearGradient id="paint0_linear_1759_68200" x1="60.0942" y1="28.8738" x2="54.9842" y2="39.3886" gradientUnits="userSpaceOnUse">
<stop stop-color="#111111"/>
<stop offset="0.108" stop-color="#192036"/>
<stop offset="0.251" stop-color="#223160"/>
<stop offset="0.396" stop-color="#293F83"/>
<stop offset="0.542" stop-color="#2F4A9E"/>
<stop offset="0.691" stop-color="#3352B2"/>
<stop offset="0.842" stop-color="#3556BD"/>
<stop offset="1" stop-color="#3658C1"/>
</linearGradient>
<linearGradient id="paint1_linear_1759_68200" x1="70.7553" y1="20.4934" x2="65.342" y2="30.7746" gradientUnits="userSpaceOnUse">
<stop stop-color="#111111"/>
<stop offset="0.25" stop-color="#1C462E"/>
<stop offset="0.5" stop-color="#2A8851"/>
<stop offset="0.75" stop-color="#33B168"/>
<stop offset="1" stop-color="#36C170"/>
</linearGradient>
<linearGradient id="paint2_linear_1759_68200" x1="8.86399" y1="49.3236" x2="16.3733" y2="41.9981" gradientUnits="userSpaceOnUse">
<stop stop-color="#36C170"/>
<stop offset="0.126" stop-color="#42C779"/>
<stop offset="0.352" stop-color="#61D792"/>
<stop offset="0.651" stop-color="#94F1BB"/>
<stop offset="0.801" stop-color="#B0FFD1"/>
<stop offset="0.934" stop-color="#5BD48D"/>
<stop offset="1" stop-color="#36C170"/>
</linearGradient>
<linearGradient id="paint3_linear_1759_68200" x1="34.7284" y1="12.806" x2="44.1806" y2="68.6048" gradientUnits="userSpaceOnUse">
<stop stop-color="#36C170"/>
<stop offset="0.161" stop-color="#31AB64"/>
<stop offset="0.499" stop-color="#257145"/>
<stop offset="0.875" stop-color="#121513"/>
<stop offset="1" stop-color="#111111"/>
<stop offset="1" stop-color="#111111"/>
</linearGradient>
<linearGradient id="paint4_linear_1759_68200" x1="13.7612" y1="54.9675" x2="19.4468" y2="63.5347" gradientUnits="userSpaceOnUse">
<stop stop-color="#36C170"/>
<stop offset="0.052" stop-color="#42C779"/>
<stop offset="0.145" stop-color="#61D792"/>
<stop offset="0.268" stop-color="#94F1BB"/>
<stop offset="0.329" stop-color="#B0FFD1"/>
<stop offset="0.464" stop-color="#8BECB3"/>
<stop offset="0.621" stop-color="#66D996"/>
<stop offset="0.768" stop-color="#4CCC81"/>
<stop offset="0.898" stop-color="#3CC475"/>
<stop offset="1" stop-color="#36C170"/>
</linearGradient>
<clipPath id="clip0_1759_68200">
<rect width="21.472" height="29.216" fill="white" transform="matrix(-0.997247 -0.0741519 -0.0741519 0.997247 74.5098 12.4363)"/>
</clipPath>
<clipPath id="clip1_1759_68200">
<rect width="10.944" height="11.904" fill="white" transform="translate(6 38.832)"/>
</clipPath>
<clipPath id="clip2_1759_68200">
<rect width="49.92" height="61.536" fill="white" transform="matrix(-1 0 0 1 65.168 10)"/>
</clipPath>
<clipPath id="clip3_1759_68200">
<rect width="13.92" height="14.944" fill="white" transform="translate(12.6885 51.728)"/>
</clipPath>
<clipPath id="clip4_1759_68200">
<rect width="34.656" height="37.504" fill="white" transform="translate(22.2246 23.28)"/>
</clipPath>
<clipPath id="clip5_1759_68200">
<rect width="30.976" height="28.64" fill="white" transform="translate(45.9043 50.3201)"/>
</clipPath>
</defs>
</svg>
