<svg width="88" height="88" viewBox="0 0 88 88" fill="none" xmlns="http://www.w3.org/2000/svg">
<g clip-path="url(#clip0_1759_68110)">
<path d="M60.2481 62.5426L60.8308 63.6336C61.2431 64.4057 61.8497 65.0897 62.6457 65.626C65.6227 67.6313 70.1205 66.8092 72.6913 63.7928C74.5754 61.5821 74.9034 58.8067 73.7741 56.6919L73.1914 55.6008C74.3208 57.7157 73.9928 60.491 72.1087 62.7017C69.5379 65.7181 65.0401 66.5403 62.0631 64.5349C61.267 63.9987 60.6604 63.3147 60.2481 62.5426Z" fill="#069D6E"/>
<path d="M66.396 66.7625C68.6974 66.7625 71.098 65.7288 72.7244 63.8204C74.5565 61.6707 74.9835 58.8647 73.8123 56.6715L73.2312 55.5833L73.2297 55.5805C73.2271 55.5755 73.2235 55.5711 73.2191 55.5676C73.2148 55.564 73.2098 55.5613 73.2044 55.5597C73.199 55.5581 73.1934 55.5575 73.1878 55.5581C73.1822 55.5586 73.1768 55.5603 73.1718 55.5629C73.1669 55.5656 73.1625 55.5692 73.1589 55.5735C73.1554 55.5779 73.1527 55.5829 73.1511 55.5883C73.1494 55.5937 73.1489 55.5993 73.1494 55.6049C73.15 55.6105 73.1516 55.616 73.1543 55.6209C74.3087 57.7827 73.8857 60.5511 72.0767 62.6738C69.5228 65.6704 65.0417 66.4893 62.0875 64.4993C61.3151 63.979 60.7091 63.3138 60.2864 62.5223C60.2838 62.5173 60.2802 62.5129 60.2758 62.5093C60.2715 62.5058 60.2665 62.5031 60.2611 62.5015C60.2557 62.4998 60.2501 62.4993 60.2445 62.4998C60.2389 62.5004 60.2335 62.502 60.2285 62.5047C60.2236 62.5073 60.2192 62.511 60.2156 62.5153C60.2121 62.5197 60.2094 62.5247 60.2078 62.53C60.2061 62.5354 60.2056 62.5411 60.2061 62.5467C60.2067 62.5523 60.2083 62.5577 60.211 62.5627L60.7936 63.6537C61.223 64.4578 61.8383 65.1333 62.6224 65.6614C63.728 66.4061 65.045 66.7625 66.396 66.7625ZM73.6079 56.4703L73.7369 56.7119C74.8914 58.8737 74.4684 61.6421 72.6593 63.7648C70.1055 66.7613 65.6244 67.5803 62.6701 65.5903C61.8978 65.07 61.2918 64.4048 60.8691 63.6132L60.741 63.3735C61.1011 63.83 61.5355 64.2306 62.0398 64.5703C65.0288 66.5838 69.5606 65.758 72.1418 62.7293C73.7341 60.861 74.2651 58.4969 73.6079 56.4703Z" fill="#111111"/>
<path d="M60.2481 62.5377C58.6058 59.4622 60.1719 55.4169 63.7462 53.5024C67.3204 51.5879 71.5492 52.529 73.1914 55.6046C74.8337 58.6801 73.2676 62.7254 69.6934 64.6399C66.1192 66.5544 61.8904 65.6132 60.2481 62.5377Z" fill="white"/>
<path d="M65.8131 65.6715C68.1145 65.6715 70.5151 64.6379 72.1416 62.7295C73.4622 61.1799 74.0781 59.2558 73.8314 57.4506C73.6138 55.8592 72.7504 54.4819 71.4 53.5723C68.4109 51.5588 63.8792 52.3847 61.298 55.4133C59.9777 56.9625 59.362 58.8866 59.6089 60.6923C59.8264 62.2838 60.6897 63.6611 62.0397 64.5704C63.1452 65.3152 64.4622 65.6715 65.8131 65.6715ZM71.3523 53.6433C72.6821 54.5391 73.5324 55.8954 73.7466 57.4623C73.99 59.2433 73.3813 61.1428 72.0765 62.6739C70.4666 64.5628 68.0903 65.5864 65.814 65.5866C64.4793 65.5867 63.1792 65.2349 62.0872 64.4993C60.7578 63.6038 59.9077 62.2476 59.6935 60.6806C59.45 58.8991 60.0585 56.9995 61.363 55.4688C63.9169 52.4723 68.3981 51.6533 71.3523 53.6433Z" fill="#111111"/>
<path d="M69.2604 56.2359C70.1299 56.8216 70.2273 58.0126 69.4747 58.8957C68.7234 59.7771 67.4074 60.0159 66.538 59.4302C65.6669 58.8434 65.571 57.6535 66.3222 56.7721C67.0749 55.889 68.3893 55.6491 69.2604 56.2359Z" fill="#B6F1CF"/>
<path d="M67.6354 59.7931C68.3168 59.7931 69.0268 59.4877 69.5076 58.9236C69.8993 58.464 70.0819 57.8926 70.0085 57.3559C69.9436 56.8816 69.6866 56.4713 69.2846 56.2005C68.398 55.6032 67.0547 55.8473 66.2901 56.7444C65.8989 57.2035 65.7166 57.7741 65.7898 58.3101C65.8547 58.7843 66.1121 59.1948 66.5146 59.4659C66.843 59.6871 67.2343 59.7931 67.6354 59.7931ZM69.237 56.2715C69.6184 56.5285 69.8623 56.9177 69.9238 57.3675C69.9938 57.88 69.8184 58.4269 69.4425 58.868C68.7059 59.7322 67.4139 59.9685 66.5622 59.3948C66.1802 59.1375 65.936 58.7481 65.8745 58.2984C65.8045 57.7866 65.9797 57.2405 66.3551 56.8C67.0924 55.9349 68.3852 55.6978 69.237 56.2715Z" fill="#111111"/>
<path d="M62.0636 64.5349C60.7845 63.6734 59.9953 62.4302 59.7142 61.0533C61.4241 59.5443 63.9688 59.2267 65.7116 60.4007C67.4147 61.548 67.7818 63.7359 66.703 65.5807C65.0581 65.7684 63.4062 65.4393 62.0636 64.5349Z" fill="#B6F1CF"/>
<path d="M65.8228 65.6738C66.1149 65.6738 66.4102 65.657 66.7073 65.6231C66.7138 65.6223 66.7202 65.62 66.7257 65.6164C66.7313 65.6128 66.736 65.6079 66.7393 65.6022C67.848 63.7064 67.4256 61.5039 65.7349 60.365C64.8895 59.7955 63.81 59.5516 62.6952 59.6782C61.5938 59.8033 60.5249 60.2801 59.6853 61.0209C59.6797 61.0259 59.6755 61.0323 59.6731 61.0394C59.6707 61.0466 59.6702 61.0542 59.6717 61.0616C59.9638 62.4926 60.8045 63.7386 62.0391 64.5702C63.1119 65.293 64.4307 65.6738 65.8228 65.6738ZM66.6763 65.5404C64.9917 65.7279 63.3625 65.3585 62.0868 64.4992C60.8603 63.673 60.0563 62.4873 59.7605 61.0689C60.5842 60.3489 61.6288 59.8855 62.7048 59.7633C63.7994 59.639 64.8585 59.8779 65.6872 60.4361C67.3337 61.5452 67.7479 63.689 66.6763 65.5404Z" fill="#111111"/>
</g>
<g clip-path="url(#clip1_1759_68110)">
<path d="M46.098 14.6954C46.7366 14.6058 47.4135 15.0819 47.6099 15.759L62.9909 68.7653C63.1875 69.4424 62.8291 70.0639 62.1905 70.1536L37.546 73.6141C36.9058 73.704 36.229 73.2279 36.0325 72.5508L20.6515 19.5445C20.455 18.8674 20.8133 18.2459 21.4535 18.156L46.098 14.6954ZM37.699 18.8167C38.18 18.7491 38.4523 18.2769 38.3042 17.7667C38.1561 17.2565 37.642 16.8951 37.161 16.9626L30.9532 17.8343C30.4722 17.9018 30.1999 18.3741 30.348 18.8841C30.4961 19.394 31.0104 19.7559 31.4913 19.6884L37.6991 18.8167" fill="white"/>
<path d="M37.3909 73.6611C36.7857 73.6611 36.1828 73.1971 35.9982 72.5608L20.6172 19.5545C20.5146 19.2011 20.5576 18.8412 20.7352 18.5671C20.8145 18.4452 20.9195 18.3421 21.0428 18.2649C21.1661 18.1877 21.3048 18.1382 21.4491 18.1201L46.0934 14.6595C46.7481 14.5676 47.4442 15.0563 47.6452 15.7489L63.0262 68.7554C63.1288 69.1089 63.0858 69.469 62.9081 69.7432C62.8291 69.8648 62.7244 69.9678 62.6014 70.0449C62.4784 70.122 62.3401 70.1714 62.196 70.1896L37.5515 73.6501C37.4983 73.6575 37.4446 73.6612 37.3909 73.6611ZM46.0985 14.6954L46.1036 14.7313L21.459 18.1918C21.325 18.2086 21.1963 18.2544 21.0818 18.3261C20.9673 18.3977 20.8698 18.4934 20.7961 18.6065C20.63 18.863 20.5902 19.2011 20.6869 19.5344L36.0678 72.5407C36.2591 73.2 36.9202 73.6655 37.5414 73.5782L62.1859 70.1177C62.3196 70.1009 62.4481 70.0551 62.5623 69.9836C62.6766 69.9121 62.7738 69.8165 62.8473 69.7036C63.0135 69.4471 63.0533 69.1087 62.9566 68.7754L47.5756 15.7691C47.3843 15.1097 46.724 14.6441 46.1035 14.7313L46.0985 14.6954ZM31.3746 19.7327C30.9138 19.7327 30.4545 19.379 30.3137 18.8941C30.2357 18.6253 30.2691 18.3506 30.4052 18.1404C30.4655 18.0473 30.5454 17.9685 30.6393 17.9094C30.7331 17.8504 30.8388 17.8125 30.9488 17.7984L37.1567 16.9267C37.6559 16.8567 38.1867 17.229 38.3398 17.7567C38.4179 18.0256 38.3845 18.3004 38.2483 18.5106C38.1881 18.6036 38.1082 18.6824 38.0143 18.7415C37.9204 18.8006 37.8148 18.8385 37.7047 18.8525L31.4969 19.7242C31.4564 19.7299 31.4155 19.7327 31.3746 19.7327ZM37.2798 16.9906C37.2419 16.9906 37.2041 16.9932 37.1665 16.9985L30.9587 17.8701C30.859 17.8828 30.7632 17.9171 30.6781 17.9706C30.593 18.024 30.5205 18.0954 30.4659 18.1797C30.3411 18.3722 30.311 18.6253 30.3831 18.874C30.5266 19.3685 31.0216 19.7176 31.4866 19.6524L37.6946 18.7808C37.7943 18.7681 37.8901 18.7338 37.9752 18.6804C38.0604 18.6269 38.1328 18.5555 38.1874 18.4712C38.3122 18.2787 38.3423 18.0256 38.2702 17.7769C38.1382 17.3224 37.7091 16.9906 37.2798 16.9906Z" fill="#111111"/>
<path d="M37.161 16.9627C37.6419 16.8951 38.1563 17.257 38.3043 17.767C38.4522 18.2769 38.1799 18.7492 37.6991 18.8168L31.4912 19.6884C31.0103 19.756 30.4959 19.3941 30.3479 18.8842C30.2 18.3742 30.4723 17.9019 30.9531 17.8344L37.161 16.9627Z" fill="#B6F1CF"/>
<path d="M31.3747 19.7326C30.9139 19.7326 30.4545 19.379 30.3138 18.8941C30.2358 18.6252 30.2692 18.3505 30.4053 18.1404C30.4656 18.0473 30.5454 17.9685 30.6393 17.9094C30.7332 17.8503 30.8388 17.8125 30.9489 17.7984L37.1567 16.9267C37.656 16.8566 38.1867 17.229 38.3399 17.7567C38.4179 18.0256 38.3845 18.3004 38.2484 18.5105C38.1881 18.6036 38.1082 18.6824 38.0144 18.7415C37.9205 18.8005 37.8148 18.8384 37.7048 18.8525L31.4969 19.7242C31.4564 19.7298 31.4156 19.7326 31.3747 19.7326ZM37.2799 16.9906C37.242 16.9905 37.2042 16.9932 37.1667 16.9984L30.9589 17.8701C30.8591 17.8828 30.7633 17.9171 30.6782 17.9705C30.5931 18.024 30.5207 18.0954 30.466 18.1797C30.3413 18.3722 30.3111 18.6253 30.3833 18.874C30.5152 19.3285 30.944 19.6603 31.3735 19.6603C31.4114 19.6603 31.4492 19.6577 31.4867 19.6524L37.6947 18.7808C37.7944 18.7681 37.8902 18.7338 37.9753 18.6803C38.0604 18.6269 38.1328 18.5555 38.1875 18.4712C38.3122 18.2786 38.3424 18.0256 38.2702 17.7769C38.1382 17.3224 37.7094 16.9906 37.2799 16.9906Z" fill="#111111"/>
<path d="M62.4632 71.0924L37.817 74.5531C36.6911 74.7112 35.4958 73.8704 35.1489 72.6749L19.7679 19.6685C19.5305 18.8505 19.7518 18.0784 20.2764 17.6216L18.6416 19.0451C18.117 19.5019 17.8957 20.2741 18.1331 21.0921L33.5141 74.0984C33.861 75.2939 35.0563 76.1348 36.1823 75.9767L60.8284 72.5159C61.1631 72.4722 61.4777 72.3316 61.7333 72.1114L63.3681 70.6878C63.1124 70.9081 62.7979 71.0487 62.4632 71.0924Z" fill="url(#paint0_linear_1759_68110)"/>
<path d="M35.9088 76.0319C34.8543 76.0319 33.8026 75.2206 33.4799 74.1085L18.0988 21.1021C17.8657 20.2985 18.0648 19.4998 18.6184 19.0177L20.2532 17.5942C20.2568 17.591 20.2609 17.5884 20.2655 17.5868C20.2701 17.5852 20.2749 17.5845 20.2797 17.5848C20.2845 17.585 20.2893 17.5863 20.2936 17.5884C20.2979 17.5905 20.3018 17.5935 20.305 17.5971C20.3082 17.6008 20.3106 17.605 20.3121 17.6096C20.3136 17.6142 20.3142 17.619 20.3138 17.6238C20.3134 17.6286 20.3121 17.6333 20.3098 17.6376C20.3076 17.6419 20.3045 17.6457 20.3008 17.6488C19.7687 18.1122 19.578 18.8822 19.8033 19.6583L35.1843 72.6648C35.4982 73.7465 36.5195 74.5359 37.5426 74.536C37.6329 74.5361 37.7231 74.5298 37.8126 74.5173L62.4587 71.0565C62.7863 71.0133 63.0942 70.8757 63.3448 70.6606C63.3521 70.6543 63.3615 70.6511 63.3711 70.6517C63.3807 70.6524 63.3896 70.6568 63.396 70.6641C63.4023 70.6713 63.4054 70.6808 63.4048 70.6903C63.4041 70.6999 63.3997 70.7089 63.3924 70.7152L61.7577 72.1387C61.4965 72.363 61.1755 72.5066 60.834 72.5517L36.1879 76.0125C36.0954 76.0255 36.0022 76.0319 35.9088 76.0319ZM19.9287 17.9729L18.666 19.0724C18.1339 19.5359 17.9432 20.3058 18.1685 21.082L33.5495 74.0883C33.891 75.2653 35.0701 76.0963 36.1778 75.9408L60.8239 72.48C61.1515 72.4368 61.4594 72.2992 61.7101 72.0841L62.9754 70.9823C62.8144 71.0549 62.6437 71.104 62.4688 71.1282L37.8227 74.589C36.6807 74.7493 35.4658 73.8952 35.1146 72.6849L19.7336 19.6786C19.554 19.0597 19.6309 18.4436 19.9287 17.9729Z" fill="#111111"/>
<path d="M45.8258 13.7565C46.9533 13.5981 48.1487 14.439 48.4956 15.6346L63.8766 68.6409C64.2236 69.8364 63.5906 70.934 62.4633 71.0922L37.8172 74.5529C36.6913 74.711 35.4959 73.8701 35.149 72.6747L19.7679 19.6685C19.421 18.4729 20.0538 17.3753 21.1812 17.2172L45.8258 13.7565ZM62.9912 68.7652L47.6102 15.7589C47.4137 15.0818 46.7368 14.6056 46.0982 14.6953L21.4538 18.1559C20.8136 18.2457 20.4552 18.8672 20.6517 19.5444L36.0327 72.5507C36.2292 73.2278 36.9061 73.7039 37.5463 73.614L62.1907 70.1535C62.8294 70.0638 63.1877 69.4423 62.9912 68.7652Z" fill="#B6F1CF"/>
<path d="M37.5431 74.6085C36.4886 74.6085 35.4369 73.7972 35.1142 72.6851L19.7332 19.6788C19.5543 19.0622 19.6291 18.4348 19.9384 17.9573C20.0759 17.7458 20.2579 17.5668 20.4717 17.4327C20.6856 17.2987 20.9261 17.2129 21.1765 17.1813L45.8209 13.7208C46.9638 13.5603 48.1794 14.4144 48.5305 15.6247L63.9116 68.631C64.0904 69.2474 64.0156 69.8749 63.7062 70.3524C63.5688 70.5639 63.3868 70.7429 63.173 70.8769C62.9592 71.0109 62.7187 71.0967 62.4683 71.1283L37.8222 74.5891C37.7297 74.6021 37.6365 74.6085 37.5431 74.6085ZM45.831 13.7925L21.1865 17.253C20.9464 17.2833 20.7158 17.3655 20.5107 17.4939C20.3057 17.6223 20.1312 17.7939 19.9993 17.9966C19.7014 18.4565 19.6297 19.0622 19.8028 19.6586L35.1838 72.6649C35.4976 73.7466 36.519 74.5361 37.5421 74.5361C37.6324 74.5362 37.7226 74.5299 37.8121 74.5174L62.4582 71.0566C62.6983 71.0264 62.9289 70.9442 63.1339 70.8158C63.339 70.6874 63.5135 70.5158 63.6454 70.313C63.9433 69.8532 64.015 69.2474 63.8419 68.6511L48.4609 15.6448C48.1194 14.4678 46.9396 13.6368 45.831 13.7925ZM37.3908 73.6612C36.7856 73.6612 36.1826 73.1972 35.998 72.561L20.617 19.5546C20.5145 19.2012 20.5575 18.8413 20.7351 18.5673C20.8144 18.4454 20.9193 18.3422 21.0426 18.265C21.1659 18.1878 21.3046 18.1383 21.449 18.1202L46.0933 14.6596C46.748 14.5677 47.4441 15.0564 47.6451 15.749L63.0261 68.7555C63.1287 69.109 63.0856 69.469 62.908 69.7433C62.8289 69.8649 62.7242 69.9679 62.6012 70.045C62.4783 70.1221 62.3399 70.1715 62.1959 70.1897L37.5514 73.6501C37.4982 73.6575 37.4445 73.6613 37.3908 73.6612ZM46.2545 14.7209C46.204 14.7208 46.1535 14.7244 46.1034 14.7314L21.4589 18.1919C21.3248 18.2087 21.196 18.2545 21.0815 18.3261C20.9669 18.3977 20.8694 18.4935 20.7957 18.6066C20.6296 18.8631 20.5897 19.2012 20.6864 19.5345L36.0677 72.5408C36.259 73.2002 36.9201 73.6656 37.5413 73.5784L62.1858 70.1178C62.3195 70.101 62.448 70.0553 62.5622 69.9837C62.6764 69.9122 62.7737 69.8167 62.8471 69.7038C63.0134 69.4472 63.0532 69.1088 62.9565 68.7755L47.5755 15.7692C47.3996 15.1632 46.8275 14.7209 46.2545 14.7209Z" fill="#111111"/>
</g>
<g clip-path="url(#clip2_1759_68110)">
<path d="M40.5274 56.5565C39.5342 56.6962 38.9473 57.5585 39.2152 58.4831C39.4832 59.4078 40.5042 60.044 41.4974 59.9043C41.8247 59.8583 42.1064 59.7344 42.3291 59.5556L43.1126 59.6456L42.7576 58.9913C42.8866 58.6887 42.9142 58.3388 42.8096 57.9777C42.5417 57.053 41.5205 56.4169 40.5273 56.5566" fill="white"/>
<path d="M41.2231 59.9598C40.3087 59.9598 39.4277 59.3463 39.1806 58.4934C39.0518 58.0488 39.1118 57.6017 39.3494 57.2343C39.6011 56.8453 40.0177 56.5919 40.5225 56.5209C41.5307 56.3791 42.5723 57.0282 42.8445 57.9678C42.9458 58.3172 42.9296 58.6701 42.7978 58.9895L43.1446 59.6285C43.151 59.6404 43.1503 59.6548 43.1428 59.666C43.139 59.6715 43.1339 59.6758 43.1279 59.6786C43.1219 59.6814 43.1152 59.6824 43.1087 59.6817L42.34 59.5934C42.1079 59.7761 41.8186 59.896 41.5026 59.9404C41.41 59.9534 41.3166 59.9599 41.2231 59.9598ZM40.8029 56.5738C40.7125 56.5737 40.6221 56.58 40.5326 56.5926C40.0488 56.6606 39.6502 56.9025 39.4101 57.2736C39.184 57.6231 39.1272 58.0492 39.2501 58.4733C39.5127 59.3797 40.5185 60.0057 41.4925 59.8687C41.8011 59.8253 42.0826 59.7074 42.3066 59.5275C42.3104 59.5245 42.3146 59.5223 42.3192 59.521C42.3238 59.5197 42.3286 59.5193 42.3334 59.5198L43.0478 59.6019L42.726 59.0087C42.7234 59.0039 42.7219 58.9986 42.7216 58.9932C42.7214 58.9877 42.7224 58.9823 42.7245 58.9773C42.8559 58.6691 42.8733 58.327 42.775 57.9879C42.5367 57.1654 41.6862 56.5738 40.8029 56.5738Z" fill="#111111"/>
<path d="M46.9395 55.6128L43.5098 57.0065L45.2408 57.7466L46.2316 59.4142L46.9395 55.6128Z" fill="white"/>
<path d="M46.2326 59.4505C46.2263 59.4505 46.2201 59.4488 46.2147 59.4457C46.2092 59.4426 46.2047 59.4382 46.2015 59.4328L45.2167 57.7752L43.4965 57.0398C43.49 57.037 43.4844 57.0323 43.4805 57.0263C43.4766 57.0203 43.4745 57.0133 43.4746 57.0062C43.4747 56.9991 43.4768 56.9921 43.4809 56.9862C43.4849 56.9803 43.4905 56.9757 43.4971 56.973L46.9269 55.5793C46.9329 55.5769 46.9394 55.5761 46.9459 55.5771C46.9523 55.578 46.9583 55.5807 46.9633 55.5848C46.9683 55.5889 46.9722 55.5943 46.9744 55.6004C46.9767 55.6065 46.9772 55.6131 46.9761 55.6194L46.2682 59.4209C46.2667 59.4292 46.2623 59.4367 46.2558 59.4421C46.2493 59.4475 46.2411 59.4505 46.2326 59.4505H46.2326ZM43.6047 57.0074L45.2559 57.7133C45.2629 57.7163 45.2688 57.7215 45.2728 57.7281L46.2146 59.3133L46.8927 55.6713L43.6047 57.0074Z" fill="#111111"/>
<path d="M36.6415 57.1174C36.3986 57.1515 36.183 57.2804 36.0482 57.4973C35.9852 57.5969 35.9438 57.7087 35.9265 57.8253C35.8455 57.7225 35.7495 57.6307 35.6351 57.5554C35.3908 57.3918 35.12 57.3313 34.8768 57.3655C34.6153 57.4023 34.3856 57.5485 34.2552 57.7933C34.0015 58.2645 34.2116 58.927 34.7206 59.2681L36.7279 60.5909L37.8415 58.8292C38.1239 58.3768 37.9487 57.7095 37.4524 57.3437C37.1951 57.1533 36.9025 57.0807 36.6415 57.1174Z" fill="#B6F1CF"/>
<path d="M36.7279 60.6272C36.7208 60.6272 36.7139 60.6251 36.708 60.6212L34.7007 59.2983C34.1751 58.9461 33.9611 58.2634 34.2234 57.7762C34.3534 57.5322 34.5897 57.3694 34.8718 57.3297C35.1337 57.293 35.4119 57.3624 35.6552 57.5254C35.7463 57.5853 35.8303 57.6586 35.9056 57.7438C35.928 57.6496 35.9658 57.5598 36.0177 57.478C36.1534 57.2594 36.3732 57.1186 36.6364 57.0816C36.9194 57.0417 37.2169 57.1246 37.4739 57.3147C37.9859 57.692 38.1646 58.3801 37.8722 58.8484L36.7584 60.6103C36.7551 60.6155 36.7506 60.6197 36.7453 60.6226C36.7399 60.6256 36.7339 60.6272 36.7279 60.6272ZM35.0106 57.3925C34.9674 57.3925 34.9244 57.3955 34.8818 57.4014C34.6191 57.4384 34.408 57.5836 34.2872 57.8104C34.0419 58.2658 34.2454 58.9062 34.7407 59.2381L36.717 60.5405L37.811 58.8099C38.0836 58.3731 37.9132 57.7284 37.431 57.373C37.1892 57.1941 36.9105 57.1161 36.6465 57.1533C36.4049 57.1872 36.2033 57.3162 36.0789 57.5165C36.0185 57.6119 35.9788 57.719 35.9623 57.8307C35.9613 57.8377 35.9582 57.8442 35.9535 57.8495C35.9488 57.8547 35.9426 57.8585 35.9358 57.8603C35.929 57.8621 35.9218 57.8619 35.9151 57.8597C35.9084 57.8574 35.9025 57.8533 35.8982 57.8477C35.8157 57.7431 35.7205 57.6549 35.6152 57.5857C35.4263 57.4591 35.2158 57.3925 35.0106 57.3925Z" fill="#111111"/>
<path d="M30.9539 54.8577L57.8534 51.0749L51.1621 27.9812L24.2627 31.764L30.9539 54.8577Z" fill="white"/>
<path d="M30.9539 54.894C30.9461 54.894 30.9385 54.8914 30.9322 54.8867C30.926 54.882 30.9214 54.8754 30.9192 54.8679L24.228 31.7742C24.2265 31.7692 24.2262 31.764 24.227 31.7588C24.2277 31.7537 24.2295 31.7488 24.2323 31.7444C24.2381 31.7356 24.2473 31.7297 24.2577 31.7283L51.1571 27.9454C51.1746 27.9429 51.1918 27.9539 51.1968 27.9712L57.8881 51.0649C57.891 51.075 57.8894 51.0858 57.8837 51.0947C57.8809 51.099 57.8772 51.1027 57.8728 51.1055C57.8684 51.1083 57.8635 51.1101 57.8584 51.1108L30.959 54.8936C30.9573 54.8939 30.9556 54.894 30.9539 54.894ZM24.309 31.7941L30.9799 54.8176L57.807 51.045L51.1362 28.0215L24.309 31.7941Z" fill="#111111"/>
<path d="M56.4817 46.3409L48.5507 41.4055L45.1272 46.4284L35.9755 40.7329L29.5801 50.1161L30.9539 54.8579L57.8534 51.075L56.4817 46.3409Z" fill="#069D6E"/>
<path d="M30.9539 54.8939C30.9461 54.8939 30.9385 54.8913 30.9323 54.8866C30.926 54.8819 30.9214 54.8753 30.9193 54.8678L29.5454 50.1261C29.5439 50.1209 29.5436 50.1155 29.5444 50.1103C29.5452 50.105 29.5472 50.1 29.5502 50.0956L35.9456 40.7123C35.9509 40.7046 35.9589 40.6992 35.968 40.6973C35.9771 40.6954 35.9866 40.6971 35.9946 40.702L45.1169 46.3792L48.5208 41.3849C48.526 41.3772 48.5341 41.3718 48.5432 41.3699C48.5523 41.3679 48.5618 41.3696 48.5697 41.3745L56.5008 46.31C56.5084 46.3147 56.514 46.3221 56.5164 46.3307L57.8881 51.0647C57.8895 51.0697 57.8899 51.075 57.8891 51.0801C57.8884 51.0852 57.8865 51.0901 57.8837 51.0945C57.8809 51.0988 57.8772 51.1025 57.8728 51.1053C57.8685 51.1081 57.8636 51.1099 57.8585 51.1107L30.959 54.8935C30.9574 54.8937 30.9557 54.8939 30.9539 54.8939ZM29.6196 50.1223L30.98 54.8175L57.807 51.0448L56.4509 46.3642L48.561 41.4544L45.1571 46.4486C45.1519 46.4564 45.1439 46.4617 45.1347 46.4637C45.1256 46.4656 45.1161 46.4639 45.1082 46.459L35.9858 40.7818L29.6196 50.1223Z" fill="#111111"/>
<path d="M44.1367 33.3014C43.2993 33.4192 42.8284 34.237 43.0861 35.1263C43.3443 36.0172 44.2336 36.6438 45.071 36.526C45.91 36.4081 46.3809 35.5902 46.1227 34.6993C45.8651 33.81 44.9757 33.1834 44.1367 33.3014Z" fill="white"/>
<path d="M44.8677 36.5766C44.0792 36.5766 43.2929 35.9692 43.0516 35.1366C42.9181 34.6754 42.9742 34.2056 43.2058 33.8476C43.413 33.5273 43.742 33.3206 44.1319 33.2658C44.9869 33.1455 45.8955 33.7842 46.1577 34.6894C46.2916 35.1514 46.2355 35.6217 46.0039 35.9798C45.7965 36.3003 45.4671 36.5072 45.0763 36.5621C45.007 36.5719 44.9373 36.5766 44.8676 36.5766H44.8677ZM44.1421 33.3375C43.7731 33.3893 43.4622 33.5845 43.2665 33.887C43.0464 34.2273 42.9934 34.6755 43.1211 35.1165C43.374 35.9894 44.2467 36.6058 45.0662 36.4905C45.436 36.4385 45.7474 36.2432 45.9432 35.9405C46.1634 35.6001 46.2163 35.1514 46.0883 34.7096C45.8356 33.8376 44.962 33.2221 44.1421 33.3375V33.3375Z" fill="#111111"/>
<path d="M26.8835 24.1424C25.4724 24.3409 24.6798 25.715 25.114 27.2135C25.5481 28.7119 27.0442 29.7659 28.4553 29.5674C29.8664 29.369 30.6569 27.9934 30.2228 26.4951C29.7886 24.9966 28.2945 23.944 26.8835 24.1424Z" fill="#B6F1CF"/>
<path d="M28.1115 29.6276C26.7947 29.6276 25.4817 28.6136 25.079 27.2237C24.856 26.4541 24.9492 25.6711 25.3345 25.0754C25.6794 24.5422 26.2277 24.1982 26.8782 24.1067C28.3033 23.9063 29.8192 24.9732 30.2572 26.4851C30.4805 27.2557 30.3873 28.0397 30.0016 28.6359C29.6571 29.1684 29.1097 29.512 28.4601 29.6034C28.3443 29.6197 28.2278 29.6276 28.1115 29.6276ZM26.8883 24.1784C26.2588 24.2669 25.7286 24.5994 25.3953 25.1147C25.0213 25.6927 24.9313 26.4541 25.1485 27.2035C25.5771 28.683 27.0586 29.7275 28.4501 29.5317C29.0785 29.4433 29.608 29.1112 29.9409 28.5965C30.3153 28.0179 30.4052 27.2557 30.1878 26.5052C29.7594 25.0267 28.2792 23.9829 26.8883 24.1784Z" fill="#111111"/>
<path d="M44.9659 23.8L31.9707 25.6276L32.3173 26.8238L45.3126 24.9963L44.9659 23.8Z" fill="#069D6E"/>
<path d="M32.3173 26.8601C32.3094 26.86 32.3018 26.8575 32.2956 26.8528C32.2893 26.8481 32.2848 26.8415 32.2826 26.8339L31.936 25.6377C31.9346 25.6327 31.9342 25.6275 31.935 25.6223C31.9357 25.6172 31.9376 25.6123 31.9404 25.608C31.9432 25.6036 31.9469 25.5999 31.9512 25.5971C31.9556 25.5943 31.9605 25.5925 31.9656 25.5918L44.9609 23.7643C44.9695 23.763 44.9783 23.765 44.9856 23.7697C44.9929 23.7744 44.9983 23.7817 45.0007 23.79L45.3473 24.9863C45.3487 24.9913 45.3491 24.9966 45.3483 25.0017C45.3476 25.0068 45.3457 25.0117 45.3429 25.0161C45.3401 25.0204 45.3364 25.0241 45.332 25.0269C45.3276 25.0297 45.3227 25.0315 45.3176 25.0323L32.3224 26.8597C32.3207 26.86 32.319 26.8601 32.3173 26.8601ZM32.017 25.6576L32.3433 26.7837L45.2662 24.9664L44.94 23.8403L32.017 25.6576ZM44.9234 62.6497C44.9143 62.6497 44.9055 62.6462 44.8988 62.6399C44.8922 62.6337 44.8881 62.6251 44.8875 62.616C44.8868 62.6069 44.8897 62.5979 44.8954 62.5908C44.9012 62.5837 44.9094 62.579 44.9184 62.5777L56.8486 60.9C56.8533 60.8993 56.8581 60.8995 56.8627 60.9007C56.8673 60.9018 56.8717 60.9039 56.8755 60.9068C56.8793 60.9096 56.8825 60.9132 56.8849 60.9174C56.8873 60.9215 56.8888 60.926 56.8894 60.9308C56.8901 60.9355 56.8898 60.9403 56.8886 60.9449C56.8874 60.9495 56.8854 60.9538 56.8825 60.9576C56.8796 60.9614 56.8761 60.9646 56.872 60.967C56.8679 60.9694 56.8633 60.971 56.8586 60.9716L44.9285 62.6493C44.9268 62.6496 44.9251 62.6497 44.9234 62.6497ZM35.6556 63.953C35.6465 63.953 35.6377 63.9495 35.631 63.9433C35.6244 63.937 35.6203 63.9285 35.6197 63.9194C35.619 63.9102 35.6219 63.9012 35.6276 63.8941C35.6334 63.887 35.6416 63.8823 35.6506 63.881L41.851 63.0091C41.8557 63.0084 41.8605 63.0086 41.8651 63.0098C41.8697 63.0109 41.8741 63.013 41.8779 63.0159C41.8817 63.0188 41.8849 63.0224 41.8873 63.0265C41.8897 63.0306 41.8912 63.0351 41.8918 63.0399C41.8925 63.0446 41.8922 63.0494 41.891 63.054C41.8899 63.0586 41.8878 63.0629 41.8849 63.0667C41.8821 63.0705 41.8785 63.0737 41.8744 63.0761C41.8703 63.0785 41.8658 63.0801 41.8611 63.0807L35.6607 63.9527C35.659 63.953 35.6573 63.9531 35.6556 63.9531V63.953ZM36.544 67.019C36.5349 67.019 36.5261 67.0155 36.5194 67.0093C36.5127 67.003 36.5087 66.9945 36.5081 66.9854C36.5074 66.9762 36.5103 66.9672 36.516 66.9601C36.5218 66.953 36.53 66.9483 36.539 66.947L54.2155 64.4612C54.2202 64.4605 54.2251 64.4607 54.2297 64.4619C54.2343 64.463 54.2386 64.4651 54.2425 64.468C54.2463 64.4709 54.2495 64.4745 54.2519 64.4786C54.2542 64.4827 54.2558 64.4873 54.2564 64.492C54.2571 64.4967 54.2568 64.5015 54.2556 64.5061C54.2544 64.5107 54.2523 64.515 54.2495 64.5188C54.2466 64.5226 54.243 64.5258 54.239 64.5282C54.2349 64.5307 54.2303 64.5322 54.2256 64.5329L36.5491 67.0187C36.5474 67.019 36.5457 67.019 36.544 67.019Z" fill="#111111"/>
</g>
<g clip-path="url(#clip3_1759_68110)">
<path d="M55.5441 16.535L56.5596 16.429L54.4892 25.349L53.4736 25.455L55.5441 16.535Z" fill="#111111"/>
<path d="M53.4737 25.4911C53.4682 25.4911 53.4629 25.4899 53.458 25.4876C53.4531 25.4852 53.4487 25.4818 53.4454 25.4775C53.442 25.4732 53.4396 25.4683 53.4384 25.463C53.4372 25.4577 53.4372 25.4522 53.4384 25.4469L55.5089 16.5269C55.5124 16.5119 55.5251 16.5007 55.5404 16.4991L56.5559 16.393C56.5617 16.3924 56.5675 16.3932 56.5728 16.3953C56.5782 16.3974 56.583 16.4007 56.5868 16.405C56.5906 16.4093 56.5934 16.4145 56.5948 16.4201C56.5962 16.4257 56.5963 16.4315 56.5949 16.4371L54.5245 25.3571C54.5227 25.3644 54.5188 25.371 54.5132 25.376C54.5075 25.381 54.5005 25.3841 54.493 25.3849L53.4774 25.491C53.4762 25.4911 53.4749 25.4911 53.4737 25.4911ZM55.5736 16.5683L53.5204 25.4138L54.4598 25.3157L56.513 16.4702L55.5736 16.5683Z" fill="#111111"/>
<path d="M51.2725 15.3781L52.288 15.272L56.5591 16.429L55.5436 16.5351L51.2725 15.3781Z" fill="#B6F1CF"/>
<path d="M55.5436 16.5712C55.5405 16.5712 55.5373 16.5708 55.5342 16.5699L51.263 15.4129C51.2549 15.4107 51.2478 15.4057 51.2429 15.3988C51.238 15.3919 51.2358 15.3835 51.2364 15.3751C51.2371 15.3667 51.2407 15.3588 51.2466 15.3527C51.2525 15.3467 51.2604 15.3429 51.2688 15.3421L52.2843 15.236C52.2888 15.2356 52.2932 15.2359 52.2975 15.2371L56.5686 16.3941C56.5768 16.3963 56.5839 16.4013 56.5888 16.4082C56.5936 16.4151 56.5959 16.4235 56.5952 16.4319C56.5945 16.4403 56.5909 16.4482 56.585 16.4543C56.5791 16.4603 56.5713 16.4641 56.5629 16.4649L55.5474 16.571C55.5461 16.5711 55.5449 16.5712 55.5436 16.5712H55.5436ZM51.469 15.3938L55.5466 16.4984L56.3627 16.4132L52.2851 15.3085L51.469 15.3938Z" fill="#111111"/>
<path d="M51.2726 15.3779L55.5438 16.535L53.4733 25.455L49.2021 24.2979L51.2726 15.3779Z" fill="#069D6E"/>
<path d="M53.4733 25.4911C53.4702 25.4911 53.467 25.4906 53.4639 25.4898L49.1927 24.3327C49.1837 24.3303 49.176 24.3245 49.1711 24.3164C49.1663 24.3084 49.1648 24.2988 49.1669 24.2897L51.2374 15.3697C51.2386 15.365 51.2406 15.3605 51.2435 15.3566C51.2463 15.3527 51.25 15.3494 51.2541 15.3469C51.2583 15.3444 51.2629 15.3428 51.2677 15.3421C51.2725 15.3415 51.2774 15.3418 51.2821 15.343L55.5533 16.5001C55.5623 16.5025 55.57 16.5084 55.5748 16.5164C55.5796 16.5244 55.5811 16.534 55.579 16.5431L53.5085 25.4631C53.5067 25.471 53.5022 25.4781 53.4958 25.4832C53.4894 25.4883 53.4815 25.491 53.4733 25.491L53.4733 25.4911ZM49.2453 24.2721L53.4466 25.4103L55.5007 16.5607L51.2994 15.4226L49.2453 24.2721Z" fill="#111111"/>
<path d="M52.1878 24.2821C52.5253 24.2468 52.7686 23.9288 52.7312 23.5717C52.6938 23.2147 52.39 22.9539 52.0525 22.9891C51.715 23.0244 51.4717 23.3424 51.5091 23.6994C51.5465 24.0565 51.8504 24.3173 52.1878 24.2821Z" fill="white"/>
<path d="M52.1278 24.3215C52.0733 24.3215 52.0184 24.3143 51.9642 24.2996C51.6164 24.2054 51.4024 23.8313 51.4873 23.4657C51.5298 23.2828 51.6387 23.1311 51.7939 23.0383C51.9402 22.9509 52.1112 22.9271 52.2752 22.9716C52.6231 23.0658 52.837 23.44 52.7521 23.8056C52.7097 23.9885 52.6008 24.1403 52.4457 24.233C52.3477 24.2916 52.2385 24.3215 52.1278 24.3215L52.1278 24.3215ZM52.112 23.022C52.0141 23.022 51.9177 23.0485 51.831 23.1003C51.6928 23.1829 51.5957 23.3185 51.5578 23.482C51.4816 23.8102 51.6724 24.1457 51.9832 24.2299C52.1282 24.2692 52.2793 24.2483 52.4086 24.171C52.5468 24.0885 52.6438 23.9529 52.6817 23.7893C52.7579 23.4611 52.567 23.1256 52.2563 23.0414C52.2093 23.0286 52.1607 23.022 52.112 23.022Z" fill="#111111"/>
<path d="M62.4654 12.9857C62.405 12.426 62.1707 12.1271 61.9012 12.054C61.8394 12.0373 61.775 12.0322 61.7113 12.0391L60.6958 12.1451C60.7595 12.1383 60.8239 12.1434 60.8857 12.1601C61.1552 12.2331 61.3895 12.532 61.4499 13.0918C61.656 14.9971 60.3037 16.7528 59.7256 17.4945L60.7411 17.3885C61.3192 16.6468 62.6715 14.891 62.4654 12.9857Z" fill="#B6F1CF"/>
<path d="M59.7246 17.5306C59.7179 17.5306 59.7112 17.5287 59.7055 17.5251C59.6997 17.5216 59.6951 17.5164 59.6921 17.5104C59.6892 17.5043 59.688 17.4975 59.6887 17.4908C59.6894 17.484 59.692 17.4776 59.6961 17.4723C60.2222 16.7973 61.6195 15.0044 61.413 13.0956C61.3596 12.6013 61.1636 12.2731 60.8753 12.1949C60.8177 12.1794 60.7578 12.1747 60.6986 12.181C60.689 12.182 60.6795 12.1791 60.672 12.1731C60.6646 12.1671 60.6598 12.1583 60.6588 12.1488C60.6579 12.1393 60.6607 12.1297 60.6667 12.1223C60.6728 12.1148 60.6815 12.1101 60.6911 12.1091L61.7066 12.0031C61.7747 11.9959 61.8436 12.0013 61.9097 12.0191C62.2284 12.1055 62.4437 12.4564 62.5004 12.9818C62.7101 14.9198 61.2997 16.7294 60.7687 17.4106C60.7657 17.4145 60.762 17.4177 60.7577 17.42C60.7534 17.4224 60.7487 17.4239 60.7439 17.4244L59.7284 17.5304C59.7271 17.5306 59.7259 17.5306 59.7246 17.5306H59.7246ZM60.9722 12.1525C61.2479 12.2716 61.4329 12.6065 61.4849 13.0879C61.688 14.9654 60.3704 16.7226 59.8053 17.4497L60.7211 17.3541C61.2542 16.6701 62.6338 14.8872 62.4286 12.9895C62.3752 12.4953 62.1792 12.167 61.8908 12.0889C61.8333 12.0734 61.7734 12.0686 61.7142 12.075L60.9722 12.1525H60.9722Z" fill="#111111"/>
<path d="M62.6432 25.0377L63.6587 24.9316C64.1611 25.1217 64.4596 25.6853 64.331 26.2394C64.2249 26.6966 63.8598 27.0114 63.4403 27.0552L62.4248 27.1613C62.8443 27.1174 63.2094 26.8026 63.3155 26.3454C63.4441 25.7913 63.1456 25.2277 62.6432 25.0377Z" fill="#B6F1CF"/>
<path d="M62.4249 27.1973C62.4156 27.1973 62.4067 27.1937 62.4 27.1874C62.3932 27.181 62.3892 27.1723 62.3887 27.163C62.3882 27.1537 62.3914 27.1446 62.3974 27.1376C62.4035 27.1306 62.412 27.1261 62.4212 27.1252C62.8358 27.0819 63.1811 26.7652 63.2804 26.3372C63.4046 25.8026 63.1252 25.2584 62.6306 25.0714C62.623 25.0685 62.6166 25.0631 62.6124 25.0562C62.6082 25.0492 62.6065 25.041 62.6075 25.033C62.6097 25.0164 62.623 25.0034 62.6397 25.0017L63.6552 24.8957C63.6608 24.8952 63.6665 24.8958 63.6717 24.8978C64.2 25.0976 64.4986 25.6779 64.3664 26.2475C64.2601 26.7056 63.8895 27.0446 63.4443 27.0911L62.4287 27.1971C62.4274 27.1972 62.4262 27.1973 62.4249 27.1973L62.4249 27.1973ZM62.7799 25.0596C63.23 25.2976 63.4724 25.83 63.3509 26.3535C63.2755 26.6781 63.0674 26.943 62.7941 27.0863L63.4367 27.0192C63.8513 26.9759 64.1966 26.6592 64.2959 26.2311C64.4194 25.6995 64.1437 25.1583 63.6541 24.9684L62.7799 25.0596Z" fill="#111111"/>
<path d="M63.3331 22.9737L64.3486 22.8677C64.9038 23.0181 65.2439 23.6136 65.1081 24.1985C65.002 24.6558 64.6364 24.9708 64.2167 25.0147L63.2012 25.1207C63.6209 25.0769 63.9865 24.7618 64.0926 24.3046C64.2284 23.7197 63.8882 23.1241 63.3331 22.9737Z" fill="#B6F1CF"/>
<path d="M63.2013 25.1568C63.192 25.1569 63.1831 25.1533 63.1763 25.1469C63.1696 25.1405 63.1656 25.1318 63.1651 25.1226C63.1646 25.1133 63.1677 25.1042 63.1738 25.0972C63.1798 25.0901 63.1883 25.0857 63.1976 25.0848H63.1979C63.6128 25.0413 63.9581 24.7245 64.0575 24.2964C64.1887 23.7314 63.8595 23.1537 63.3237 23.0086C63.3156 23.0064 63.3085 23.0014 63.3036 22.9945C63.2987 22.9876 63.2965 22.9792 63.2971 22.9708C63.2978 22.9624 63.3014 22.9545 63.3073 22.9485C63.3132 22.9424 63.3211 22.9387 63.3295 22.9378L64.345 22.8317C64.3494 22.8313 64.3539 22.8316 64.3582 22.8328C64.9311 22.988 65.2833 23.6043 65.1436 24.2066C65.0372 24.6649 64.6663 25.004 64.2206 25.0506L63.2059 25.1565C63.2044 25.1567 63.2029 25.1568 63.2014 25.1568L63.2013 25.1568ZM63.4952 22.9931C63.9763 23.2075 64.2549 23.7658 64.128 24.3127C64.0525 24.6376 63.8443 24.9025 63.5707 25.0458L64.2131 24.9788C64.6281 24.9354 64.9737 24.6186 65.0731 24.1903C65.2037 23.6276 64.8777 23.0523 64.3458 22.9043L63.4952 22.9931H63.4952Z" fill="#111111"/>
<path d="M63.9958 20.9022L65.0113 20.7961C65.566 20.9464 65.906 21.5425 65.7702 22.1274C65.6641 22.5847 65.2984 22.8998 64.8788 22.9436L63.8633 23.0497C64.2829 23.0059 64.6485 22.6908 64.7547 22.2334C64.8904 21.6485 64.5504 21.0525 63.9958 20.9022Z" fill="#B6F1CF"/>
<path d="M63.8634 23.0858C63.8541 23.0858 63.8452 23.0822 63.8384 23.0758C63.8317 23.0695 63.8277 23.0607 63.8272 23.0515C63.8267 23.0422 63.8298 23.0331 63.8359 23.0261C63.8419 23.0191 63.8505 23.0146 63.8597 23.0137C64.2746 22.9704 64.6202 22.6535 64.7196 22.2252C64.8508 21.66 64.5219 21.0821 63.9865 20.937C63.9783 20.9348 63.9712 20.9298 63.9664 20.9229C63.9615 20.916 63.9592 20.9076 63.9599 20.8992C63.9606 20.8908 63.9642 20.8829 63.9701 20.8769C63.976 20.8709 63.9838 20.8671 63.9922 20.8662L65.0078 20.7602C65.0122 20.7598 65.0166 20.7601 65.021 20.7612C65.5935 20.9163 65.9455 21.5328 65.8056 22.1355C65.6992 22.5937 65.3284 22.9329 64.8827 22.9795L63.8674 23.0855H63.8672C63.8659 23.0856 63.8647 23.0857 63.8635 23.0857L63.8634 23.0858ZM64.1579 20.9216C64.6387 21.1359 64.917 21.6944 64.7901 22.2415C64.7147 22.5664 64.5063 22.8314 64.2328 22.9747L64.8752 22.9076C65.2902 22.8643 65.6357 22.5474 65.7351 22.1191C65.8658 21.5561 65.5401 20.9806 65.0084 20.8327L64.1579 20.9216Z" fill="#111111"/>
<path d="M64.7715 18.8617L65.7871 18.7556C66.3422 18.906 66.6822 19.5021 66.5466 20.0865C66.4405 20.5437 66.0749 20.8588 65.6552 20.9026L64.6396 21.0087C65.0594 20.9648 65.425 20.6498 65.5311 20.1925C65.6667 19.6081 65.3267 19.0121 64.7715 18.8617Z" fill="#B6F1CF"/>
<path d="M64.6397 21.0448C64.6305 21.0448 64.6215 21.0412 64.6148 21.0349C64.6081 21.0285 64.604 21.0198 64.6036 21.0105C64.6031 21.0012 64.6062 20.9922 64.6122 20.9851C64.6183 20.9781 64.6268 20.9736 64.6361 20.9727C65.0511 20.9294 65.3966 20.6125 65.496 20.1843C65.6272 19.6193 65.298 19.0417 64.7622 18.8965C64.7541 18.8943 64.747 18.8893 64.7421 18.8824C64.7373 18.8755 64.735 18.8671 64.7356 18.8587C64.7363 18.8503 64.7399 18.8424 64.7458 18.8364C64.7518 18.8303 64.7596 18.8266 64.768 18.8257L65.7835 18.7197C65.788 18.7192 65.7924 18.7196 65.7967 18.7207C66.3696 18.8759 66.7218 19.4922 66.582 20.0946C66.4757 20.5528 66.1048 20.892 65.6591 20.9385L64.6438 21.0445H64.6436C64.6423 21.0446 64.641 21.0447 64.6398 21.0447L64.6397 21.0448ZM64.9336 18.881C65.4148 19.0954 65.6934 19.6538 65.5665 20.2006C65.4911 20.5254 65.2828 20.7904 65.0092 20.9337L65.6516 20.8667C66.0666 20.8234 66.4121 20.5065 66.5115 20.0783C66.6422 19.5156 66.3162 18.9403 65.7842 18.7923L64.9337 18.8811L64.9336 18.881Z" fill="#111111"/>
<path d="M59.7256 17.4945L60.7411 17.3884L65.7878 18.7556L64.7723 18.8616L59.7256 17.4945Z" fill="#B6F1CF"/>
<path d="M64.7714 18.8977C64.7682 18.8977 64.765 18.8973 64.7619 18.8965L59.7152 17.5293C59.707 17.5271 59.6999 17.5221 59.6951 17.5152C59.6902 17.5083 59.6879 17.4999 59.6886 17.4915C59.6893 17.4831 59.6929 17.4752 59.6988 17.4692C59.7047 17.4632 59.7125 17.4594 59.7209 17.4585L60.7365 17.3525C60.7409 17.352 60.7453 17.3524 60.7496 17.3535L65.7964 18.7207C65.8045 18.7229 65.8116 18.7279 65.8165 18.7348C65.8213 18.7417 65.8236 18.7501 65.8229 18.7585C65.8223 18.7669 65.8187 18.7748 65.8127 18.7808C65.8068 18.7868 65.799 18.7906 65.7906 18.7915L64.7751 18.8975C64.7738 18.8976 64.7726 18.8977 64.7713 18.8977L64.7714 18.8977ZM59.9212 17.5102L64.7743 18.825L65.5904 18.7398L60.7372 17.425L59.9212 17.5102Z" fill="#111111"/>
<path d="M60.885 12.1599C61.1545 12.233 61.3888 12.5319 61.4492 13.0916C61.6553 14.9969 60.303 16.7526 59.7249 17.4944L64.7716 18.8615C65.3268 19.0119 65.6668 19.608 65.5312 20.1924C65.3954 20.7772 64.8353 21.1295 64.2801 20.9791L63.9956 20.902C64.5503 21.0523 64.8903 21.6483 64.7545 22.2332C64.6187 22.8181 64.0586 23.1703 63.5039 23.0201L63.3327 22.9737C63.8879 23.1241 64.228 23.7197 64.0923 24.3045C63.9565 24.8894 63.3964 25.2416 62.8412 25.0912L62.6433 25.0376C63.1457 25.2277 63.4442 25.7913 63.3156 26.3454C63.1799 26.9303 62.6203 27.2821 62.0652 27.1317L53.6152 24.8426L55.4014 17.1474L55.7297 17.1135C56.0499 16.6681 56.7109 15.7497 57.2447 15.3375C58.151 14.637 59.6828 14.1595 59.9383 13.0307C60.0855 12.3802 60.5179 12.0605 60.885 12.1599Z" fill="white"/>
<path d="M62.3247 27.2028C62.2351 27.2028 62.1448 27.1908 62.0558 27.1667L53.6058 24.8776C53.5968 24.8752 53.589 24.8693 53.5842 24.8613C53.5794 24.8533 53.5779 24.8437 53.58 24.8346L55.3662 17.1394C55.3697 17.1244 55.3824 17.1133 55.3977 17.1117L55.7098 17.0794C56.0323 16.6309 56.6884 15.7217 57.2226 15.3091C57.493 15.1002 57.8108 14.9155 58.1472 14.7199C58.9238 14.2686 59.7267 13.802 59.903 13.0229C59.9877 12.6488 60.1765 12.3499 60.4211 12.2028C60.5755 12.11 60.7393 12.0833 60.8945 12.1253C61.2131 12.2117 61.4285 12.5625 61.4851 13.088C61.6906 14.9866 60.3409 16.7621 59.7868 17.4739L64.7811 18.8269C65.3539 18.9821 65.7062 19.5984 65.5664 20.2008C65.4965 20.5021 65.3172 20.7521 65.0619 20.9047C64.8445 21.0346 64.594 21.0787 64.3487 21.0321C64.7089 21.2936 64.8988 21.7718 64.7898 22.2416C64.7198 22.543 64.5405 22.793 64.2851 22.9457C64.0938 23.06 63.8771 23.1078 63.6606 23.0859C64.0375 23.343 64.2391 23.8324 64.1275 24.3129C64.0576 24.6142 63.8784 24.8642 63.623 25.0168C63.4076 25.1455 63.1598 25.1901 62.9164 25.1455C63.2775 25.411 63.4595 25.8859 63.3509 26.3537C63.281 26.655 63.1019 26.905 62.8467 27.0575C62.6858 27.1536 62.5066 27.2028 62.3247 27.2028L62.3247 27.2028ZM53.6583 24.817L62.0747 27.097C62.3253 27.1649 62.5864 27.1289 62.8096 26.9954C63.0478 26.8531 63.215 26.6194 63.2804 26.3373C63.4045 25.8028 63.1251 25.2586 62.6306 25.0715C62.6219 25.0682 62.6148 25.0617 62.6108 25.0534C62.6068 25.045 62.6062 25.0355 62.6091 25.0267C62.6119 25.0178 62.6181 25.0105 62.6262 25.0061C62.6343 25.0016 62.6439 25.0005 62.6528 25.0029L62.8507 25.0565C63.1014 25.1244 63.3624 25.0883 63.5858 24.9548C63.8243 24.8123 63.9916 24.5785 64.057 24.2965C64.1882 23.7316 63.859 23.1538 63.3233 23.0088C63.3187 23.0075 63.3144 23.0054 63.3106 23.0025C63.3069 22.9996 63.3037 22.996 63.3014 22.9918C63.299 22.9877 63.2975 22.9832 63.2969 22.9785C63.2963 22.9738 63.2966 22.969 63.2978 22.9644C63.2991 22.9598 63.3012 22.9555 63.3041 22.9518C63.307 22.948 63.3106 22.9449 63.3147 22.9425C63.3189 22.9402 63.3234 22.9386 63.3281 22.938C63.3328 22.9374 63.3376 22.9378 63.3422 22.939L63.5134 22.9854C63.7638 23.0532 64.0246 23.0171 64.2479 22.8836C64.4864 22.7411 64.6538 22.5073 64.7193 22.2252C64.8503 21.6607 64.5223 21.0834 63.9879 20.9376L63.9861 20.937C63.9815 20.9358 63.9772 20.9337 63.9735 20.9308C63.9697 20.9279 63.9666 20.9243 63.9642 20.9201C63.9618 20.916 63.9603 20.9115 63.9597 20.9068C63.9591 20.9021 63.9594 20.8973 63.9607 20.8927C63.9619 20.8881 63.964 20.8838 63.967 20.8801C63.9699 20.8763 63.9735 20.8732 63.9776 20.8708C63.9817 20.8685 63.9863 20.8669 63.991 20.8663C63.9957 20.8657 64.0005 20.8661 64.005 20.8673L64.2895 20.9444C64.5402 21.0123 64.8013 20.9761 65.0247 20.8427C65.2631 20.7002 65.4304 20.4664 65.4959 20.1844C65.6271 19.6194 65.2979 19.0417 64.7621 18.8966L59.7154 17.5294C59.7097 17.5279 59.7044 17.5249 59.7001 17.5208C59.6957 17.5167 59.6925 17.5116 59.6906 17.506C59.6887 17.5004 59.6882 17.4943 59.6892 17.4885C59.6902 17.4826 59.6927 17.4771 59.6963 17.4724C60.2224 16.7974 61.6197 15.0046 61.4131 13.0957C61.3598 12.6014 61.1638 12.2732 60.8755 12.195C60.7395 12.1581 60.5954 12.1823 60.4583 12.2647C60.2306 12.4017 60.0538 12.6838 59.9735 13.0389C59.7902 13.8486 58.9734 14.3233 58.1835 14.7824C57.8491 14.9767 57.5333 15.1602 57.2667 15.3663C56.7356 15.7765 56.0759 16.6939 55.759 17.1348C55.756 17.1389 55.7522 17.1424 55.7477 17.145C55.7433 17.1475 55.7384 17.1491 55.7333 17.1496L55.4307 17.1809L53.6583 24.817L53.6583 24.817Z" fill="#111111"/>
</g>
<g clip-path="url(#clip4_1759_68110)">
<path d="M66.5354 39.2991C64.0974 40.8259 63.8547 44.0164 65.992 46.4258C68.1304 48.8365 71.8386 49.5528 74.2765 48.0261C76.7144 46.4993 76.9572 43.3088 74.8188 40.8981C72.6815 38.4887 68.9733 37.7724 66.5354 39.2991Z" fill="#B6F1CF"/>
<path d="M71.3246 48.8626C72.3921 48.8626 73.4258 48.6025 74.2967 48.0571C75.3913 47.3717 76.0918 46.3163 76.2693 45.0855C76.4749 43.6596 75.9565 42.1245 74.8469 40.8736C72.7016 38.455 68.9645 37.7347 66.5163 39.2678C65.4215 39.9534 64.7209 41.0088 64.5434 42.2398C64.3379 43.6654 64.856 45.2 65.9649 46.4501C67.3475 48.0088 69.3911 48.8626 71.3246 48.8626ZM69.49 38.535C71.4021 38.535 73.4234 39.3798 74.7916 40.9223C75.8868 42.157 76.3988 43.6706 76.1963 45.075C76.0219 46.2841 75.3334 47.321 74.2575 47.9948C71.8385 49.5096 68.1433 48.7948 66.0202 46.4013C64.9256 45.1674 64.414 43.6544 64.6165 42.2503C64.7908 41.0411 65.4794 40.004 66.5555 39.3302C67.4151 38.7919 68.4361 38.535 69.49 38.535Z" fill="#111111"/>
<path d="M68.4243 41.3146C69.1363 40.8687 70.2216 41.0773 70.8473 41.7826C71.4719 42.4867 71.3997 43.4202 70.6876 43.8661C69.9743 44.3128 68.8902 44.1034 68.2657 43.3994C67.64 42.694 67.711 41.7613 68.4243 41.3146Z" fill="white"/>
<path d="M69.8242 44.1366C70.1413 44.1366 70.4487 44.0592 70.7075 43.8971C71.0342 43.6925 71.2433 43.3772 71.2964 43.0092C71.3576 42.5848 71.2041 42.1288 70.8753 41.7581C70.2395 41.0414 69.1314 40.8284 68.405 41.2832C68.0781 41.4879 67.8689 41.8031 67.8158 42.1707C67.7546 42.5952 67.9087 43.0519 68.2384 43.4236C68.6471 43.8844 69.2516 44.1366 69.8242 44.1366ZM69.2888 41.1168C69.8406 41.1168 70.4246 41.3611 70.82 41.8069C71.1345 42.1613 71.2815 42.5957 71.2234 42.9987C71.1734 43.3449 70.9763 43.6419 70.6684 43.8347C69.9711 44.2713 68.9058 44.065 68.2937 43.3748C67.9783 43.0193 67.8308 42.5843 67.8889 42.1812C67.9388 41.8354 68.1359 41.5386 68.4442 41.3455C68.6916 41.1907 68.9854 41.1168 69.2888 41.1168Z" fill="#111111"/>
<path d="M64.9359 41.0637L64.4439 42.0963C63.6755 43.7087 64.0067 45.7742 65.5005 47.4582C67.6389 49.8689 71.3471 50.5852 73.785 49.0585C74.519 48.5989 75.0539 47.9885 75.3849 47.294L75.877 46.2614C75.546 46.9559 75.011 47.5663 74.2771 48.0259C71.8391 49.5527 68.1309 48.8364 65.9925 46.4257C64.4988 44.7416 64.1676 42.6761 64.9359 41.0637Z" fill="#069D6E"/>
<path d="M70.8318 49.8953C71.8993 49.8954 72.9331 49.6352 73.8039 49.0899C74.5177 48.6429 75.0756 48.0274 75.4175 47.3099L75.9095 46.2774C75.9116 46.273 75.9128 46.2683 75.913 46.2634C75.9133 46.2586 75.9126 46.2538 75.911 46.2492C75.9093 46.2447 75.9068 46.2405 75.9036 46.2369C75.9003 46.2333 75.8964 46.2304 75.892 46.2283C75.8877 46.2262 75.8829 46.225 75.8781 46.2248C75.8732 46.2245 75.8684 46.2252 75.8638 46.2269C75.8593 46.2285 75.8551 46.231 75.8515 46.2342C75.8479 46.2375 75.8449 46.2414 75.8429 46.2457C75.5071 46.9505 74.9586 47.5554 74.2567 47.9949C71.8377 49.5098 68.1425 48.795 66.0194 46.4014C64.5801 44.7789 64.1774 42.7397 64.9684 41.0797C64.9705 41.0754 64.9717 41.0706 64.972 41.0658C64.9722 41.061 64.9715 41.0561 64.9699 41.0516C64.9682 41.047 64.9657 41.0428 64.9625 41.0392C64.9592 41.0357 64.9553 41.0327 64.9509 41.0307C64.9466 41.0286 64.9418 41.0274 64.937 41.0271C64.9322 41.0269 64.9273 41.0276 64.9227 41.0292C64.9182 41.0308 64.914 41.0333 64.9104 41.0366C64.9068 41.0398 64.9039 41.0437 64.9018 41.0481L64.4097 42.0807C63.6058 43.7678 64.0128 45.8378 65.4721 47.4828C66.8547 49.0415 68.8984 49.8952 70.8318 49.8953ZM75.5132 46.9377L75.3508 47.2783C75.0151 47.9831 74.4665 48.588 73.7647 49.0275C71.3457 50.5423 67.6505 49.8276 65.5274 47.434C64.0881 45.8115 63.6854 43.7723 64.4764 42.1123L64.6334 41.7827C64.2336 43.3109 64.7108 45.0372 65.9642 46.4502C67.3468 48.0089 69.3904 48.8626 71.3239 48.8627C72.3914 48.8628 73.4251 48.6026 74.2959 48.0572C74.7794 47.7545 75.1914 47.3744 75.5132 46.9377Z" fill="#111111"/>
<path d="M71.3754 44.6412C72.77 43.7679 74.8045 44.0255 76.2188 45.1695C76.0293 46.3106 75.3765 47.3376 74.277 48.0261C73.2295 48.6821 71.9474 48.9229 70.6562 48.7942C69.6798 47.3061 69.9485 45.5348 71.3754 44.6412Z" fill="white"/>
<path d="M71.3324 48.8651C72.4309 48.8651 73.4447 48.5903 74.2959 48.0572C75.361 47.3902 76.0566 46.3668 76.2544 45.1755C76.2555 45.1691 76.2548 45.1625 76.2525 45.1564C76.2502 45.1503 76.2463 45.145 76.2413 45.1409C74.7915 43.9681 72.7365 43.7449 71.3551 44.6101C70.6957 45.0229 70.2631 45.6252 70.1038 46.3518C69.927 47.1585 70.1119 48.0331 70.6245 48.8144C70.6275 48.819 70.6316 48.8228 70.6363 48.8257C70.641 48.8285 70.6462 48.8303 70.6517 48.8309C70.8817 48.8537 71.1088 48.8651 71.3324 48.8651ZM76.1781 45.1846C75.9791 46.3457 75.2973 47.3432 74.2567 47.9949C73.2506 48.625 72.0129 48.8891 70.6767 48.7593C70.1823 47.9984 70.0044 47.1497 70.1759 46.3675C70.3309 45.6606 70.7522 45.0745 71.3943 44.6724C72.7446 43.8267 74.753 44.0428 76.1781 45.1846Z" fill="#111111"/>
</g>
<g clip-path="url(#clip5_1759_68110)">
<path d="M26.223 61.636L24.8514 62.2954L24.7353 63.1131L26.1069 62.4537C26.8093 62.1161 27.2448 61.4957 27.3411 60.8174L27.4572 59.9997C27.3609 60.678 26.9253 61.2983 26.223 61.636Z" fill="#B6F1CF"/>
<path d="M24.733 63.1524C24.7277 63.152 24.7225 63.1504 24.7177 63.1479C24.713 63.1454 24.7088 63.1419 24.7055 63.1377C24.7021 63.1335 24.6997 63.1287 24.6983 63.1235C24.6968 63.1183 24.6965 63.1129 24.6972 63.1076L24.8133 62.2898C24.8151 62.2768 24.8234 62.2655 24.8352 62.2598L26.2068 61.6004C26.8682 61.2824 27.3214 60.682 27.4191 59.9941C27.4206 59.9838 27.4262 59.9745 27.4345 59.9683C27.4428 59.962 27.4533 59.9593 27.4636 59.9607C27.4687 59.9614 27.4737 59.9631 27.4781 59.9657C27.4826 59.9684 27.4865 59.9719 27.4896 59.976C27.4927 59.9801 27.495 59.9849 27.4962 59.9899C27.4975 59.9949 27.4978 60.0001 27.4971 60.0053L27.497 60.0059L27.381 60.823C27.2796 61.537 26.8101 62.16 26.1249 62.4893L24.7533 63.1487C24.747 63.1517 24.74 63.1529 24.733 63.1524ZM24.8883 62.3217L24.7856 63.0456L26.0907 62.4181C26.7521 62.1002 27.2053 61.4997 27.303 60.8118L27.3394 60.5552C27.1288 61.0316 26.7427 61.4302 26.2409 61.6714L24.8883 62.3217Z" fill="#111111"/>
<path d="M24.5387 64.3574C24.4768 64.3869 24.4088 64.4011 24.3404 64.399C24.2719 64.3969 24.205 64.3784 24.145 64.3452L22.4923 63.4298L22.3763 64.2475L24.029 65.163C24.0889 65.1962 24.1558 65.2146 24.2243 65.2167C24.2928 65.2189 24.3607 65.2046 24.4226 65.1752C24.531 65.1231 24.613 65.0254 24.6307 64.9004L24.7468 64.0827C24.7291 64.2076 24.6471 64.3053 24.5387 64.3574Z" fill="#B6F1CF"/>
<path d="M24.2001 65.2548C24.1345 65.2494 24.0695 65.2303 24.0099 65.1976L22.3571 64.2821C22.3501 64.2782 22.3445 64.2723 22.3409 64.2651C22.3374 64.258 22.3361 64.2499 22.3372 64.242L22.4533 63.4243C22.4542 63.4179 22.4566 63.4119 22.4603 63.4067C22.4641 63.4016 22.469 63.3974 22.4747 63.3945C22.4804 63.3917 22.4867 63.3903 22.4931 63.3904C22.4995 63.3905 22.5057 63.3922 22.5113 63.3953L24.164 64.3108C24.2753 64.3718 24.4089 64.3761 24.5215 64.3219C24.6248 64.2723 24.6926 64.1831 24.7077 64.0772C24.7093 64.0669 24.7148 64.0576 24.7232 64.0514C24.7315 64.0451 24.7419 64.0424 24.7523 64.0437C24.7574 64.0444 24.7623 64.0462 24.7668 64.0488C24.7712 64.0514 24.7751 64.0549 24.7782 64.0591C24.7813 64.0632 24.7836 64.0679 24.7849 64.073C24.7862 64.078 24.7864 64.0832 24.7857 64.0883L24.6696 64.9061C24.6508 65.0385 24.5669 65.1496 24.4395 65.2108C24.365 65.2464 24.2824 65.2616 24.2001 65.2548ZM22.419 64.2262L24.048 65.1285C24.1593 65.1896 24.293 65.1938 24.4055 65.1396C24.5088 65.09 24.5766 65.0009 24.5917 64.8949L24.6748 64.3094C24.6401 64.3438 24.5998 64.3721 24.5557 64.393C24.4202 64.4581 24.2597 64.4531 24.126 64.3798L22.5232 63.492L22.419 64.2262Z" fill="#111111"/>
<path d="M16.0277 66.5377C14.8637 67.0973 13.4075 66.6687 12.776 65.5791L9.11278 59.2592C8.8625 58.8274 8.77937 58.3569 8.84264 57.9113L8.72657 58.729C8.6633 59.1746 8.74643 59.6452 8.9967 60.077L12.6599 66.3969C13.2914 67.4865 14.7477 67.9151 15.9116 67.3555L22.3762 64.2476L22.4923 63.4299L16.0277 66.5377Z" fill="#B6F1CF"/>
<path d="M14.611 67.6308C13.8035 67.5649 13.0393 67.1299 12.6258 66.4164L8.96261 60.0965C8.71563 59.6704 8.62048 59.1955 8.68754 58.7233L8.80361 57.9055C8.80432 57.9004 8.80604 57.8954 8.80867 57.891C8.8113 57.8865 8.81478 57.8826 8.81893 57.8795C8.82307 57.8764 8.82779 57.8741 8.83281 57.8728C8.83783 57.8716 8.84305 57.8713 8.84817 57.872C8.8533 57.8728 8.85824 57.8745 8.8627 57.8771C8.86716 57.8797 8.87106 57.8832 8.87417 57.8874C8.87727 57.8915 8.87953 57.8962 8.88081 57.9013C8.88209 57.9063 8.88237 57.9115 8.88162 57.9166C8.81711 58.3712 8.90879 58.8286 9.14683 59.2392L12.81 65.5591C13.4303 66.6293 14.8661 67.0522 16.0106 66.502L22.4751 63.3942C22.4816 63.3911 22.4887 63.3898 22.4958 63.3905C22.5029 63.3911 22.5097 63.3937 22.5154 63.3979C22.5212 63.4021 22.5257 63.4078 22.5285 63.4144C22.5313 63.421 22.5322 63.4282 22.5312 63.4353L22.4151 64.253C22.4133 64.266 22.405 64.2773 22.3932 64.283L15.9287 67.3909C15.5103 67.592 15.0541 67.667 14.611 67.6308ZM8.80166 58.4801L8.76556 58.7343C8.70104 59.1889 8.79273 59.6463 9.03077 60.0569L12.694 66.3768C13.3142 67.447 14.7499 67.87 15.8946 67.3198L22.3401 64.221L22.4428 63.4971L16.0447 66.5731C14.864 67.1407 13.3823 66.7037 12.7418 65.5986L9.07868 59.2787C8.9322 59.0261 8.83917 58.7563 8.80166 58.4801Z" fill="#111111"/>
<path d="M20.2737 51.3714C21.4377 50.8118 22.8921 51.2412 23.5238 52.3309L27.187 58.6508C27.8186 59.7404 27.3873 61.0764 26.2234 61.636L24.8517 62.2954L24.7493 64.0547C24.7407 64.1931 24.6548 64.3016 24.5383 64.3575C24.4765 64.387 24.4085 64.4012 24.34 64.3991C24.2716 64.397 24.2046 64.3785 24.1447 64.3453L22.492 63.4299L16.0274 66.5378C14.8635 67.0973 13.4073 66.6687 12.7757 65.5791L9.11252 59.2592C8.48093 58.1695 8.91387 56.8327 10.0778 56.2732L20.2737 51.3714Z" fill="white"/>
<path d="M14.7272 66.8131C13.9197 66.7471 13.1556 66.3121 12.742 65.5987L9.07885 59.2788C8.77357 58.7521 8.7014 58.1502 8.87563 57.5839C9.05642 56.9962 9.47746 56.518 10.0611 56.2374L20.2571 51.3356C21.4369 50.7684 22.9178 51.2059 23.5583 52.3109L27.2215 58.6308C27.527 59.1579 27.5993 59.7601 27.4251 60.3265C27.2445 60.9134 26.8239 61.3911 26.2408 61.6714L24.8901 62.3207L24.789 64.0568C24.78 64.2014 24.6928 64.327 24.5558 64.3929C24.4204 64.458 24.2597 64.453 24.1262 64.3798L22.4911 63.4741L16.0449 66.5731C15.6265 66.7742 15.1704 66.8492 14.7272 66.8131ZM20.2741 51.3712L20.2912 51.4067L10.0953 56.3085C9.53164 56.5795 9.12523 57.0407 8.95096 57.6071C8.78329 58.1522 8.85289 58.7317 9.14701 59.2392L12.8102 65.5591C13.4305 66.6292 14.8663 67.0523 16.0108 66.502L22.4753 63.3941C22.481 63.3914 22.4872 63.39 22.4935 63.3902C22.4998 63.3904 22.5059 63.3921 22.5114 63.3952L24.1642 64.3107C24.2755 64.3717 24.4091 64.3759 24.5216 64.3218C24.6325 64.2685 24.7031 64.1676 24.7103 64.0521L24.8127 62.293C24.8132 62.2859 24.8154 62.2791 24.8194 62.2733C24.8233 62.2674 24.8287 62.2627 24.835 62.2597L26.2066 61.6003C26.7697 61.3296 27.1756 60.8689 27.3497 60.3033C27.5174 59.7582 27.4476 59.1783 27.1532 58.6704L23.4901 52.3505C22.8698 51.2803 21.4348 50.857 20.2912 51.4068L20.2741 51.3712Z" fill="#111111"/>
<path d="M14.4851 59.9167C14.0881 60.1076 13.9403 60.5655 14.1557 60.9371C14.372 61.3102 14.8697 61.4558 15.2666 61.265C15.6652 61.0734 15.8122 60.6178 15.5959 60.2446C15.3806 59.8731 14.8836 59.7251 14.4851 59.9167Z" fill="#111111"/>
<path d="M14.8206 61.3848C14.5364 61.3616 14.2672 61.2083 14.1215 60.9568C14.0137 60.7708 13.9883 60.5577 14.05 60.3569C14.114 60.1489 14.2624 59.98 14.4679 59.8811C14.8831 59.6816 15.4044 59.8358 15.6299 60.2248C15.7382 60.4117 15.7639 60.6249 15.7023 60.8253C15.6385 61.0326 15.4898 61.2013 15.2836 61.3005C15.1366 61.3712 14.9763 61.3975 14.8206 61.3848ZM14.5021 59.9523C14.3166 60.0414 14.1828 60.1934 14.1253 60.3801C14.0701 60.5596 14.0929 60.7504 14.1896 60.9172C14.395 61.2715 14.8704 61.4117 15.2494 61.2294C15.4356 61.1399 15.5697 60.9881 15.6269 60.8021C15.682 60.623 15.6588 60.4321 15.5617 60.2644C15.3563 59.9102 14.8809 59.7701 14.5021 59.9523ZM17.8143 58.3161C17.4175 58.5069 17.2696 58.9648 17.485 59.3364C17.7013 59.7096 18.1989 59.8552 18.5958 59.6644C18.9944 59.4728 19.1415 59.0171 18.9252 58.644C18.7098 58.2725 18.2129 58.1245 17.8143 58.3161Z" fill="#111111"/>
<path d="M18.1507 59.784C17.8664 59.7608 17.5973 59.6075 17.4515 59.356C17.3437 59.17 17.3183 58.9568 17.3801 58.756C17.4441 58.548 17.5925 58.3791 17.7979 58.2804C18.2131 58.0808 18.7343 58.2349 18.9599 58.624C19.0683 58.8109 19.094 59.0241 19.0323 59.2244C18.9685 59.4318 18.8198 59.6005 18.6135 59.6997C18.4666 59.7704 18.3063 59.7967 18.1507 59.784ZM18.2552 58.2744C18.1129 58.2628 17.9664 58.2868 17.832 58.3515C17.6466 58.4406 17.5128 58.5925 17.4554 58.7792C17.4001 58.9587 17.423 59.1496 17.5197 59.3164C17.725 59.6707 18.2004 59.8108 18.5793 59.6286C18.7655 59.5391 18.8997 59.3873 18.9569 59.2012C19.012 59.0221 18.9889 58.8312 18.8917 58.6636C18.7592 58.435 18.5141 58.2955 18.2552 58.2744ZM21.1444 56.7153C20.7475 56.9061 20.5995 57.364 20.8149 57.7356C21.0312 58.1088 21.529 58.2544 21.9258 58.0635C22.3244 57.8719 22.4715 57.4163 22.2552 57.0431C22.0399 56.6716 21.5429 56.5236 21.1444 56.7153Z" fill="#111111"/>
<path d="M21.48 58.1835C21.1958 58.1603 20.9266 58.0069 20.7809 57.7555C20.6731 57.5694 20.6477 57.3563 20.7095 57.1555C20.7735 56.9475 20.9219 56.7786 21.1273 56.6798C21.5426 56.4802 22.0638 56.6343 22.2894 57.0235C22.3977 57.2103 22.4234 57.4235 22.3618 57.6238C22.298 57.8312 22.1492 58 21.943 58.0992C21.796 58.1699 21.6358 58.1962 21.48 58.1835ZM21.5847 56.6738C21.4423 56.6622 21.2958 56.6863 21.1614 56.7509C20.976 56.8401 20.8422 56.992 20.7848 57.1787C20.7295 57.3583 20.7523 57.5491 20.849 57.7159C21.0544 58.0702 21.5298 58.2103 21.9088 58.0281C22.095 57.9386 22.2291 57.7867 22.2864 57.6007C22.3414 57.4216 22.3183 57.2307 22.2211 57.063C22.0887 56.8344 21.8436 56.695 21.5847 56.6738Z" fill="#111111"/>
</g>
<defs>
<linearGradient id="paint0_linear_1759_68110" x1="28.2559" y1="18.3648" x2="49.0476" y2="74.124" gradientUnits="userSpaceOnUse">
<stop stop-color="#111111"/>
<stop offset="0.31" stop-color="#36C170"/>
<stop offset="0.761" stop-color="#36C170"/>
<stop offset="1" stop-color="#111111"/>
</linearGradient>
<clipPath id="clip0_1759_68110">
<rect width="14.9131" height="14.2977" fill="white" transform="matrix(-1 0 0 1 74.4678 52.4678)"/>
</clipPath>
<clipPath id="clip1_1759_68110">
<rect width="46.0061" height="62.3308" fill="white" transform="translate(18.002 13.7012)"/>
</clipPath>
<clipPath id="clip2_1759_68110">
<rect width="33.663" height="43.2551" fill="white" transform="translate(24.2266 23.7639)"/>
</clipPath>
<clipPath id="clip3_1759_68110">
<rect width="17.4468" height="15.2026" fill="white" transform="translate(49.166 12)"/>
</clipPath>
<clipPath id="clip4_1759_68110">
<rect width="12.3069" height="11.4382" fill="white" transform="matrix(-1 0 0 1 76.3135 38.4597)"/>
</clipPath>
<clipPath id="clip5_1759_68110">
<rect width="18.8585" height="17.0487" fill="white" transform="translate(9.3877 50.1001) rotate(4.6673)"/>
</clipPath>
</defs>
</svg>
