<svg width="25" height="23" viewBox="0 0 25 23" fill="none" xmlns="http://www.w3.org/2000/svg">
<g id="ENB 1" clip-path="url(#clip0_2216_13524)">
<path id="Layer" fill-rule="evenodd" clip-rule="evenodd" d="M24.8492 5.10285C24.8492 8.48856 22.1952 12.6251 18.446 15.9552L17.8238 16.487C14.0175 19.6711 9.20635 22.0124 4.8508 22.0124C2.29048 22.0124 0.863495 20.6949 0.863495 18.8108C0.863495 17.3092 1.64921 15.8092 2.82064 14.4727C2.1254 13.0647 2.98572 11.2155 4.48572 9.76951C6.97461 7.33618 11.2 5.48697 13.3048 5.48697C13.8714 5.48697 14.1825 5.76158 14.1825 6.12824C14.1825 6.60443 13.6698 7.1711 13.3222 7.1711H13.2857C13.1571 7.19015 13.0476 7.07904 13.0476 6.95205C13.0476 6.71396 13.3048 6.62189 13.3048 6.43935C13.3048 6.31078 13.2317 6.22031 13.0302 6.22031C11.0175 6.22031 7.23016 8.17745 5.23651 10.2822C4.28413 11.3076 3.75397 12.479 4.06508 13.2108C6.60794 10.9409 10.1206 9.33142 12.1143 9.33142C13.3222 9.33142 13.8714 9.99015 13.8714 10.6124C13.8889 12.7346 9.48096 15.8457 5.50953 15.8457C4.57778 15.8457 3.84603 15.5536 3.46032 15.2235C2.94921 15.9552 2.6381 16.706 2.6381 17.4203C2.6381 18.6822 3.69842 19.433 5.29048 19.433C11.4191 19.433 23.2571 10.7584 23.2571 4.90126C23.2571 2.8711 21.8667 1.20602 18.6286 1.20602C14.1635 1.20602 7.70635 3.62031 3.33334 7.72031C2.71111 8.30602 2.43651 8.69015 2.21746 8.69015H2.18096C2.05238 8.69015 1.96032 8.58062 1.97937 8.45205C1.97937 7.28062 10.3762 0.345703 19.0302 0.345703C23.2746 0.345703 24.8492 2.66951 24.8492 5.10285ZM4.55873 13.9616C4.70476 14.1441 5.23651 14.3822 5.89365 14.3822C8.98572 14.3822 12.646 11.9298 12.646 10.7028C12.646 10.4282 12.4444 10.1171 11.8587 10.1171C10.0651 10.1171 6.7 11.8378 4.55873 13.9616Z" fill="#FFB81C"/>
</g>
<defs>
<clipPath id="clip0_2216_13524">
<rect width="24" height="21.6825" fill="white" transform="translate(0.857147 0.333008)"/>
</clipPath>
</defs>
</svg>
