<svg width="25" height="24" viewBox="0 0 25 24" fill="none" xmlns="http://www.w3.org/2000/svg">
<g id="logo">
<path id="rect194" d="M13.4646 19.435H17.5838C17.7073 19.435 17.8067 19.5344 17.8067 19.6579V23.7771C17.8067 23.9006 17.7073 24 17.5838 24H13.4646C13.3411 24 13.2417 23.9006 13.2417 23.7771V19.6579C13.2417 19.5344 13.3411 19.435 13.4646 19.435ZM6.98764 19.435H11.1068C11.2303 19.435 11.3297 19.5344 11.3297 19.6579V23.7771C11.3297 23.9006 11.2303 24 11.1068 24H6.98764C6.86414 24 6.76471 23.9006 6.76471 23.7771V19.6579C6.76471 19.5344 6.86414 19.435 6.98764 19.435V19.435ZM0.508642 19.435H4.62781C4.75131 19.435 4.85073 19.5344 4.85073 19.6579V23.7771C4.85073 23.9006 4.75131 24 4.62781 24H0.508642C0.385139 24 0.285713 23.9006 0.285713 23.7771V19.6579C0.285713 19.5344 0.385139 19.435 0.508642 19.435V19.435ZM19.9436 19.435H24.0628C24.1863 19.435 24.2857 19.5344 24.2857 19.6579V23.7771C24.2857 23.9006 24.1863 24 24.0628 24H19.9436C19.8201 24 19.7207 23.9006 19.7207 23.7771V19.6579C19.7207 19.5344 19.8201 19.435 19.9436 19.435ZM0.508642 12.956H4.62781C4.75131 12.956 4.85073 13.0554 4.85073 13.1789V17.2981C4.85073 17.4216 4.75131 17.521 4.62781 17.521H0.508642C0.385139 17.521 0.285713 17.4216 0.285713 17.2981V13.1789C0.285713 13.0554 0.385139 12.956 0.508642 12.956ZM0.508642 6.479H4.62781C4.75131 6.479 4.85073 6.57842 4.85073 6.70192V10.8211C4.85073 10.9446 4.75131 11.044 4.62781 11.044H0.508642C0.385139 11.044 0.285713 10.9446 0.285713 10.8211V6.70192C0.285713 6.57842 0.385139 6.479 0.508642 6.479V6.479ZM0.508642 0H4.62781C4.75131 0 4.85073 0.0994263 4.85073 0.222929V4.34209C4.85073 4.46559 4.75131 4.56502 4.62781 4.56502H0.508642C0.385139 4.56502 0.285713 4.46559 0.285713 4.34209V0.222929C0.285713 0.0994263 0.385139 0 0.508642 0V0ZM6.98764 12.956H11.1068C11.2303 12.956 11.3297 13.0554 11.3297 13.1789V17.2981C11.3297 17.4216 11.2303 17.521 11.1068 17.521H6.98764C6.86414 17.521 6.76471 17.4216 6.76471 17.2981V13.1789C6.76471 13.0554 6.86414 12.956 6.98764 12.956ZM6.98764 0H11.1068C11.2303 0 11.3297 0.0994263 11.3297 0.222929V4.34209C11.3297 4.46559 11.2303 4.56502 11.1068 4.56502H6.98764C6.86414 4.56502 6.76471 4.46559 6.76471 4.34209V0.222929C6.76471 0.0994263 6.86414 0 6.98764 0V0ZM13.4646 12.956H17.5838C17.7073 12.956 17.8067 13.0554 17.8067 13.1789V17.2981C17.8067 17.4216 17.7073 17.521 17.5838 17.521H13.4646C13.3411 17.521 13.2417 17.4216 13.2417 17.2981V13.1789C13.2417 13.0554 13.3411 12.956 13.4646 12.956ZM13.4646 6.479H17.5838C17.7073 6.479 17.8067 6.57842 17.8067 6.70192V10.8211C17.8067 10.9446 17.7073 11.044 17.5838 11.044H13.4646C13.3411 11.044 13.2417 10.9446 13.2417 10.8211V6.70192C13.2417 6.57842 13.3411 6.479 13.4646 6.479V6.479ZM13.4646 0H17.5838C17.7073 0 17.8067 0.0994263 17.8067 0.222929V4.34209C17.8067 4.46559 17.7073 4.56502 17.5838 4.56502H13.4646C13.3411 4.56502 13.2417 4.46559 13.2417 4.34209V0.222929C13.2417 0.0994263 13.3411 0 13.4646 0V0ZM19.9436 12.956H24.0628C24.1863 12.956 24.2857 13.0554 24.2857 13.1789V17.2981C24.2857 17.4216 24.1863 17.521 24.0628 17.521H19.9436C19.8201 17.521 19.7207 17.4216 19.7207 17.2981V13.1789C19.7207 13.0554 19.8201 12.956 19.9436 12.956ZM19.9436 6.479H24.0628C24.1863 6.479 24.2857 6.57842 24.2857 6.70192V10.8211C24.2857 10.9446 24.1863 11.044 24.0628 11.044H19.9436C19.8201 11.044 19.7207 10.9446 19.7207 10.8211V6.70192C19.7207 6.57842 19.8201 6.479 19.9436 6.479V6.479ZM19.9436 0H24.0628C24.1863 0 24.2857 0.0994263 24.2857 0.222929V4.34209C24.2857 4.46559 24.1863 4.56502 24.0628 4.56502H19.9436C19.8201 4.56502 19.7207 4.46559 19.7207 4.34209V0.222929C19.7207 0.0994263 19.8201 0 19.9436 0V0Z" fill="#EA4224"/>
</g>
</svg>
