<svg width="25" height="24" viewBox="0 0 25 24" fill="none" xmlns="http://www.w3.org/2000/svg">
<g id="logo" clip-path="url(#clip0_2216_13513)">
<path id="Vector (Stroke)" fill-rule="evenodd" clip-rule="evenodd" d="M12.4836 0H12.6596L12.6676 6.39352e-05C15.8418 0.0254586 18.8767 1.3075 21.1077 3.56551C23.3388 5.82352 24.5843 8.87354 24.5716 12.0478C24.559 15.2221 23.2891 18.2621 21.04 20.5022C18.7909 22.7423 15.7459 24 12.5716 24C9.39726 24 6.35225 22.7423 4.10318 20.5022C1.85411 18.2621 0.58422 15.2221 0.571523 12.0478C0.558825 8.87354 1.80435 5.82352 4.03543 3.56551C6.26651 1.3075 9.30136 0.0254586 12.4756 6.39352e-05L12.4836 0ZM12.5 4.00005C10.3866 4.01895 8.36644 4.8734 6.88082 6.37695C5.39343 7.8823 4.56308 9.91564 4.57154 12.0318C4.58001 14.148 5.4266 16.1747 6.92598 17.6681C8.42536 19.1615 10.4554 19.9999 12.5716 19.9999C14.6878 19.9999 16.7178 19.1615 18.2172 17.6681C19.7166 16.1747 20.5632 14.148 20.5716 12.0318C20.5801 9.91564 19.7497 7.8823 18.2624 6.37695C16.7767 4.8734 14.7565 4.01895 12.6431 4.00005H12.5ZM12.4516 8.00011H12.6916L12.7316 8.00171C13.7778 8.04359 14.7658 8.49399 15.4836 9.25623C16.2015 10.0185 16.5918 11.0318 16.5708 12.0786C16.5499 13.1254 16.1193 14.1223 15.3716 14.8552C14.6239 15.5881 13.6186 15.9986 12.5716 15.9986C11.5246 15.9986 10.5193 15.5881 9.77155 14.8552C9.02383 14.1223 8.59328 13.1254 8.57233 12.0786C8.55139 11.0318 8.94172 10.0185 9.65953 9.25623C10.3773 8.49399 11.3654 8.04359 12.4116 8.00171L12.4516 8.00011Z" fill="#E50024"/>
</g>
<defs>
<clipPath id="clip0_2216_13513">
<rect width="24" height="24" fill="white" transform="translate(0.571426)"/>
</clipPath>
</defs>
</svg>
