<svg width="21" height="20" viewBox="0 0 21 20" fill="none" xmlns="http://www.w3.org/2000/svg">
<g clip-path="url(#clip0_1422_24471)">
<path d="M15.5646 9.48076C15.556 8.01024 16.2223 6.90196 17.5677 6.08476C16.8152 5.00667 15.6767 4.41372 14.176 4.29944C12.7551 4.18732 11.2005 5.12741 10.6313 5.12741C10.0297 5.12741 8.65405 4.33825 7.57164 4.33825C5.33783 4.37275 2.96387 6.11926 2.96387 9.67266C2.96387 10.7227 3.15577 11.8073 3.53957 12.9242C4.05274 14.3947 5.90275 17.9977 7.83254 17.9395C8.84163 17.9158 9.55533 17.2236 10.8685 17.2236C12.1428 17.2236 12.8026 17.9395 13.9281 17.9395C15.8751 17.9114 17.5483 14.6362 18.0356 13.1614C15.4245 11.9302 15.5646 9.55622 15.5646 9.48076ZM13.2985 2.90438C14.3917 1.60636 14.2925 0.424769 14.2601 0C13.2942 0.0560609 12.1773 0.657637 11.5412 1.39721C10.8404 2.19069 10.4286 3.17175 10.517 4.27788C11.5606 4.35765 12.5136 3.82076 13.2985 2.90438Z" fill="#069D6E"/>
</g>
<defs>
<clipPath id="clip0_1422_24471">
<rect width="20" height="20" fill="white" transform="translate(0.5)"/>
</clipPath>
</defs>
</svg>
