<svg xmlns="http://www.w3.org/2000/svg" width="16" height="16" viewBox="0 0 16 16" fill="none">
<g clip-path="url(#clip0_3891_8591)">
<path d="M12.0078 5.77344L12.0078 11.6683L10.5683 9.94128C10.4109 9.75255 10.13 9.72689 9.94128 9.88431C9.83691 9.97329 9.78125 10.0985 9.78125 10.2266C9.78125 10.327 9.81518 10.4279 9.88476 10.5113L12.1113 13.1832C12.1943 13.2853 12.3223 13.3437 12.4782 13.3437C12.634 13.3437 12.7356 13.2851 12.82 13.1837L15.0465 10.5118C15.2048 10.3227 15.1779 10.0418 14.99 9.88423C14.8013 9.72681 14.5202 9.75247 14.3629 9.9412L12.8984 11.6683L12.8984 5.77344C12.8984 3.07234 10.7248 0.875 8.02505 0.875C7.75508 0.875 7.55469 1.07417 7.55469 1.32031C7.55469 1.56646 7.75508 1.7659 8 1.7659C10.2099 1.7659 12.0078 3.5633 12.0078 5.77344ZM8.44531 14.6797C8.44531 14.4335 8.24615 14.2341 8 14.2341C5.78986 14.2341 3.99219 12.4364 3.99219 10.2513L3.99219 4.33174L5.43166 6.05871C5.58908 6.24744 5.87001 6.27311 6.05872 6.11569C6.24658 5.95991 6.27163 5.67881 6.11577 5.48955L3.88921 2.81768C3.80293 2.71498 3.68047 2.65625 3.57192 2.65625C3.46338 2.65625 3.31448 2.71495 3.23015 2.81628L1.00358 5.48816C0.908398 5.57305 0.874999 5.67324 0.874999 5.74839C0.874999 5.87625 0.929801 6.0028 1.03503 6.091C1.22376 6.24842 1.50484 6.22276 1.66209 6.03403L3.10156 4.33174L3.10156 10.2266C3.10156 12.9277 5.29946 15.125 8 15.125C8.24492 15.125 8.44531 14.9246 8.44531 14.6797Z" fill="#6A7381"/>
</g>
<defs>
<clipPath id="clip0_3891_8591">
<rect width="14.25" height="14.25" fill="white" transform="translate(15.125 0.875) rotate(90)"/>
</clipPath>
</defs>
</svg>