<svg xmlns="http://www.w3.org/2000/svg" width="24" height="24" viewBox="0 0 24 24" fill="none">
<path fill-rule="evenodd" clip-rule="evenodd" d="M9.51993 4.89035C9.51993 3.84634 10.3663 3 11.4103 3H12.5897C13.6337 3 14.4801 3.84634 14.4801 4.89035V19.1096C14.4801 20.1537 13.6337 21 12.5897 21H11.4103C10.3663 21 9.51993 20.1537 9.51993 19.1096V4.89035ZM11.4103 4.18822C11.0225 4.18822 10.7082 4.50258 10.7082 4.89035V19.1096C10.7082 19.4974 11.0225 19.8118 11.4103 19.8118H12.5897C12.9775 19.8118 13.2918 19.4974 13.2918 19.1096V4.89035C13.2918 4.50258 12.9775 4.18822 12.5897 4.18822H11.4103Z" fill="#6A7381"/>
<path fill-rule="evenodd" clip-rule="evenodd" d="M15.8843 7.62692C15.8843 6.58291 16.7307 5.73657 17.7747 5.73657H18.9541C19.9981 5.73657 20.8444 6.58291 20.8444 7.62692V19.1096C20.8444 20.1537 19.9981 21 18.9541 21H17.7747C16.7307 21 15.8843 20.1537 15.8843 19.1096V7.62692ZM17.7747 6.92479C17.3869 6.92479 17.0725 7.23915 17.0725 7.62692V19.1096C17.0725 19.4974 17.3869 19.8118 17.7747 19.8118H18.9541C19.3419 19.8118 19.6562 19.4974 19.6562 19.1096V7.62692C19.6562 7.23915 19.3419 6.92479 18.9541 6.92479H17.7747Z" fill="#6A7381"/>
<path fill-rule="evenodd" clip-rule="evenodd" d="M3.15555 13.243C3.15555 12.199 4.00189 11.3527 5.0459 11.3527H6.22532C7.26934 11.3527 8.11568 12.199 8.11568 13.243V19.1096C8.11568 20.1537 7.26934 21 6.22532 21H5.0459C4.00189 21 3.15555 20.1537 3.15555 19.1096V13.243ZM5.0459 12.5409C4.65813 12.5409 4.34377 12.8553 4.34377 13.243V19.1096C4.34377 19.4974 4.65813 19.8118 5.0459 19.8118H6.22532C6.6131 19.8118 6.92745 19.4974 6.92745 19.1096V13.243C6.92745 12.8553 6.6131 12.5409 6.22532 12.5409H5.0459Z" fill="#6A7381"/>
</svg>