<svg width="20" height="20" viewBox="0 0 20 20" fill="none" xmlns="http://www.w3.org/2000/svg">
<g clip-path="url(#clip0_852_11084)">
<path d="M16.1385 16.2062C15.8886 16.456 15.4843 16.456 15.2341 16.2062L9.93213 10.9029L4.62891 16.2062C4.37902 16.456 3.9747 16.456 3.72453 16.2062C3.47464 15.9563 3.47464 15.5519 3.72453 15.3018L9.02894 9.99976L3.72533 4.69654C3.47544 4.44665 3.47544 4.04233 3.72533 3.79216C3.97522 3.54226 4.37954 3.54226 4.62971 3.79216L9.93213 9.09657L15.2353 3.79336C15.4852 3.54346 15.8896 3.54346 16.1397 3.79336C16.3896 4.04325 16.3896 4.44757 16.1397 4.69774L10.8353 9.99976L16.1385 15.303C16.3903 15.5507 16.3903 15.9584 16.1385 16.2062Z" fill="#C6CAD2"/>
</g>
<defs>
<clipPath id="clip0_852_11084">
<rect width="12.9231" height="14" fill="white" transform="translate(3.53809 3)"/>
</clipPath>
</defs>
</svg>
