<svg width="20" height="18" viewBox="0 0 20 18" fill="none" xmlns="http://www.w3.org/2000/svg">
<path d="M10 0.6875C10.527 0.6875 11.0131 0.96582 11.2803 1.42227L19.2959 15.0785C19.5668 15.5387 19.5668 16.1064 19.3033 16.5666C19.0398 17.0268 18.5463 17.3125 18.0156 17.3125H1.98438C1.45371 17.3125 0.96016 17.0268 0.696683 16.5666C0.433207 16.1064 0.436918 15.535 0.704105 15.0785L8.71973 1.42227C8.98692 0.96582 9.47305 0.6875 10 0.6875ZM10 5.4375C9.50645 5.4375 9.10938 5.83457 9.10938 6.32812V10.4844C9.10938 10.9779 9.50645 11.375 10 11.375C10.4936 11.375 10.8906 10.9779 10.8906 10.4844V6.32812C10.8906 5.83457 10.4936 5.4375 10 5.4375ZM11.1875 13.75C11.1875 13.0932 10.6568 12.5625 10 12.5625C9.34317 12.5625 8.8125 13.0932 8.8125 13.75C8.8125 14.4068 9.34317 14.9375 10 14.9375C10.6568 14.9375 11.1875 14.4068 11.1875 13.75Z" fill="#B91C1C"/>
</svg>
