<svg width="14" height="16" viewBox="0 0 14 16" fill="none" xmlns="http://www.w3.org/2000/svg">
<path d="M13.4324 2.0612C13.7045 2.0612 13.9272 2.28262 13.9272 2.55599C13.9272 2.82936 13.7045 3.05078 13.4324 3.05078H12.8665L12.0779 14.0785C12.0068 15.1144 11.1161 15.9154 10.1049 15.9154H3.89526C2.85651 15.9154 1.99495 15.1144 1.92074 14.0785L1.1334 3.05078H0.56779C0.294541 3.05078 0.072998 2.82936 0.072998 2.55599C0.072998 2.28262 0.294541 2.0612 0.56779 2.0612H3.50871L4.30965 0.779687C4.58179 0.345693 5.05802 0.0820312 5.56828 0.0820312H8.43188C8.94214 0.0820312 9.41838 0.345693 9.66268 0.779687L10.4915 2.0612H13.4324ZM5.56828 1.07161C5.39819 1.07161 5.24048 1.15944 5.1508 1.30417L4.67765 2.0612H9.32251L8.84937 1.30417C8.75968 1.15944 8.60197 1.07161 8.43188 1.07161H5.56828ZM11.8738 3.05078H2.12546L2.90785 14.0073C2.94495 14.5238 3.37573 14.9258 3.89526 14.9258H10.1049C10.6244 14.9258 11.0543 14.5238 11.0914 14.0073L11.8738 3.05078Z" fill="#9CA5AF"/>
</svg>
