<svg width="22" height="21" viewBox="0 0 22 21" fill="none" xmlns="http://www.w3.org/2000/svg">
<path d="M11 21C16.799 21 21.5 16.299 21.5 10.5C21.5 4.70101 16.799 0 11 0C5.20101 0 0.5 4.70101 0.5 10.5C0.5 16.299 5.20101 21 11 21Z" fill="#9CA5AF"/>
<path d="M15.9323 5.92125C15.0125 5.49087 14.0289 5.1781 13.0007 5C12.8744 5.22832 12.7269 5.5354 12.6251 5.77969C11.5321 5.61531 10.449 5.61531 9.37607 5.77969C9.27437 5.5354 9.12348 5.22832 8.99607 5C7.96669 5.1781 6.98202 5.49202 6.06217 5.92353C4.20684 8.72718 3.70389 11.4612 3.95536 14.1564C5.18592 15.0753 6.37848 15.6336 7.55091 15.9989C7.84039 15.6005 8.09856 15.1769 8.32098 14.7306C7.89738 14.5696 7.49167 14.371 7.10832 14.1404C7.21002 14.0651 7.3095 13.9863 7.40561 13.9052C9.74377 14.9989 12.2842 14.9989 14.5945 13.9052C14.6917 13.9863 14.7912 14.0651 14.8918 14.1404C14.5073 14.3721 14.1005 14.5708 13.6769 14.7318C13.8993 15.1769 14.1564 15.6016 14.4469 16C15.6205 15.6347 16.8142 15.0765 18.0447 14.1564C18.3398 11.032 17.5407 8.32307 15.9323 5.92125ZM8.63952 12.4989C7.93763 12.4989 7.36202 11.8436 7.36202 11.0457C7.36202 10.2477 7.92534 9.59134 8.63952 9.59134C9.35372 9.59134 9.92931 10.2466 9.91702 11.0457C9.91813 11.8436 9.35372 12.4989 8.63952 12.4989ZM13.3606 12.4989C12.6587 12.4989 12.0831 11.8436 12.0831 11.0457C12.0831 10.2477 12.6464 9.59134 13.3606 9.59134C14.0748 9.59134 14.6504 10.2466 14.6381 11.0457C14.6381 11.8436 14.0748 12.4989 13.3606 12.4989Z" fill="white"/>
</svg>
