<svg width="16" height="20" viewBox="0 0 16 20" fill="none" xmlns="http://www.w3.org/2000/svg">
<path d="M8 10C9.31182 10 10.375 8.93682 10.375 7.625C10.375 6.31318 9.31182 5.25 8 5.25C6.68818 5.25 5.625 6.31504 5.625 7.625C5.625 8.93496 6.69004 10 8 10ZM8 6.4375C8.65461 6.4375 9.1875 6.97039 9.1875 7.625C9.1875 8.27961 8.65461 8.8125 8 8.8125C7.34539 8.8125 6.8125 8.27812 6.8125 7.625C6.8125 6.97188 7.34688 6.4375 8 6.4375ZM9.1875 11.1875H6.8125C5.17301 11.1875 3.84375 12.5168 3.84375 14.1562C3.84375 14.4828 4.10945 14.75 4.4375 14.75C4.76555 14.75 5.03125 14.4841 5.03125 14.1562C5.03125 13.1729 5.8291 12.375 6.8125 12.375H9.1875C10.1713 12.375 10.9688 13.1725 10.9688 14.1562C10.9688 14.4841 11.2346 14.75 11.5625 14.75C11.8904 14.75 12.1562 14.4841 12.1562 14.1562C12.1562 12.516 10.8277 11.1875 9.1875 11.1875ZM12.75 0.5H3.25C1.93818 0.5 0.875 1.56318 0.875 2.875V17.125C0.875 18.4368 1.93818 19.5 3.25 19.5H12.75C14.0618 19.5 15.125 18.4368 15.125 17.125V2.875C15.125 1.56318 14.06 0.5 12.75 0.5ZM13.9375 17.125C13.9375 17.7796 13.4046 18.3125 12.75 18.3125H3.25C2.59539 18.3125 2.0625 17.7796 2.0625 17.125V2.875C2.0625 2.22039 2.59539 1.6875 3.25 1.6875H12.75C13.4046 1.6875 13.9375 2.22039 13.9375 2.875V17.125Z" fill="url(#paint0_linear_3095_24154)"/>
<defs>
<linearGradient id="paint0_linear_3095_24154" x1="8" y1="0.5" x2="8" y2="19.5" gradientUnits="userSpaceOnUse">
<stop stop-color="#01B54F"/>
<stop offset="1" stop-color="#01A954"/>
</linearGradient>
</defs>
</svg>
