<svg width="40" height="40" viewBox="0 0 40 40" fill="none" xmlns="http://www.w3.org/2000/svg">
<rect width="40" height="40" rx="20" fill="#ECFDF5"/>
<g clip-path="url(#clip0_1469_91863)">
<path d="M20 20C21.3118 20 22.375 18.9368 22.375 17.625C22.375 16.3132 21.3118 15.25 20 15.25C18.6882 15.25 17.625 16.315 17.625 17.625C17.625 18.935 18.69 20 20 20ZM20 16.4375C20.6546 16.4375 21.1875 16.9704 21.1875 17.625C21.1875 18.2796 20.6546 18.8125 20 18.8125C19.3454 18.8125 18.8125 18.2781 18.8125 17.625C18.8125 16.9719 19.3469 16.4375 20 16.4375ZM21.1875 21.1875H18.8125C17.173 21.1875 15.8438 22.5168 15.8438 24.1562C15.8438 24.4828 16.1095 24.75 16.4375 24.75C16.7655 24.75 17.0312 24.4841 17.0312 24.1562C17.0312 23.1729 17.8291 22.375 18.8125 22.375H21.1875C22.1713 22.375 22.9688 23.1725 22.9688 24.1562C22.9688 24.4841 23.2346 24.75 23.5625 24.75C23.8904 24.75 24.1562 24.4841 24.1562 24.1562C24.1562 22.516 22.8277 21.1875 21.1875 21.1875ZM24.75 10.5H15.25C13.9382 10.5 12.875 11.5632 12.875 12.875V27.125C12.875 28.4368 13.9382 29.5 15.25 29.5H24.75C26.0618 29.5 27.125 28.4368 27.125 27.125V12.875C27.125 11.5632 26.06 10.5 24.75 10.5ZM25.9375 27.125C25.9375 27.7796 25.4046 28.3125 24.75 28.3125H15.25C14.5954 28.3125 14.0625 27.7796 14.0625 27.125V12.875C14.0625 12.2204 14.5954 11.6875 15.25 11.6875H24.75C25.4046 11.6875 25.9375 12.2204 25.9375 12.875V27.125Z" fill="url(#paint0_linear_1469_91863)"/>
</g>
<defs>
<linearGradient id="paint0_linear_1469_91863" x1="20" y1="10.5" x2="20" y2="29.5" gradientUnits="userSpaceOnUse">
<stop stop-color="#01B54F"/>
<stop offset="1" stop-color="#01A954"/>
</linearGradient>
<clipPath id="clip0_1469_91863">
<rect width="14.25" height="19" fill="white" transform="translate(12.875 10.5)"/>
</clipPath>
</defs>
</svg>
