<svg width="24" height="25" viewBox="0 0 24 25" fill="none" xmlns="http://www.w3.org/2000/svg">
<g clip-path="url(#clip0_569_8054)">
<path d="M10.02 24.38C4.32 23.36 0 18.44 0 12.5C0 5.9 5.4 0.5 12 0.5C18.6 0.5 24 5.9 24 12.5C24 18.44 19.68 23.36 13.98 24.38L13.32 23.84H10.68L10.02 24.38Z" fill="#3E4856"/>
<path d="M16.68 15.8602L17.22 12.5002H14.04V10.1602C14.04 9.20018 14.4 8.48018 15.84 8.48018H17.4V5.42018C16.56 5.30018 15.6 5.18018 14.76 5.18018C12 5.18018 10.08 6.86018 10.08 9.86018V12.5002H7.07996V15.8602H10.08V24.3202C10.74 24.4402 11.4 24.5002 12.06 24.5002C12.72 24.5002 13.38 24.4402 14.04 24.3202V15.8602H16.68Z" fill="white"/>
</g>
<defs>
<clipPath id="clip0_569_8054">
<rect width="24" height="24" fill="white" transform="translate(0 0.5)"/>
</clipPath>
</defs>
</svg>
