<svg width="22" height="21" viewBox="0 0 22 21" fill="none" xmlns="http://www.w3.org/2000/svg">
<path d="M9.2675 20.895C4.28 20.0025 0.5 15.6975 0.5 10.5C0.5 4.725 5.225 0 11 0C16.775 0 21.5 4.725 21.5 10.5C21.5 15.6975 17.72 20.0025 12.7325 20.895L12.155 20.4225H9.845L9.2675 20.895Z" fill="#9CA5AF"/>
<path d="M15.0948 13.4402L15.5673 10.5002H12.7848V8.45271C12.7848 7.61271 13.0998 6.98271 14.3598 6.98271H15.7248V4.30521C14.9898 4.20021 14.1498 4.09521 13.4148 4.09521C10.9998 4.09521 9.31982 5.56521 9.31982 8.19021V10.5002H6.69482V13.4402H9.31982V20.8427C9.89732 20.9477 10.4748 21.0002 11.0523 21.0002C11.6298 21.0002 12.2073 20.9477 12.7848 20.8427V13.4402H15.0948Z" fill="white"/>
</svg>
