<svg xmlns="http://www.w3.org/2000/svg" width="22" height="20" viewBox="0 0 22 20" fill="none">
<g clip-path="url(#clip0_3891_16911)">
<path d="M19.3125 1.6875H2.6875C1.37568 1.6875 0.3125 2.75068 0.3125 4.0625V15.9375C0.3125 17.2493 1.37568 18.3125 2.6875 18.3125H19.3125C20.6243 18.3125 21.6875 17.2493 21.6875 15.9375V4.0625C21.6875 2.75068 20.6225 1.6875 19.3125 1.6875ZM20.5 15.9375C20.5 16.5921 19.9671 17.125 19.3125 17.125H2.6875C2.03289 17.125 1.5 16.5921 1.5 15.9375V4.0625C1.5 3.40789 2.03289 2.875 2.6875 2.875H19.3125C19.9671 2.875 20.5 3.40789 20.5 4.0625V15.9375ZM17.5312 6.4375H13.9688C13.6422 6.4375 13.375 6.70469 13.375 7.03125V12.9688C13.375 13.2969 13.6406 13.5625 13.9688 13.5625C14.2969 13.5625 14.5625 13.2969 14.5625 12.9688V10.5938H16.6406C16.9688 10.5938 17.2344 10.3282 17.2344 10C17.2344 9.6718 16.9688 9.40625 16.6406 9.40625H14.5625V7.625H17.5312C17.8578 7.625 18.125 7.35781 18.125 7.03125C18.125 6.70469 17.8578 6.4375 17.5312 6.4375ZM11.5938 6.4375C11.2672 6.4375 11 6.70469 11 7.03125V12.9688C11 13.2969 11.2656 13.5625 11.5938 13.5625C11.9219 13.5625 12.1875 13.2969 12.1875 12.9688V7.03125C12.1875 6.70469 11.9203 6.4375 11.5938 6.4375ZM9.21875 9.40625H6.84375C6.51719 9.40625 6.25 9.67344 6.25 10C6.25 10.3266 6.51555 10.5938 6.84375 10.5938H8.625V11.8351C7.70357 12.5739 6.05963 12.509 5.23023 11.6791C4.30436 10.7532 4.30436 9.24657 5.23023 8.32069C6.15908 7.39295 7.61229 7.39295 8.54113 8.32069C8.77307 8.55262 9.14898 8.55262 9.38055 8.32069C9.61211 8.08876 9.61248 7.71284 9.38055 7.48128C7.98189 6.08151 5.7891 6.08151 4.38934 7.48128C3.0007 8.86991 3.0007 11.1302 4.38934 12.5207C5.05508 13.184 6.00879 13.5625 7.01445 13.5625C8.01863 13.5625 8.97531 13.1821 9.63809 12.519C9.74941 12.4084 9.8125 12.2563 9.8125 12.1004V10C9.8125 9.67344 9.54531 9.40625 9.21875 9.40625Z" fill="#6A7381"/>
</g>
<defs>
<clipPath id="clip0_3891_16911">
<rect width="21.375" height="19" fill="white" transform="translate(0.3125 0.5)"/>
</clipPath>
</defs>
</svg>