<svg width="20" height="20" viewBox="0 0 20 20" fill="none" xmlns="http://www.w3.org/2000/svg">
<g clip-path="url(#clip0_1400_8587)">
<path d="M19.0009 10.2072C19.0009 9.59542 18.9502 8.98031 18.8423 8.37842H10.1812V11.8442H15.141C14.9352 12.962 14.2738 13.9508 13.3055 14.5792V16.828H16.2645C18.0021 15.2604 19.0009 12.9455 19.0009 10.2072Z" fill="#4285F4"/>
<path d="M10.1816 19.0002C12.6581 19.0002 14.7466 18.2032 16.2683 16.8274L13.3093 14.5786C12.486 15.1276 11.4232 15.4385 10.185 15.4385C7.78939 15.4385 5.75823 13.8544 5.02944 11.7246H1.97595V14.0429C3.53475 17.0821 6.70971 19.0002 10.1816 19.0002Z" fill="#34A853"/>
<path d="M5.02592 11.7247C4.64128 10.6069 4.64128 9.3965 5.02592 8.27871V5.96045H1.9758C0.67343 8.50359 0.67343 11.4998 1.9758 14.0429L5.02592 11.7247Z" fill="#FBBC04"/>
<path d="M10.1816 4.56184C11.4907 4.542 12.756 5.02483 13.7041 5.91113L16.3257 3.34153C14.6656 1.81366 12.4624 0.973662 10.1816 1.00012C6.7097 1.00012 3.53475 2.91822 1.97595 5.96073L5.02607 8.27899C5.75148 6.14593 7.78602 4.56184 10.1816 4.56184Z" fill="#EA4335"/>
</g>
<defs>
<clipPath id="clip0_1400_8587">
<rect width="20" height="20" fill="white"/>
</clipPath>
</defs>
</svg>
