<svg width="24" height="24" viewBox="0 0 24 24" fill="none" xmlns="http://www.w3.org/2000/svg">
<g clip-path="url(#clip0_1483_11815)">
<path d="M23.0512 7.57262L12.4268 3.76149C12.1484 3.6624 11.8479 3.66352 11.5732 3.76074L0.94957 7.57262C0.448557 7.75074 0.125 8.20719 0.125 8.70075C0.125 9.1943 0.448557 9.68303 0.94957 9.86264L1.90625 10.2408V14.4379L0.733965 19.5886C0.693367 19.7649 0.735705 19.9493 0.848188 20.0907C0.96067 20.2321 1.13178 20.3123 1.31287 20.3123H3.68713C3.86744 20.3123 4.03822 20.2299 4.15063 20.0896C4.2637 19.9493 4.30604 19.7649 4.26659 19.5886L3.09375 14.3599V10.6638L11.5732 13.7064C11.7107 13.7552 11.8545 13.7783 11.9989 13.7783C12.1438 13.7783 12.2888 13.754 12.4279 13.7053L23.0486 9.89415C23.5521 9.71754 23.875 9.2611 23.875 8.70075C23.875 8.14039 23.5521 7.75074 23.0512 7.57262ZM2.05766 19.0914L2.50631 17.1339L2.94568 19.0914H2.05766ZM11.974 12.5898L3.07148 9.39469L1.3125 8.73414L12.026 4.87848L22.6875 8.73414L11.974 12.5898ZM18.0229 13.191C17.6976 13.2339 17.4684 13.5319 17.5115 13.8578L17.933 17.0726C17.9759 17.4032 17.7603 17.728 17.3838 17.9016C15.7544 18.6553 13.9119 19.0788 12.0698 19.124H11.9443C10.0881 19.0788 8.24564 18.6553 6.61543 17.9016C6.23914 17.7277 6.02354 17.4029 6.06621 17.0737L6.48926 13.8589C6.53216 13.5331 6.30312 13.2351 5.97789 13.1921C5.64687 13.1464 5.35371 13.3802 5.31289 13.7031L4.89133 16.9201C4.77941 17.7747 5.26127 18.5845 6.11891 18.9808C7.8957 19.8002 9.89961 20.264 11.9295 20.3123H12.0832C14.1004 20.2624 16.1058 19.802 17.8796 18.9808C18.7372 18.5841 19.2189 17.7747 19.1072 16.919L18.6857 13.7031C18.6463 13.3802 18.3494 13.1464 18.0229 13.191Z" fill="url(#paint0_linear_1483_11815)"/>
</g>
<defs>
<linearGradient id="paint0_linear_1483_11815" x1="12" y1="3.6875" x2="12" y2="20.3123" gradientUnits="userSpaceOnUse">
<stop stop-color="#01B54F"/>
<stop offset="1" stop-color="#01A954"/>
</linearGradient>
<clipPath id="clip0_1483_11815">
<rect width="23.75" height="19" fill="white" transform="translate(0.125 2.5)"/>
</clipPath>
</defs>
</svg>
