<svg xmlns="http://www.w3.org/2000/svg" width="20" height="20" viewBox="0 0 20 20" fill="none">
<g clip-path="url(#clip0_3891_16908)">
<path d="M12.5568 6.35586C12.1345 5.7109 11.0765 5.7135 10.6557 6.35354L7.94043 10.4639L7.33184 9.6252C6.90879 9.00176 5.91426 9.03145 5.4875 9.6252L3.0932 12.9339C2.84097 13.2829 2.80561 13.7399 2.99869 14.1214C3.19155 14.5088 3.58194 14.75 4.01612 14.75H15.9839C16.4073 14.75 16.7929 14.5169 16.991 14.1421C17.1882 13.7711 17.1667 13.3224 16.9348 12.971L12.5568 6.35586ZM4.05508 13.5625L6.37033 10.3199L7.48028 11.854C7.59531 12.0113 7.78828 12.1227 7.97383 12.1004C8.16865 12.0958 8.34938 11.9972 8.45699 11.8336L11.5679 7.01314L15.9004 13.5625H4.05508ZM17.0916 1.6875H2.8416C1.56319 1.6875 0.499664 2.75068 0.499664 4.0625V15.9375C0.499664 17.2493 1.56285 18.3125 2.84127 18.3125H17.0913C18.4031 18.3125 19.4663 17.2493 19.4663 15.9375V4.0625C19.4666 2.75068 18.435 1.6875 17.0916 1.6875ZM18.3125 15.9375C18.3125 16.5921 17.7796 17.125 17.125 17.125H2.875C2.22039 17.125 1.6875 16.5921 1.6875 15.9375V4.0625C1.6875 3.40789 2.22039 2.875 2.875 2.875H17.125C17.7796 2.875 18.3125 3.40789 18.3125 4.0625V15.9375ZM5.84375 7.625C6.82715 7.625 7.625 6.82715 7.625 5.84375C7.625 4.86035 6.82715 4.0625 5.84375 4.0625C4.86035 4.0625 4.0625 4.86035 4.0625 5.84375C4.0625 6.82715 4.86035 7.625 5.84375 7.625ZM5.84375 5.25C6.17113 5.25 6.4041 5.51637 6.4041 5.84375C6.4041 6.17113 6.17031 6.4375 5.84375 6.4375C5.51719 6.4375 5.25 6.17031 5.25 5.84375C5.25 5.51719 5.51719 5.25 5.84375 5.25Z" fill="#6A7381"/>
</g>
<defs>
<clipPath id="clip0_3891_16908">
<rect width="19" height="19" fill="white" transform="translate(0.5 0.5)"/>
</clipPath>
</defs>
</svg>