<svg width="22" height="21" viewBox="0 0 22 21" fill="none" xmlns="http://www.w3.org/2000/svg">
<path d="M11.0033 0.160156C6.68529 0.160156 5.42243 0.164611 5.17695 0.184974C4.29081 0.258634 3.7394 0.398156 3.13868 0.697247C2.67572 0.927134 2.31061 1.19361 1.95027 1.56716C1.29402 2.24838 0.896289 3.08647 0.752312 4.0827C0.682312 4.56634 0.661948 4.66497 0.657812 7.13534C0.656221 7.95879 0.657812 9.04252 0.657812 10.4961C0.657812 14.8107 0.662584 16.0723 0.683266 16.3173C0.754857 17.1795 0.890084 17.722 1.17645 18.3155C1.72372 19.4514 2.76895 20.3041 4.00031 20.6223C4.42668 20.732 4.89758 20.7925 5.50213 20.8211C5.75827 20.8323 8.36895 20.8402 10.9812 20.8402C13.5935 20.8402 16.2058 20.837 16.4555 20.8243C17.1555 20.7914 17.562 20.7368 18.0114 20.6207C19.2508 20.3009 20.2769 19.4609 20.8353 18.3091C21.1161 17.73 21.2585 17.1668 21.3229 16.3496C21.3369 16.1714 21.3428 13.3305 21.3428 10.4934C21.3428 7.65588 21.3364 4.82025 21.3224 4.64207C21.2572 3.81161 21.1148 3.2532 20.825 2.66297C20.5871 2.17982 20.323 1.819 19.9396 1.45007C19.2554 0.79652 18.4186 0.398793 17.4214 0.254974C16.9382 0.185134 16.842 0.164452 14.3697 0.160156H11.0033Z" fill="#3E4856"/>
<path d="M10.9986 2.86523C8.92466 2.86523 8.66439 2.8743 7.84985 2.91137C7.03689 2.9486 6.48198 3.0773 5.99644 3.26614C5.49419 3.46119 5.06814 3.7221 4.64369 4.14671C4.21891 4.57117 3.958 4.99721 3.76232 5.4993C3.573 5.98501 3.44414 6.54008 3.40755 7.35271C3.37112 8.16726 3.36157 8.42769 3.36157 10.5016C3.36157 12.5755 3.3708 12.835 3.40771 13.6495C3.4451 14.4625 3.5738 15.0174 3.76248 15.5029C3.95769 16.0052 4.21859 16.4312 4.64321 16.8557C5.0675 17.2805 5.49355 17.542 5.99548 17.7371C6.48134 17.9259 7.03641 18.0546 7.84921 18.0918C8.66375 18.1289 8.92387 18.138 10.9976 18.138C13.0717 18.138 13.3312 18.1289 14.1457 18.0918C14.9587 18.0546 15.5142 17.9259 16.0001 17.7371C16.5022 17.542 16.9276 17.2805 17.3519 16.8557C17.7766 16.4312 18.0375 16.0052 18.2332 15.5031C18.421 15.0174 18.5498 14.4623 18.588 13.6497C18.6246 12.8351 18.6341 12.5755 18.6341 10.5016C18.6341 8.42769 18.6246 8.16742 18.588 7.35287C18.5498 6.53992 18.421 5.98501 18.2332 5.49946C18.0375 4.99721 17.7766 4.57117 17.3519 4.14671C16.9271 3.72194 16.5023 3.46103 15.9996 3.26614C15.5128 3.0773 14.9575 2.9486 14.1446 2.91137C13.33 2.8743 13.0707 2.86523 10.9962 2.86523H10.9986ZM10.3135 4.24137C10.5168 4.24105 10.7437 4.24137 10.9986 4.24137C13.0375 4.24137 13.2791 4.24869 14.0843 4.28528C14.8288 4.31933 15.2329 4.44373 15.5021 4.54826C15.8585 4.68667 16.1125 4.85212 16.3797 5.11939C16.6469 5.38667 16.8124 5.64121 16.9511 5.99758C17.0556 6.26644 17.1802 6.67053 17.2141 7.41508C17.2507 8.22008 17.2586 8.46189 17.2586 10.4998C17.2586 12.5378 17.2507 12.7796 17.2141 13.5846C17.18 14.3292 17.0556 14.7333 16.9511 15.0021C16.8127 15.3585 16.6469 15.6122 16.3797 15.8793C16.1124 16.1466 15.8586 16.3121 15.5021 16.4505C15.2333 16.5555 14.8288 16.6796 14.0843 16.7136C13.2793 16.7502 13.0375 16.7582 10.9986 16.7582C8.9595 16.7582 8.71784 16.7502 7.91285 16.7136C7.1683 16.6793 6.76421 16.5548 6.49487 16.4503C6.1385 16.3119 5.88396 16.1465 5.61669 15.8792C5.34941 15.6119 5.18396 15.358 5.04523 15.0015C4.94071 14.7326 4.81614 14.3285 4.78225 13.584C4.74566 12.779 4.73834 12.5372 4.73834 10.4979C4.73834 8.45871 4.74566 8.21817 4.78225 7.41317C4.8163 6.66862 4.94071 6.26453 5.04523 5.99535C5.18364 5.63898 5.34941 5.38444 5.61669 5.11717C5.88396 4.84989 6.1385 4.68444 6.49487 4.54571C6.76405 4.44071 7.1683 4.31662 7.91285 4.28242C8.6173 4.2506 8.8903 4.24105 10.3135 4.23946V4.24137ZM15.0748 5.50933C14.5689 5.50933 14.1584 5.9193 14.1584 6.42537C14.1584 6.93128 14.5689 7.34173 15.0748 7.34173C15.5807 7.34173 15.9912 6.93128 15.9912 6.42537C15.9912 5.91946 15.5807 5.50901 15.0748 5.50901V5.50933ZM10.9986 6.58001C8.83287 6.58001 7.07698 8.33589 7.07698 10.5016C7.07698 12.6673 8.83287 14.4224 10.9986 14.4224C13.1643 14.4224 14.9195 12.6673 14.9195 10.5016C14.9195 8.33589 13.1643 6.58001 10.9986 6.58001ZM10.9986 7.95614C12.4043 7.95614 13.544 9.09571 13.544 10.5016C13.544 11.9073 12.4043 13.0471 10.9986 13.0471C9.59269 13.0471 8.45312 11.9073 8.45312 10.5016C8.45312 9.09571 9.59269 7.95614 10.9986 7.95614Z" fill="white"/>
</svg>
