<svg width="22" height="21" viewBox="0 0 22 21" fill="none" xmlns="http://www.w3.org/2000/svg">
<path d="M11.0035 0.160034C6.68541 0.160034 5.42255 0.164489 5.17707 0.184852C4.29093 0.258511 3.73952 0.398034 3.1388 0.697125C2.67584 0.927011 2.31073 1.19349 1.95039 1.56703C1.29414 2.24826 0.896411 3.08635 0.752434 4.08258C0.682434 4.56622 0.66207 4.66485 0.657934 7.13522C0.656343 7.95867 0.657934 9.0424 0.657934 10.496C0.657934 14.8106 0.662706 16.0721 0.683388 16.3171C0.754979 17.1794 0.890206 17.7219 1.17657 18.3153C1.72384 19.4512 2.76907 20.304 4.00043 20.6221C4.4268 20.7319 4.89771 20.7924 5.50225 20.821C5.75839 20.8321 8.36907 20.8401 10.9813 20.8401C13.5936 20.8401 16.2059 20.8369 16.4557 20.8242C17.1557 20.7913 17.5621 20.7367 18.0116 20.6206C19.2509 20.3008 20.277 19.4608 20.8354 18.309C21.1162 17.7299 21.2586 17.1667 21.323 16.3494C21.337 16.1713 21.3429 13.3304 21.3429 10.4933C21.3429 7.65576 21.3366 4.82013 21.3226 4.64194C21.2573 3.81149 21.115 3.25308 20.8251 2.66285C20.5873 2.17969 20.3232 1.81888 19.9398 1.44994C19.2555 0.796398 18.4187 0.398671 17.4215 0.254852C16.9383 0.185011 16.8421 0.16433 14.3698 0.160034H11.0035Z" fill="#9CA5AF"/>
<path d="M10.9988 2.86499C8.92491 2.86499 8.66463 2.87406 7.85009 2.91113C7.03713 2.94835 6.48223 3.07706 5.99668 3.2659C5.49443 3.46094 5.06838 3.72185 4.64393 4.14647C4.21916 4.57092 3.95825 4.99697 3.76257 5.49906C3.57325 5.98476 3.44438 6.53983 3.40779 7.35247C3.37136 8.16701 3.36182 8.42744 3.36182 10.5014C3.36182 12.5753 3.37104 12.8347 3.40795 13.6493C3.44534 14.4622 3.57404 15.0171 3.76273 15.5027C3.95793 16.0049 4.21884 16.431 4.64345 16.8554C5.06775 17.2802 5.49379 17.5418 5.99573 17.7368C6.48159 17.9257 7.03666 18.0544 7.84945 18.0916C8.664 18.1287 8.92411 18.1377 10.9979 18.1377C13.0719 18.1377 13.3314 18.1287 14.146 18.0916C14.9589 18.0544 15.5145 17.9257 16.0003 17.7368C16.5024 17.5418 16.9278 17.2802 17.3521 16.8554C17.7769 16.431 18.0378 16.0049 18.2335 15.5029C18.4212 15.0172 18.5501 14.4621 18.5882 13.6494C18.6248 12.8349 18.6344 12.5753 18.6344 10.5014C18.6344 8.42744 18.6248 8.16717 18.5882 7.35263C18.5501 6.53967 18.4212 5.98476 18.2335 5.49922C18.0378 4.99697 17.7769 4.57092 17.3521 4.14647C16.9273 3.72169 16.5026 3.46079 15.9998 3.2659C15.513 3.07706 14.9578 2.94835 14.1448 2.91113C13.3303 2.87406 13.071 2.86499 10.9964 2.86499H10.9988ZM10.3138 4.24113C10.5171 4.24081 10.744 4.24113 10.9988 4.24113C13.0377 4.24113 13.2794 4.24845 14.0845 4.28504C14.8291 4.31908 15.2332 4.44349 15.5024 4.54801C15.8587 4.68642 16.1128 4.85188 16.3799 5.11915C16.6472 5.38642 16.8126 5.64097 16.9514 5.99733C17.0559 6.26619 17.1805 6.67029 17.2143 7.41483C17.2509 8.21983 17.2589 8.46165 17.2589 10.4996C17.2589 12.5376 17.2509 12.7794 17.2143 13.5844C17.1803 14.3289 17.0559 14.733 16.9514 15.0019C16.813 15.3582 16.6472 15.612 16.3799 15.8791C16.1126 16.1464 15.8589 16.3118 15.5024 16.4502C15.2335 16.5552 14.8291 16.6793 14.0845 16.7134C13.2795 16.75 13.0377 16.7579 10.9988 16.7579C8.95975 16.7579 8.71809 16.75 7.91309 16.7134C7.16854 16.679 6.76445 16.5546 6.49511 16.4501C6.13875 16.3117 5.8842 16.1462 5.61693 15.8789C5.34966 15.6117 5.1842 15.3578 5.04548 15.0012C4.94095 14.7324 4.81638 14.3283 4.7825 13.5837C4.74591 12.7787 4.73859 12.5369 4.73859 10.4977C4.73859 8.45847 4.74591 8.21792 4.7825 7.41292C4.81654 6.66838 4.94095 6.26429 5.04548 5.9951C5.18388 5.63874 5.34966 5.38419 5.61693 5.11692C5.8842 4.84965 6.13875 4.68419 6.49511 4.54547C6.76429 4.44047 7.16854 4.31638 7.91309 4.28217C8.61754 4.25035 8.89054 4.24081 10.3138 4.23922V4.24113ZM15.075 5.50908C14.5691 5.50908 14.1587 5.91906 14.1587 6.42513C14.1587 6.93104 14.5691 7.34149 15.075 7.34149C15.581 7.34149 15.9914 6.93104 15.9914 6.42513C15.9914 5.91922 15.581 5.50876 15.075 5.50876V5.50908ZM10.9988 6.57976C8.83311 6.57976 7.07723 8.33565 7.07723 10.5014C7.07723 12.6671 8.83311 14.4221 10.9988 14.4221C13.1645 14.4221 14.9198 12.6671 14.9198 10.5014C14.9198 8.33565 13.1645 6.57976 10.9988 6.57976ZM10.9988 7.9559C12.4045 7.9559 13.5443 9.09547 13.5443 10.5014C13.5443 11.9071 12.4045 13.0468 10.9988 13.0468C9.59293 13.0468 8.45336 11.9071 8.45336 10.5014C8.45336 9.09547 9.59293 7.9559 10.9988 7.9559Z" fill="white"/>
</svg>
