<svg width="40" height="40" viewBox="0 0 40 40" fill="none" xmlns="http://www.w3.org/2000/svg">
<rect width="40" height="40" rx="20" fill="#DAFBEC"/>
<g clip-path="url(#clip0_3310_43959)">
<path d="M28.9137 15.4615C29.2439 15.6693 29.5 16.0516 29.5 16.4672C29.5 17.1055 28.9805 17.625 28.3422 17.625H11.6563C11.0177 17.625 10.5 17.1055 10.5 16.4672C10.5 16.0516 10.724 15.6693 11.0863 15.4615L19.7068 10.5772C19.8887 10.4743 20.0779 10.4743 20.2932 10.5772L28.9137 15.4615ZM28.2271 16.4375L20 11.7762L11.7743 16.4375H18.1223C17.9924 16.1666 17.9219 15.866 17.9219 15.5469C17.9219 14.4002 18.8533 13.4687 20 13.4687C21.1467 13.4687 22.0781 14.4002 22.0781 15.5469C22.0781 15.866 22.0076 16.1666 21.8777 16.4375H28.2271ZM20 16.4375C20.4936 16.4375 20.8906 16.0404 20.8906 15.5469C20.8906 15.0533 20.4936 14.6562 20 14.6562C19.5064 14.6562 19.1094 15.0533 19.1094 15.5469C19.1094 16.0404 19.5064 16.4375 20 16.4375ZM12.875 18.8125H14.0625V23.5625H17.0312V18.8125H18.2188V23.5625H21.7812V18.8125H22.9688V23.5625H25.9375V18.8125H27.125V23.5625C27.4516 23.5625 27.7188 23.8297 27.7188 24.1562C27.7188 24.4828 27.4516 24.75 27.125 24.75H12.875C12.547 24.75 12.2812 24.4828 12.2812 24.1562C12.2812 23.8297 12.547 23.5625 12.875 23.5625V18.8125ZM28.0156 25.9375C28.3422 25.9375 28.6094 26.2047 28.6094 26.5312C28.6094 26.8578 28.3422 27.125 28.0156 27.125H11.9844C11.6563 27.125 11.3906 26.8578 11.3906 26.5312C11.3906 26.2047 11.6563 25.9375 11.9844 25.9375H28.0156ZM28.9062 28.3125C29.2328 28.3125 29.5 28.5797 29.5 28.9062C29.5 29.2328 29.2328 29.5 28.9062 29.5H11.0938C10.7659 29.5 10.5 29.2328 10.5 28.9062C10.5 28.5797 10.7659 28.3125 11.0938 28.3125H28.9062Z" fill="#069D6E"/>
</g>
<defs>
<clipPath id="clip0_3310_43959">
<rect width="19" height="19" fill="white" transform="translate(10.5 10.5)"/>
</clipPath>
</defs>
</svg>
