<svg width="24" height="24" viewBox="0 0 24 24" fill="none" xmlns="http://www.w3.org/2000/svg">
<g clip-path="url(#clip0_1462_72304)">
<path d="M21.3256 11.5807L15.9818 6.23691C15.7499 6.00498 15.374 6.00498 15.1424 6.23691C14.9109 6.46885 14.9105 6.84477 15.1424 7.07633L19.4738 11.4062H9.03125C8.70469 11.4062 8.4375 11.6734 8.4375 12C8.4375 12.3266 8.70305 12.5938 9.03125 12.5938H19.4738L15.1432 16.9244C14.9112 17.1563 14.9112 17.5323 15.1432 17.7638C15.3751 17.9954 15.751 17.9958 15.9826 17.7638L21.3263 12.4201C21.4406 12.3043 21.5 12.1521 21.5 12C21.5 11.8479 21.4406 11.6957 21.3256 11.5807ZM9.03125 19.125H5.46875C4.48646 19.125 3.6875 18.3271 3.6875 17.3438V6.65625C3.6875 5.67396 4.48646 4.875 5.46875 4.875H9.03125C9.35781 4.875 9.625 4.6093 9.625 4.28125C9.625 3.9532 9.35781 3.6875 9.03125 3.6875H5.46875C3.83148 3.6875 2.5 5.01898 2.5 6.65625V17.3438C2.5 18.9803 3.83148 20.3125 5.46875 20.3125H9.03125C9.35781 20.3125 9.625 20.0453 9.625 19.7188C9.625 19.3922 9.35781 19.125 9.03125 19.125Z" fill="#9CA5AF"/>
</g>
<defs>
<clipPath id="clip0_1462_72304">
<rect width="19" height="19" fill="white" transform="translate(2.5 2.5)"/>
</clipPath>
</defs>
</svg>
