<svg xmlns="http://www.w3.org/2000/svg" width="18" height="18" viewBox="0 0 18 18" fill="none">
<path d="M14.062 2.25H3.93743C3.00803 2.25 2.25 3.01202 2.25 3.92247V11.5321C2.25 12.4664 3.00803 13.2045 3.93743 13.2045H6.46859V15.4304C6.46859 15.6911 6.75914 15.8426 6.97271 15.6875L10.2658 13.2045H14.0626C14.992 13.2045 15.75 12.4425 15.75 11.5321V3.92247C15.7495 3.01202 15.0139 2.25 14.062 2.25ZM14.9295 11.5798C14.9295 12.0462 14.5498 12.4279 14.0858 12.4279H10.2864C10.1037 12.4279 9.92598 12.4875 9.77991 12.5977L7.33603 14.4423V12.852C7.33603 12.6177 7.14714 12.4279 6.91417 12.4279H3.96116C3.49712 12.4279 3.11745 12.0462 3.11745 11.5798V3.94632C3.11745 3.47983 3.49712 3.09816 3.96116 3.09816H14.0858C14.5498 3.09816 14.9295 3.47983 14.9295 3.94632V11.5798Z" fill="#6A7381"/>
</svg>