<svg width="28" height="28" viewBox="0 0 28 28" fill="none" xmlns="http://www.w3.org/2000/svg">
<rect width="28" height="28" rx="8" fill="#EA580C"/>
<g clip-path="url(#clip0_1469_94981)">
<path d="M13.5296 7.32031C13.5296 7.07439 13.7551 6.875 13.975 6.875C14.2449 6.875 14.4453 7.07439 14.4453 7.32031V7.78761C16.6969 8.0111 18.4531 9.90869 18.4531 12.2188V13.0287C18.4531 14.2449 18.9374 15.4111 19.7974 16.2739L19.8726 16.349C20.1036 16.58 20.2344 16.8695 20.2344 17.2202C20.2344 17.9021 19.6833 18.4531 19.0014 18.4531H8.99803C8.31753 18.4531 7.76562 17.9021 7.76562 17.2202C7.76562 16.8695 7.89549 16.58 8.12661 16.349L8.20314 16.2739C9.06343 15.4111 9.54688 14.2449 9.54688 13.0287V12.2188C9.54688 9.90869 11.3031 8.0111 13.5547 7.78761L13.5296 7.32031ZM13.975 8.65625C12.0323 8.65625 10.4125 10.251 10.4125 12.2188V13.0287C10.4125 14.4815 9.86026 15.8759 8.83298 16.9029L8.75645 16.978C8.69215 17.042 8.6312 17.1311 8.6312 17.2202C8.6312 17.4094 8.80933 17.5625 8.99803 17.5625H19.0014C19.1907 17.5625 19.3438 17.4094 19.3438 17.2202C19.3438 17.1311 19.3076 17.042 19.2436 16.978L19.1684 16.9029C18.1386 15.8759 17.5625 14.4815 17.5625 13.0287V12.2188C17.5625 10.251 15.9677 8.65625 13.975 8.65625ZM13.975 20.2344C14.3869 20.2344 14.7181 19.9867 14.8405 19.6416C14.9212 19.4078 15.1773 19.263 15.4083 19.3688C15.6393 19.4523 15.7618 19.7056 15.6811 19.9366C15.4361 20.6296 14.7765 21.125 13.975 21.125C13.2235 21.125 12.5639 20.6296 12.3189 19.9366C12.2382 19.7056 12.3607 19.4523 12.5917 19.3688C12.8227 19.263 13.0788 19.4078 13.1595 19.6416C13.2819 19.9867 13.6131 20.2344 13.975 20.2344Z" fill="white"/>
</g>
<circle cx="18" cy="9" r="2.5" fill="white" stroke="white"/>
<defs>
<clipPath id="clip0_1469_94981">
<rect width="12.4688" height="14.25" fill="white" transform="translate(7.76562 6.875)"/>
</clipPath>
</defs>
</svg>
