<svg width="24" height="24" viewBox="0 0 24 24" fill="none" xmlns="http://www.w3.org/2000/svg">
<g clip-path="url(#clip0_1489_30464)">
<path d="M7.48301 7.14883C7.12676 7.09316 6.94121 6.78887 6.99316 6.46416C7.32344 4.49811 9.03418 3 11.0938 3C12.9047 3 14.4447 4.15744 15.0125 5.77096C15.1238 6.04668 14.9605 6.41926 14.6525 6.52873C14.3408 6.63783 14.0031 6.47566 13.8955 6.16654C13.4873 5.01281 12.3852 4.1875 11.0938 4.1875C9.62422 4.1875 8.40332 5.25699 8.16582 6.66084C8.11016 6.98555 7.80586 7.20078 7.48301 7.14883ZM15.8438 12.7969C15.8438 12.3033 16.2408 11.9062 16.7344 11.9062C17.2279 11.9062 17.625 12.3033 17.625 12.7969C17.625 13.2904 17.2279 13.6875 16.7344 13.6875C16.2408 13.6875 15.8438 13.2904 15.8438 12.7969ZM19.1279 7.66836L18.8125 8.9041C19.5955 9.5498 20.282 10.3662 20.6939 11.3125H21.1875C21.8443 11.3125 22.375 11.8432 22.375 12.5V16.0625C22.375 16.7193 21.8443 17.25 21.1875 17.25H20C19.3877 18.033 18.5713 18.7195 17.625 19.1314V20.2188C17.625 21.2021 16.8271 22 15.8438 22H14.6562C13.6729 22 12.875 21.2021 12.875 20.2188V19.625H10.5V20.2188C10.5 21.2021 9.70215 22 8.71875 22H7.53125C6.54785 22 5.75 21.2021 5.75 20.2188V18.4375C4.30793 17.3539 3.375 15.6283 3.375 13.6875C2.05836 13.6578 1 12.5816 1 11.2605C1 10.3402 1.51953 9.49785 2.34262 9.08594L2.51555 9.00059C2.80908 8.85215 3.1657 8.9709 3.31229 9.26406C3.45887 9.55723 3.34012 9.91719 3.04695 10.0619L2.87365 10.1473C2.4532 10.3588 2.1541 10.7893 2.1541 11.2605C2.1541 11.9434 2.74303 12.5 3.42844 12.5H3.49375C4.04371 9.75762 6.44023 7.75 9.2791 7.75H14.968C15.6211 7.02266 16.5711 6.5625 17.625 6.5625H18.267C18.8459 6.5625 19.2689 7.10801 19.1279 7.66836ZM9.3125 8.9375C6.68887 8.9375 4.5625 11.0639 4.5625 13.6875C4.5625 15.2424 5.3084 16.6191 6.4625 17.4875L6.9375 17.8438V20.2188C6.9375 20.5453 7.20469 20.8125 7.53125 20.8125H8.71875C9.04531 20.8125 9.3125 20.5453 9.3125 20.2188V18.4375H14.0625V20.2188C14.0625 20.5453 14.3297 20.8125 14.6562 20.8125H15.8438C16.1703 20.8125 16.4375 20.5453 16.4375 20.2188V18.3521L17.15 18.0441C17.907 17.7139 18.5602 17.1906 19.05 16.5375L19.4062 16.0625H21.1875V12.5H19.9146L19.6066 11.7875C19.2764 11.0305 18.7531 10.3773 18.1 9.8875L17.4691 9.4125L17.8848 7.75H17.625C16.9199 7.75 16.2928 8.0543 15.8549 8.54043L15.4986 8.9375H9.3125Z" fill="url(#paint0_linear_1489_30464)"/>
</g>
<defs>
<linearGradient id="paint0_linear_1489_30464" x1="11.6875" y1="3" x2="11.6875" y2="22" gradientUnits="userSpaceOnUse">
<stop stop-color="#01B54F"/>
<stop offset="1" stop-color="#01A954"/>
</linearGradient>
<clipPath id="clip0_1489_30464">
<rect width="21.375" height="19" fill="white" transform="translate(1 3)"/>
</clipPath>
</defs>
</svg>
