<svg xmlns="http://www.w3.org/2000/svg" width="18" height="18" viewBox="0 0 18 18" fill="none">
<g clip-path="url(#clip0_3891_16924)">
<path d="M17.1795 16.444L12.5736 11.8379C13.5892 10.653 14.1783 9.11979 14.1783 7.43685C14.1783 3.69661 11.1469 0.666016 7.40786 0.666016C3.6688 0.666016 0.666668 3.69759 0.666668 7.43685C0.666668 11.1761 3.69777 14.2077 7.40786 14.2077C9.09007 14.2077 10.6255 13.5905 11.8087 12.5752L16.4146 17.1813C16.5448 17.2806 16.6782 17.3327 16.8117 17.3327C16.9451 17.3327 17.0782 17.2818 17.1798 17.1801C17.3846 16.9779 17.3846 16.6458 17.1795 16.444ZM7.43716 13.166C4.25047 13.166 1.70829 10.5944 1.70829 7.43685C1.70829 4.2793 4.25047 1.70768 7.43716 1.70768C10.6238 1.70768 13.166 4.25 13.166 7.43685C13.166 10.6237 10.5945 13.166 7.43716 13.166Z" fill="#2A3033"/>
</g>
<defs>
<clipPath id="clip0_3891_16924">
<rect width="17.5" height="17.5" fill="white" transform="translate(0.25 0.25)"/>
</clipPath>
</defs>
</svg>