<svg width="40" height="40" viewBox="0 0 40 40" fill="none" xmlns="http://www.w3.org/2000/svg">
<rect width="40" height="40" rx="20" fill="#ECFDF5"/>
<g clip-path="url(#clip0_3313_43828)">
<path d="M20.5938 15.0125C20.8127 15.0496 21.2654 15.1461 21.4881 15.1943C21.8072 15.2797 21.9928 15.6063 21.9111 15.9217C21.8258 16.2408 21.4992 16.4264 21.1838 16.3447C21.0354 16.3039 20.527 16.2037 20.3637 16.1777C19.885 16.1035 19.4842 16.1629 19.217 16.2854C18.9498 16.4078 18.8162 16.5637 18.8273 16.6639C18.8014 16.8494 18.8236 16.9273 18.8459 16.9719C18.8682 17.0238 18.9164 17.0869 19.0277 17.1611C19.2801 17.3318 19.6623 17.4506 20.1781 17.6064L20.2004 17.6139C20.6568 17.7512 21.2357 17.9256 21.6662 18.2373C21.8963 18.408 22.1115 18.6307 22.2451 18.935C22.3787 19.243 22.4047 19.5844 22.3453 19.9443C22.2303 20.5604 21.8035 21.0354 21.258 21.2691C21.0502 21.3582 20.8275 21.4176 20.5938 21.451V21.7812C20.5938 22.1078 20.3266 22.375 20 22.375C19.6734 22.375 19.4062 22.1078 19.4062 21.7812V21.425C19.0574 21.3582 18.5305 21.1801 18.2039 21.065C18.1371 21.0428 18.0777 21.0242 18.0295 21.0094C17.7215 20.9055 17.5508 20.5678 17.6547 20.2561C17.7586 19.948 18.0963 19.7773 18.408 19.8813C18.4451 19.9072 18.5564 19.9332 18.6344 19.9592C18.9869 20.0779 19.4025 20.2189 19.64 20.2264C20.1336 20.3377 20.5307 20.2895 20.7904 20.1781C21.0316 20.0742 21.1393 19.9295 21.1727 19.7402C21.2023 19.5695 21.1801 19.4693 21.1541 19.41C21.1281 19.3469 21.0725 19.2764 20.9648 19.1984C20.7236 19.0203 20.3451 18.8979 19.8367 18.742L19.7588 18.7197C19.3209 18.5861 18.7717 18.4229 18.3635 18.1445C18.1297 17.9887 17.9107 17.7734 17.7697 17.4803C17.6287 17.1797 17.5953 16.8457 17.6547 16.4932C17.7623 15.8734 18.2039 15.443 18.7271 15.2055C18.935 15.109 19.165 15.0422 19.4062 15.0014V14.6562C19.4062 14.3297 19.6734 14.0625 20 14.0625C20.3266 14.0625 20.5938 14.3297 20.5938 14.6562V15.0125ZM12.2812 18.2188C12.2812 13.9556 15.7361 10.5 20 10.5C24.2639 10.5 27.7188 13.9556 27.7188 18.2188C27.7188 22.4826 24.2639 25.9375 20 25.9375C15.7361 25.9375 12.2812 22.4826 12.2812 18.2188ZM20 24.75C23.607 24.75 26.5312 21.8258 26.5312 18.2188C26.5312 14.6117 23.607 11.6875 20 11.6875C16.393 11.6875 13.4688 14.6117 13.4688 18.2188C13.4688 21.8258 16.393 24.75 20 24.75ZM13.9449 24.75H12.5781C12.0864 24.75 11.6875 25.1471 11.6875 25.6406V27.4219C11.6875 27.9154 12.0864 28.3125 12.5781 28.3125H27.4219C27.9154 28.3125 28.3125 27.9154 28.3125 27.4219V25.6406C28.3125 25.1471 27.9154 24.75 27.4219 24.75H26.0563C26.4459 24.3863 26.8059 23.9893 27.125 23.5625H27.4219C28.5686 23.5625 29.5 24.4939 29.5 25.6406V27.4219C29.5 28.5686 28.5686 29.5 27.4219 29.5H12.5781C11.4303 29.5 10.5 28.5686 10.5 27.4219V25.6406C10.5 24.4939 11.4303 23.5625 12.5781 23.5625H12.8743C13.1953 23.9893 13.5537 24.3863 13.9449 24.75Z" fill="url(#paint0_linear_3313_43828)"/>
</g>
<defs>
<linearGradient id="paint0_linear_3313_43828" x1="20" y1="10.5" x2="20" y2="29.5" gradientUnits="userSpaceOnUse">
<stop stop-color="#01B54F"/>
<stop offset="1" stop-color="#01A954"/>
</linearGradient>
<clipPath id="clip0_3313_43828">
<rect width="19" height="19" fill="white" transform="translate(10.5 10.5)"/>
</clipPath>
</defs>
</svg>
