<svg width="22" height="21" viewBox="0 0 22 21" fill="none" xmlns="http://www.w3.org/2000/svg">
<g clip-path="url(#clip0_5683_23945)">
<path fill-rule="evenodd" clip-rule="evenodd" d="M4.8981 0.155273H17.102C19.4356 0.155273 21.345 2.06465 21.345 4.39834V16.6022C21.345 18.9359 19.4356 20.8453 17.102 20.8453H4.8981C2.56441 20.8453 0.655029 18.9359 0.655029 16.6022V4.39834C0.655029 2.06465 2.56441 0.155273 4.8981 0.155273Z" fill="#9CA5AF"/>
<path d="M14.2878 9.99812C14.2288 9.96983 14.1686 9.94235 14.1076 9.91649C14.0017 7.96226 12.934 6.8433 11.1411 6.83198C10.1066 6.82511 9.18035 7.247 8.60329 8.12268L9.5893 8.79915C9.99946 8.17683 10.6432 8.04429 11.1172 8.04429H11.1334C11.7238 8.04792 12.1695 8.21967 12.4576 8.55427C12.6673 8.79834 12.808 9.13496 12.8775 9.56007C12.3538 9.47117 11.788 9.44369 11.1827 9.47845C9.47817 9.57664 8.38225 10.5707 8.4558 11.952C8.49297 12.6531 8.84212 13.2556 9.43857 13.6496C9.94289 13.9826 10.5927 14.1454 11.2675 14.1082C12.1594 14.0597 12.8585 13.7195 13.3466 13.0976C13.7172 12.6252 13.9516 12.013 14.055 11.2419C14.4797 11.4981 14.7945 11.8356 14.9687 12.2413C15.2641 12.9307 15.2815 14.0638 14.3569 14.9876C13.5471 15.797 12.5732 16.1469 11.1019 16.1578C9.46928 16.1457 8.23475 15.622 7.43221 14.6016C6.68058 13.6463 6.29224 12.2663 6.27769 10.5C6.29224 8.73369 6.68058 7.35368 7.43221 6.39838C8.23475 5.37803 9.46928 4.85431 11.1019 4.84219C12.7457 4.85431 14.0017 5.38045 14.8353 6.40566C15.2439 6.90836 15.5518 7.54078 15.7551 8.27786L16.9104 7.96953C16.6643 7.06232 16.2772 6.28039 15.7498 5.6318C14.6814 4.31726 13.1191 3.64403 11.1059 3.62988H11.0978C9.08862 3.64403 7.54333 4.32009 6.5056 5.63948C5.58183 6.8134 5.10539 8.44718 5.08963 10.4952V10.5049C5.10539 12.5528 5.58183 14.1866 6.5056 15.3605C7.54333 16.6799 9.08862 17.3564 11.0978 17.3701H11.1059C12.892 17.3576 14.1512 16.8901 15.1885 15.8536C16.5455 14.4978 16.5047 12.7985 16.0574 11.7552C15.7365 11.0072 15.1247 10.3994 14.2878 9.99812ZM11.2037 12.898C10.4569 12.94 9.68063 12.6046 9.64224 11.8865C9.61395 11.3539 10.0213 10.7594 11.2498 10.6887C11.3904 10.6806 11.5286 10.6766 11.664 10.6766C12.1101 10.6766 12.5275 10.7198 12.907 10.8031C12.7655 12.5706 11.9355 12.8575 11.2037 12.898Z" fill="white"/>
</g>
<defs>
<clipPath id="clip0_5683_23945">
<rect width="20.69" height="20.69" fill="white" transform="translate(0.655029 0.155273)"/>
</clipPath>
</defs>
</svg>
