<svg width="22" height="21" viewBox="0 0 22 21" fill="none" xmlns="http://www.w3.org/2000/svg">
<g clip-path="url(#clip0_5683_41891)">
<path fill-rule="evenodd" clip-rule="evenodd" d="M4.89834 0.155273H17.1022C19.4359 0.155273 21.3453 2.06465 21.3453 4.39834V16.6022C21.3453 18.9359 19.4359 20.8453 17.1022 20.8453H4.89834C2.56465 20.8453 0.655273 18.9359 0.655273 16.6022V4.39834C0.655273 2.06465 2.56465 0.155273 4.89834 0.155273Z" fill="#4B5563"/>
<path d="M14.288 9.99861C14.229 9.97032 14.1688 9.94284 14.1078 9.91698C14.0019 7.96274 12.9343 6.84379 11.1413 6.83247C10.1068 6.8256 9.18056 7.24748 8.60351 8.12317L9.58951 8.79964C9.99968 8.17732 10.6434 8.04478 11.1174 8.04478H11.1336C11.724 8.04841 12.1697 8.22016 12.4578 8.55475C12.6676 8.79883 12.8082 9.13545 12.8777 9.56056C12.354 9.47166 11.7882 9.44418 11.1829 9.47893C9.47839 9.57713 8.38246 10.5712 8.45601 11.9524C8.49319 12.6536 8.84233 13.2561 9.43879 13.6501C9.9431 13.983 10.5929 14.1459 11.2677 14.1087C12.1596 14.0602 12.8587 13.72 13.3469 13.0981C13.7174 12.6257 13.9518 12.0135 14.0552 11.2424C14.48 11.4986 14.7947 11.8361 14.9689 12.2418C15.2643 12.9312 15.2817 14.0643 14.3571 14.988C13.5473 15.7975 12.5734 16.1474 11.1021 16.1583C9.4695 16.1462 8.23497 15.6225 7.43242 14.6021C6.68079 13.6468 6.29245 12.2668 6.2779 10.5005C6.29245 8.73417 6.68079 7.35417 7.43242 6.39887C8.23497 5.37851 9.4695 4.8548 11.1021 4.84268C12.746 4.8548 14.0019 5.38094 14.8356 6.40614C15.2441 6.90885 15.552 7.54127 15.7553 8.27835L16.9106 7.97002C16.6645 7.06281 16.2774 6.28087 15.75 5.63229C14.6816 4.31775 13.1193 3.64451 11.1061 3.63037H11.098C9.08883 3.64451 7.54355 4.32058 6.50582 5.63997C5.58204 6.81388 5.1056 8.44767 5.08984 10.4957V10.5054C5.1056 12.5533 5.58204 14.1871 6.50582 15.361C7.54355 16.6804 9.08883 17.3569 11.098 17.3706H11.1061C12.8922 17.3581 14.1514 16.8906 15.1887 15.854C16.5457 14.4983 16.5049 12.799 16.0576 11.7556C15.7367 11.0076 15.1249 10.3999 14.288 9.99861ZM11.2039 12.8984C10.4571 12.9405 9.68084 12.6051 9.64245 11.887C9.61416 11.3544 10.0215 10.7599 11.25 10.6892C11.3906 10.6811 11.5288 10.6771 11.6642 10.6771C12.1103 10.6771 12.5277 10.7203 12.9072 10.8036C12.7658 12.5711 11.9357 12.858 11.2039 12.8984Z" fill="white"/>
</g>
<defs>
<clipPath id="clip0_5683_41891">
<rect width="20.69" height="20.69" fill="white" transform="translate(0.655273 0.155273)"/>
</clipPath>
</defs>
</svg>
