<svg width="20" height="22" viewBox="0 0 20 22" fill="none" xmlns="http://www.w3.org/2000/svg">
<path fill-rule="evenodd" clip-rule="evenodd" d="M11.2589 0.403888C11.5236 0.518788 11.6809 0.794432 11.6451 1.08076L10.7364 8.35013H19.0001C19.2523 8.35013 19.4818 8.49603 19.5887 8.72443C19.6957 8.95283 19.6609 9.2225 19.4994 9.41625L9.49945 21.4163C9.31472 21.6379 9.00597 21.7113 8.74128 21.5964C8.47659 21.4815 8.31933 21.2058 8.35513 20.9195L9.2638 13.6501H1.00011C0.747894 13.6501 0.518449 13.5042 0.411472 13.2758C0.304496 13.0474 0.3393 12.7778 0.500762 12.584L10.5008 0.584014C10.6855 0.362342 10.9942 0.288988 11.2589 0.403888ZM2.38788 12.3501H10.0001C10.1865 12.3501 10.364 12.4302 10.4874 12.57C10.6108 12.7097 10.6682 12.8958 10.6451 13.0808L9.92008 18.8808L17.6123 9.65013H10.0001C9.81367 9.65013 9.6362 9.57008 9.51282 9.43031C9.38943 9.29054 9.332 9.10451 9.35513 8.91951L10.0801 3.11943L2.38788 12.3501Z" fill="#2A3033"/>
</svg>
