<svg width="22" height="21" viewBox="0 0 22 21" fill="none" xmlns="http://www.w3.org/2000/svg">
<path d="M11 21C16.799 21 21.5 16.299 21.5 10.5C21.5 4.70101 16.799 0 11 0C5.20101 0 0.5 4.70101 0.5 10.5C0.5 16.299 5.20101 21 11 21Z" fill="#9CA5AF"/>
<path d="M15.0116 6.97274C14.9284 6.92974 14.8474 6.8826 14.7689 6.8315C14.5407 6.68061 14.3314 6.50281 14.1457 6.30195C13.6808 5.77009 13.5072 5.23053 13.4433 4.85275H13.4458C13.3924 4.53919 13.4145 4.3363 13.4179 4.3363H11.3007V12.523C11.3007 12.6329 11.3007 12.7415 11.2961 12.8489C11.2961 12.8622 11.2948 12.8746 11.294 12.8889C11.294 12.8948 11.294 12.901 11.2927 12.9072C11.2927 12.9087 11.2927 12.9103 11.2927 12.9118C11.2704 13.2055 11.1763 13.4893 11.0185 13.7381C10.8608 13.9869 10.6444 14.1931 10.3882 14.3386C10.1213 14.4905 9.81937 14.5702 9.51225 14.5698C8.52583 14.5698 7.72637 13.7654 7.72637 12.7721C7.72637 11.7787 8.52583 10.9744 9.51225 10.9744C9.69897 10.9742 9.88454 11.0036 10.0621 11.0615L10.0646 8.90577C9.52569 8.83615 8.97816 8.87899 8.45658 9.03157C7.93501 9.18415 7.45072 9.44317 7.03426 9.79229C6.66935 10.1094 6.36256 10.4877 6.12771 10.9102C6.03834 11.0643 5.70114 11.6835 5.66031 12.6884C5.63463 13.2587 5.80592 13.8497 5.88759 14.0939V14.099C5.93895 14.2429 6.13798 14.7336 6.46234 15.1473C6.72389 15.4792 7.03289 15.7707 7.37942 16.0126V16.0074L7.38455 16.0126C8.40949 16.709 9.54589 16.6633 9.54589 16.6633C9.74261 16.6554 10.4016 16.6633 11.1499 16.3087C11.98 15.9155 12.4525 15.3297 12.4525 15.3297C12.7544 14.9797 12.9944 14.5808 13.1623 14.1501C13.3539 13.6465 13.4179 13.0425 13.4179 12.8011V8.45789C13.4435 8.4733 13.7856 8.69955 13.7856 8.69955C13.7856 8.69955 14.2784 9.01543 15.0473 9.22114C15.599 9.36752 16.3422 9.39834 16.3422 9.39834V7.29658C16.0818 7.32483 15.553 7.24265 15.0116 6.97274Z" fill="white"/>
</svg>
