<svg width="22" height="21" viewBox="0 0 22 21" fill="none" xmlns="http://www.w3.org/2000/svg">
<path d="M11 21C16.799 21 21.5 16.299 21.5 10.5C21.5 4.70101 16.799 0 11 0C5.20101 0 0.5 4.70101 0.5 10.5C0.5 16.299 5.20101 21 11 21Z" fill="#3E4856"/>
<path d="M15.0116 6.97287C14.9284 6.92986 14.8474 6.88272 14.7689 6.83162C14.5407 6.68073 14.3314 6.50294 14.1457 6.30207C13.6808 5.77021 13.5072 5.23065 13.4433 4.85288H13.4458C13.3924 4.53931 13.4145 4.33643 13.4179 4.33643H11.3007V12.5231C11.3007 12.633 11.3007 12.7416 11.2961 12.849C11.2961 12.8624 11.2948 12.8747 11.294 12.8891C11.294 12.895 11.294 12.9011 11.2927 12.9073C11.2927 12.9088 11.2927 12.9104 11.2927 12.9119C11.2704 13.2057 11.1763 13.4894 11.0185 13.7382C10.8608 13.987 10.6444 14.1932 10.3882 14.3388C10.1213 14.4906 9.81937 14.5703 9.51225 14.5699C8.52583 14.5699 7.72637 13.7656 7.72637 12.7722C7.72637 11.7789 8.52583 10.9745 9.51225 10.9745C9.69897 10.9743 9.88454 11.0037 10.0621 11.0616L10.0646 8.90589C9.52569 8.83628 8.97816 8.87911 8.45658 9.03169C7.93501 9.18427 7.45072 9.44329 7.03426 9.79241C6.66935 10.1095 6.36256 10.4878 6.12771 10.9103C6.03834 11.0644 5.70114 11.6836 5.66031 12.6885C5.63463 13.2589 5.80592 13.8498 5.88759 14.094V14.0992C5.93895 14.243 6.13798 14.7337 6.46234 15.1475C6.72389 15.4793 7.03289 15.7709 7.37942 16.0127V16.0075L7.38455 16.0127C8.40949 16.7091 9.54589 16.6634 9.54589 16.6634C9.74261 16.6555 10.4016 16.6634 11.1499 16.3088C11.98 15.9156 12.4525 15.3298 12.4525 15.3298C12.7544 14.9798 12.9944 14.5809 13.1623 14.1503C13.3539 13.6467 13.4179 13.0426 13.4179 12.8012V8.45801C13.4435 8.47342 13.7856 8.69967 13.7856 8.69967C13.7856 8.69967 14.2784 9.01555 15.0473 9.22126C15.599 9.36764 16.3422 9.39846 16.3422 9.39846V7.29671C16.0818 7.32496 15.553 7.24278 15.0116 6.97287Z" fill="white"/>
</svg>
