<svg width="24" height="24" viewBox="0 0 24 24" fill="none" xmlns="http://www.w3.org/2000/svg">
<g clip-path="url(#clip0_1705_13042)">
<path d="M7.6127 13.476L9.51344 11.1949C9.69082 10.9785 9.86895 10.8078 10.125 10.6557V17.8438C10.125 18.1703 10.3922 18.4375 10.7188 18.4375C11.0453 18.4375 11.3125 18.1703 11.3125 17.8438V10.177C11.4721 10.151 11.6316 10.125 11.7615 10.125H13.1739C13.3684 10.125 13.5279 10.151 13.6875 10.177V17.8438C13.6875 18.1719 13.9531 18.4375 14.2812 18.4375C14.6094 18.4375 14.875 18.1719 14.875 17.8438V10.6557C15.0985 10.8087 15.3092 10.9819 15.4866 11.1952L17.3873 13.4756C17.5061 13.6133 17.673 13.6875 17.8438 13.6875C17.9777 13.6875 18.1122 13.6423 18.2234 13.5501C18.475 13.3402 18.5092 12.9656 18.2993 12.7133L16.3986 10.4333C15.6061 9.48301 14.4445 8.9375 13.2051 8.9375H11.7615C10.5555 8.9375 9.39395 9.48301 8.5998 10.433L6.6998 12.7152C6.48991 12.9675 6.52413 13.342 6.77577 13.5521C7.03008 13.758 7.40488 13.7246 7.6127 13.476ZM12.5 7.75C13.8118 7.75 14.875 6.68682 14.875 5.375C14.875 4.06318 13.8118 3 12.5 3C11.1882 3 10.125 4.06318 10.125 5.375C10.125 6.68682 11.19 7.75 12.5 7.75ZM12.5 4.1875C13.1546 4.1875 13.6875 4.72039 13.6875 5.375C13.6875 6.02961 13.1546 6.5625 12.5 6.5625C11.8454 6.5625 11.3125 6.02961 11.3125 5.375C11.3125 4.72039 11.8469 4.1875 12.5 4.1875ZM5.96875 6.5625H5.375V5.96875C5.375 5.6407 5.1093 5.375 4.78125 5.375C4.4532 5.375 4.1875 5.6407 4.1875 5.96875V6.5625H3.59375C3.26555 6.5625 3 6.82969 3 7.15625C3 7.48281 3.26555 7.75 3.59375 7.75H4.1875V8.34375C4.1875 8.67031 4.4532 8.9375 4.78125 8.9375C5.1093 8.9375 5.375 8.67031 5.375 8.34375V7.75H5.96875C6.2968 7.75 6.5625 7.48281 6.5625 7.15625C6.5625 6.82969 6.2968 6.5625 5.96875 6.5625ZM21.4062 4.1875H20.8125V3.59375C20.8125 3.26555 20.5453 3 20.2188 3C19.8922 3 19.625 3.26555 19.625 3.59375V4.1875H19.0312C18.7047 4.1875 18.4375 4.4532 18.4375 4.78125C18.4375 5.1093 18.7047 5.375 19.0312 5.375H19.625V5.96875C19.625 6.2968 19.8922 6.5625 20.2188 6.5625C20.5453 6.5625 20.8125 6.2968 20.8125 5.96875V5.375H21.4062C21.7328 5.375 22 5.1093 22 4.78125C22 4.4532 21.7328 4.1875 21.4062 4.1875ZM16.6562 19.625H8.34375C7.36035 19.625 6.5625 20.4229 6.5625 21.4062C6.5625 21.7328 6.82969 22 7.15625 22C7.48281 22 7.75 21.7328 7.75 21.4062C7.75 21.0797 8.01719 20.8125 8.34375 20.8125H16.6562C16.9839 20.8125 17.25 21.0786 17.25 21.4062C17.25 21.7344 17.5156 22 17.8438 22C18.1719 22 18.4375 21.7344 18.4375 21.4062C18.4375 20.4229 17.6396 19.625 16.6562 19.625Z" fill="url(#paint0_linear_1705_13042)"/>
</g>
<defs>
<linearGradient id="paint0_linear_1705_13042" x1="12.5" y1="3" x2="12.5" y2="22" gradientUnits="userSpaceOnUse">
<stop stop-color="#069D6E"/>
<stop offset="0.0001" stop-color="#0DA475"/>
<stop offset="1" stop-color="#008C5D"/>
</linearGradient>
<clipPath id="clip0_1705_13042">
<rect width="19" height="19" fill="white" transform="translate(3 3)"/>
</clipPath>
</defs>
</svg>
