<svg width="24" height="25" viewBox="0 0 24 25" fill="none" xmlns="http://www.w3.org/2000/svg">
<g clip-path="url(#clip0_569_8057)">
<path d="M12 24.5C18.6274 24.5 24 19.1274 24 12.5C24 5.87258 18.6274 0.5 12 0.5C5.37258 0.5 0 5.87258 0 12.5C0 19.1274 5.37258 24.5 12 24.5Z" fill="#3E4856"/>
<path d="M20.0737 8.2574C19.5077 8.50856 18.8998 8.67835 18.2606 8.75467C18.9129 8.36403 19.4127 7.745 19.6487 7.00826C19.029 7.37632 18.3508 7.63543 17.6435 7.77434C17.068 7.16085 16.2473 6.77783 15.3393 6.77783C13.5964 6.77783 12.1829 8.19074 12.1829 9.93463C12.1829 10.1817 12.2107 10.4228 12.2642 10.6542C9.64059 10.5224 7.31454 9.2656 5.7576 7.35595C5.48574 7.82234 5.33012 8.3646 5.33012 8.94317C5.33012 10.0382 5.8875 11.0044 6.73443 11.5704C6.23306 11.5549 5.7427 11.4196 5.30433 11.1757V11.2156C5.30433 12.7453 6.39232 14.0207 7.83656 14.3108C7.57125 14.3835 7.29283 14.4215 7.00479 14.4215C6.80113 14.4215 6.60355 14.4022 6.41053 14.3659C6.81226 15.6197 7.97811 16.5323 9.35911 16.5581C8.2787 17.405 6.91734 17.9098 5.43876 17.9098C5.18409 17.9098 4.93239 17.8946 4.6853 17.8649C6.08256 18.7608 7.74157 19.2838 9.52438 19.2838C15.3307 19.2838 18.5062 14.4736 18.5062 10.302C18.5062 10.1651 18.5031 10.0292 18.4965 9.89372C19.1152 9.44622 19.6493 8.89213 20.0737 8.2574Z" fill="white"/>
</g>
<defs>
<clipPath id="clip0_569_8057">
<rect width="24" height="24" fill="white" transform="translate(0 0.5)"/>
</clipPath>
</defs>
</svg>
