<svg width="22" height="21" viewBox="0 0 22 21" fill="none" xmlns="http://www.w3.org/2000/svg">
<path d="M11 21C16.799 21 21.5 16.299 21.5 10.5C21.5 4.70101 16.799 0 11 0C5.20101 0 0.5 4.70101 0.5 10.5C0.5 16.299 5.20101 21 11 21Z" fill="#9CA5AF"/>
<path d="M18.0645 6.78778C17.5692 7.00755 17.0373 7.15612 16.478 7.2229C17.0488 6.88109 17.4861 6.33944 17.6926 5.69479C17.1503 6.01684 16.5569 6.24356 15.9381 6.36511C15.4345 5.82831 14.7163 5.49316 13.9218 5.49316C12.3968 5.49316 11.16 6.72945 11.16 8.25536C11.16 8.47156 11.1844 8.68249 11.2312 8.885C8.93548 8.76963 6.9002 7.66996 5.53787 5.99902C5.29999 6.40711 5.16383 6.88159 5.16383 7.38783C5.16383 8.34603 5.65153 9.19145 6.3926 9.68668C5.9539 9.67308 5.52483 9.55467 5.14126 9.34133V9.37624C5.14126 10.7147 6.09325 11.8307 7.35696 12.0845C7.12481 12.1481 6.88119 12.1814 6.62916 12.1814C6.45096 12.1814 6.27808 12.1645 6.10918 12.1327C6.46069 13.2298 7.48082 14.0283 8.68919 14.0509C7.74383 14.7919 6.55264 15.2337 5.25888 15.2337C5.03605 15.2337 4.81581 15.2204 4.59961 15.1943C5.82221 15.9783 7.27385 16.4359 8.8338 16.4359C13.9143 16.4359 16.6929 12.2269 16.6929 8.57685C16.6929 8.45702 16.6902 8.33808 16.6844 8.21956C17.2258 7.828 17.6931 7.34317 18.0645 6.78778Z" fill="white"/>
</svg>
