<svg width="20" height="20" viewBox="0 0 20 20" fill="none" xmlns="http://www.w3.org/2000/svg">
<path d="M13.3333 13.3333L9.99996 10L6.66663 13.3333" stroke="white" stroke-width="1.3" stroke-linecap="round" stroke-linejoin="round"/>
<path d="M10 10V17.5" stroke="white" stroke-width="1.3" stroke-linecap="round" stroke-linejoin="round"/>
<path d="M16.9916 15.3269C17.8044 14.8838 18.4465 14.1826 18.8165 13.334C19.1866 12.4855 19.2635 11.5379 19.0351 10.6408C18.8068 9.74365 18.2862 8.94812 17.5555 8.37973C16.8248 7.81134 15.9257 7.50247 15 7.50186H13.95C13.6977 6.52623 13.2276 5.62047 12.5749 4.85269C11.9222 4.0849 11.104 3.47507 10.1817 3.06903C9.25943 2.663 8.25709 2.47132 7.25006 2.50843C6.24304 2.54553 5.25752 2.81044 4.36761 3.28325C3.47771 3.75605 2.70656 4.42444 2.11215 5.23818C1.51774 6.05191 1.11554 6.98981 0.935783 7.98135C0.756025 8.9729 0.803388 9.9923 1.07431 10.9629C1.34523 11.9335 1.83267 12.8301 2.49997 13.5852" stroke="white" stroke-width="1.3" stroke-linecap="round" stroke-linejoin="round"/>
</svg>
