<svg xmlns="http://www.w3.org/2000/svg" width="16" height="16" viewBox="0 0 16 16" fill="none">
<g clip-path="url(#clip0_3891_8395)">
<path d="M8 0.875C9.02422 0.875 9.91484 1.45112 10.3629 2.29722C11.2786 2.01611 12.314 2.23877 13.0376 2.9624C13.7612 3.68604 13.9839 4.72417 13.7028 5.63706C14.5489 6.08516 15.125 6.97578 15.125 8C15.125 9.02422 14.5489 9.91484 13.7028 10.3629C13.9839 11.2786 13.7612 12.314 13.0376 13.0376C12.314 13.7612 11.2758 13.9839 10.3629 13.7028C9.91484 14.5489 9.02422 15.125 8 15.125C6.97578 15.125 6.08516 14.5489 5.63706 13.7028C4.72139 13.9839 3.68604 13.7612 2.9624 13.0376C2.23877 12.314 2.01611 11.2758 2.29722 10.3629C1.45112 9.91484 0.875 9.02422 0.875 8C0.875 6.97578 1.45112 6.08516 2.29722 5.63706C2.01611 4.72139 2.23877 3.68604 2.9624 2.9624C3.68604 2.23877 4.72417 2.01611 5.63706 2.29722C6.08516 1.45112 6.97578 0.875 8 0.875ZM10.6997 7.13721C10.9613 6.87559 10.9613 6.45254 10.6997 6.1937C10.4381 5.93486 10.015 5.93208 9.7562 6.1937L7.11216 8.83774L6.02671 7.7523C5.76509 7.49067 5.34204 7.49067 5.0832 7.7523C4.82437 8.01392 4.82158 8.43696 5.0832 8.6958L6.6418 10.2544C6.90342 10.516 7.32647 10.516 7.5853 10.2544L10.6997 7.13721Z" fill="#1D5BD8"/>
</g>
<defs>
<clipPath id="clip0_3891_8395">
<rect width="14.25" height="14.25" fill="white" transform="translate(0.875 0.875)"/>
</clipPath>
</defs>
</svg>