<svg width="40" height="40" viewBox="0 0 40 40" fill="none" xmlns="http://www.w3.org/2000/svg">
<rect width="40" height="40" rx="20" fill="#ECFDF5"/>
<g clip-path="url(#clip0_3313_43819)">
<path d="M28.4869 10.6739C28.717 10.442 29.0955 10.442 29.3256 10.6739L31.7006 13.0487C31.8119 13.16 31.875 13.311 31.875 13.4684C31.875 13.6261 31.8119 13.7771 31.7006 13.8885L29.3256 16.2631C29.0955 16.4969 28.717 16.4969 28.4869 16.2631C28.2531 16.033 28.2531 15.6545 28.4869 15.4244L29.8488 14.0291H14.0625C14.0625 16.0293 12.4668 17.5916 10.5 17.5916V22.2303L9.3125 23.4178V15.2166C9.3125 13.9382 10.3757 12.8416 11.6875 12.8416H22.3639L22.375 12.8746L29.8488 12.8416L28.4869 11.5135C28.2531 11.2819 28.2531 10.906 28.4869 10.6739ZM12.875 14.0291H11.6875C11.0318 14.0291 10.5 14.5932 10.5 15.2166V16.4041C11.8118 16.4041 12.875 15.3725 12.875 14.0291ZM11.5135 28.4869C11.7454 28.717 11.7454 29.0955 11.5135 29.3256C11.2819 29.5594 10.906 29.5594 10.674 29.3256L8.29889 26.9506C8.18757 26.8393 8.125 26.6871 8.125 26.4978C8.125 26.3754 8.18757 26.2232 8.29893 26.1119L10.674 23.7369C10.906 23.5031 11.2819 23.5031 11.5135 23.7369C11.7454 23.967 11.7454 24.3455 11.5135 24.5756L10.1523 25.9041H17.625H17.6398H25.9375C25.9375 23.9373 27.4998 22.3416 29.5 22.3416V17.7697L30.6875 16.5822V24.7166C30.6875 26.06 29.6225 27.0916 28.3125 27.0916H10.1523L11.5135 28.4869ZM27.125 25.9041H28.3125C28.9693 25.9041 29.5 25.4068 29.5 24.7166V23.5291C28.19 23.5291 27.125 24.6238 27.125 25.9041ZM23.5625 19.9666C23.5625 21.9668 21.9668 23.5291 20 23.5291C17.9998 23.5291 16.4375 21.9668 16.4375 19.9666C16.4375 17.9998 17.9998 16.4041 20 16.4041C21.9668 16.4041 23.5625 17.9998 23.5625 19.9666ZM20 17.5916C18.69 17.5916 17.625 18.6863 17.625 19.9666C17.625 21.31 18.69 22.3416 20 22.3416C21.31 22.3416 22.375 21.31 22.375 19.9666C22.375 18.6863 21.31 17.5916 20 17.5916Z" fill="url(#paint0_linear_3313_43819)"/>
</g>
<defs>
<linearGradient id="paint0_linear_3313_43819" x1="20" y1="10.5" x2="20" y2="29.5009" gradientUnits="userSpaceOnUse">
<stop stop-color="#069D6E"/>
<stop offset="0.0001" stop-color="#0DA475"/>
<stop offset="1" stop-color="#008C5D"/>
</linearGradient>
<clipPath id="clip0_3313_43819">
<rect width="23.75" height="19" fill="white" transform="translate(8.125 10.5)"/>
</clipPath>
</defs>
</svg>
