<svg width="255" height="188" viewBox="0 0 255 188" fill="none" xmlns="http://www.w3.org/2000/svg">
<g id="chart">
<path id="Vector 4" opacity="0.15" d="M17.0686 55.9238H-3V188H257V103.519H246.743L236.931 122.557L227.12 114.228L210.173 127.911L196.794 133.266L178.509 139.215H166.022L146.846 143.974L137.926 133.266H127.223L117.858 119.582L107.154 110.658H97.3431L87.5317 99.9491L76.8285 101.734L67.0172 98.1643L57.6518 101.734L48.7324 87.4555L37.5832 74.9618L25.988 69.6074L17.0686 55.9238Z" fill="#CCE0FF"/>
<path id="Vector 3" opacity="0.6" d="M-3 55.9238H17.0686L25.988 69.6074L37.5832 74.9618L48.7324 87.4555L57.6518 101.734L67.0172 98.1643L76.8285 101.734L87.5317 99.9491L97.3431 110.658H107.154L117.858 119.582L127.223 133.266H137.926L146.846 143.974L166.022 139.215H178.509L196.794 133.266L210.173 127.911L227.12 114.228L236.931 122.557L246.743 103.519H257" stroke="#E6F0FF"/>
</g>
</svg>
