<svg width="12" height="14" viewBox="0 0 12 14" fill="none" xmlns="http://www.w3.org/2000/svg">
<g id="user" clip-path="url(#clip0_2216_13592)">
<path id="Vector" d="M5.90625 7C7.77041 7 9.28125 5.4889 9.28125 3.625C9.28125 1.7611 7.77041 0.25 5.90625 0.25C4.04209 0.25 2.53125 1.7611 2.53125 3.625C2.53125 5.4889 4.04209 7 5.90625 7ZM5.90625 1.09375C7.30213 1.09375 8.4375 2.22912 8.4375 3.625C8.4375 5.02062 7.30213 6.15625 5.90625 6.15625C4.51037 6.15625 3.375 5.01982 3.375 3.625C3.375 2.22912 4.51143 1.09375 5.90625 1.09375ZM7.24307 8.26563H4.56943C2.04636 8.26563 0 10.3117 0 12.8351C0 13.3397 0.409219 13.7492 0.913887 13.7492H10.8991C11.4038 13.75 11.8125 13.3413 11.8125 12.8351C11.8125 10.3117 9.76641 8.26563 7.24307 8.26563ZM10.8976 12.9063H0.913887C0.875391 12.9063 0.84375 12.8746 0.84375 12.8351C0.84375 10.7811 2.51543 9.10938 4.56943 9.10938H7.24043C9.29707 9.10938 10.9688 10.7811 10.9688 12.8351C10.9688 12.8746 10.9371 12.9063 10.8976 12.9063Z" fill="#6A7381"/>
</g>
<defs>
<clipPath id="clip0_2216_13592">
<rect width="11.8125" height="13.5" fill="white" transform="translate(0 0.25)"/>
</clipPath>
</defs>
</svg>
