<svg width="18" height="16" viewBox="0 0 18 16" fill="none" xmlns="http://www.w3.org/2000/svg">
<g id="ranking-star 1" clip-path="url(#clip0_2216_13597)">
<path id="Vector" d="M8.31812 1.29803C8.602 0.724273 9.4147 0.742698 9.68467 1.30137L10.2385 2.4191L11.4659 2.59612C12.0782 2.69102 12.3426 3.44889 11.8917 3.90033L11.8862 3.90589L10.9983 4.76312L11.2099 5.98773C11.3045 6.60282 10.6671 7.07874 10.1021 6.79486L10.0938 6.78929L9.00557 6.21873L7.89785 6.80321C7.33286 7.08709 6.69551 6.61117 6.79014 5.99886L6.79292 5.99051L7.00166 4.74642L6.10825 3.90033C5.65737 3.44889 5.92178 2.69102 6.53408 2.59612L6.53965 2.59556L7.76147 2.4191L8.31812 1.29914V1.29803ZM8.3543 3.23375L6.9126 3.44138L7.95908 4.45975L7.71138 5.89588L9.00557 5.21121L10.2886 5.88753L10.0409 4.44862L11.0846 3.44138L9.6457 3.23375L8.97495 1.92676L8.3543 3.23375ZM5.4375 11.1172V13.789C5.4375 14.5266 4.83911 15.125 4.10156 15.125H1.42969C0.69186 15.125 0.09375 14.5266 0.09375 13.789V11.1172C0.09375 10.3796 0.69186 9.78123 1.42969 9.78123H4.10156C4.83911 9.78123 5.4375 10.3796 5.4375 11.1172ZM0.984375 13.789C0.984375 14.034 1.18365 14.2344 1.42969 14.2344H4.10156C4.34648 14.2344 4.54688 14.034 4.54688 13.789V11.1172C4.54688 10.8723 4.34648 10.6719 4.10156 10.6719H1.42969C1.18365 10.6719 0.984375 10.8723 0.984375 11.1172V13.789ZM11.6719 13.789C11.6719 14.5266 11.0735 15.125 10.3359 15.125H7.66406C6.92651 15.125 6.32812 14.5266 6.32812 13.789V9.33592C6.32812 8.59837 6.92651 7.99998 7.66406 7.99998H10.3359C11.0735 7.99998 11.6719 8.59837 11.6719 9.33592V13.789ZM7.21875 13.789C7.21875 14.034 7.41914 14.2344 7.66406 14.2344H10.3359C10.5809 14.2344 10.7812 14.034 10.7812 13.789V9.33592C10.7812 9.091 10.5809 8.89061 10.3359 8.89061H7.66406C7.41914 8.89061 7.21875 9.091 7.21875 9.33592V13.789ZM16.5703 11.5625C17.3079 11.5625 17.9062 12.1609 17.9062 12.8984V13.789C17.9062 14.5266 17.3079 15.125 16.5703 15.125H13.8984C13.1609 15.125 12.5625 14.5266 12.5625 13.789V12.8984C12.5625 12.1609 13.1609 11.5625 13.8984 11.5625H16.5703ZM13.4531 13.789C13.4531 14.034 13.6535 14.2344 13.8984 14.2344H16.5703C16.8152 14.2344 17.0156 14.034 17.0156 13.789V12.8984C17.0156 12.6535 16.8152 12.4531 16.5703 12.4531H13.8984C13.6535 12.4531 13.4531 12.6535 13.4531 12.8984V13.789Z" fill="#6A7381"/>
</g>
<defs>
<clipPath id="clip0_2216_13597">
<rect width="17.8125" height="14.25" fill="white" transform="translate(0.09375 0.875)"/>
</clipPath>
</defs>
</svg>
