<svg width="36" height="36" viewBox="0 0 36 36" fill="none" xmlns="http://www.w3.org/2000/svg">
<rect width="36" height="36" rx="18" fill="url(#paint0_linear_2265_20885)"/>
<path fill-rule="evenodd" clip-rule="evenodd" d="M18.2232 8.22747C14.9118 8.22747 12.2275 10.9118 12.2275 14.2232C12.2275 17.5345 14.9118 20.2189 18.2232 20.2189C21.5345 20.2189 24.2189 17.5345 24.2189 14.2232C24.2189 10.9118 21.5345 8.22747 18.2232 8.22747ZM11 14.2232C11 10.2339 14.2339 7 18.2232 7C22.2124 7 25.4464 10.2339 25.4464 14.2232C25.4464 18.2124 22.2124 21.4464 18.2232 21.4464C14.2339 21.4464 11 18.2124 11 14.2232Z" fill="white"/>
<path fill-rule="evenodd" clip-rule="evenodd" d="M21.721 19.1667C22.057 19.1221 22.3655 19.3584 22.4101 19.6944L23.5526 28.3055C23.5836 28.5392 23.4781 28.7699 23.2811 28.8992C23.0842 29.0286 22.8305 29.0338 22.6284 28.9125L18.2232 26.2694L13.8179 28.9125C13.6158 29.0338 13.3622 29.0286 13.1652 28.8992C12.9682 28.7698 12.8627 28.5391 12.8938 28.3055L14.0362 19.7037C14.0809 19.3677 14.3894 19.1315 14.7254 19.1762C15.0614 19.2208 15.2977 19.5294 15.253 19.8654L14.2782 27.2049L17.9074 25.0274C18.1018 24.9108 18.3446 24.9108 18.5389 25.0274L22.1684 27.205L21.1933 19.8558C21.1487 19.5198 21.385 19.2113 21.721 19.1667Z" fill="white"/>
<defs>
<linearGradient id="paint0_linear_2265_20885" x1="9.5" y1="-0.5" x2="29" y2="36" gradientUnits="userSpaceOnUse">
<stop stop-color="#92CFC4"/>
<stop offset="1" stop-color="#51B5A4"/>
</linearGradient>
</defs>
</svg>
