<svg width="36" height="36" viewBox="0 0 36 36" fill="none" xmlns="http://www.w3.org/2000/svg">
<rect width="36" height="36" rx="18" fill="url(#paint0_linear_2265_33672)"/>
<g clip-path="url(#clip0_2265_33672)">
<path d="M19.6662 9.70902C19.6254 9.74836 19.5809 9.78881 19.54 9.83C19.0428 9.73648 18.527 9.6875 18 9.6875C13.4096 9.6875 9.6875 13.4096 9.6875 18C9.6875 22.5904 13.4096 26.3125 18 26.3125C22.5904 26.3125 26.3125 22.5904 26.3125 18C26.3125 17.473 26.2643 16.9572 26.1715 16.46C26.2123 16.4191 26.2531 16.3746 26.2902 16.3338L27.1363 15.3912C27.3738 16.2188 27.5 17.0945 27.5 18C27.5 23.2473 23.2473 27.5 18 27.5C12.7527 27.5 8.5 23.2473 8.5 18C8.5 12.7527 12.7527 8.5 18 8.5C18.9055 8.5 19.7479 8.62639 20.6088 8.86248L19.6662 9.70902ZM18.7236 12.4039L18.8795 13.3316C18.5938 13.2797 18.3006 13.2166 17.9666 13.2166C15.3764 13.2166 13.2166 15.3764 13.2166 17.9666C13.2166 20.6236 15.3764 22.75 17.9666 22.75C20.6236 22.75 22.75 20.6236 22.75 17.9666C22.75 17.6994 22.7203 17.3729 22.6684 17.1205L23.5961 17.2764C23.6963 17.2912 23.7965 17.3023 23.8967 17.3098C23.9227 17.5361 23.9375 17.7662 23.9375 17.9666C23.9375 21.2805 21.2805 23.9375 18 23.9375C14.7195 23.9375 12.0625 21.2805 12.0625 17.9666C12.0625 14.7195 14.7195 12.0291 18 12.0291C18.2338 12.0291 18.4639 12.0759 18.6902 12.1022C18.6977 12.2028 18.7088 12.3037 18.7236 12.4039ZM21.1729 15.6658L18.4193 18.4193C18.1893 18.6531 17.8107 18.6531 17.5807 18.4193C17.3469 18.1893 17.3469 17.8107 17.5807 17.5807L20.3342 14.8271L19.8963 12.2146C19.7961 11.6094 20.0113 10.996 20.4715 10.5893L22.2713 8.95904C22.7908 8.52666 23.5627 8.74533 23.7482 9.3691L24.4125 11.5856L26.6316 12.2518C27.2551 12.4373 27.474 13.2092 27.0398 13.6953L25.4107 15.5285C25.0025 15.9887 24.3902 16.2039 23.7854 16.1037L21.1729 15.6658ZM22.2045 14.6342L23.982 14.9311C24.1824 14.9645 24.3865 14.8939 24.5238 14.7418L25.8449 13.2537L24.1082 12.7342L22.2045 14.6342ZM23.2658 11.8933L22.7463 10.1558L21.2582 11.4769C21.1061 11.6124 21.0355 11.8168 21.0689 12.018L21.3658 13.7955L23.2658 11.8933Z" fill="white"/>
</g>
<defs>
<linearGradient id="paint0_linear_2265_33672" x1="9.5" y1="-0.5" x2="29" y2="36" gradientUnits="userSpaceOnUse">
<stop stop-color="#CFBE92"/>
<stop offset="1" stop-color="#B59851"/>
</linearGradient>
<clipPath id="clip0_2265_33672">
<rect width="19" height="19" fill="white" transform="translate(8.5 8.5)"/>
</clipPath>
</defs>
</svg>
