<svg width="36" height="36" viewBox="0 0 36 36" fill="none" xmlns="http://www.w3.org/2000/svg">
<rect width="36" height="36" rx="18" fill="#6A86EA"/>
<rect width="36" height="36" rx="18" fill="url(#paint0_linear_2265_20893)"/>
<path d="M21.5625 9.09375C21.5625 8.76585 21.8297 8.5 22.1562 8.5H25.7188C26.0453 8.5 26.3125 8.76585 26.3125 9.09375V12.6562C26.3125 12.9828 26.0453 13.25 25.7188 13.25C25.3922 13.25 25.125 12.9828 25.125 12.6562V10.5273L19.6068 16.0443C19.3879 16.2633 19.0354 16.2781 18.8016 16.074L15.0312 12.8455L11.2613 16.074C11.0123 16.2893 10.6375 16.2596 10.4241 16.0109C10.2107 15.7623 10.2397 15.3875 10.4887 15.176L14.6453 11.6116C14.868 11.4212 15.1945 11.4212 15.4172 11.6116L19.1578 14.816L24.2863 9.6875H22.1562C21.8297 9.6875 21.5625 9.4218 21.5625 9.09375ZM20.375 22.75C20.375 24.06 19.31 25.125 18 25.125C16.69 25.125 15.625 24.06 15.625 22.75C15.625 21.44 16.69 20.375 18 20.375C19.31 20.375 20.375 21.44 20.375 22.75ZM18 21.5625C17.3432 21.5625 16.8125 22.0932 16.8125 22.75C16.8125 23.4068 17.3432 23.9375 18 23.9375C18.6568 23.9375 19.1875 23.4068 19.1875 22.75C19.1875 22.0932 18.6568 21.5625 18 21.5625ZM25.7188 18C26.7021 18 27.5 18.7979 27.5 19.7812V25.7188C27.5 26.7021 26.7021 27.5 25.7188 27.5H10.2812C9.29748 27.5 8.5 26.7021 8.5 25.7188V19.7812C8.5 18.7979 9.29748 18 10.2812 18H25.7188ZM26.3125 19.7812C26.3125 19.4547 26.0453 19.1875 25.7188 19.1875H24.5312C24.5312 20.1709 25.3291 20.9688 26.3125 20.9688V19.7812ZM9.6875 22.1562V23.3438C11.327 23.3438 12.6562 24.6723 12.6562 26.3125H23.3438C23.3438 24.6723 24.6723 23.3438 26.3125 23.3438V22.1562C24.6723 22.1562 23.3438 20.8277 23.3438 19.1875H12.6562C12.6562 20.8277 11.327 22.1562 9.6875 22.1562ZM25.7188 26.3125C26.0453 26.3125 26.3125 26.0453 26.3125 25.7188V24.5312C25.3291 24.5312 24.5312 25.3291 24.5312 26.3125H25.7188ZM9.6875 25.7188C9.6875 26.0453 9.9532 26.3125 10.2812 26.3125H11.4688C11.4688 25.3291 10.6713 24.5312 9.6875 24.5312V25.7188ZM10.2812 19.1875C9.9532 19.1875 9.6875 19.4547 9.6875 19.7812V20.9688C10.6713 20.9688 11.4688 20.1709 11.4688 19.1875H10.2812Z" fill="white"/>
<defs>
<linearGradient id="paint0_linear_2265_20893" x1="9.5" y1="-0.5" x2="29" y2="36" gradientUnits="userSpaceOnUse">
<stop stop-color="#F49F6F"/>
<stop offset="1" stop-color="#E0AD5F"/>
</linearGradient>
</defs>
</svg>
