<svg width="36" height="36" viewBox="0 0 36 36" fill="none" xmlns="http://www.w3.org/2000/svg">
<rect width="36" height="36" rx="18" fill="url(#paint0_linear_2265_20901)"/>
<path d="M17.9963 24.176L12.8826 26.8924C12.6154 27.052 12.2518 27.026 11.9735 26.8293C11.6988 26.6326 11.5615 26.2912 11.5838 25.9572L12.5895 20.1867L8.46699 16.0973C8.22726 15.8635 8.14228 15.5109 8.24767 15.1881C8.35269 14.8689 8.6299 14.6352 8.96351 14.5869L14.649 13.7445L17.1947 8.50172C17.3469 8.19479 17.6549 8 17.9963 8C18.3377 8 18.6494 8.19482 18.7979 8.50172L21.3436 13.7445L27.0324 14.5869C27.3664 14.6352 27.641 14.8689 27.7486 15.1881C27.8526 15.5109 27.7672 15.8635 27.5297 16.0973L23.4031 20.1867L24.3791 25.9572C24.4348 26.2912 24.2975 26.6326 24.0192 26.8293C23.7445 27.026 23.3475 27.052 23.0803 26.8924L17.9963 24.176ZM15.7178 14.2641C15.5471 14.6166 15.2131 14.8615 14.8235 14.9209L9.72425 15.6742L13.4281 19.3406C13.699 19.6115 13.8252 20.0012 13.7621 20.3834L12.8863 25.5602L17.436 23.1295C17.7885 22.9402 18.2078 22.9402 18.5567 23.1295L23.1063 25.5602L22.2342 20.3834C22.1674 20.0012 22.2936 19.6115 22.5682 19.3406L26.2717 15.6742L21.1692 14.9209C20.7498 14.8615 20.4158 14.6166 20.2748 14.2641L17.9963 9.57047L15.7178 14.2641Z" fill="white"/>
<defs>
<linearGradient id="paint0_linear_2265_20901" x1="9.5" y1="-0.5" x2="29" y2="36" gradientUnits="userSpaceOnUse">
<stop stop-color="#92CFC4"/>
<stop offset="1" stop-color="#51B5A4"/>
</linearGradient>
</defs>
</svg>
