<svg width="36" height="36" viewBox="0 0 36 36" fill="none" xmlns="http://www.w3.org/2000/svg">
<rect width="36" height="36" rx="18" fill="url(#paint0_linear_2265_33071)"/>
<path fill-rule="evenodd" clip-rule="evenodd" d="M19.2584 7.40364C19.5231 7.51854 19.6804 7.79419 19.6446 8.08051L18.7359 15.3499H26.9996C27.2518 15.3499 27.4813 15.4958 27.5882 15.7242C27.6952 15.9526 27.6604 16.2223 27.499 16.416L17.499 28.416C17.3142 28.6377 17.0055 28.711 16.7408 28.5961C16.4761 28.4812 16.3188 28.2056 16.3546 27.9193L17.2633 20.6499H8.99962C8.74741 20.6499 8.51796 20.504 8.41098 20.2756C8.30401 20.0472 8.33881 19.7775 8.50027 19.5838L18.5003 7.58377C18.685 7.3621 18.9938 7.28874 19.2584 7.40364ZM10.3874 19.3499H17.9996C18.1861 19.3499 18.3635 19.4299 18.4869 19.5697C18.6103 19.7095 18.6677 19.8955 18.6446 20.0805L17.9196 25.8806L25.6118 16.6499H17.9996C17.8132 16.6499 17.6357 16.5698 17.5123 16.4301C17.3889 16.2903 17.3315 16.1043 17.3546 15.9193L18.0796 10.1192L10.3874 19.3499Z" fill="white"/>
<defs>
<linearGradient id="paint0_linear_2265_33071" x1="9.5" y1="-0.5" x2="29" y2="36" gradientUnits="userSpaceOnUse">
<stop stop-color="#DA6FF4"/>
<stop offset="1" stop-color="#A75FE0"/>
</linearGradient>
</defs>
</svg>
