<svg width="621" height="296" viewBox="0 0 621 296" fill="none" xmlns="http://www.w3.org/2000/svg">
<g clip-path="url(#clip0_1008_35985)">
<g opacity="0.2" filter="url(#filter0_f_1008_35985)">
<rect x="34.2498" y="30.5046" width="542.5" height="284.991" rx="38.4383" fill="#030303"/>
</g>
<g clip-path="url(#clip1_1008_35985)">
<path d="M549.707 16H62.2925C44.4578 16 30 30.4578 30 48.2925V330.33C30 348.165 44.4578 362.623 62.2925 362.623H549.707C567.542 362.623 582 348.165 582 330.33V48.2925C582 30.4578 567.542 16 549.707 16Z" fill="white"/>
<path d="M92.0429 75.8946V90.9025H89.5817V84.337H82.5197V90.9025H80.0584V75.8946H82.5197V82.3289H89.5817V75.8946H92.0429ZM96.5366 77.4275C96.0896 77.4275 95.7152 77.2761 95.4135 76.9743C95.1108 76.6716 94.9604 76.2972 94.9604 75.8512C94.9604 75.4051 95.1108 75.0307 95.4135 74.728C95.7152 74.4263 96.0896 74.2749 96.5366 74.2749C96.9686 74.2749 97.3349 74.4263 97.6376 74.728C97.9404 75.0307 98.0907 75.4051 98.0907 75.8512C98.0907 76.2972 97.9404 76.6716 97.6376 76.9743C97.3349 77.2761 96.9686 77.4275 96.5366 77.4275ZM97.7456 79.0037V90.9025H95.2843V79.0037H97.7456ZM105.771 78.809C106.693 78.809 107.506 78.9967 108.211 79.3711C108.932 79.7303 109.493 80.1844 109.896 80.7314V79.0037H112.379V91.0963C112.379 92.1902 112.149 93.162 111.688 94.0117C111.228 94.8755 110.559 95.5516 109.68 96.0411C108.816 96.5315 107.78 96.7757 106.571 96.7757C104.958 96.7757 103.619 96.3943 102.554 95.6314C101.489 94.8826 100.884 93.8603 100.74 92.5646H103.18C103.368 93.1842 103.763 93.6807 104.368 94.0551C104.987 94.4436 105.721 94.6384 106.571 94.6384C107.564 94.6384 108.363 94.3356 108.967 93.7311C109.587 93.1267 109.896 92.2477 109.896 91.0963V89.1103C109.479 89.6714 108.91 90.1467 108.19 90.5352C107.485 90.9096 106.679 91.0963 105.771 91.0963C104.735 91.0963 103.785 90.8369 102.921 90.3192C102.072 89.7864 101.395 89.0517 100.891 88.1163C100.402 87.1667 100.157 86.094 100.157 84.8991C100.157 83.7043 100.402 82.6457 100.891 81.7244C101.395 80.803 102.072 80.0906 102.921 79.587C103.785 79.0683 104.735 78.809 105.771 78.809ZM109.896 84.9425C109.896 84.1211 109.723 83.4086 109.378 82.8042C109.047 82.1997 108.608 81.7395 108.06 81.4226C107.513 81.1058 106.923 80.9473 106.29 80.9473C105.656 80.9473 105.066 81.1058 104.519 81.4226C103.972 81.7244 103.526 82.1785 103.18 82.783C102.849 83.3733 102.683 84.0787 102.683 84.8991C102.683 85.7196 102.849 86.4391 103.18 87.0587C103.526 87.6773 103.972 88.1526 104.519 88.4836C105.08 88.8005 105.67 88.9589 106.29 88.9589C106.923 88.9589 107.513 88.8005 108.06 88.4836C108.608 88.1667 109.047 87.7066 109.378 87.1011C109.723 86.4825 109.896 85.763 109.896 84.9425ZM121.767 78.809C122.674 78.809 123.48 79.0037 124.185 79.3923C124.906 79.7808 125.467 80.357 125.87 81.1199C126.287 81.8828 126.496 82.8042 126.496 83.8839V90.9025H124.056V84.2513C124.056 83.1856 123.79 82.3722 123.257 81.8112C122.724 81.2349 121.997 80.9473 121.076 80.9473C120.155 80.9473 119.421 81.2349 118.873 81.8112C118.341 82.3722 118.075 83.1856 118.075 84.2513V90.9025H115.612V74.9228H118.075V80.3863C118.492 79.8817 119.017 79.4932 119.651 79.2197C120.299 78.9462 121.004 78.809 121.767 78.809Z" fill="#2A3033"/>
<path d="M183.719 83.6124C183.719 82.1219 184.928 80.913 186.419 80.913H454.497C455.988 80.913 457.197 82.1219 457.197 83.6124C457.197 85.1029 455.988 86.3119 454.497 86.3119H186.419C184.928 86.3119 183.719 85.1029 183.719 83.6124Z" fill="#EDEEF3"/>
<path d="M183.716 83.6124C183.716 82.1219 184.924 80.913 186.415 80.913H363.797C365.288 80.913 366.497 82.1219 366.497 83.6124C366.497 85.1029 365.288 86.3119 363.797 86.3119H186.415C184.924 86.3119 183.716 85.1029 183.716 83.6124Z" fill="#DC2626"/>
<g filter="url(#filter1_d_1008_35985)">
<path d="M384.084 68.4878H373.287C365.088 68.4878 358.441 75.1346 358.441 83.3338C358.441 91.533 365.088 98.1798 373.287 98.1798H384.084C392.283 98.1798 398.93 91.533 398.93 83.3338C398.93 75.1346 392.283 68.4878 384.084 68.4878Z" fill="#EDEEF3" stroke="white" stroke-width="2.69927"/>
<path d="M375.649 78.2722C375.649 77.7132 375.196 77.26 374.637 77.26C374.078 77.26 373.625 77.7132 373.625 78.2722V88.3945C373.625 88.9535 374.078 89.4067 374.637 89.4067C375.196 89.4067 375.649 88.9535 375.649 88.3945V78.2722Z" fill="#9CA5AF"/>
<path d="M383.747 78.2722C383.747 77.7132 383.294 77.26 382.735 77.26C382.176 77.26 381.723 77.7132 381.723 78.2722V88.3945C381.723 88.9535 382.176 89.4067 382.735 89.4067C383.294 89.4067 383.747 88.9535 383.747 88.3945V78.2722Z" fill="#9CA5AF"/>
</g>
<path d="M485.556 80.7527C486.55 80.7527 487.421 80.9687 488.17 81.4006C488.933 81.8184 489.523 82.4158 489.94 83.1928C490.358 83.9557 490.567 84.8276 490.567 85.8065C490.567 86.8136 490.337 87.7208 489.876 88.5271C489.43 89.3334 488.796 89.9662 487.975 90.4273C487.169 90.8734 486.255 91.0964 485.232 91.0964C484.182 91.0964 483.246 90.8663 482.426 90.4052C481.605 89.945 480.965 89.3112 480.504 88.5049C480.058 87.6845 479.835 86.7702 479.835 85.7631C479.835 84.9427 479.986 84.1212 480.288 83.3008C480.59 82.4662 481.051 81.6024 481.67 80.7103L485.556 75.1601H488.235L484.067 80.9687C484.499 80.8254 484.995 80.7527 485.556 80.7527ZM485.232 89.0448C486.211 89.0448 486.975 88.7572 487.522 88.181C488.069 87.5917 488.343 86.7995 488.343 85.8065C488.343 84.8125 488.069 84.0284 487.522 83.4522C486.975 82.8618 486.211 82.5671 485.232 82.5671C484.254 82.5671 483.477 82.8618 482.9 83.4522C482.339 84.0284 482.059 84.8125 482.059 85.8065C482.059 86.7995 482.339 87.5917 482.9 88.181C483.477 88.7572 484.254 89.0448 485.232 89.0448ZM492.786 82.8265C492.786 80.3359 493.203 78.3923 494.038 76.9957C494.887 75.5849 496.341 74.8795 498.4 74.8795C500.458 74.8795 501.906 75.5849 502.74 76.9957C503.59 78.3923 504.015 80.3359 504.015 82.8265C504.015 85.3453 503.59 87.3172 502.74 88.7431C501.906 90.1539 500.458 90.8593 498.4 90.8593C496.341 90.8593 494.887 90.1539 494.038 88.7431C493.203 87.3172 492.786 85.3453 492.786 82.8265ZM501.596 82.8265C501.596 81.6599 501.517 80.674 501.359 79.8677C501.214 79.0614 500.913 78.4065 500.451 77.9029C499.991 77.3842 499.307 77.1249 498.4 77.1249C497.493 77.1249 496.809 77.3842 496.348 77.9029C495.888 78.4065 495.578 79.0614 495.42 79.8677C495.275 80.674 495.204 81.6599 495.204 82.8265C495.204 84.0355 495.275 85.0506 495.42 85.8711C495.564 86.6915 495.866 87.3535 496.327 87.8571C496.802 88.3616 497.493 88.6129 498.4 88.6129C499.307 88.6129 499.991 88.3616 500.451 87.8571C500.927 87.3535 501.235 86.6915 501.38 85.8711C501.524 85.0506 501.596 84.0355 501.596 82.8265ZM506.231 78.9605C506.231 77.91 506.532 77.0895 507.138 76.4992C507.756 75.8947 508.549 75.592 509.512 75.592C510.477 75.592 511.262 75.8947 511.867 76.4992C512.485 77.0895 512.795 77.91 512.795 78.9605C512.795 80.012 512.485 80.8395 511.867 81.444C511.262 82.0485 510.477 82.3512 509.512 82.3512C508.549 82.3512 507.756 82.0485 507.138 81.444C506.532 80.8395 506.231 80.012 506.231 78.9605ZM519.403 75.8725L510.787 90.9027H508.368L516.984 75.8725H519.403ZM509.512 77.0825C508.606 77.0825 508.152 77.7081 508.152 78.9605C508.152 80.228 508.606 80.8607 509.512 80.8607C509.944 80.8607 510.275 80.7103 510.506 80.4076C510.751 80.0907 510.873 79.6083 510.873 78.9605C510.873 77.7081 510.42 77.0825 509.512 77.0825ZM515.019 87.7925C515.019 86.742 515.322 85.9215 515.927 85.3312C516.545 84.7267 517.337 84.424 518.302 84.424C519.252 84.424 520.029 84.7267 520.634 85.3312C521.253 85.9215 521.563 86.742 521.563 87.7925C521.563 88.844 521.253 89.6715 520.634 90.276C520.029 90.8805 519.252 91.1832 518.302 91.1832C517.337 91.1832 516.545 90.8805 515.927 90.276C515.322 89.6715 515.019 88.844 515.019 87.7925ZM518.28 85.9145C517.373 85.9145 516.919 86.5401 516.919 87.7925C516.919 89.0448 517.373 89.6715 518.28 89.6715C519.187 89.6715 519.64 89.0448 519.64 87.7925C519.64 86.5401 519.187 85.9145 518.28 85.9145Z" fill="#2A3033"/>
<path d="M95.8656 156.872V171.88H93.4033V161.602L88.8258 171.88H87.1193L82.5197 161.602V171.88H80.0584V156.872H82.7145L87.9832 168.641L93.2307 156.872H95.8656ZM110.006 165.64C110.006 166.086 109.977 166.489 109.92 166.849H100.829C100.9 167.799 101.253 168.562 101.886 169.138C102.52 169.714 103.297 170.002 104.218 170.002C105.543 170.002 106.479 169.447 107.026 168.339H109.682C109.322 169.433 108.667 170.333 107.717 171.039C106.781 171.729 105.615 172.075 104.218 172.075C103.081 172.075 102.059 171.823 101.152 171.319C100.259 170.8 99.554 170.081 99.0363 169.16C98.5317 168.224 98.2804 167.144 98.2804 165.92C98.2804 164.697 98.5247 163.624 99.0141 162.703C99.5187 161.768 100.216 161.047 101.109 160.543C102.016 160.04 103.053 159.788 104.218 159.788C105.341 159.788 106.342 160.033 107.22 160.522C108.098 161.012 108.783 161.702 109.272 162.595C109.761 163.473 110.006 164.488 110.006 165.64ZM107.436 164.863C107.421 163.955 107.097 163.229 106.465 162.681C105.831 162.134 105.047 161.86 104.11 161.86C103.262 161.86 102.534 162.134 101.93 162.681C101.325 163.214 100.965 163.941 100.85 164.863H107.436ZM111.608 165.877C111.608 164.682 111.852 163.624 112.342 162.703C112.845 161.782 113.523 161.069 114.372 160.565C115.236 160.047 116.193 159.788 117.244 159.788C118.021 159.788 118.784 159.96 119.533 160.306C120.296 160.637 120.9 161.083 121.346 161.644V155.9H123.83V171.88H121.346V170.088C120.944 170.664 120.383 171.139 119.662 171.513C118.957 171.887 118.143 172.075 117.222 172.075C116.186 172.075 115.236 171.816 114.372 171.298C113.523 170.765 112.845 170.03 112.342 169.095C111.852 168.144 111.608 167.073 111.608 165.877ZM121.346 165.92C121.346 165.1 121.174 164.387 120.829 163.783C120.498 163.178 120.059 162.717 119.512 162.4C118.964 162.083 118.374 161.926 117.741 161.926C117.107 161.926 116.517 162.083 115.97 162.4C115.423 162.703 114.977 163.156 114.631 163.761C114.3 164.351 114.134 165.056 114.134 165.877C114.134 166.698 114.3 167.418 114.631 168.036C114.977 168.656 115.423 169.131 115.97 169.462C116.532 169.778 117.121 169.937 117.741 169.937C118.374 169.937 118.964 169.778 119.512 169.462C120.059 169.145 120.498 168.684 120.829 168.08C121.174 167.461 121.346 166.741 121.346 165.92ZM128.315 158.406C127.869 158.406 127.495 158.255 127.193 157.952C126.891 157.65 126.739 157.276 126.739 156.829C126.739 156.383 126.891 156.008 127.193 155.707C127.495 155.404 127.869 155.253 128.315 155.253C128.747 155.253 129.115 155.404 129.417 155.707C129.719 156.008 129.871 156.383 129.871 156.829C129.871 157.276 129.719 157.65 129.417 157.952C129.115 158.255 128.747 158.406 128.315 158.406ZM129.525 159.982V171.88H127.063V159.982H129.525ZM143.532 159.982V171.88H141.071V170.476C140.683 170.966 140.171 171.355 139.538 171.643C138.919 171.917 138.257 172.053 137.551 172.053C136.616 172.053 135.773 171.859 135.024 171.47C134.291 171.082 133.707 170.506 133.275 169.743C132.858 168.98 132.65 168.059 132.65 166.979V159.982H135.09V166.611C135.09 167.677 135.355 168.498 135.888 169.073C136.421 169.635 137.149 169.915 138.07 169.915C138.991 169.915 139.718 169.635 140.251 169.073C140.798 168.498 141.071 167.677 141.071 166.611V159.982H143.532ZM161.184 159.788C162.12 159.788 162.955 159.982 163.689 160.371C164.438 160.759 165.021 161.336 165.438 162.099C165.87 162.861 166.086 163.783 166.086 164.863V171.88H163.646V165.23C163.646 164.164 163.379 163.351 162.847 162.789C162.314 162.214 161.587 161.926 160.666 161.926C159.744 161.926 159.011 162.214 158.464 162.789C157.931 163.351 157.664 164.164 157.664 165.23V171.88H155.224V165.23C155.224 164.164 154.958 163.351 154.425 162.789C153.892 162.214 153.166 161.926 152.244 161.926C151.323 161.926 150.588 162.214 150.041 162.789C149.508 163.351 149.242 164.164 149.242 165.23V171.88H146.781V159.982H149.242V161.343C149.646 160.853 150.156 160.472 150.776 160.198C151.395 159.925 152.057 159.788 152.762 159.788C153.713 159.788 154.562 159.989 155.31 160.392C156.059 160.796 156.635 161.378 157.038 162.142C157.398 161.421 157.959 160.853 158.722 160.436C159.485 160.004 160.306 159.788 161.184 159.788Z" fill="#2A3033"/>
<path d="M183.714 164.312C183.714 162.821 184.923 161.612 186.414 161.612H443.695C445.187 161.612 446.395 162.821 446.395 164.312C446.395 165.803 445.187 167.011 443.695 167.011H186.414C184.923 167.011 183.714 165.803 183.714 164.312Z" fill="#EDEEF3"/>
<path d="M183.713 164.312C183.713 162.821 184.921 161.612 186.412 161.612H287.54C289.03 161.612 290.238 162.821 290.238 164.312C290.238 165.803 289.03 167.011 287.54 167.011H186.412C184.921 167.011 183.713 165.803 183.713 164.312Z" fill="#DC9326"/>
<g filter="url(#filter2_d_1008_35985)">
<path d="M308.152 149.466H297.355C289.156 149.466 282.509 156.113 282.509 164.312C282.509 172.511 289.156 179.158 297.355 179.158H308.152C316.351 179.158 322.998 172.511 322.998 164.312C322.998 156.113 316.351 149.466 308.152 149.466Z" fill="#EDEEF3" stroke="white" stroke-width="2.69927"/>
<path d="M299.716 159.251C299.716 158.692 299.263 158.238 298.704 158.238C298.145 158.238 297.692 158.692 297.692 159.251V169.373C297.692 169.932 298.145 170.385 298.704 170.385C299.263 170.385 299.716 169.932 299.716 169.373V159.251Z" fill="#9CA5AF"/>
<path d="M307.815 159.251C307.815 158.692 307.361 158.238 306.802 158.238C306.243 158.238 305.79 158.692 305.79 159.251V169.373C305.79 169.932 306.243 170.385 306.802 170.385C307.361 170.385 307.815 169.932 307.815 169.373V159.251Z" fill="#9CA5AF"/>
</g>
<path d="M485.609 162.034C487.063 162.149 488.2 162.631 489.021 163.48C489.841 164.33 490.251 165.474 490.251 166.914C490.251 168.468 489.761 169.699 488.783 170.607C487.818 171.513 486.494 171.967 484.81 171.967C483.284 171.967 482.024 171.571 481.03 170.779C480.052 169.973 479.526 168.821 479.454 167.324H481.916C481.974 168.087 482.254 168.713 482.758 169.203C483.262 169.678 483.96 169.915 484.853 169.915C485.759 169.915 486.473 169.649 486.99 169.116C487.523 168.583 487.79 167.85 487.79 166.914C487.79 165.993 487.53 165.272 487.013 164.755C486.494 164.222 485.781 163.955 484.874 163.955H482.65V162.207L486.537 158.19H480.21V156.139H489.517V158.017L485.609 162.034ZM492.786 163.804C492.786 161.313 493.203 159.37 494.038 157.974C494.887 156.563 496.341 155.858 498.4 155.858C500.458 155.858 501.905 156.563 502.74 157.974C503.59 159.37 504.015 161.313 504.015 163.804C504.015 166.324 503.59 168.296 502.74 169.721C501.905 171.131 500.458 171.837 498.4 171.837C496.341 171.837 494.887 171.131 494.038 169.721C493.203 168.296 492.786 166.324 492.786 163.804ZM501.596 163.804C501.596 162.638 501.517 161.652 501.359 160.846C501.214 160.04 500.912 159.385 500.451 158.88C499.991 158.363 499.307 158.103 498.4 158.103C497.492 158.103 496.809 158.363 496.348 158.88C495.888 159.385 495.578 160.04 495.42 160.846C495.275 161.652 495.204 162.638 495.204 163.804C495.204 165.014 495.275 166.028 495.42 166.849C495.564 167.67 495.866 168.332 496.327 168.836C496.802 169.339 497.492 169.591 498.4 169.591C499.307 169.591 499.991 169.339 500.451 168.836C500.927 168.332 501.235 167.67 501.38 166.849C501.524 166.028 501.596 165.014 501.596 163.804ZM506.231 159.939C506.231 158.887 506.532 158.067 507.138 157.477C507.756 156.872 508.549 156.57 509.512 156.57C510.477 156.57 511.262 156.872 511.867 157.477C512.485 158.067 512.795 158.887 512.795 159.939C512.795 160.99 512.485 161.818 511.867 162.422C511.262 163.027 510.477 163.329 509.512 163.329C508.549 163.329 507.756 163.027 507.138 162.422C506.532 161.818 506.231 160.99 506.231 159.939ZM519.403 156.851L510.787 171.88H508.368L516.984 156.851H519.403ZM509.512 158.06C508.606 158.06 508.152 158.687 508.152 159.939C508.152 161.205 508.606 161.839 509.512 161.839C509.944 161.839 510.275 161.688 510.506 161.386C510.751 161.069 510.873 160.587 510.873 159.939C510.873 158.687 510.42 158.06 509.512 158.06ZM515.019 168.771C515.019 167.719 515.322 166.899 515.926 166.309C516.545 165.704 517.337 165.402 518.302 165.402C519.252 165.402 520.029 165.704 520.634 166.309C521.253 166.899 521.563 167.719 521.563 168.771C521.563 169.822 521.253 170.65 520.634 171.254C520.029 171.859 519.252 172.161 518.302 172.161C517.337 172.161 516.545 171.859 515.926 171.254C515.322 170.65 515.019 169.822 515.019 168.771ZM518.28 166.892C517.373 166.892 516.919 167.519 516.919 168.771C516.919 170.023 517.373 170.65 518.28 170.65C519.187 170.65 519.64 170.023 519.64 168.771C519.64 167.519 519.187 166.892 518.28 166.892Z" fill="#2A3033"/>
<path d="M82.5197 250.872H87.5947V252.859H80.0584V237.851H82.5197V250.872ZM94.814 253.053C93.6919 253.053 92.6767 252.801 91.7695 252.297C90.8623 251.779 90.1498 251.058 89.6321 250.137C89.1134 249.202 88.8541 248.122 88.8541 246.899C88.8541 245.689 89.1205 244.617 89.6533 243.681C90.1861 242.745 90.9127 242.026 91.834 241.521C92.7554 241.018 93.7847 240.765 94.922 240.765C96.0593 240.765 97.0887 241.018 98.01 241.521C98.9314 242.026 99.6589 242.745 100.192 243.681C100.724 244.617 100.99 245.689 100.99 246.899C100.99 248.108 100.717 249.18 100.17 250.116C99.6226 251.051 98.8738 251.779 97.9242 252.297C96.9877 252.801 95.9513 253.053 94.814 253.053ZM94.814 250.915C95.4478 250.915 96.0381 250.764 96.5851 250.461C97.1462 250.159 97.6003 249.705 97.9454 249.101C98.2905 248.496 98.4641 247.763 98.4641 246.899C98.4641 246.035 98.2986 245.307 97.9666 244.717C97.6356 244.113 97.1966 243.659 96.6497 243.357C96.1027 243.055 95.5124 242.904 94.8786 242.904C94.2459 242.904 93.6555 243.055 93.1086 243.357C92.5758 243.659 92.1509 244.113 91.834 244.717C91.5172 245.307 91.3598 246.035 91.3598 246.899C91.3598 248.179 91.6827 249.173 92.3306 249.879C92.9936 250.569 93.8211 250.915 94.814 250.915ZM119.404 240.96L115.711 252.859H113.12L110.722 244.069L108.325 252.859H105.734L102.02 240.96H104.525L107.009 250.527L109.535 240.96H112.105L114.524 250.483L116.985 240.96H119.404Z" fill="#2A3033"/>
<path d="M183.713 245.569C183.713 244.078 184.921 242.869 186.412 242.869H448.6C450.09 242.869 451.298 244.078 451.298 245.569C451.298 247.059 450.09 248.268 448.6 248.268H186.412C184.921 248.268 183.713 247.059 183.713 245.569Z" fill="#EDEEF3"/>
<path d="M183.713 245.569C183.713 244.078 184.921 242.869 186.412 242.869H207.373C208.864 242.869 210.072 244.078 210.072 245.569C210.072 247.059 208.864 248.268 207.373 248.268H186.412C184.921 248.268 183.713 247.059 183.713 245.569Z" fill="#25BF7A"/>
<g filter="url(#filter3_d_1008_35985)">
<path d="M233.068 230.444H222.271C214.072 230.444 207.425 237.09 207.425 245.29C207.425 253.489 214.072 260.136 222.271 260.136H233.068C241.267 260.136 247.914 253.489 247.914 245.29C247.914 237.09 241.267 230.444 233.068 230.444Z" fill="#EDEEF3" stroke="white" stroke-width="2.69927"/>
<path d="M224.633 240.228C224.633 239.669 224.18 239.216 223.621 239.216C223.062 239.216 222.609 239.669 222.609 240.228V250.351C222.609 250.91 223.062 251.363 223.621 251.363C224.18 251.363 224.633 250.91 224.633 250.351V240.228Z" fill="#9CA5AF"/>
<path d="M232.73 240.228C232.73 239.669 232.277 239.216 231.718 239.216C231.159 239.216 230.706 239.669 230.706 240.228V250.351C230.706 250.91 231.159 251.363 231.718 251.363C232.277 251.363 232.73 250.91 232.73 250.351V240.228Z" fill="#9CA5AF"/>
</g>
<path d="M484.912 239.362V237.116H489.403V252.859H486.92V239.362H484.912ZM492.786 244.783C492.786 242.292 493.203 240.348 494.038 238.952C494.887 237.541 496.341 236.836 498.4 236.836C500.458 236.836 501.906 237.541 502.74 238.952C503.59 240.348 504.015 242.292 504.015 244.783C504.015 247.301 503.59 249.273 502.74 250.699C501.906 252.11 500.458 252.815 498.4 252.815C496.341 252.815 494.887 252.11 494.038 250.699C493.203 249.273 492.786 247.301 492.786 244.783ZM501.596 244.783C501.596 243.616 501.517 242.63 501.359 241.824C501.214 241.017 500.913 240.363 500.451 239.859C499.991 239.34 499.307 239.081 498.4 239.081C497.493 239.081 496.809 239.34 496.348 239.859C495.888 240.363 495.578 241.017 495.42 241.824C495.275 242.63 495.204 243.616 495.204 244.783C495.204 245.992 495.275 247.007 495.42 247.827C495.564 248.648 495.866 249.31 496.327 249.813C496.802 250.318 497.493 250.569 498.4 250.569C499.307 250.569 499.991 250.318 500.451 249.813C500.927 249.31 501.235 248.648 501.38 247.827C501.524 247.007 501.596 245.992 501.596 244.783ZM506.231 240.917C506.231 239.866 506.532 239.046 507.138 238.455C507.756 237.851 508.549 237.548 509.512 237.548C510.477 237.548 511.262 237.851 511.867 238.455C512.485 239.046 512.795 239.866 512.795 240.917C512.795 241.968 512.485 242.796 511.867 243.4C511.262 244.005 510.477 244.307 509.512 244.307C508.549 244.307 507.756 244.005 507.138 243.4C506.532 242.796 506.231 241.968 506.231 240.917ZM519.403 237.829L510.787 252.859H508.368L516.984 237.829H519.403ZM509.512 239.039C508.606 239.039 508.152 239.664 508.152 240.917C508.152 242.184 508.606 242.817 509.512 242.817C509.944 242.817 510.275 242.666 510.506 242.364C510.751 242.047 510.873 241.564 510.873 240.917C510.873 239.664 510.42 239.039 509.512 239.039ZM515.019 249.749C515.019 248.698 515.322 247.878 515.927 247.287C516.545 246.683 517.337 246.38 518.302 246.38C519.252 246.38 520.029 246.683 520.634 247.287C521.253 247.878 521.563 248.698 521.563 249.749C521.563 250.8 521.253 251.628 520.634 252.232C520.029 252.837 519.252 253.139 518.302 253.139C517.337 253.139 516.545 252.837 515.927 252.232C515.322 251.628 515.019 250.8 515.019 249.749ZM518.28 247.871C517.373 247.871 516.919 248.496 516.919 249.749C516.919 251.001 517.373 251.628 518.28 251.628C519.187 251.628 519.64 251.001 519.64 249.749C519.64 248.496 519.187 247.871 518.28 247.871Z" fill="#2A3033"/>
</g>
</g>
<defs>
<filter id="filter0_f_1008_35985" x="15.0307" y="11.2855" width="580.939" height="323.429" filterUnits="userSpaceOnUse" color-interpolation-filters="sRGB">
<feFlood flood-opacity="0" result="BackgroundImageFix"/>
<feBlend mode="normal" in="SourceGraphic" in2="BackgroundImageFix" result="shape"/>
<feGaussianBlur stdDeviation="9.60957" result="effect1_foregroundBlur_1008_35985"/>
</filter>
<filter id="filter1_d_1008_35985" x="339.546" y="57.6908" width="78.2787" height="67.4817" filterUnits="userSpaceOnUse" color-interpolation-filters="sRGB">
<feFlood flood-opacity="0" result="BackgroundImageFix"/>
<feColorMatrix in="SourceAlpha" type="matrix" values="0 0 0 0 0 0 0 0 0 0 0 0 0 0 0 0 0 0 127 0" result="hardAlpha"/>
<feOffset dy="8.0978"/>
<feGaussianBlur stdDeviation="8.77261"/>
<feComposite in2="hardAlpha" operator="out"/>
<feColorMatrix type="matrix" values="0 0 0 0 0 0 0 0 0 0 0 0 0 0 0 0 0 0 0.12 0"/>
<feBlend mode="normal" in2="BackgroundImageFix" result="effect1_dropShadow_1008_35985"/>
<feBlend mode="normal" in="SourceGraphic" in2="effect1_dropShadow_1008_35985" result="shape"/>
</filter>
<filter id="filter2_d_1008_35985" x="263.614" y="138.669" width="78.2787" height="67.4817" filterUnits="userSpaceOnUse" color-interpolation-filters="sRGB">
<feFlood flood-opacity="0" result="BackgroundImageFix"/>
<feColorMatrix in="SourceAlpha" type="matrix" values="0 0 0 0 0 0 0 0 0 0 0 0 0 0 0 0 0 0 127 0" result="hardAlpha"/>
<feOffset dy="8.0978"/>
<feGaussianBlur stdDeviation="8.77261"/>
<feComposite in2="hardAlpha" operator="out"/>
<feColorMatrix type="matrix" values="0 0 0 0 0 0 0 0 0 0 0 0 0 0 0 0 0 0 0.12 0"/>
<feBlend mode="normal" in2="BackgroundImageFix" result="effect1_dropShadow_1008_35985"/>
<feBlend mode="normal" in="SourceGraphic" in2="effect1_dropShadow_1008_35985" result="shape"/>
</filter>
<filter id="filter3_d_1008_35985" x="188.53" y="219.647" width="78.2787" height="67.4817" filterUnits="userSpaceOnUse" color-interpolation-filters="sRGB">
<feFlood flood-opacity="0" result="BackgroundImageFix"/>
<feColorMatrix in="SourceAlpha" type="matrix" values="0 0 0 0 0 0 0 0 0 0 0 0 0 0 0 0 0 0 127 0" result="hardAlpha"/>
<feOffset dy="8.0978"/>
<feGaussianBlur stdDeviation="8.77261"/>
<feComposite in2="hardAlpha" operator="out"/>
<feColorMatrix type="matrix" values="0 0 0 0 0 0 0 0 0 0 0 0 0 0 0 0 0 0 0.12 0"/>
<feBlend mode="normal" in2="BackgroundImageFix" result="effect1_dropShadow_1008_35985"/>
<feBlend mode="normal" in="SourceGraphic" in2="effect1_dropShadow_1008_35985" result="shape"/>
</filter>
<clipPath id="clip0_1008_35985">
<rect width="621" height="296" fill="white"/>
</clipPath>
<clipPath id="clip1_1008_35985">
<rect width="552" height="296.623" fill="white" transform="translate(30 16)"/>
</clipPath>
</defs>
</svg>
