<svg width="320" height="320" viewBox="0 0 320 320" fill="none" xmlns="http://www.w3.org/2000/svg">
<g clip-path="url(#clip0_999_29003)">
<path d="M148.858 262.228C205.973 262.228 252.273 215.928 252.273 158.813C252.273 101.698 205.973 55.397 148.858 55.397C91.7426 55.397 45.4418 101.698 45.4418 158.813C45.4418 215.928 91.7426 262.228 148.858 262.228Z" fill="#B6F1CF"/>
<path d="M148.858 262.368C134.873 262.368 121.322 259.633 108.552 254.231C96.2147 249.012 85.1474 241.545 75.6432 232.041C66.139 222.537 58.6724 211.456 53.4528 199.132C48.0377 186.348 45.3023 172.797 45.3023 158.813C45.3023 144.828 48.0377 131.277 53.4388 118.507C58.6584 106.17 66.125 95.1024 75.6292 85.5842C85.1334 76.0661 96.2147 68.6134 108.538 63.3938C121.308 57.9927 134.873 55.2573 148.858 55.2573C162.842 55.2573 176.393 57.9927 189.163 63.3938C201.501 68.6134 212.568 76.08 222.072 85.5842C231.576 95.0884 239.043 106.17 244.262 118.507C249.664 131.277 252.399 144.828 252.399 158.813C252.399 172.797 249.664 186.348 244.262 199.118C239.043 211.456 231.576 222.523 222.072 232.027C212.568 241.531 201.487 248.998 189.163 254.217C176.393 259.633 162.842 262.368 148.858 262.368ZM148.858 55.5364C91.9162 55.5364 45.5814 101.871 45.5814 158.813C45.5814 215.754 91.9162 262.089 148.858 262.089C205.799 262.089 252.134 215.754 252.134 158.813C252.134 101.871 205.799 55.5364 148.858 55.5364Z" fill="#111111"/>
<path d="M210.307 75.6336C210.084 75.7313 209.944 75.8569 209.902 76.0383C209.679 77.1409 209.567 77.5317 208.13 76.3175C206.692 75.1033 201.333 73.0657 200.342 72.6749C199.351 72.2841 199.407 73.7216 198.849 74.2799C198.291 74.8381 196.811 73.9449 195.751 73.6658C195.234 73.5262 194.453 74.5729 193.755 74.7125C193.057 74.8521 196.141 79.639 195.011 79.5832C193.504 79.4995 192.317 74.6008 191.075 73.4285C189.596 72.0329 190.824 74.3217 189.317 74.866C188.284 75.2428 191.131 77.755 190.726 77.8387C190.322 77.9224 187.098 76.0523 185.646 75.0754C181.013 71.9771 184.306 75.3405 184.306 75.3405C182.534 74.5869 177.984 74.238 176.7 74.1822C175.43 74.1263 174.174 74.5032 173.1 74.5311C172.025 74.559 172.96 72.5632 172.164 72.7586C171.369 72.954 171.299 74.4055 170.197 74.1542C169.094 73.8891 167.754 74.0705 166.345 74.9637C164.921 75.8569 162.772 74.2938 162.395 73.7774C162.018 73.261 163.791 71.363 164.6 72.4097C165.41 73.4564 167.154 73.261 168.661 72.9121C170.211 72.5493 169.052 71.5723 167.74 70.9862C166.233 70.3302 165.507 68.9207 164.377 67.4692C163.246 66.0178 157.915 65.4176 156.254 65.1804C154.608 64.9431 147.169 65.5432 144.671 66.255C143.331 66.6458 137.567 66.1434 134.929 66.7435C132.292 67.3576 128.956 69.7301 129.263 70.3721C129.584 71.0141 134.483 70.4838 134.664 70.8606C134.846 71.2374 133.101 72.2841 132.347 72.3399C131.412 72.4097 130.421 72.0189 128.747 72.2143C127.058 72.4237 128.509 75.1591 129.291 75.6476C129.793 75.9546 130.352 76.2337 131.943 75.9686C133.534 75.7034 134.092 76.1779 135.306 76.2058C136.52 76.2337 138.376 74.0007 139.633 74.2101C140.875 74.4194 142.075 74.1822 142.996 73.7216C143.931 73.261 143.024 71.9212 143.024 71.9212C143.778 71.0839 153.338 69.1579 154.775 69.9813C156.254 70.8187 149.751 71.3909 148.941 71.5165C147.504 71.7259 145.815 74.0845 145.857 74.866C145.899 75.6336 152.989 76.136 151.635 77.0711C150.281 78.0062 147.978 76.1779 145.438 75.843C142.884 75.508 142.884 76.4431 144.294 76.778C145.69 77.113 144.001 77.8806 143.317 78.1318C142.633 78.383 141.614 77.3223 140.903 77.1548C140.177 76.9874 137.679 79.1087 135.641 79.3599C133.603 79.6111 130.226 77.4479 130.226 77.4479C130.226 77.4479 128.44 78.4109 128.007 76.5966C127.546 74.6846 125.313 74.6567 124.35 75.201C123.485 75.6894 119.843 74.866 118.279 75.201C117.037 75.4661 113.688 76.9595 113.688 76.9595C113.381 77.3223 111.399 77.113 110.925 76.5129C110.45 75.9127 109.571 76.8059 109.208 77.2246C108.845 77.6433 108.063 76.9176 107.017 76.5547C105.97 76.1919 105.565 79.1087 105.398 80.0438C105.23 80.9788 100.457 83.5887 99.8293 84.105C99.2013 84.6214 97.4847 82.2907 96.9683 81.0347C96.4519 79.7926 92.6558 83.2258 91.7626 84.2027C90.8834 85.1936 88.4829 85.2913 88.2735 86.4636C88.0642 87.622 85.8172 87.9291 85.7335 88.5292C85.6637 89.1293 85.2171 90.9436 85.2171 90.9436L85.0636 92.9393C85.0636 92.9393 86.8081 91.8926 87.1849 92.2834C88.6085 93.7348 91.7626 92.9114 93.535 90.8738C95.3075 88.8502 99.0478 88.8502 100.457 88.6827C101.867 88.5292 103.946 85.3053 104.253 86.9102C104.56 88.5292 105.021 88.3059 106.486 88.3338C107.477 88.3477 108.245 87.301 109.334 88.3059C110.422 89.3107 108.719 90.2318 108.51 92.2136C108.301 94.1954 109.32 97.2379 109.152 98.7033C108.999 100.155 106.989 101.941 107.463 102.471C107.938 102.988 110.003 101.62 110.729 101.09C111.455 100.559 110.897 99.1917 112.027 98.6754C113.158 98.159 112.543 99.094 112.85 99.8198C113.158 100.545 114.218 99.6104 113.799 98.5777C113.255 97.2797 112.781 96.5401 112.292 95.0188C111.874 93.7628 111.748 92.7719 111.957 91.8089C112.208 90.6087 112.571 89.7573 113.367 88.8083C114.665 87.2592 116.395 88.6966 115.67 91.0273C114.944 93.358 115.837 94.335 116.256 95.0607C116.674 95.7864 117.917 96.8331 116.465 98.5498C115.014 100.266 115.056 100.364 115.014 101.355C114.958 102.346 114.134 102.346 113.66 104.844C113.185 107.342 114.33 110.678 114.804 109.268C115.279 107.859 117.247 108.542 118.084 107.761C118.921 106.979 118.14 106.309 117.875 104.9C117.61 103.49 119.326 102.569 119.326 102.569C119.326 102.569 120.373 105.053 120.861 103.393C121.35 101.732 122.145 103.127 123.387 102.974C124.63 102.82 125.202 103.755 123.806 105.053C122.397 106.351 124.015 106.672 123.332 107.649C122.662 108.64 120.471 107.342 121.615 108.584C122.759 109.826 120.945 110.371 120.889 112.422C120.819 115.521 122.899 112.143 123.527 114.223C124.155 116.302 125.83 114.879 126.974 114.097C128.119 113.315 128.9 117.74 128.9 117.74C128.9 117.74 130.142 116.595 131.133 117.474C132.445 118.633 133.045 116.777 133.729 117.405C134.413 118.033 135.613 117.265 135.362 119.512C135.097 121.745 134.217 120.447 133.589 121.954C132.961 123.462 131.719 124.187 130.728 124.508C129.738 124.829 127.867 129.03 126.723 128.416C125.579 127.788 122.48 127.942 122.48 127.942C122.424 128.486 122.355 129.17 122.271 129.951L122.09 131.682C122.564 134.641 123.234 136.036 124.504 135.604C125.774 135.185 126.946 141.144 126.737 144.103C126.528 147.076 128.83 148.569 127.532 152.239C126.695 154.598 127.839 156.119 129.123 159.301C130.407 162.483 131.58 169.21 130.421 171.122C129.249 173.034 128.454 179.412 133.631 178.296C137.204 177.528 139.312 177.737 141.74 178.379C144.182 179.021 147.281 176.467 149.5 177.207C151.719 177.947 149.988 175.253 154.119 175.044C158.25 174.835 160.986 175.714 162.912 173.397C164.461 171.541 166.205 171.918 167.029 169.447C170.141 168.471 172.053 166.824 172.262 165.344C170.239 163.558 172.541 162.009 170.169 161.548C166.736 160.878 165.842 157.361 167.112 154.765C167.112 154.765 163.344 157.627 161.362 157.822C159.59 157.989 155.626 158.003 155.836 155.142C156.045 152.281 157.427 153.3 155.096 150.439C152.765 147.578 150.072 142.428 152.933 141.256C155.794 140.084 158.138 141.94 157.929 145.443C157.72 148.946 164.6 153.286 166.289 152.756C167.978 152.225 168.675 152.491 169.206 155.24C169.736 157.989 184.865 161.018 186.874 160.809C188.884 160.599 187.754 163.656 190.517 166.614C193.266 169.587 190.503 169.894 193.476 172.643C196.448 175.393 198.779 169.699 198.528 172.448C198.249 175.518 196.937 180.822 197.886 184.743C198.835 188.665 199.058 193.857 200.105 196.397C201.166 198.937 198.514 203.822 201.166 204.24C203.817 204.659 207.418 199.467 208.269 196.816C209.121 194.164 207.851 190.145 210.6 188.121C213.349 186.111 218.025 183.041 218.974 181.017C219.923 179.007 223.007 177.947 223.844 176.035C224.682 174.123 227.878 174.974 228.617 173.704C229.357 172.434 231.59 170.424 231.269 173.174C230.948 175.923 230.418 176.244 232.121 178.156C233.823 180.068 231.409 183.641 231.59 185.679C231.841 188.47 234.354 187.591 237.228 186.711C240.117 185.832 236.349 199.467 236.475 204.254C236.559 207.185 237.229 209.962 237.731 211.679C246.942 196.216 252.245 178.142 252.245 158.827C252.273 124.704 235.763 94.4606 210.307 75.6336ZM145.299 111.208C142.424 110.287 139.772 107.063 138.111 106.435C136.185 105.709 131.775 106.603 130.742 105.57C129.71 104.537 126.89 103.56 131.091 100.741C135.292 97.9217 137.762 96.3028 139.605 97.7542C141.447 99.1917 141.279 98.7312 141.447 99.1917C141.614 99.6523 138.851 99.1359 139.493 99.7081C140.121 100.28 139.325 102.053 140.986 101.829C142.661 101.606 143.638 102.011 144.727 102.36C145.815 102.709 149.388 104.202 148.983 106.449C148.578 108.696 149.388 108.752 149.611 109.505C149.848 110.231 148.174 112.129 145.299 111.208ZM148.327 101.02C147.671 101.732 146.318 101.816 145.355 101.662C144.685 101.55 142.94 100.936 143.401 99.75C143.875 98.5637 149.848 99.1917 150.086 99.6104C150.323 100.029 148.983 100.322 148.327 101.02ZM170.197 109.617C168.941 109.896 167.615 109.254 166.791 110.72C166.54 111.166 167.894 113.999 168.62 114.669C169.345 115.339 168.62 118.116 168.62 118.116C168.927 117.419 170.713 116.149 171.369 118.73C172.081 121.522 169.806 120.238 168.773 119.512C167.754 118.786 168.047 121.508 168.955 122.527C169.862 123.545 168.829 125.011 168.829 126.56C168.843 129.449 167.015 128.249 165.675 128.486C164.335 128.723 160.748 126.253 159.548 124.201C158.348 122.15 162.632 119.721 162.925 118.744C163.219 117.767 162.311 115.269 161.055 113.106C159.785 110.943 161.46 107.482 162.842 107.956C164.223 108.445 167.14 106.295 170.336 106.714C173.532 107.133 171.453 109.324 170.197 109.617Z" fill="white"/>
<path d="M237.759 211.805H237.745C237.689 211.805 237.647 211.763 237.633 211.707C237.103 209.907 236.447 207.157 236.363 204.254C236.321 202.51 236.782 199.649 237.256 196.634C237.926 192.447 238.694 187.716 237.787 186.921C237.661 186.809 237.494 186.781 237.298 186.851L236.977 186.949C234.996 187.549 233.293 188.079 232.288 187.395C231.813 187.074 231.548 186.516 231.465 185.692C231.395 184.911 231.688 183.934 231.995 182.887C232.511 181.171 233.042 179.384 232.023 178.24C230.613 176.649 230.697 176.105 230.948 174.5C231.004 174.109 231.074 173.676 231.144 173.146C231.227 172.448 231.144 172.015 230.906 171.932C230.432 171.778 229.301 172.825 228.757 173.76C228.394 174.388 227.543 174.541 226.636 174.695C225.547 174.89 224.431 175.086 223.998 176.077C223.565 177.054 222.547 177.821 221.57 178.575C220.593 179.314 219.588 180.082 219.113 181.059C218.29 182.79 214.885 185.218 212.135 187.172C211.619 187.535 211.13 187.884 210.698 188.205C208.953 189.475 208.869 191.61 208.8 193.675C208.758 194.806 208.716 195.881 208.423 196.816C207.516 199.635 203.831 204.757 201.166 204.324C199.491 204.059 199.756 202.217 200.035 200.263C200.23 198.867 200.44 197.43 200.007 196.397C199.393 194.931 199.072 192.615 198.723 190.158C198.458 188.316 198.193 186.404 197.774 184.729C197.062 181.771 197.607 178.072 198.053 175.086C198.207 174.095 198.332 173.16 198.416 172.392C198.458 171.862 198.402 171.778 198.388 171.764C198.319 171.75 198.025 172.015 197.788 172.211C196.895 172.978 195.248 174.416 193.406 172.699C191.857 171.262 191.829 170.466 191.801 169.615C191.773 168.861 191.759 168.08 190.447 166.656C189.079 165.177 188.647 163.67 188.34 162.567C187.991 161.339 187.796 160.795 186.93 160.892C186.86 160.906 186.777 160.906 186.679 160.906C183.86 160.906 169.638 157.989 169.108 155.212C168.829 153.775 168.508 153.035 168.047 152.756C167.685 152.546 167.224 152.56 166.373 152.826C165.452 153.119 163.233 152.128 161.209 150.551C160.148 149.727 157.706 147.564 157.831 145.387C157.929 143.684 157.413 142.275 156.394 141.549C155.487 140.907 154.301 140.823 153.044 141.34C152.486 141.563 152.123 141.982 151.97 142.554C151.495 144.41 153.268 147.857 155.264 150.299C156.799 152.184 156.785 152.449 156.464 153.258C156.324 153.635 156.115 154.137 156.045 155.086C155.989 155.756 156.185 156.301 156.603 156.705C157.804 157.878 160.581 157.71 161.418 157.626C163.33 157.445 167.057 154.626 167.098 154.598C167.154 154.556 167.224 154.556 167.266 154.598C167.308 154.64 167.336 154.71 167.308 154.765C166.624 156.175 166.596 157.85 167.238 159.148C167.643 159.971 168.508 161.018 170.266 161.367C171.606 161.632 171.578 162.288 171.55 162.986C171.523 163.642 171.495 164.381 172.43 165.205C172.472 165.233 172.486 165.288 172.472 165.33C172.234 166.935 170.183 168.582 167.21 169.531C166.708 170.983 165.87 171.457 164.977 171.973C164.349 172.336 163.707 172.713 163.079 173.453C161.614 175.225 159.73 175.183 157.134 175.128C156.254 175.114 155.264 175.086 154.189 175.142C151.984 175.253 151.509 176.091 151.174 176.691C150.881 177.207 150.63 177.668 149.514 177.291C148.439 176.928 147.141 177.375 145.773 177.849C144.42 178.31 143.01 178.798 141.754 178.463C139.339 177.835 137.246 177.626 133.701 178.393C132.068 178.742 130.882 178.407 130.156 177.402C128.858 175.574 129.598 172.225 130.338 171.024C131.44 169.21 130.324 162.553 129.026 159.329C128.761 158.687 128.509 158.101 128.286 157.571C127.365 155.477 126.765 154.096 127.449 152.17C128.202 150.048 127.728 148.708 127.239 147.271C126.904 146.308 126.556 145.303 126.653 144.061C126.835 141.465 125.941 136.566 124.923 135.785C124.811 135.701 124.713 135.673 124.602 135.701C124.211 135.827 123.848 135.799 123.541 135.617C122.857 135.199 122.383 133.985 122.006 131.668V131.626L122.215 129.574C122.285 128.918 122.341 128.346 122.397 127.886C122.397 127.816 122.466 127.76 122.522 127.76C122.648 127.76 125.676 127.621 126.849 128.249C127.421 128.556 128.356 127.216 129.123 126.141C129.751 125.248 130.296 124.48 130.742 124.341C131.496 124.104 132.864 123.462 133.52 121.871C133.813 121.159 134.19 121.019 134.483 120.894C134.846 120.754 135.139 120.642 135.278 119.456C135.446 118.033 135.027 117.949 134.483 117.823C134.217 117.767 133.924 117.698 133.687 117.474C133.506 117.307 133.338 117.377 132.975 117.614C132.529 117.893 131.929 118.284 131.091 117.544C130.212 116.763 129.096 117.767 129.04 117.809C128.998 117.837 128.942 117.851 128.9 117.837C128.858 117.823 128.816 117.781 128.802 117.726C128.649 116.818 128.077 114.418 127.407 114.139C127.309 114.097 127.211 114.111 127.1 114.181C127.002 114.25 126.89 114.32 126.793 114.404C126.025 114.948 125.062 115.618 124.309 115.353C123.918 115.213 123.625 114.837 123.443 114.237C123.346 113.929 123.234 113.748 123.066 113.664C122.829 113.539 122.494 113.65 122.173 113.762C121.81 113.888 121.448 114.013 121.168 113.804C120.903 113.608 120.792 113.176 120.806 112.38C120.833 111.431 121.21 110.803 121.517 110.287C121.894 109.645 122.131 109.268 121.559 108.64C121.238 108.291 121.14 108.11 121.224 107.956C121.308 107.789 121.545 107.803 121.88 107.845C122.341 107.886 122.983 107.942 123.262 107.538C123.513 107.175 123.401 106.937 123.276 106.644C123.094 106.212 122.871 105.723 123.75 104.914C124.378 104.342 124.644 103.783 124.476 103.42C124.35 103.141 123.946 103.016 123.443 103.072C122.941 103.127 122.508 102.96 122.173 102.834C121.866 102.709 121.615 102.625 121.448 102.709C121.294 102.792 121.154 103.016 121.043 103.393C120.917 103.825 120.736 104.048 120.485 104.062C119.982 104.09 119.508 103.141 119.312 102.723C118.935 102.974 117.861 103.755 118.056 104.83C118.14 105.277 118.279 105.639 118.391 105.974C118.642 106.672 118.852 107.23 118.224 107.831C117.847 108.179 117.275 108.263 116.716 108.333C115.949 108.431 115.237 108.528 114.986 109.282C114.846 109.715 114.623 109.729 114.497 109.701C113.827 109.533 113.199 106.756 113.562 104.788C113.841 103.309 114.246 102.681 114.553 102.22C114.762 101.899 114.902 101.69 114.916 101.313V101.201C114.958 100.266 115.014 100.057 116.395 98.4241C117.554 97.0703 116.926 96.1911 116.437 95.4933C116.34 95.3537 116.256 95.2281 116.172 95.1025C116.13 95.0188 116.074 94.935 116.005 94.8373C115.572 94.1395 114.902 93.0788 115.572 90.9575C115.991 89.6177 115.572 88.6826 115.014 88.3895C114.539 88.1383 113.981 88.3058 113.506 88.8641C112.767 89.7433 112.39 90.5388 112.125 91.8088C111.929 92.702 112.027 93.6371 112.46 94.949C112.767 95.912 113.074 96.5539 113.395 97.2378C113.576 97.6286 113.758 98.0194 113.967 98.4939C114.274 99.2475 113.869 99.9593 113.451 100.141C113.158 100.266 112.892 100.141 112.767 99.8476C112.641 99.5685 112.655 99.2615 112.655 99.0242C112.655 98.8707 112.655 98.6753 112.613 98.6474C112.599 98.6334 112.502 98.6055 112.125 98.773C111.553 99.0382 111.469 99.5266 111.371 100.057C111.287 100.476 111.218 100.922 110.855 101.187C109.794 101.941 107.938 103.127 107.408 102.541C107.101 102.206 107.505 101.606 108.008 100.839C108.468 100.141 108.985 99.3592 109.068 98.6753C109.138 98.0194 108.957 97.0005 108.775 95.9259C108.552 94.614 108.315 93.2603 108.426 92.1856C108.51 91.3204 108.887 90.6505 109.18 90.1062C109.627 89.2967 109.822 88.878 109.292 88.3895C108.636 87.7894 108.133 87.9848 107.561 88.2081C107.24 88.3337 106.905 88.4593 106.542 88.4454H106.068C104.965 88.4454 104.463 88.4454 104.17 86.9102C104.142 86.7846 104.1 86.6171 103.988 86.5752C103.723 86.4915 103.123 87.0079 102.593 87.4824C101.923 88.0546 101.169 88.7105 100.527 88.7943C100.332 88.8222 100.108 88.8361 99.8433 88.8501C98.2243 88.9757 95.1958 89.213 93.7025 90.9296C92.586 92.2136 90.8694 93.0649 89.3482 93.1207C88.4271 93.1486 87.6734 92.8835 87.1431 92.3392C86.9617 92.1577 85.9987 92.5485 85.2032 93.023C85.1613 93.0509 85.1055 93.0509 85.0636 93.023C85.0217 92.9951 84.9938 92.9393 84.9938 92.8974L85.1474 90.9017V90.8738C85.1474 90.8598 85.58 89.0734 85.6637 88.4872C85.7056 88.1523 86.1382 87.9429 86.6825 87.6917C87.3385 87.3707 88.0921 87.0218 88.2038 86.4217C88.3294 85.682 89.1807 85.361 90.0739 85.0121C90.7159 84.7609 91.3718 84.5097 91.7347 84.105C92.3348 83.4351 95.5168 80.4205 96.731 80.6299C96.9404 80.6578 97.0799 80.7834 97.1637 80.9788C97.5963 82.0255 98.8943 83.8538 99.606 84.0212C99.7177 84.0492 99.7735 84.0212 99.8154 83.9933C99.9968 83.8398 100.527 83.5188 101.197 83.1001C102.607 82.2348 105.244 80.6159 105.342 80.0158L105.37 79.8623C105.523 78.9133 105.844 76.9175 106.584 76.4849C106.752 76.3872 106.947 76.3593 107.128 76.429C107.505 76.5547 107.84 76.7361 108.133 76.8896C108.664 77.1687 108.999 77.3222 109.166 77.1408C109.557 76.7082 110.101 76.1778 110.59 76.1778H110.604C110.799 76.1778 110.966 76.2755 111.092 76.429C111.357 76.764 112.222 76.9873 112.906 77.0013C113.381 77.0152 113.59 76.9315 113.646 76.8756C113.66 76.8617 113.674 76.8477 113.702 76.8338C113.841 76.778 117.079 75.3405 118.321 75.0753C119.089 74.9078 120.331 75.0195 121.517 75.1172C122.718 75.2149 123.946 75.3265 124.364 75.0892C124.965 74.7543 126.039 74.6147 126.918 75.0055C127.588 75.2986 128.035 75.8429 128.216 76.5826C128.328 77.0431 128.551 77.3641 128.858 77.4897C129.458 77.7549 130.226 77.3362 130.24 77.3362C130.282 77.3083 130.338 77.3083 130.38 77.3362C130.407 77.3641 133.743 79.4715 135.711 79.2203C136.813 79.0807 138.083 78.369 139.102 77.7968C140.009 77.2943 140.651 76.9175 141.028 77.0152C141.335 77.085 141.656 77.2943 142.019 77.5037C142.508 77.8107 143.024 78.1317 143.373 77.9921C144.28 77.6572 144.81 77.2804 144.796 77.1269C144.796 77.1129 144.782 77.0013 144.364 76.9036C143.666 76.7361 143.261 76.4151 143.317 76.0941C143.401 75.6615 144.21 75.5219 145.55 75.7033C146.583 75.8429 147.574 76.2197 148.453 76.5547C149.765 77.0571 150.895 77.4758 151.649 76.9594C151.733 76.9036 151.76 76.8617 151.76 76.8338C151.705 76.5267 149.862 76.1499 148.774 75.9266C146.736 75.5079 145.843 75.2846 145.815 74.8799C145.773 74.0286 147.476 71.6141 149.011 71.3908C149.123 71.3769 149.346 71.349 149.667 71.3071C150.463 71.2234 151.774 71.0699 152.919 70.8745C154.845 70.5395 154.943 70.2743 154.956 70.2464C154.956 70.2464 154.943 70.1906 154.803 70.1208C153.491 69.3672 144.447 71.1117 143.303 71.963C143.443 72.2003 143.75 72.8144 143.624 73.3168C143.554 73.5541 143.401 73.7494 143.163 73.8751C142.131 74.3914 140.903 74.5729 139.716 74.3775C139.116 74.2798 138.307 74.838 137.525 75.3684C136.758 75.8987 136.032 76.3872 135.404 76.3732C134.929 76.3593 134.552 76.2895 134.19 76.2197C133.589 76.0941 133.031 75.9824 132.068 76.1499C130.463 76.4151 129.863 76.1499 129.319 75.801C128.733 75.4382 127.742 73.8471 127.965 72.8423C128.035 72.5492 128.23 72.1863 128.844 72.1026C129.877 71.977 130.631 72.0747 131.301 72.1584C131.733 72.2143 132.096 72.2561 132.459 72.2282C133.003 72.1863 134.217 71.5444 134.58 71.0838C134.636 71.014 134.65 70.9722 134.65 70.9582C134.455 70.8605 133.45 70.8745 132.64 70.8745C130.673 70.8884 129.458 70.8605 129.263 70.4558C129.207 70.3441 129.221 70.2046 129.291 70.051C129.751 69.0741 132.724 67.1621 135.013 66.6318C136.492 66.2829 138.921 66.2968 141.056 66.2968C142.731 66.2968 144.168 66.3108 144.754 66.1433C147.183 65.4455 154.663 64.8175 156.394 65.0687C156.52 65.0826 156.673 65.1105 156.841 65.1245C158.906 65.4036 163.414 66.0037 164.489 67.3854C164.74 67.7064 164.963 68.0134 165.186 68.3205C165.982 69.4091 166.666 70.3581 167.796 70.8605C168.675 71.2513 169.597 71.8514 169.541 72.4097C169.513 72.7027 169.234 72.926 168.689 73.0516C167.322 73.3726 165.396 73.6657 164.489 72.5073C164.084 71.991 163.47 72.3817 163.219 72.5632C162.702 72.94 162.381 73.5261 162.507 73.7076C162.842 74.1681 164.921 75.7033 166.261 74.8659C167.936 73.8053 169.345 73.8332 170.225 74.0425C170.783 74.1681 171.02 73.8053 171.313 73.3866C171.536 73.0656 171.76 72.7446 172.137 72.6469C172.276 72.605 172.402 72.6329 172.486 72.7027C172.667 72.8423 172.667 73.1493 172.667 73.4982C172.667 73.8192 172.667 74.1821 172.82 74.3356C172.876 74.3914 172.974 74.4193 173.1 74.4193C173.546 74.4054 174.021 74.3356 174.523 74.2519C175.221 74.1402 175.961 74.0286 176.7 74.0704C177.984 74.1263 181.78 74.4193 183.79 75.0474C182.841 74.0146 183.009 73.8192 183.064 73.7494C183.204 73.582 183.511 73.5401 185.702 75.0055C187.237 76.0383 189.889 77.5316 190.573 77.727C190.475 77.5735 190.266 77.3083 190.084 77.0989C189.373 76.2337 188.842 75.5358 188.968 75.0892C188.996 74.9916 189.066 74.852 189.275 74.7822C189.917 74.545 190.001 73.9727 190.07 73.4982C190.112 73.2052 190.14 72.9679 190.336 72.9121C190.517 72.8423 190.754 72.9679 191.173 73.3866C191.703 73.889 192.206 74.9916 192.736 76.1778C193.434 77.727 194.215 79.4715 195.025 79.5134C195.081 79.5134 195.095 79.4994 195.109 79.4855C195.276 79.2343 194.676 77.8945 194.285 77.0152C193.727 75.7731 193.42 75.0613 193.559 74.7683C193.601 74.6985 193.657 74.6426 193.741 74.6287C194.034 74.5729 194.355 74.3217 194.662 74.0844C195.067 73.7774 195.457 73.4843 195.806 73.582C196.113 73.6657 196.462 73.8053 196.811 73.9309C197.579 74.224 198.444 74.5589 198.765 74.224C198.933 74.0565 199.058 73.7634 199.156 73.4843C199.365 72.9539 199.63 72.298 200.398 72.5911L200.565 72.6469C204.724 74.2658 207.306 75.4661 208.227 76.2476C208.465 76.443 209.162 77.0431 209.428 76.9594C209.595 76.9036 209.679 76.4849 209.763 76.0522C209.804 75.8289 209.972 75.6615 210.237 75.5358C210.279 75.5219 210.335 75.5219 210.377 75.5498C223.133 84.9842 233.698 97.4053 240.941 111.459C244.639 118.633 247.486 126.239 249.412 134.068C251.408 142.107 252.413 150.439 252.413 158.813C252.413 177.486 247.389 195.783 237.884 211.735C237.857 211.777 237.815 211.805 237.759 211.805ZM237.508 186.53C237.689 186.53 237.843 186.586 237.968 186.697C239.001 187.591 238.289 192.001 237.536 196.662C237.047 199.677 236.6 202.51 236.642 204.24C236.712 206.948 237.298 209.53 237.815 211.316C247.179 195.476 252.134 177.319 252.134 158.813C252.134 126.239 236.489 95.2141 210.293 75.7871C210.153 75.8568 210.07 75.9545 210.042 76.0662C209.93 76.6244 209.846 77.071 209.525 77.1827C209.232 77.2804 208.828 77.085 208.046 76.429C207.432 75.9127 205.618 74.8659 200.468 72.8702L200.3 72.8004C199.812 72.605 199.658 72.94 199.421 73.5261C199.295 73.8332 199.17 74.1542 198.96 74.3635C198.5 74.8241 197.593 74.4752 196.714 74.1263C196.365 73.9867 196.03 73.8611 195.737 73.7913C195.513 73.7355 195.178 74.0007 194.843 74.2519C194.508 74.5031 194.173 74.7683 193.825 74.838C193.741 75.0474 194.229 76.1081 194.55 76.8338C195.22 78.2992 195.597 79.2203 195.36 79.5692C195.318 79.639 195.22 79.7227 195.039 79.7088C194.062 79.6529 193.266 77.9084 192.513 76.2057C191.996 75.0613 191.508 73.9727 191.019 73.5122C190.587 73.1075 190.475 73.1075 190.461 73.1075C190.433 73.1354 190.405 73.3447 190.377 73.4703C190.308 73.9588 190.21 74.6845 189.4 74.9776C189.303 75.0055 189.289 75.0613 189.275 75.0892C189.177 75.4382 189.875 76.2895 190.336 76.8477C190.824 77.4479 190.991 77.6572 190.936 77.8247C190.908 77.8805 190.866 77.9363 190.796 77.9503C190.266 78.0619 186.721 75.9266 185.59 75.173C184.013 74.1263 183.511 73.9169 183.343 73.889C183.427 74.1123 183.944 74.7264 184.432 75.2149C184.474 75.2567 184.488 75.3405 184.446 75.3963C184.404 75.4521 184.334 75.4661 184.279 75.4521C182.52 74.6985 177.873 74.3496 176.728 74.3077C176.002 74.2798 175.291 74.3914 174.607 74.4891C174.09 74.5729 173.616 74.6426 173.141 74.6566C172.946 74.6566 172.779 74.6008 172.667 74.4891C172.43 74.2519 172.43 73.8332 172.43 73.4564C172.43 73.2331 172.43 72.94 172.36 72.8842C172.332 72.8702 172.276 72.8702 172.248 72.8842C171.969 72.9539 171.788 73.2331 171.592 73.5122C171.285 73.9588 170.95 74.4473 170.211 74.2798C169.387 74.0844 168.061 74.0565 166.456 75.0753C164.949 76.0383 162.702 74.3775 162.325 73.8471C162.06 73.4843 162.507 72.7586 163.093 72.3259C163.735 71.8374 164.377 71.8374 164.754 72.3259C165.563 73.3587 167.378 73.0795 168.675 72.7725C169.066 72.6748 169.29 72.5353 169.303 72.3817C169.331 72.0607 168.661 71.5304 167.712 71.1117C166.498 70.5814 165.8 69.6044 164.977 68.4879C164.754 68.1809 164.53 67.8739 164.293 67.5668C163.288 66.2689 158.683 65.6548 156.715 65.3897C156.547 65.3617 156.394 65.3478 156.268 65.3338C154.705 65.1105 147.308 65.6688 144.754 66.4085C144.14 66.5899 142.675 66.5759 140.986 66.5759C138.865 66.5759 136.464 66.562 135.013 66.8969C132.696 67.4273 129.877 69.3253 129.472 70.1627C129.444 70.2325 129.431 70.3023 129.444 70.3302C129.584 70.6093 131.524 70.5953 132.571 70.5953C134.287 70.5814 134.734 70.6093 134.846 70.8326C134.887 70.9303 134.873 71.0419 134.804 71.1675C134.497 71.67 133.087 72.4655 132.403 72.5213C132.026 72.5492 131.636 72.5073 131.203 72.4515C130.547 72.3678 129.807 72.284 128.802 72.4097C128.44 72.4515 128.23 72.619 128.174 72.926C127.993 73.7355 128.844 75.2288 129.403 75.5777C129.905 75.8848 130.449 76.136 131.957 75.8848C132.975 75.7173 133.589 75.8429 134.176 75.9545C134.525 76.0243 134.887 76.0941 135.334 76.1081H135.348C135.878 76.1081 136.59 75.6196 137.274 75.1451C138.097 74.5729 138.949 73.9867 139.66 74.1123C140.791 74.2937 141.949 74.1263 142.94 73.6378C143.108 73.5541 143.219 73.4285 143.261 73.261C143.401 72.7586 142.926 72.0468 142.912 72.0328C142.87 71.977 142.884 71.9072 142.926 71.8654C143.373 71.3629 146.192 70.6651 148.62 70.2325C149.835 70.0092 153.868 69.3393 154.845 69.8975C155.068 70.0231 155.166 70.1627 155.124 70.3302C155.026 70.8186 153.477 71.1815 149.611 71.6141C149.318 71.6421 149.081 71.67 148.969 71.6839C147.615 71.8793 145.969 74.1542 146.011 74.8799C146.08 75.1172 147.741 75.4661 148.746 75.6754C150.672 76.0662 151.858 76.3453 151.956 76.7919C151.984 76.9454 151.914 77.071 151.733 77.1966C150.853 77.7968 149.653 77.3502 148.271 76.8198C147.406 76.4849 146.429 76.122 145.424 75.9824C144.029 75.801 143.526 76.0243 143.498 76.1499C143.484 76.2476 143.708 76.4849 144.336 76.6384C144.489 76.6803 144.964 76.7919 144.978 77.1129C145.006 77.5735 143.987 78.034 143.373 78.2573C142.898 78.4387 142.326 78.0898 141.768 77.7409C141.433 77.5316 141.126 77.3502 140.861 77.2804C140.595 77.2106 139.884 77.6153 139.13 78.034C138.097 78.6202 136.799 79.3459 135.641 79.4855C133.715 79.7227 130.701 77.9084 130.198 77.6014C129.975 77.713 129.263 77.9921 128.649 77.727C128.258 77.5455 127.979 77.1827 127.853 76.6244C127.7 75.9824 127.295 75.494 126.709 75.2428C125.914 74.8939 124.923 75.0195 124.406 75.3125C123.918 75.5917 122.745 75.48 121.406 75.3684C120.233 75.2707 119.033 75.159 118.293 75.3265C117.135 75.5777 114.065 76.9175 113.758 77.0571C113.576 77.2385 113.158 77.2664 112.837 77.2525C112.083 77.2385 111.148 76.9873 110.813 76.5686C110.743 76.4709 110.645 76.429 110.534 76.4151C110.241 76.4011 109.794 76.7221 109.306 77.2804C108.999 77.6293 108.51 77.3781 107.938 77.085C107.645 76.9315 107.324 76.764 106.961 76.6384C106.849 76.5965 106.752 76.6105 106.64 76.6663C106.012 77.0431 105.691 79.011 105.551 79.8483L105.523 80.0018C105.412 80.6717 103.444 81.9418 101.253 83.2816C100.625 83.6723 100.081 84.0073 99.9131 84.1468C99.8293 84.2166 99.6898 84.2864 99.4665 84.2306C98.5872 84.0212 97.2474 81.9976 96.8427 81.0207C96.8008 80.923 96.731 80.8671 96.6194 80.8392C95.6424 80.6717 92.7116 83.2955 91.8743 84.2306C91.4695 84.6911 90.7857 84.9563 90.1158 85.2215C89.2924 85.5425 88.5248 85.8495 88.4271 86.4217C88.2875 87.1614 87.4362 87.5661 86.7523 87.9011C86.3336 88.0965 85.9149 88.3058 85.887 88.4872C85.8173 89.0734 85.4125 90.7342 85.3707 90.9017L85.2311 92.6183C85.8033 92.2973 86.9198 91.753 87.2827 92.1159C87.7572 92.5904 88.441 92.8276 89.2784 92.8137C90.7299 92.7718 92.3627 91.9484 93.4234 90.7202C94.9865 88.9199 98.0848 88.6826 99.7595 88.5431C100.025 88.5291 100.248 88.5012 100.443 88.4872C101.002 88.4314 101.727 87.8034 102.355 87.2451C103.067 86.6311 103.625 86.1426 104.03 86.2822C104.212 86.3519 104.337 86.5194 104.393 86.8264C104.644 88.1383 104.937 88.1383 106.012 88.1383H106.486C106.793 88.1383 107.087 88.0267 107.408 87.915C107.994 87.6917 108.65 87.4405 109.431 88.1523C110.143 88.8082 109.794 89.4502 109.375 90.2039C109.082 90.7482 108.733 91.3762 108.65 92.1717C108.538 93.2184 108.789 94.614 108.999 95.8422C109.194 96.9308 109.375 97.9635 109.292 98.6613C109.208 99.4289 108.664 100.238 108.189 100.95C107.826 101.508 107.408 102.136 107.561 102.318C107.812 102.597 109.11 102.011 110.645 100.922C110.925 100.727 110.98 100.378 111.05 99.9732C111.148 99.4289 111.259 98.8149 111.957 98.4939C112.334 98.3264 112.557 98.2845 112.711 98.3822C112.892 98.4939 112.878 98.7311 112.878 98.9963C112.878 99.2196 112.864 99.4848 112.962 99.7081C113.032 99.8755 113.13 99.9174 113.283 99.8616C113.59 99.722 113.897 99.1638 113.66 98.5916C113.465 98.117 113.283 97.7263 113.102 97.3495C112.781 96.6656 112.474 96.0097 112.153 95.0327C111.706 93.679 111.608 92.702 111.818 91.753C112.097 90.4551 112.502 89.5898 113.255 88.6826C113.813 88.0267 114.525 87.8173 115.111 88.1383C115.767 88.5012 116.256 89.5619 115.795 91.0412C115.167 93.037 115.767 94 116.2 94.6838C116.256 94.7815 116.312 94.8652 116.367 94.9629C116.437 95.0746 116.521 95.2002 116.619 95.3258C117.107 96.0236 117.861 97.0843 116.563 98.6055C115.195 100.224 115.195 100.35 115.139 101.215V101.327C115.111 101.774 114.944 102.039 114.735 102.374C114.455 102.806 114.065 103.406 113.786 104.83C113.395 106.896 114.121 109.324 114.511 109.422C114.539 109.436 114.595 109.366 114.665 109.184C114.972 108.277 115.851 108.152 116.619 108.054C117.149 107.984 117.665 107.914 117.972 107.621C118.475 107.161 118.321 106.742 118.07 106.072C117.945 105.737 117.805 105.36 117.721 104.886C117.442 103.393 119.173 102.443 119.242 102.402C119.27 102.388 119.312 102.374 119.354 102.388C119.396 102.402 119.424 102.43 119.438 102.471C119.661 103.002 120.122 103.783 120.387 103.783H120.401C120.512 103.783 120.624 103.602 120.708 103.309C120.847 102.834 121.015 102.569 121.252 102.443C121.545 102.304 121.866 102.43 122.215 102.555C122.55 102.681 122.927 102.834 123.36 102.778C124.002 102.695 124.49 102.89 124.685 103.281C124.909 103.769 124.616 104.425 123.89 105.095C123.164 105.765 123.304 106.114 123.485 106.505C123.625 106.826 123.778 107.175 123.443 107.663C123.066 108.221 122.313 108.138 121.81 108.096C121.685 108.082 121.531 108.068 121.448 108.082C121.475 108.138 121.545 108.235 121.727 108.431C122.438 109.198 122.103 109.757 121.713 110.412C121.406 110.915 121.057 111.501 121.043 112.366C121.029 113.022 121.113 113.427 121.294 113.553C121.461 113.678 121.741 113.567 122.048 113.469C122.411 113.343 122.815 113.204 123.164 113.385C123.401 113.511 123.569 113.748 123.681 114.125C123.834 114.641 124.071 114.962 124.378 115.06C124.992 115.269 125.886 114.641 126.611 114.139C126.723 114.069 126.821 113.985 126.932 113.916C127.114 113.79 127.309 113.762 127.505 113.846C128.342 114.195 128.872 116.609 129.026 117.419C129.431 117.125 130.421 116.567 131.259 117.307C131.943 117.907 132.375 117.628 132.808 117.349C133.129 117.139 133.492 116.916 133.855 117.251C134.036 117.419 134.273 117.474 134.525 117.53C135.222 117.698 135.711 117.921 135.529 119.47C135.39 120.726 135.055 120.936 134.566 121.131C134.273 121.243 134.008 121.354 133.757 121.954C133.059 123.657 131.608 124.327 130.812 124.578C130.449 124.69 129.877 125.499 129.333 126.281C128.426 127.565 127.477 128.905 126.695 128.472C125.718 127.942 123.22 127.983 122.634 128.011C122.592 128.458 122.536 128.988 122.466 129.588L122.257 131.612C122.606 133.803 123.053 134.989 123.667 135.352C123.904 135.492 124.169 135.52 124.49 135.408C124.616 135.366 124.825 135.352 125.062 135.534C126.235 136.441 127.086 141.591 126.904 144.061C126.821 145.247 127.142 146.182 127.477 147.159C127.965 148.569 128.468 150.02 127.686 152.239C127.044 154.068 127.63 155.407 128.523 157.445C128.747 157.961 129.012 158.562 129.277 159.204C130.463 162.19 131.803 169.112 130.561 171.15C129.821 172.35 129.193 175.574 130.38 177.221C131.035 178.128 132.124 178.435 133.631 178.1C137.232 177.319 139.353 177.542 141.81 178.184C142.982 178.491 144.35 178.017 145.662 177.57C147.071 177.081 148.411 176.635 149.583 177.012C150.477 177.305 150.63 177.04 150.909 176.537C151.286 175.867 151.802 174.96 154.161 174.848C155.236 174.793 156.24 174.807 157.12 174.835C159.646 174.89 161.46 174.918 162.842 173.257C163.498 172.476 164.195 172.071 164.81 171.708C165.703 171.192 166.47 170.745 166.931 169.35C166.945 169.308 166.973 169.28 167.015 169.266C169.876 168.373 171.871 166.838 172.137 165.344C171.174 164.451 171.202 163.628 171.229 162.958C171.257 162.26 171.271 161.841 170.169 161.632C168.299 161.269 167.378 160.139 166.945 159.273C166.331 158.045 166.289 156.496 166.805 155.128C165.759 155.882 163.023 157.752 161.404 157.906C160.302 158.017 157.622 158.129 156.366 156.915C155.878 156.44 155.668 155.826 155.724 155.072C155.794 154.082 156.003 153.551 156.157 153.16C156.436 152.463 156.492 152.295 155.012 150.481C153.044 148.052 151.146 144.522 151.663 142.498C151.83 141.828 152.249 141.353 152.891 141.088C154.245 140.53 155.529 140.614 156.52 141.326C157.622 142.121 158.194 143.6 158.083 145.415C157.999 146.852 159.185 148.653 161.348 150.341C163.246 151.821 165.452 152.826 166.261 152.574C167.043 152.337 167.671 152.225 168.173 152.532C168.717 152.867 169.066 153.621 169.359 155.17C169.569 156.273 172.555 157.654 177.538 158.952C181.599 160.013 185.897 160.725 186.874 160.627C188.019 160.501 188.256 161.339 188.591 162.511C188.898 163.586 189.317 165.051 190.643 166.489C192.024 167.982 192.052 168.819 192.08 169.629C192.108 170.41 192.122 171.15 193.601 172.518C195.262 174.067 196.686 172.839 197.621 172.029C198.053 171.652 198.318 171.429 198.542 171.541C198.723 171.625 198.765 171.876 198.709 172.434C198.639 173.216 198.5 174.151 198.346 175.142C197.9 178.1 197.356 181.771 198.067 184.674C198.472 186.362 198.751 188.288 199.016 190.131C199.365 192.573 199.686 194.876 200.286 196.299C200.747 197.402 200.538 198.881 200.342 200.305C200.077 202.203 199.84 203.836 201.249 204.059C203.734 204.45 207.334 199.411 208.2 196.732C208.493 195.839 208.521 194.778 208.562 193.661C208.646 191.526 208.716 189.321 210.572 187.967C211.019 187.646 211.493 187.297 212.01 186.935C214.731 184.995 218.108 182.58 218.89 180.919C219.378 179.873 220.425 179.091 221.43 178.324C222.421 177.57 223.356 176.858 223.775 175.937C224.277 174.807 225.519 174.597 226.622 174.388C227.459 174.234 228.255 174.095 228.548 173.592C229.022 172.783 230.292 171.401 231.032 171.639C231.409 171.764 231.562 172.267 231.465 173.146C231.409 173.676 231.339 174.123 231.269 174.514C231.032 176.063 230.948 176.537 232.274 178.017C233.391 179.273 232.804 181.213 232.302 182.929C231.995 183.934 231.716 184.897 231.786 185.623C231.855 186.362 232.079 186.851 232.483 187.116C233.377 187.716 235.107 187.186 236.935 186.628L237.256 186.53C237.312 186.544 237.41 186.53 237.508 186.53ZM167.447 128.681C167.238 128.681 167.015 128.653 166.791 128.639C166.428 128.597 166.052 128.57 165.717 128.625C164.307 128.877 160.665 126.364 159.436 124.285C158.557 122.792 160.344 121.159 161.641 119.973C162.186 119.47 162.716 118.996 162.8 118.716C163.065 117.851 162.27 115.479 160.944 113.19C160.078 111.696 160.525 109.575 161.432 108.459C161.893 107.9 162.423 107.677 162.898 107.845C163.47 108.04 164.391 107.733 165.452 107.384C166.833 106.923 168.564 106.351 170.364 106.588C171.83 106.784 172.151 107.328 172.178 107.761C172.22 108.626 171.02 109.561 170.225 109.743C169.82 109.84 169.415 109.826 169.038 109.826C168.187 109.826 167.447 109.826 166.917 110.775C166.736 111.11 167.978 113.874 168.717 114.557C169.29 115.074 169.08 116.637 168.899 117.53C169.22 117.237 169.666 117.014 170.127 117.042C170.573 117.084 171.188 117.391 171.523 118.689C171.76 119.624 171.704 120.196 171.327 120.447C170.699 120.88 169.415 120.112 168.717 119.61C168.494 119.456 168.438 119.526 168.41 119.554C168.117 119.875 168.396 121.633 169.08 122.415C169.694 123.113 169.485 123.992 169.262 124.913C169.136 125.443 168.996 125.988 168.996 126.532C168.996 127.425 168.829 128.011 168.48 128.332C168.187 128.625 167.838 128.681 167.447 128.681ZM166.121 128.318C166.359 128.318 166.596 128.346 166.819 128.36C167.391 128.416 167.936 128.472 168.271 128.151C168.564 127.886 168.703 127.369 168.703 126.56C168.703 125.974 168.843 125.415 168.969 124.871C169.192 123.978 169.373 123.21 168.857 122.624C168.131 121.801 167.74 119.889 168.187 119.386C168.285 119.275 168.494 119.149 168.857 119.4C169.694 119.986 170.727 120.517 171.146 120.224C171.397 120.056 171.425 119.54 171.229 118.758C170.992 117.851 170.601 117.363 170.085 117.321C169.513 117.279 168.899 117.795 168.731 118.158C168.703 118.228 168.634 118.256 168.564 118.228C168.494 118.2 168.452 118.13 168.48 118.061C168.675 117.307 169.066 115.241 168.522 114.753C167.852 114.139 166.359 111.194 166.666 110.636C167.28 109.547 168.173 109.547 169.038 109.547C169.415 109.547 169.792 109.547 170.169 109.463C170.936 109.296 171.927 108.417 171.899 107.775C171.871 107.189 171.034 106.951 170.336 106.868C168.592 106.644 166.903 107.203 165.535 107.649C164.377 108.026 163.47 108.333 162.814 108.11C162.325 107.942 161.879 108.375 161.655 108.64C160.79 109.687 160.399 111.71 161.195 113.05C162.381 115.088 163.414 117.726 163.079 118.8C162.967 119.149 162.479 119.596 161.851 120.168C160.623 121.298 158.934 122.834 159.688 124.131C160.93 126.239 164.475 128.57 165.675 128.346C165.814 128.332 165.968 128.318 166.121 128.318ZM146.792 111.599C146.345 111.599 145.829 111.529 145.257 111.348C143.554 110.803 141.963 109.491 140.568 108.333C139.591 107.524 138.739 106.826 138.055 106.561C137.19 106.24 135.809 106.24 134.455 106.254C132.794 106.267 131.245 106.267 130.631 105.667C130.463 105.5 130.254 105.332 130.031 105.165C129.403 104.676 128.677 104.118 128.705 103.309C128.733 102.513 129.486 101.634 131.008 100.615C135.055 97.8937 137.734 96.1073 139.688 97.6286C140.595 98.3403 141.014 98.5916 141.224 98.7032C141.461 98.8428 141.475 98.8707 141.572 99.1219C141.6 99.1917 141.586 99.2754 141.545 99.3312C141.419 99.5127 141.042 99.5266 140.386 99.5266C140.107 99.5266 139.716 99.5266 139.563 99.5685L139.577 99.5825C139.856 99.8337 139.898 100.238 139.926 100.629C139.967 101.006 139.995 101.369 140.233 101.55C140.386 101.676 140.623 101.704 140.958 101.662C142.494 101.453 143.484 101.774 144.433 102.095C144.545 102.136 144.657 102.164 144.754 102.206C146.429 102.737 149.5 104.3 149.109 106.449C148.83 108.012 149.151 108.459 149.43 108.863C149.541 109.031 149.667 109.198 149.737 109.436C149.835 109.771 149.639 110.259 149.22 110.664C148.969 110.929 148.16 111.599 146.792 111.599ZM135.083 105.974C136.255 105.974 137.386 106.016 138.167 106.309C138.879 106.575 139.744 107.3 140.749 108.124C142.131 109.268 143.694 110.552 145.355 111.082C147.518 111.78 148.732 110.803 149.053 110.482C149.444 110.092 149.555 109.715 149.5 109.533C149.444 109.352 149.346 109.212 149.234 109.045C148.927 108.598 148.565 108.096 148.872 106.421C149.304 103.979 144.754 102.513 144.713 102.499C144.601 102.471 144.489 102.43 144.378 102.388C143.415 102.067 142.494 101.774 141.028 101.969C140.609 102.025 140.302 101.969 140.093 101.801C139.772 101.55 139.73 101.118 139.688 100.685C139.646 100.322 139.619 99.9872 139.423 99.8197C139.298 99.7081 139.256 99.5964 139.298 99.4987C139.381 99.2894 139.744 99.2754 140.428 99.2754C140.721 99.2754 141.196 99.2754 141.335 99.2196C141.279 99.0661 141.265 99.0661 141.112 98.9684C140.903 98.8428 140.484 98.5916 139.549 97.8658C137.832 96.526 135.501 97.9775 131.189 100.866C129.765 101.815 129.04 102.653 129.012 103.337C128.984 104.007 129.626 104.495 130.226 104.956C130.463 105.137 130.687 105.305 130.854 105.486C131.37 106.002 132.947 106.002 134.469 105.988C134.664 105.974 134.873 105.974 135.083 105.974ZM146.206 101.871C145.899 101.871 145.606 101.843 145.341 101.801C144.922 101.732 143.75 101.397 143.331 100.671C143.163 100.364 143.149 100.043 143.275 99.7081C143.443 99.3033 144.112 99.0521 145.285 98.9684C146.987 98.8567 149.974 99.1498 150.211 99.5545C150.253 99.6383 150.267 99.722 150.239 99.8058C150.169 100.029 149.89 100.197 149.486 100.406C149.123 100.601 148.718 100.825 148.439 101.132C147.923 101.676 147.029 101.871 146.206 101.871ZM146.192 99.2056C145.55 99.2056 144.936 99.2475 144.433 99.3452C143.791 99.4708 143.596 99.6662 143.54 99.7918C143.443 100.057 143.443 100.294 143.582 100.518C143.903 101.076 144.852 101.425 145.382 101.508C146.387 101.676 147.643 101.55 148.23 100.908C148.537 100.573 148.983 100.322 149.346 100.127C149.625 99.9732 149.932 99.8058 149.974 99.6941C149.974 99.6941 149.974 99.6801 149.96 99.6522C149.779 99.4987 147.909 99.2056 146.192 99.2056Z" fill="#111111"/>
<path d="M76.1316 97.6424C75.0988 99.4986 72.1541 100.908 71.1073 100.95C70.0746 101.006 67.6322 104.802 64.5479 107.035C61.7288 109.059 62.1614 111.194 60.3331 112.673C59.5237 114.697 56.5929 118.647 55.3368 120.963C54.1226 123.224 51.8617 129.337 52.071 130.677C52.2804 132.017 51.8756 133.482 51.1499 139.065C50.4242 144.647 51.5128 146.252 52.9084 146.922C54.304 147.592 53.5783 151.109 54.4576 152.1C55.3368 153.077 56.0067 148.834 58.4351 151.318C60.8635 153.802 59.8865 156.231 60.4029 158.254C60.9193 160.278 63.7664 160.529 63.9757 163.739C64.1851 166.949 61.7567 171.136 61.1845 174.806C60.6123 178.477 65.1201 184.325 64.7014 188.051C64.2827 191.777 65.2178 194.345 65.2876 196.16C65.3574 197.974 64.2967 199.188 63.3198 201.686C62.3289 204.184 67.9393 212.209 67.8695 214.261C67.7997 216.312 72.9496 225.928 77.1923 230.855C81.435 235.781 87.9804 240.219 90.032 240.526C92.0836 240.833 93.5629 236.926 94.0095 235.335C94.4701 233.744 96.6612 236.856 97.8754 235.935C99.0896 235.028 96.8147 231.999 96.8845 230.478C96.9543 228.957 106.5 229.194 108.398 228.733C110.296 228.273 109.989 221.462 108.999 220.248C108.008 219.034 108.245 214.721 108.524 213.102C109.375 208.246 119.228 202.189 128.537 201.589C135.822 201.128 145.606 188.595 146.206 185.637C146.611 183.641 130.324 186.558 128.342 181.408C127.197 178.449 129.5 174.82 124.239 169.405C122.41 167.521 123.667 161.478 121.95 159.762C120.233 158.045 124.532 153.258 122.117 147.522C120.806 144.396 121.755 135.017 122.299 129.895L122.508 127.886C122.536 127.634 122.55 127.425 122.564 127.23C122.801 124.313 117.54 125.429 117.54 125.429C110.269 120.126 107.631 113.008 104.965 116.916C100.22 123.852 98.9221 113.036 96.4519 109.477C92.6139 103.937 98.9919 104.202 99.1594 99.9033C95.3633 99.359 94.1351 95.4513 90.2134 95.8421C85.6079 96.3026 84.5751 95.4652 85.0915 92.8694C85.0775 92.8833 77.1644 95.7862 76.1316 97.6424Z" fill="white"/>
<path d="M90.2413 240.694C90.1576 240.694 90.0739 240.694 89.9901 240.68C87.9246 240.373 81.3233 235.907 77.0667 230.967C72.8519 226.068 67.6322 216.41 67.716 214.289C67.7439 213.479 66.7949 211.581 65.79 209.586C64.2827 206.599 62.5801 203.194 63.1802 201.672C63.5012 200.849 63.8361 200.151 64.1432 199.551C64.7572 198.295 65.1899 197.388 65.148 196.202C65.1201 195.629 65.0085 194.973 64.8829 194.234C64.6177 192.629 64.2688 190.633 64.5619 188.079C64.7572 186.279 63.7664 183.92 62.8034 181.617C61.7985 179.217 60.7518 176.733 61.0449 174.821C61.2821 173.257 61.8683 171.583 62.4266 169.978C63.2081 167.731 63.9478 165.609 63.8361 163.781C63.7245 161.981 62.7615 161.143 61.8264 160.348C61.1426 159.762 60.5006 159.204 60.2773 158.324C60.1098 157.696 60.0959 157.026 60.0819 156.329C60.04 154.765 59.9982 153.133 58.3513 151.458C57.8489 150.941 57.3744 150.69 56.9697 150.704C56.3975 150.732 55.9788 151.262 55.602 151.723C55.3089 152.086 55.0577 152.407 54.7646 152.421C54.625 152.421 54.4855 152.365 54.3738 152.225C53.9551 151.765 53.8853 150.844 53.8016 149.867C53.7039 148.667 53.5923 147.438 52.8665 147.09C51.5267 146.448 50.2707 144.996 51.0243 139.079C51.2616 137.264 51.4569 135.897 51.6244 134.794C51.9594 132.547 52.085 131.612 51.9594 130.733C51.7082 129.281 54.0389 123.085 55.2112 120.908C55.7415 119.931 56.537 118.703 57.3884 117.405C58.5467 115.632 59.733 113.804 60.2075 112.632C60.2215 112.604 60.2354 112.59 60.2494 112.576C61.0309 111.948 61.3938 111.18 61.7846 110.357C62.287 109.296 62.8732 108.082 64.4781 106.923C66.0412 105.793 67.4368 104.258 68.5673 103.016C69.7117 101.746 70.5491 100.839 71.1213 100.811C72.0424 100.769 75.0011 99.429 76.0199 97.5728C77.0667 95.6887 84.7147 92.8695 85.0496 92.7439C85.0915 92.73 85.1473 92.73 85.1892 92.7719C85.2311 92.8137 85.245 92.8556 85.2311 92.9114C85.0078 94.014 85.0915 94.6978 85.4962 95.1444C86.0963 95.8143 87.5478 95.9957 90.1995 95.7166C92.3906 95.4933 93.7444 96.554 95.1679 97.6845C96.3123 98.5916 97.4986 99.5267 99.1873 99.7779C99.2571 99.7918 99.3129 99.8477 99.3129 99.9174C99.2431 101.718 98.1127 102.751 97.1078 103.672C95.6285 105.025 94.3584 106.198 96.5775 109.408C97.2753 110.413 97.8615 111.934 98.4755 113.553C99.4804 116.176 100.527 118.884 102.006 119.051C102.83 119.149 103.793 118.409 104.867 116.846C105.384 116.093 105.914 115.716 106.514 115.674C107.784 115.59 109.166 117.084 111.078 119.177C112.753 121.005 114.846 123.28 117.596 125.304C118.07 125.206 120.945 124.704 122.173 125.778C122.578 126.141 122.773 126.644 122.718 127.258C122.704 127.439 122.676 127.662 122.662 127.914L122.452 129.923C121.964 134.599 120.931 144.34 122.257 147.494C123.653 150.83 122.801 153.886 122.187 156.119C121.741 157.738 121.378 159.008 122.062 159.692C122.941 160.571 123.066 162.469 123.206 164.451C123.332 166.405 123.471 168.415 124.364 169.336C128.007 173.09 128.063 176.035 128.119 178.407C128.146 179.524 128.16 180.473 128.509 181.38C129.696 184.464 136.269 184.59 141.07 184.66C144.112 184.716 145.857 184.771 146.29 185.302C146.373 185.413 146.415 185.553 146.387 185.692C146.094 187.144 143.582 190.982 140.023 194.666C137.581 197.192 132.864 201.477 128.593 201.756C124.253 202.035 119.48 203.543 115.474 205.887C111.636 208.148 109.11 210.856 108.705 213.144C108.384 214.959 108.259 219.076 109.152 220.178C109.934 221.141 110.283 225.426 109.557 227.575C109.306 228.329 108.929 228.775 108.468 228.887C107.84 229.041 106.403 229.11 104.742 229.208C101.699 229.376 97.1078 229.613 97.0659 230.506C97.038 231.078 97.3869 231.93 97.7079 232.739C98.2522 234.065 98.8105 235.446 97.9871 236.061C97.3172 236.563 96.4519 236.019 95.6843 235.558C95.1958 235.251 94.6794 234.944 94.4143 235.042C94.3026 235.084 94.2328 235.195 94.177 235.377C93.9677 235.949 92.5302 240.694 90.2413 240.694ZM56.9976 150.411C57.486 150.411 57.9885 150.69 58.5328 151.248C60.2494 153.007 60.3052 154.765 60.3471 156.315C60.361 156.998 60.3889 157.64 60.5425 158.255C60.7518 159.05 61.3659 159.58 62.0079 160.139C62.9429 160.934 63.9897 161.841 64.1153 163.767C64.2409 165.651 63.4872 167.801 62.6917 170.075C62.1335 171.68 61.5613 173.327 61.324 174.876C61.0449 176.705 62.0637 179.147 63.0685 181.52C64.0455 183.836 65.0503 186.251 64.841 188.107C64.5619 190.619 64.8968 192.601 65.162 194.178C65.2876 194.932 65.3992 195.587 65.4271 196.188C65.483 197.444 65.0085 198.421 64.3944 199.663C64.1013 200.263 63.7664 200.947 63.4454 201.77C62.8871 203.18 64.5619 206.515 66.0412 209.46C67.1159 211.581 68.037 213.424 67.9951 214.303C67.9253 216.34 73.1868 226.04 77.276 230.799C81.4908 235.684 88.0083 240.122 90.018 240.415C91.8184 240.68 93.2698 237.331 93.8421 235.321C93.9258 235.042 94.0514 234.874 94.2468 234.805C94.6515 234.651 95.1679 234.972 95.768 235.335C96.4658 235.754 97.2474 236.242 97.7498 235.851C98.3918 235.363 97.8754 234.093 97.373 232.865C97.0101 231.971 96.6752 231.134 96.7031 230.506C96.7589 229.445 100.025 229.18 104.644 228.943C106.291 228.859 107.715 228.775 108.315 228.636C108.775 228.524 109.054 227.966 109.208 227.505C109.892 225.468 109.571 221.267 108.845 220.374C107.798 219.09 108.063 214.721 108.343 213.117C108.761 210.744 111.343 207.967 115.251 205.664C119.284 203.291 124.113 201.77 128.481 201.491C132.654 201.226 137.316 196.997 139.73 194.485C143.247 190.828 145.731 187.06 146.024 185.651C146.038 185.595 146.024 185.539 145.983 185.497C145.62 185.037 143.359 184.995 140.986 184.953C136.102 184.869 129.417 184.757 128.16 181.492C127.798 180.543 127.77 179.51 127.756 178.421C127.714 175.979 127.658 173.216 124.085 169.545C123.122 168.554 122.983 166.489 122.857 164.493C122.731 162.637 122.606 160.711 121.796 159.901C121.001 159.106 121.378 157.766 121.852 156.063C122.494 153.747 123.304 150.872 121.936 147.62C120.582 144.396 121.615 134.613 122.103 129.923L122.313 127.914C122.341 127.662 122.355 127.453 122.369 127.258C122.41 126.713 122.271 126.309 121.922 126.002C120.722 124.941 117.554 125.597 117.526 125.597C117.484 125.611 117.442 125.597 117.414 125.569C114.609 123.531 112.502 121.229 110.813 119.372C108.957 117.349 107.617 115.883 106.472 115.967C105.97 116.009 105.496 116.344 105.035 117.028C103.891 118.703 102.872 119.456 101.923 119.345C100.276 119.149 99.2012 116.358 98.1685 113.664C97.5544 112.073 96.9683 110.552 96.2984 109.575C93.9397 106.17 95.3633 104.858 96.8706 103.476C97.8475 102.569 98.8663 101.648 98.978 100.043C97.2753 99.7639 96.103 98.8289 94.9446 97.9217C93.5629 96.8331 92.265 95.8004 90.1855 96.0097C87.3943 96.2888 85.9149 96.0934 85.245 95.3398C84.8124 94.8653 84.6868 94.1675 84.8682 93.1068C83.5563 93.5953 77.1225 96.0934 76.2293 97.7124C75.1965 99.5685 72.2378 101.034 71.0934 101.09C70.6468 101.118 69.7536 102.081 68.7348 103.211C67.6043 104.453 66.1808 106.016 64.6037 107.147C63.0546 108.263 62.5103 109.394 61.9939 110.482C61.6031 111.32 61.2263 112.101 60.4169 112.771C59.9284 113.971 58.7421 115.786 57.5977 117.558C56.7464 118.856 55.9509 120.084 55.4345 121.047C54.1924 123.364 51.9873 129.379 52.1827 130.677C52.3222 131.598 52.1827 132.547 51.8477 134.822C51.6802 135.925 51.4849 137.292 51.2476 139.107C50.5079 144.843 51.6802 146.224 52.9224 146.824C53.7876 147.243 53.8993 148.555 54.0109 149.839C54.0947 150.774 54.1645 151.639 54.5134 152.044C54.6111 152.156 54.6669 152.142 54.6948 152.142C54.8623 152.142 55.0995 151.835 55.3228 151.556C55.7136 151.067 56.1881 150.467 56.8859 150.425C56.9557 150.411 56.9836 150.411 56.9976 150.411Z" fill="#111111"/>
<path d="M109.222 74.4194C110.017 74.6287 111.315 74.6706 111.999 74.8102C113.144 75.0474 114.735 75.6615 116.032 74.8102C117.33 73.9588 118.21 74.0286 117.763 72.8284C117.316 71.6281 121.545 70.8326 122.131 69.6184C122.718 68.4042 124.909 68.809 125.006 67.9158C125.09 67.0226 119.27 68.6834 117.428 68.809C115.586 68.9485 112.222 68.7671 111.469 69.9255C110.701 71.0978 108.999 71.9491 110.213 71.991C111.427 72.0329 114.428 71.0001 114.832 71.3211C115.237 71.6421 115.056 72.3539 113.576 72.619C112.097 72.8842 108.287 74.1821 109.222 74.4194Z" fill="white"/>
<path d="M114.455 75.3965C113.786 75.3965 113.13 75.229 112.543 75.0894C112.348 75.0336 112.153 74.9917 111.971 74.9499C111.678 74.894 111.273 74.8382 110.841 74.7963C110.255 74.7405 109.655 74.6707 109.194 74.5451C108.971 74.4893 108.943 74.3637 108.943 74.2939C108.943 74.1823 108.957 73.9171 110.799 73.2751C111.762 72.9262 112.906 72.6052 113.562 72.4936C114.442 72.34 114.818 72.0191 114.874 71.7678C114.902 71.6422 114.86 71.5306 114.749 71.4468C114.581 71.3212 113.492 71.5725 112.683 71.7539C111.762 71.9632 110.799 72.1726 110.213 72.1586C110.003 72.1447 109.738 72.1167 109.668 71.9353C109.585 71.6981 109.85 71.4468 110.297 71.0421C110.645 70.7211 111.064 70.3304 111.357 69.8838C111.999 68.8929 114.302 68.8231 116.158 68.7533C116.619 68.7393 117.051 68.7254 117.428 68.6975C118.056 68.6556 119.159 68.4183 120.331 68.1811C122.927 67.6508 124.657 67.3298 125.062 67.6926C125.132 67.7624 125.174 67.8461 125.16 67.9578C125.104 68.4881 124.518 68.6277 123.904 68.7952C123.276 68.9487 122.564 69.1441 122.285 69.7163C122.006 70.3024 121.015 70.763 119.982 71.2375C118.88 71.7399 117.721 72.2703 117.931 72.8146C118.307 73.8194 117.805 74.0706 117.065 74.4474C116.8 74.587 116.479 74.7405 116.144 74.9638C115.586 75.2848 115.028 75.3965 114.455 75.3965ZM109.25 74.28C109.25 74.2939 109.25 74.2939 109.25 74.28C109.696 74.3916 110.297 74.4614 110.869 74.5172C111.315 74.5591 111.734 74.6149 112.027 74.6707C112.209 74.7126 112.404 74.7545 112.599 74.8103C113.632 75.0615 114.902 75.3825 115.949 74.6987C116.298 74.4614 116.619 74.3079 116.898 74.1683C117.637 73.7915 117.917 73.6519 117.624 72.8843C117.33 72.1028 118.545 71.5445 119.829 70.9584C120.778 70.5257 121.769 70.0791 122.006 69.5767C122.341 68.8789 123.122 68.6835 123.806 68.5021C124.35 68.3625 124.825 68.2369 124.853 67.9159C124.853 67.902 124.853 67.902 124.839 67.888C124.518 67.5949 122.103 68.0834 120.359 68.4463C119.187 68.6835 118.07 68.9208 117.428 68.9626C117.051 68.9905 116.619 69.0045 116.144 69.0185C114.358 69.0743 112.139 69.1441 111.567 70.0233C111.259 70.4839 110.827 70.9026 110.464 71.2235C110.241 71.4329 109.934 71.712 109.906 71.8237C109.934 71.8376 110.003 71.8655 110.185 71.8655C110.729 71.8795 111.678 71.6701 112.585 71.4748C113.883 71.1817 114.637 71.0282 114.888 71.2235C115.083 71.3771 115.167 71.6004 115.111 71.8376C115 72.2703 114.442 72.6192 113.576 72.7727C112.209 73.0239 109.599 73.945 109.25 74.28Z" fill="#111111"/>
<path d="M121.308 233.2C117.303 233.535 115.739 232.962 115.544 237.038C115.446 239.033 112.906 239.829 112.837 242.062C112.767 244.295 118.419 246.067 119.661 245.481C120.903 244.895 119.536 243.806 122.941 242.425C126.36 241.043 128.914 233.465 127.937 231.371C126.946 229.264 125.355 232.865 121.308 233.2Z" fill="white"/>
<path d="M118.963 245.732C117.707 245.732 115.586 245.076 114.232 244.197C113.213 243.527 112.683 242.788 112.697 242.062C112.739 240.862 113.451 240.066 114.134 239.299C114.763 238.601 115.363 237.945 115.404 237.024C115.586 233.395 116.898 233.311 119.773 233.158C120.219 233.13 120.736 233.102 121.294 233.06C123.206 232.907 124.574 231.999 125.565 231.33C126.332 230.827 126.877 230.45 127.379 230.59C127.658 230.66 127.881 230.897 128.063 231.302C128.551 232.334 128.23 234.637 127.295 237.038C126.193 239.843 124.588 241.908 123.011 242.55C120.931 243.388 120.694 244.1 120.499 244.658C120.373 245.021 120.261 245.356 119.745 245.593C119.55 245.691 119.284 245.732 118.963 245.732ZM121.322 233.339C120.764 233.381 120.247 233.409 119.801 233.437C116.926 233.604 115.865 233.66 115.698 237.038C115.642 238.056 115 238.782 114.358 239.48C113.702 240.206 113.018 240.959 112.99 242.062C112.962 242.843 113.744 243.527 114.4 243.946C116.13 245.076 118.852 245.704 119.619 245.342C120.038 245.146 120.122 244.895 120.233 244.56C120.429 243.974 120.708 243.164 122.913 242.271C124.42 241.657 125.969 239.661 127.044 236.912C127.951 234.609 128.272 232.348 127.826 231.399C127.672 231.078 127.505 230.897 127.323 230.841C126.96 230.743 126.416 231.092 125.746 231.539C124.699 232.251 123.304 233.172 121.322 233.339Z" fill="#111111"/>
<path d="M167.95 260.33C162.158 260.33 150.937 258.237 136.939 254.469C110.506 247.365 82.2584 236.535 73.9545 230.338C73.8986 230.297 73.8847 230.199 73.9266 230.143C73.9684 230.087 74.0661 230.073 74.1219 230.115C82.398 236.298 110.604 247.114 137.009 254.204C154.398 258.879 167.475 260.986 171.104 259.688C171.174 259.66 171.257 259.702 171.285 259.772C171.313 259.842 171.271 259.926 171.202 259.954C170.476 260.205 169.373 260.33 167.95 260.33ZM211.27 237.093C201.305 237.093 182.004 233.506 157.664 226.961C111.957 214.666 63.0826 195.95 48.7355 185.218C48.6797 185.176 48.6658 185.078 48.7076 185.022C48.7495 184.967 48.8472 184.953 48.903 184.995C63.2221 195.699 112.041 214.4 157.734 226.682C174.188 231.106 188.577 234.246 199.351 235.781C209.665 237.247 216.294 237.135 217.997 235.474C218.053 235.418 218.136 235.418 218.192 235.474C218.248 235.53 218.248 235.614 218.192 235.67C217.215 236.633 214.843 237.093 211.27 237.093Z" fill="#111111"/>
<path d="M108.44 254.162C108.426 254.162 108.412 254.162 108.385 254.148C93.4793 248.454 82.4957 234.553 77.4854 215.029C72.4332 195.336 73.8289 171.304 81.435 147.341C85.6358 134.068 91.4835 121.494 98.8105 109.938C105.886 98.7731 114.023 89.0456 123.011 81.0068C131.998 72.9819 141.391 67.0366 150.909 63.3661C160.776 59.57 170.35 58.3697 179.366 59.8351C179.436 59.8491 179.492 59.9189 179.478 59.9887C179.464 60.0584 179.394 60.1143 179.324 60.1003C161.558 57.2393 141.628 64.7477 123.192 81.2301C104.756 97.7263 90.0181 121.243 81.7002 147.438C74.1219 171.346 72.7124 195.322 77.7506 214.973C82.7329 234.414 93.6467 248.244 108.468 253.897C108.538 253.925 108.58 254.008 108.552 254.078C108.538 254.134 108.496 254.162 108.44 254.162Z" fill="#111111"/>
<path d="M114.609 256.562H114.567C113.465 256.227 112.529 255.362 111.818 253.994C109.264 249.123 109.222 238.098 111.706 222.104C114.246 205.817 119.173 185.874 125.969 164.437C134.287 138.199 144.406 112.883 154.468 93.1346C164.544 73.3586 173.365 61.5376 179.31 59.835C179.38 59.8071 179.464 59.8629 179.478 59.9327C179.492 60.0025 179.45 60.0862 179.38 60.1001C167.238 63.5752 143.387 110.412 126.235 164.521C119.438 185.944 114.511 205.873 111.971 222.132C109.529 237.833 109.557 249.096 112.055 253.841C112.739 255.139 113.604 255.962 114.651 256.283C114.721 256.311 114.762 256.381 114.749 256.45C114.721 256.52 114.665 256.562 114.609 256.562Z" fill="#111111"/>
<path d="M124.35 259.046C123.471 259.046 122.606 258.949 121.755 258.767C121.685 258.753 121.629 258.669 121.643 258.6C121.657 258.53 121.741 258.474 121.81 258.488C129.793 260.246 139.828 253.422 150.03 239.256C160.372 224.923 170.197 203.975 177.705 180.305C194.871 126.197 195.555 72.2559 179.254 60.0582C179.198 60.0163 179.185 59.9186 179.226 59.8628C179.268 59.807 179.366 59.793 179.422 59.8349C183.455 62.8494 186.526 68.3761 188.563 76.2614C190.531 83.8536 191.452 93.3299 191.313 104.397C191.033 127.146 186.288 154.137 177.97 180.389C170.448 204.087 160.609 225.049 150.253 239.424C141.056 252.208 131.971 259.046 124.35 259.046Z" fill="#111111"/>
<path d="M239.141 192.099C235.4 192.099 230.99 191.666 226.971 191.136C214.187 189.461 196.714 185.693 176.449 180.236C122.983 165.861 65.8459 143.963 49.0565 131.417C49.0007 131.375 48.9867 131.277 49.0286 131.221C49.0705 131.166 49.1682 131.152 49.224 131.194C65.9854 143.712 123.08 165.596 176.519 179.957C196.769 185.4 214.229 189.168 226.999 190.842C239.252 192.447 246.523 192.015 247.444 189.6C247.472 189.531 247.556 189.489 247.626 189.517C247.696 189.545 247.738 189.628 247.71 189.698C247.04 191.484 243.565 192.099 239.141 192.099ZM242.071 137.795C231.911 137.795 212.233 134.138 187.447 127.481C140.875 114.962 91.1067 95.8842 76.4805 84.9565C76.4247 84.9146 76.4108 84.8169 76.4526 84.7611C76.4945 84.7053 76.5922 84.6913 76.648 84.7332C91.2462 95.647 140.972 114.697 187.516 127.202C204.208 131.696 218.82 134.892 229.776 136.455C240.271 137.948 247.054 137.865 248.868 136.19C249.273 135.813 249.426 135.38 249.343 134.836C249.329 134.766 249.384 134.683 249.454 134.669C249.524 134.655 249.608 134.71 249.622 134.78C249.733 135.408 249.538 135.939 249.063 136.385C248.045 137.334 245.644 137.795 242.071 137.795ZM220.034 90.2459C214.019 90.2459 202.408 88.0967 187.74 84.147C160.19 76.7502 130.756 65.4596 122.103 58.9979C122.048 58.956 122.034 58.8583 122.076 58.8025C122.117 58.7467 122.215 58.7327 122.271 58.7746C130.896 65.2224 160.288 76.4851 187.809 83.8819C207.474 89.1713 222.058 91.2926 224.082 89.1573C224.305 88.9201 224.361 88.6409 224.249 88.306C224.221 88.2362 224.263 88.1525 224.333 88.1246C224.403 88.0967 224.486 88.1385 224.514 88.2083C224.654 88.6549 224.584 89.0317 224.277 89.3388C223.705 89.9528 222.253 90.2459 220.034 90.2459Z" fill="#111111"/>
<path d="M141.196 261.712C137.511 261.712 133.827 261.377 130.198 260.693C130.128 260.679 130.072 260.61 130.086 260.526C130.1 260.442 130.17 260.4 130.254 260.414C167.908 267.462 206.232 237.917 221.374 190.158C229.692 163.949 229.888 135.966 221.932 111.403C213.977 86.8404 198.835 68.6276 179.282 60.1003C179.212 60.0724 179.184 59.9886 179.212 59.9189C179.24 59.8491 179.324 59.8212 179.394 59.8491C189.317 64.1755 198.109 70.9722 205.548 80.0577C212.721 88.8222 218.332 99.3452 222.212 111.32C226.091 123.294 228.045 136.12 228.031 149.448C228.017 163.237 225.868 176.97 221.653 190.242C217.899 202.105 212.652 213.019 206.092 222.677C199.756 232.013 192.345 239.954 184.069 246.249C170.741 256.395 155.85 261.712 141.196 261.712Z" fill="#111111"/>
</g>
<g clip-path="url(#clip1_999_29003)">
<path d="M203.908 118.153C204.054 120.847 203.03 122.463 202.582 123.033C202.384 123.286 202.384 123.286 191.066 134.51C194.351 130.728 189.92 124.282 185.481 123.126C183.464 122.55 181.72 122.938 180.637 124.012L185.918 118.775C187.858 116.851 189.711 114.839 191.738 113.002C195.715 109.384 203.742 111.52 203.908 118.153Z" fill="#069D6E"/>
<path d="M191.066 134.65C191.04 134.65 191.013 134.642 190.991 134.628C190.968 134.613 190.95 134.593 190.939 134.568C190.928 134.544 190.924 134.517 190.928 134.49C190.932 134.464 190.943 134.439 190.961 134.419C192.371 132.795 192.178 130.877 191.768 129.554C190.875 126.673 188.157 123.967 185.446 123.261C183.543 122.717 181.828 123.028 180.735 124.111C180.722 124.124 180.707 124.135 180.69 124.142C180.673 124.15 180.654 124.153 180.636 124.153C180.617 124.153 180.599 124.15 180.582 124.143C180.564 124.136 180.549 124.125 180.536 124.112C180.523 124.099 180.513 124.083 180.506 124.066C180.499 124.049 180.495 124.03 180.495 124.012C180.496 123.993 180.5 123.975 180.507 123.958C180.514 123.941 180.525 123.926 180.538 123.913L185.819 118.675C186.465 118.035 187.113 117.373 187.739 116.733C188.993 115.451 190.29 114.126 191.644 112.899C193.693 111.034 196.941 110.58 199.725 111.769C202.398 112.911 203.974 115.234 204.048 118.144V118.145C204.196 120.887 203.149 122.537 202.692 123.119C202.488 123.379 202.488 123.379 191.165 134.609C191.152 134.622 191.136 134.632 191.12 134.639C191.103 134.646 191.085 134.65 191.066 134.65ZM183.673 122.719C184.26 122.719 184.88 122.809 185.519 122.992C188.313 123.719 191.115 126.505 192.035 129.472C192.375 130.569 192.571 132.057 191.905 133.482C202.279 123.193 202.285 123.186 202.472 122.947C202.91 122.39 203.911 120.809 203.769 118.165C203.769 118.162 203.769 118.159 203.769 118.156C203.698 115.358 202.184 113.123 199.615 112.026C196.929 110.88 193.802 111.313 191.832 113.106C190.484 114.328 189.189 115.65 187.938 116.929C187.311 117.569 186.663 118.232 186.016 118.874L181.765 123.09C182.337 122.844 182.982 122.719 183.673 122.719Z" fill="#111111"/>
<path d="M185.907 135.381C182.387 134.338 179.739 131.145 179.469 127.615C179.453 127.106 179.444 126.799 179.536 126.215C179.974 123.606 182.411 122.249 185.481 123.126C189.002 124.131 192.021 127.693 192.226 131.082C192.376 133.56 190.978 135.259 188.84 135.6C188.467 135.65 187.331 135.802 185.907 135.381Z" fill="white"/>
<path d="M187.879 135.808C187.343 135.808 186.648 135.745 185.867 135.514C182.293 134.456 179.604 131.212 179.33 127.626C179.313 127.102 179.304 126.79 179.398 126.194C179.603 124.973 180.224 124.004 181.195 123.391C182.345 122.665 183.88 122.524 185.519 122.992C189.087 124.01 192.158 127.636 192.365 131.073C192.515 133.544 191.139 135.374 188.862 135.738C188.536 135.784 188.208 135.807 187.879 135.808ZM185.947 135.247C187.343 135.66 188.456 135.51 188.821 135.461C190.943 135.123 192.227 133.407 192.087 131.09C191.886 127.762 188.905 124.249 185.443 123.26C183.881 122.815 182.426 122.945 181.345 123.627C180.443 124.197 179.865 125.1 179.674 126.239C179.584 126.808 179.593 127.11 179.609 127.611C179.874 131.077 182.481 134.22 185.947 135.247Z" fill="#111111"/>
<path d="M185.894 134.183C183.062 133.345 180.933 130.776 180.715 127.937C180.703 127.528 180.695 127.281 180.769 126.811C181.121 124.713 183.082 123.621 185.551 124.326C188.383 125.135 190.812 128 190.977 130.726C191.097 132.719 189.973 134.085 188.253 134.36C187.953 134.4 187.039 134.523 185.894 134.183Z" fill="#111111"/>
<path d="M187.48 134.554C187.047 134.554 186.485 134.504 185.854 134.317C182.968 133.463 180.798 130.844 180.576 127.948C180.563 127.524 180.555 127.272 180.631 126.79C180.797 125.799 181.301 125.014 182.089 124.516C183.021 123.929 184.264 123.813 185.59 124.192C188.469 125.014 190.948 127.942 191.116 130.717C191.237 132.719 190.122 134.203 188.275 134.498C188.131 134.517 187.853 134.554 187.48 134.554ZM185.933 134.049C187.05 134.38 187.941 134.261 188.234 134.221C189.926 133.951 190.949 132.582 190.837 130.734C190.676 128.067 188.287 125.253 185.513 124.461C184.264 124.104 183.102 124.208 182.239 124.752C181.52 125.206 181.059 125.926 180.907 126.834C180.835 127.29 180.843 127.532 180.855 127.933C181.068 130.709 183.156 133.227 185.933 134.049Z" fill="#111111"/>
<path d="M201.641 136.709C200.304 134.961 174.901 101.743 174.125 98.7273C173.344 95.7107 179 91.0281 179.297 90.7817L216.864 121.451L201.641 136.709Z" fill="#B6F1CF"/>
<path d="M201.641 136.849C201.638 136.849 201.635 136.849 201.632 136.849C201.612 136.847 201.592 136.842 201.575 136.832C201.557 136.823 201.542 136.81 201.53 136.794L201.641 136.709L201.529 136.793C198.79 133.211 174.751 101.719 173.99 98.762C173.209 95.7468 178.592 91.1843 179.208 90.674C179.233 90.6533 179.264 90.6419 179.297 90.6418C179.329 90.6417 179.361 90.6529 179.386 90.6734L216.952 121.342C216.967 121.355 216.98 121.37 216.989 121.387C216.997 121.405 217.003 121.424 217.004 121.443C217.005 121.463 217.001 121.482 216.994 121.501C216.987 121.519 216.976 121.535 216.963 121.549L201.74 136.808C201.727 136.821 201.711 136.831 201.694 136.838C201.677 136.845 201.659 136.849 201.641 136.849ZM179.298 90.9626C178.393 91.7238 173.551 95.9519 174.26 98.6922C174.48 99.5443 177.003 103.604 187.78 118.103C193.924 126.371 200.217 134.616 201.655 136.497L216.656 121.461L179.298 90.9626Z" fill="#111111"/>
<path d="M201.641 136.709L202.036 140.971C200.699 139.222 175.297 106.004 174.52 102.989C174.489 102.869 174.468 102.747 174.457 102.624L174.062 98.363C174.073 98.4869 174.094 98.6084 174.125 98.7276C174.901 101.743 200.304 134.961 201.641 136.709Z" fill="#069D6E"/>
<path d="M202.036 141.11C202.015 141.11 201.993 141.105 201.974 141.096C201.955 141.086 201.938 141.072 201.925 141.055C199.187 137.474 175.147 105.982 174.385 103.023C174.352 102.896 174.33 102.767 174.318 102.637L173.923 98.3756C173.92 98.3391 173.932 98.3031 173.955 98.2752C173.979 98.2473 174.013 98.2298 174.049 98.2264C174.086 98.223 174.122 98.2341 174.15 98.2571C174.179 98.2802 174.197 98.3134 174.201 98.3497C174.212 98.4675 174.232 98.5825 174.26 98.692C174.48 99.5443 177.003 103.603 187.78 118.103C194.073 126.571 200.522 135.016 201.751 136.623C201.767 136.644 201.777 136.67 201.78 136.696L202.175 140.957C202.177 140.977 202.175 140.996 202.169 141.015C202.162 141.033 202.152 141.05 202.139 141.064C202.126 141.079 202.11 141.09 202.093 141.098C202.075 141.106 202.056 141.11 202.036 141.11ZM174.305 99.4735L174.596 102.611C174.607 102.729 174.627 102.844 174.655 102.953C174.875 103.806 177.399 107.866 188.18 122.371C194.08 130.31 200.104 138.211 201.852 140.5L201.505 136.762C198.809 133.235 177.255 104.994 174.305 99.4735Z" fill="#111111"/>
<path d="M216.864 121.45L217.259 125.712L202.036 140.97L201.641 136.709L216.864 121.45Z" fill="white"/>
<path d="M202.036 141.11C202.001 141.11 201.968 141.097 201.942 141.074C201.916 141.05 201.9 141.018 201.897 140.983L201.502 136.722C201.5 136.702 201.502 136.681 201.509 136.662C201.516 136.642 201.527 136.625 201.542 136.611L216.765 121.352C216.784 121.333 216.807 121.32 216.833 121.314C216.859 121.308 216.886 121.31 216.911 121.319C216.936 121.328 216.958 121.344 216.974 121.365C216.991 121.386 217 121.411 217.003 121.438L217.398 125.699C217.4 125.719 217.397 125.74 217.39 125.759C217.383 125.778 217.372 125.796 217.358 125.81L202.135 141.069C202.122 141.082 202.107 141.092 202.09 141.099C202.073 141.106 202.055 141.11 202.036 141.11ZM201.786 136.761L202.148 140.661L217.114 125.659L216.752 121.76L201.786 136.761Z" fill="#111111"/>
<path d="M246.902 90.3814L238.362 75.4796L242.361 71.5142L261.447 80.8363L246.902 90.3814Z" fill="#B6F1CF"/>
<path d="M246.902 90.5211C246.878 90.5212 246.853 90.5147 246.832 90.5023C246.811 90.49 246.793 90.4723 246.781 90.4509L238.241 75.5489C238.226 75.5222 238.22 75.4912 238.224 75.4608C238.228 75.4303 238.242 75.402 238.264 75.3804L242.262 71.415C242.283 71.3946 242.309 71.3811 242.338 71.3764C242.366 71.3717 242.396 71.376 242.422 71.3887L261.508 80.7109C261.531 80.7217 261.549 80.7382 261.563 80.7587C261.577 80.7792 261.585 80.8029 261.586 80.8275C261.588 80.8521 261.583 80.8766 261.572 80.8987C261.561 80.9207 261.544 80.9395 261.524 80.953L246.979 90.4982C246.956 90.5132 246.929 90.5212 246.902 90.5211ZM238.537 75.5031L246.95 90.1833L261.166 80.8541L242.389 71.6833L238.537 75.5031Z" fill="#111111"/>
<path d="M246.902 90.3815L247.068 92.5067L238.528 77.6048L238.362 75.4797L246.902 90.3815Z" fill="#069D6E"/>
<path d="M247.068 92.6464C247.019 92.6464 246.972 92.6204 246.947 92.5761L238.407 77.6742C238.397 77.6563 238.391 77.6363 238.389 77.6156L238.223 75.4905C238.221 75.4588 238.229 75.4271 238.247 75.4008C238.264 75.3744 238.291 75.3549 238.321 75.3455C238.352 75.3362 238.384 75.3375 238.414 75.3492C238.443 75.361 238.468 75.3825 238.484 75.4102L247.023 90.3121C247.034 90.33 247.04 90.35 247.042 90.3706L247.208 92.4958C247.209 92.515 247.207 92.5343 247.2 92.5525C247.194 92.5707 247.184 92.5874 247.171 92.6016C247.158 92.6157 247.142 92.627 247.124 92.6347C247.107 92.6424 247.087 92.6464 247.068 92.6464ZM238.665 77.5627L246.881 91.8983L246.765 90.4237L238.55 76.0881L238.665 77.5627Z" fill="#111111"/>
<path d="M261.447 80.8364L261.613 82.9614L247.068 92.5066L246.902 90.3815L261.447 80.8364Z" fill="white"/>
<path d="M247.068 92.6463C247.033 92.6462 246.999 92.6329 246.973 92.6091C246.948 92.5852 246.932 92.5525 246.929 92.5175L246.763 90.3924C246.761 90.3674 246.766 90.3425 246.777 90.32C246.788 90.2976 246.805 90.2785 246.826 90.2647L261.371 80.7195C261.391 80.7062 261.414 80.6983 261.439 80.6968C261.463 80.6953 261.487 80.7001 261.509 80.7109C261.553 80.7326 261.583 80.7762 261.587 80.8254L261.753 82.9505C261.757 83.0012 261.733 83.0501 261.69 83.0782L247.145 92.6234C247.122 92.6383 247.095 92.6463 247.068 92.6463ZM247.048 90.453L247.189 92.2603L261.467 82.8901L261.326 81.0828L247.048 90.453Z" fill="#111111"/>
<path d="M253.513 83.4999C252.604 84.1928 251.358 85.1417 250.03 86.4462C233.449 102.734 217.024 119.178 200.523 135.547C200.193 135.848 199.91 136.141 199.689 136.409C196.362 140.461 190.517 148.21 190.887 154.507C190.942 155.439 191.277 158.313 194.451 159.254C199.378 160.714 208.068 155.626 214.012 150.825C214.239 150.645 214.478 150.419 214.719 150.158C265.131 100.16 265.134 100.157 265.719 99.469C270.831 93.4672 276.166 83.4829 275.96 78.1862C275.65 70.1808 258.817 79.4587 253.513 83.4999Z" fill="#B6F1CF"/>
<path d="M196.347 159.646C195.655 159.646 195.006 159.564 194.411 159.388C191.421 158.501 190.833 155.954 190.748 154.515C190.477 149.909 193.449 143.787 199.581 136.32C199.811 136.043 200.096 135.748 200.429 135.443C205.811 130.104 211.279 124.664 216.568 119.402C227.48 108.545 238.763 97.3178 249.933 86.3465C251.267 85.036 252.516 84.0841 253.428 83.3891L253.513 83.4998L253.429 83.3888C257.581 80.2252 269.919 73.1701 274.413 75.2869C275.478 75.7883 276.045 76.7619 276.1 78.1808C276.307 83.5102 270.955 93.5378 265.826 99.5596C265.235 100.253 265.235 100.253 214.817 150.258C214.571 150.524 214.328 150.753 214.099 150.935C208.843 155.179 201.44 159.646 196.347 159.646ZM272.322 75.1711C270.631 75.1711 268.016 75.7375 263.978 77.5664C259.832 79.4446 255.691 82.0163 253.598 83.611L253.598 83.6113C252.691 84.3018 251.45 85.2476 250.128 86.5458C238.96 97.5166 227.677 108.743 216.765 119.6C211.476 124.862 206.008 130.302 200.622 135.646C200.294 135.945 200.018 136.231 199.797 136.498C193.711 143.908 190.76 149.965 191.027 154.499C191.107 155.865 191.664 158.282 194.49 159.12C196.678 159.768 199.893 159.126 203.789 157.261C207.003 155.724 210.602 153.4 213.924 150.716C214.143 150.543 214.375 150.324 214.616 150.064C265.03 100.063 265.03 100.063 265.613 99.3786C270.707 93.3967 276.025 83.4558 275.821 78.1915C275.77 76.8853 275.256 75.9931 274.294 75.5396C273.844 75.3277 273.21 75.1711 272.322 75.1711Z" fill="#111111"/>
<path d="M196.589 140.435C197.959 139.329 200.31 138.969 202.635 139.632C205.564 140.469 208.218 142.715 209.749 145.374C208.057 146.849 206.061 148.544 204.01 150.187C202.769 148.033 200.62 146.213 198.247 145.536C196.364 144.998 194.271 145.096 193.161 145.991C194.125 143.93 195.459 142.126 196.589 140.435Z" fill="#111111"/>
<path d="M204.01 150.326C203.985 150.326 203.961 150.32 203.94 150.308C203.918 150.295 203.901 150.278 203.888 150.256C202.628 148.068 200.451 146.31 198.208 145.67C196.253 145.111 194.26 145.284 193.249 146.099C193.224 146.119 193.194 146.13 193.162 146.13C193.13 146.131 193.1 146.12 193.075 146.101C193.05 146.081 193.032 146.054 193.025 146.023C193.018 145.993 193.021 145.96 193.034 145.932C193.819 144.253 194.831 142.77 195.809 141.336C196.035 141.005 196.258 140.679 196.473 140.357C196.48 140.345 196.49 140.335 196.501 140.326C197.942 139.164 200.365 138.839 202.673 139.498C205.517 140.31 208.275 142.535 209.87 145.304C209.886 145.332 209.892 145.365 209.887 145.397C209.882 145.429 209.865 145.458 209.841 145.479C207.816 147.245 205.884 148.865 204.097 150.296C204.072 150.315 204.041 150.326 204.01 150.326ZM195.967 145.068C196.708 145.068 197.5 145.177 198.285 145.401C200.547 146.047 202.741 147.793 204.048 149.976C205.771 148.594 207.628 147.037 209.57 145.344C208.002 142.682 205.339 140.55 202.596 139.766C200.382 139.134 198.068 139.434 196.693 140.53C196.481 140.847 196.263 141.167 196.04 141.493C195.158 142.787 194.248 144.12 193.508 145.596C194.154 145.248 195.018 145.068 195.967 145.068ZM223.148 128.779C222.74 129.25 222.761 129.924 223.211 130.839C223.481 131.388 224.15 132.221 224.795 132.124C225.834 131.967 225.975 129.789 224.72 128.849C224.169 128.436 223.523 128.408 223.148 128.779Z" fill="#111111"/>
<path d="M224.69 132.272C224.011 132.272 223.368 131.473 223.086 130.901C222.608 129.93 222.593 129.206 223.043 128.688C223.045 128.685 223.047 128.683 223.05 128.68C223.475 128.259 224.196 128.282 224.803 128.737C225.652 129.373 225.892 130.516 225.691 131.316C225.555 131.854 225.237 132.199 224.816 132.262C224.775 132.269 224.732 132.272 224.69 132.272ZM223.25 128.875C222.887 129.299 222.915 129.921 223.337 130.778C223.608 131.329 224.233 132.069 224.775 131.986C225.078 131.94 225.313 131.671 225.42 131.248C225.594 130.555 225.379 129.518 224.636 128.961C224.144 128.592 223.575 128.557 223.25 128.875ZM225.906 126.044C224.9 127.192 226.403 129.473 227.407 129.431C228.491 129.385 228.866 127.197 227.676 126.16C227.103 125.661 226.342 125.611 225.906 126.044Z" fill="#111111"/>
<path d="M227.378 129.571C226.742 129.571 226.064 128.851 225.717 128.125C225.314 127.284 225.345 126.472 225.801 125.952L225.807 125.945C226.296 125.46 227.139 125.507 227.767 126.055C228.558 126.744 228.695 127.896 228.421 128.677C228.228 129.226 227.861 129.552 227.413 129.57C227.401 129.571 227.39 129.571 227.378 129.571ZM226.008 126.14C225.631 126.573 225.617 127.27 225.969 128.005C226.323 128.745 226.95 129.308 227.401 129.291C227.729 129.277 228.004 129.02 228.157 128.584C228.4 127.892 228.281 126.873 227.584 126.265C227.068 125.817 226.392 125.763 226.008 126.14ZM228.846 123.128C227.771 124.345 229.276 126.624 230.32 126.541C231.457 126.451 231.891 124.239 230.664 123.196C230.086 122.703 229.304 122.674 228.846 123.128Z" fill="#111111"/>
<path d="M230.263 126.683C229.638 126.683 228.979 126.017 228.637 125.333C228.202 124.462 228.241 123.603 228.742 123.035L228.748 123.029C229.258 122.523 230.121 122.549 230.755 123.089C231.562 123.776 231.668 124.898 231.424 125.65C231.228 126.257 230.819 126.642 230.331 126.68C230.309 126.682 230.286 126.683 230.263 126.683ZM228.948 123.224C228.528 123.703 228.505 124.444 228.887 125.208C229.245 125.925 229.858 126.439 230.309 126.402C230.681 126.373 230.998 126.059 231.158 125.564C231.374 124.898 231.283 123.906 230.574 123.302C230.052 122.858 229.354 122.825 228.948 123.224ZM231.922 120.077C230.8 121.342 232.306 123.62 233.378 123.509C234.531 123.39 235.003 121.137 233.776 120.11C233.193 119.621 232.396 119.607 231.922 120.077Z" fill="#111111"/>
<path d="M233.302 123.652C232.743 123.652 232.095 123.137 231.697 122.362C231.241 121.473 231.286 120.584 231.818 119.984L231.824 119.978C232.349 119.457 233.227 119.468 233.866 120.002C234.654 120.663 234.766 121.744 234.527 122.523C234.327 123.174 233.903 123.595 233.392 123.648C233.362 123.651 233.332 123.652 233.302 123.652ZM232.024 120.173C231.574 120.683 231.545 121.453 231.946 122.234C232.302 122.928 232.913 123.415 233.364 123.37C233.759 123.329 234.094 122.982 234.26 122.442C234.472 121.751 234.376 120.795 233.686 120.217C233.16 119.776 232.446 119.758 232.024 120.173ZM235.09 116.936C233.937 118.231 235.443 120.508 236.533 120.379C237.726 120.238 238.224 117.997 236.963 116.949C236.378 116.463 235.573 116.457 235.09 116.936Z" fill="#111111"/>
<path d="M236.445 120.524C235.888 120.524 235.248 120.025 234.853 119.269C234.384 118.37 234.434 117.463 234.985 116.843C234.987 116.84 234.989 116.838 234.991 116.836C235.526 116.307 236.412 116.309 237.052 116.841C237.841 117.496 237.964 118.563 237.737 119.33C237.536 120.01 237.092 120.454 236.55 120.518C236.515 120.522 236.48 120.524 236.445 120.524ZM235.191 117.032C234.722 117.562 234.688 118.349 235.101 119.14C235.462 119.832 236.059 120.295 236.517 120.24C236.938 120.191 237.303 119.812 237.469 119.251C237.67 118.572 237.564 117.63 236.873 117.056C236.345 116.617 235.623 116.607 235.191 117.032ZM238.301 113.75C237.137 115.058 238.643 117.334 239.741 117.198C240.931 117.05 241.434 114.802 240.178 113.76C239.593 113.274 238.786 113.27 238.301 113.75Z" fill="#111111"/>
<path d="M239.647 117.343C239.091 117.343 238.454 116.851 238.061 116.102C237.586 115.2 237.637 114.286 238.197 113.657L238.203 113.651C238.739 113.12 239.627 113.12 240.267 113.652C241.049 114.301 241.172 115.365 240.947 116.132C240.749 116.808 240.294 117.27 239.758 117.337C239.721 117.341 239.684 117.343 239.647 117.343ZM238.403 113.846C237.926 114.384 237.891 115.179 238.308 115.973C238.669 116.659 239.263 117.116 239.724 117.059C240.147 117.007 240.513 116.622 240.679 116.054C240.878 115.374 240.772 114.435 240.089 113.867C239.56 113.429 238.836 113.42 238.403 113.846ZM241.51 110.568C240.355 111.867 241.861 114.143 242.954 114.011C244.135 113.869 244.628 111.631 243.377 110.587C242.794 110.099 241.991 110.091 241.51 110.568Z" fill="#111111"/>
<path d="M242.863 114.156C242.307 114.156 241.667 113.659 241.273 112.906C240.802 112.006 240.852 111.098 241.406 110.475C241.408 110.473 241.41 110.471 241.412 110.469C241.944 109.941 242.828 109.946 243.467 110.48C244.251 111.135 244.372 112.202 244.145 112.97C243.945 113.645 243.506 114.086 242.97 114.15C242.935 114.154 242.899 114.156 242.863 114.156ZM241.612 110.664C241.141 111.196 241.107 111.986 241.521 112.776C241.882 113.467 242.478 113.928 242.937 113.873C243.358 113.822 243.71 113.455 243.877 112.89C244.079 112.211 243.974 111.268 243.288 110.694C242.761 110.254 242.041 110.242 241.612 110.664ZM244.672 107.432C243.541 108.706 245.048 110.983 246.126 110.866C247.287 110.739 247.752 108.528 246.512 107.478C245.933 106.986 245.142 106.966 244.672 107.432Z" fill="#111111"/>
<path d="M246.045 111.009C245.487 111.009 244.842 110.499 244.445 109.731C243.984 108.839 244.03 107.945 244.567 107.339L244.573 107.333C245.095 106.816 245.967 106.832 246.603 107.371C247.396 108.044 247.514 109.12 247.278 109.887C247.081 110.531 246.656 110.948 246.141 111.004C246.109 111.008 246.077 111.009 246.045 111.009ZM244.773 107.528C244.318 108.044 244.288 108.819 244.693 109.603C245.049 110.292 245.658 110.776 246.111 110.726C246.511 110.683 246.848 110.339 247.011 109.805C247.22 109.125 247.119 108.174 246.422 107.584C245.899 107.141 245.192 107.117 244.773 107.528ZM247.74 104.389C246.654 105.619 248.161 107.895 249.212 107.805C250.347 107.707 250.769 105.538 249.539 104.475C248.965 103.979 248.192 103.942 247.74 104.389Z" fill="#111111"/>
<path d="M249.149 107.947C248.526 107.947 247.869 107.29 247.528 106.614C247.087 105.738 247.127 104.872 247.635 104.297L247.641 104.29C248.146 103.791 249.001 103.825 249.631 104.369C250.44 105.069 250.549 106.185 250.309 106.925C250.116 107.521 249.71 107.902 249.224 107.944C249.199 107.946 249.174 107.947 249.149 107.947ZM247.841 104.485C247.415 104.972 247.391 105.72 247.778 106.488C248.136 107.198 248.745 107.703 249.2 107.665C249.571 107.633 249.886 107.325 250.043 106.839C250.256 106.183 250.16 105.197 249.448 104.581C248.931 104.134 248.241 104.093 247.841 104.485ZM250.666 101.487C249.646 102.652 251.152 104.929 252.165 104.876C253.265 104.819 253.628 102.71 252.411 101.627C251.845 101.123 251.094 101.062 250.666 101.487Z" fill="#111111"/>
<path d="M252.129 105.016C251.496 105.016 250.822 104.311 250.475 103.596C250.064 102.749 250.096 101.926 250.561 101.395L250.568 101.388C251.049 100.911 251.882 100.969 252.504 101.523C253.342 102.268 253.446 103.396 253.188 104.129C252.999 104.668 252.628 104.992 252.172 105.015C252.158 105.016 252.143 105.016 252.129 105.016ZM250.768 101.583C250.382 102.027 250.367 102.733 250.727 103.474C251.082 104.205 251.713 104.76 252.158 104.736C252.495 104.719 252.775 104.463 252.925 104.036C253.159 103.368 253.027 102.361 252.318 101.731C251.809 101.278 251.144 101.215 250.768 101.583Z" fill="#111111"/>
<path d="M256.565 138.881C256.71 141.575 255.686 143.191 255.238 143.761C255.04 144.014 255.04 144.014 243.722 155.238C247.008 151.456 242.576 145.01 238.137 143.854C236.12 143.278 234.376 143.666 233.293 144.74L238.574 139.503C240.514 137.579 242.367 135.567 244.394 133.73C248.371 130.112 256.398 132.248 256.565 138.881Z" fill="#069D6E"/>
<path d="M243.722 155.378C243.696 155.378 243.669 155.371 243.647 155.356C243.624 155.342 243.606 155.321 243.595 155.297C243.584 155.272 243.58 155.245 243.584 155.219C243.588 155.192 243.599 155.167 243.617 155.147C245.027 153.523 244.834 151.605 244.424 150.282C243.531 147.401 240.813 144.696 238.102 143.989C236.199 143.446 234.484 143.756 233.391 144.84C233.378 144.853 233.363 144.863 233.346 144.871C233.329 144.878 233.31 144.882 233.292 144.882C233.273 144.882 233.255 144.878 233.238 144.871C233.221 144.864 233.205 144.854 233.192 144.84C233.179 144.827 233.169 144.812 233.162 144.794C233.155 144.777 233.151 144.759 233.151 144.74C233.152 144.722 233.156 144.703 233.163 144.686C233.17 144.669 233.181 144.654 233.194 144.641L233.197 144.638L238.475 139.404C239.121 138.763 239.769 138.101 240.395 137.462C241.649 136.18 242.946 134.854 244.3 133.627C246.349 131.763 249.597 131.309 252.381 132.498C255.055 133.639 256.631 135.964 256.704 138.875C256.852 141.616 255.805 143.265 255.348 143.847C255.145 144.107 255.145 144.107 243.821 155.338C243.795 155.364 243.759 155.378 243.722 155.378ZM236.33 143.447C236.916 143.447 237.536 143.537 238.176 143.72C240.969 144.447 243.772 147.234 244.691 150.2C245.031 151.297 245.228 152.785 244.561 154.21C254.935 143.921 254.941 143.914 255.128 143.675C255.566 143.118 256.568 141.536 256.425 138.889L256.425 138.886V138.883C256.354 136.086 254.84 133.852 252.271 132.755C249.586 131.608 246.458 132.042 244.488 133.834C243.14 135.056 241.846 136.378 240.595 137.657C239.968 138.297 239.319 138.96 238.672 139.602L234.421 143.818C234.993 143.572 235.638 143.447 236.33 143.447Z" fill="#111111"/>
<path d="M238.563 156.109C235.043 155.066 232.395 151.873 232.125 148.343C232.11 147.835 232.1 147.527 232.192 146.944C232.63 144.335 235.067 142.977 238.137 143.854C241.658 144.86 244.678 148.422 244.882 151.81C245.032 154.288 243.635 155.987 241.496 156.328C241.123 156.378 239.987 156.53 238.563 156.109Z" fill="white"/>
<path d="M240.535 156.536C239.999 156.536 239.304 156.474 238.524 156.243C234.949 155.184 232.26 151.94 231.986 148.354C231.97 147.831 231.96 147.519 232.054 146.922C232.259 145.701 232.88 144.732 233.851 144.119C235.001 143.394 236.536 143.252 238.176 143.72C241.743 144.739 244.814 148.364 245.022 151.802C245.171 154.272 243.796 156.103 241.518 156.466C241.192 156.512 240.864 156.536 240.535 156.536ZM238.603 155.975C239.999 156.388 241.112 156.239 241.477 156.189C243.599 155.851 244.883 154.135 244.743 151.818C244.542 148.49 241.561 144.977 238.099 143.989C236.538 143.543 235.082 143.673 234.001 144.355C233.099 144.925 232.521 145.828 232.33 146.967C232.24 147.536 232.249 147.839 232.265 148.339C232.53 151.806 235.137 154.948 238.603 155.975Z" fill="#111111"/>
<path d="M238.55 154.912C235.718 154.073 233.589 151.505 233.371 148.665C233.359 148.256 233.351 148.009 233.425 147.54C233.777 145.441 235.738 144.349 238.207 145.055C241.039 145.863 243.468 148.728 243.633 151.454C243.753 153.447 242.629 154.814 240.909 155.088C240.609 155.128 239.695 155.251 238.55 154.912Z" fill="#111111"/>
<path d="M240.136 155.283C239.703 155.283 239.141 155.232 238.51 155.046C235.624 154.191 233.454 151.572 233.232 148.676C233.219 148.252 233.211 148.001 233.287 147.518C233.453 146.528 233.957 145.742 234.746 145.245C235.677 144.657 236.92 144.542 238.246 144.92C241.125 145.743 243.605 148.67 243.772 151.446C243.893 153.447 242.778 154.931 240.931 155.226C240.668 155.263 240.402 155.282 240.136 155.283ZM238.59 154.778C239.706 155.108 240.597 154.989 240.89 154.95C242.582 154.68 243.605 153.311 243.493 151.462C243.332 148.796 240.944 145.982 238.169 145.189C236.921 144.833 235.758 144.936 234.895 145.481C234.176 145.935 233.715 146.655 233.563 147.563C233.491 148.018 233.499 148.26 233.511 148.661C233.724 151.438 235.812 153.955 238.59 154.778Z" fill="#111111"/>
<path d="M219.024 141.121L234.247 125.862L305.465 122.801C305.25 123.068 301.165 128.149 295.896 129.631C290.632 131.114 222.605 140.62 219.024 141.121Z" fill="#B6F1CF"/>
<path d="M219.024 141.261C218.997 141.261 218.97 141.253 218.947 141.237C218.924 141.222 218.906 141.2 218.895 141.175C218.885 141.149 218.882 141.121 218.887 141.094C218.893 141.067 218.906 141.042 218.925 141.023L234.148 125.764C234.173 125.739 234.206 125.725 234.241 125.723L305.459 122.662C305.486 122.661 305.512 122.667 305.535 122.681C305.559 122.695 305.577 122.715 305.589 122.738C305.602 122.762 305.606 122.789 305.604 122.816C305.601 122.843 305.591 122.868 305.574 122.889C305.131 123.44 301.097 128.314 295.934 129.766C290.807 131.21 226.374 140.235 219.043 141.259C219.037 141.26 219.031 141.261 219.024 141.261ZM234.308 126L219.417 140.925C228.456 139.661 290.834 130.912 295.859 129.497C300.487 128.195 304.203 124.086 305.157 122.954L234.308 126Z" fill="#111111"/>
<path d="M305.465 122.801L305.86 127.062C305.645 127.33 301.56 132.411 296.292 133.892C291.027 135.375 223 144.882 219.42 145.382L219.024 141.121C222.605 140.62 290.632 131.114 295.896 129.631C301.165 128.149 305.25 123.068 305.465 122.801Z" fill="#069D6E"/>
<path d="M219.42 145.522C219.385 145.522 219.351 145.509 219.325 145.486C219.3 145.462 219.284 145.43 219.28 145.395L218.885 141.134C218.882 141.098 218.892 141.062 218.915 141.034C218.937 141.006 218.969 140.988 219.005 140.983C226.333 139.958 290.749 130.936 295.859 129.497C300.938 128.068 304.919 123.257 305.356 122.714C305.373 122.692 305.397 122.676 305.424 122.668C305.45 122.659 305.479 122.659 305.505 122.667C305.532 122.675 305.555 122.691 305.573 122.713C305.591 122.734 305.601 122.76 305.604 122.788L305.999 127.049C306.003 127.085 305.992 127.121 305.969 127.15C305.526 127.701 301.494 132.574 296.329 134.027C291.202 135.471 226.769 144.496 219.439 145.52C219.432 145.521 219.426 145.522 219.42 145.522ZM219.176 141.241L219.545 145.224C227.536 144.107 291.176 135.188 296.254 133.758C301.219 132.362 305.132 127.737 305.716 127.019L305.357 123.151C304.366 124.322 300.614 128.449 295.934 129.766C290.836 131.201 227.111 140.132 219.176 141.241Z" fill="#111111"/>
<path d="M297.01 86.218L297.176 88.343L293.182 92.3096L293.016 90.1844L297.01 86.218Z" fill="#069D6E"/>
<path d="M293.182 92.4491C293.147 92.4491 293.113 92.4358 293.087 92.4119C293.061 92.3881 293.045 92.3553 293.043 92.3203L292.877 90.1953C292.875 90.1751 292.878 90.1548 292.885 90.1358C292.892 90.1169 292.903 90.0996 292.918 90.0854L296.912 86.119C296.931 86.1002 296.955 86.0872 296.981 86.0815C297.007 86.0759 297.034 86.0778 297.059 86.0871C297.084 86.0964 297.106 86.1126 297.122 86.1339C297.138 86.1552 297.147 86.1807 297.15 86.2072L297.315 88.3324C297.317 88.3526 297.314 88.3729 297.307 88.3919C297.3 88.4108 297.289 88.4281 297.275 88.4423L293.281 92.4087C293.254 92.4345 293.219 92.449 293.182 92.4491ZM293.16 90.2379L293.298 91.9975L297.032 88.2895L296.894 86.5297L293.16 90.2379Z" fill="#111111"/>
<path d="M264.479 95.1106L271.232 83.4778L297.01 86.218L293.016 90.1844L264.479 95.1106Z" fill="#B6F1CF"/>
<path d="M264.479 95.2503C264.454 95.2503 264.43 95.2439 264.409 95.2316C264.388 95.2193 264.37 95.2017 264.358 95.1804C264.346 95.1591 264.339 95.135 264.339 95.1104C264.339 95.0858 264.346 95.0617 264.358 95.0405L271.111 83.4076C271.139 83.3598 271.193 83.3338 271.247 83.3387L297.025 86.079C297.051 86.0818 297.076 86.092 297.097 86.1084C297.118 86.1248 297.133 86.1467 297.142 86.1716C297.151 86.1965 297.152 86.2234 297.146 86.2491C297.14 86.2748 297.127 86.2984 297.109 86.317L293.114 90.2833C293.094 90.3035 293.068 90.317 293.04 90.3219L264.503 95.248C264.495 95.2495 264.487 95.2503 264.479 95.2503ZM271.307 83.6263L264.75 94.9222L292.949 90.0544L296.703 86.3259L271.307 83.6263Z" fill="#111111"/>
<path d="M293.016 90.1843L293.182 92.3095L264.645 97.2356L264.479 95.1105L293.016 90.1843Z" fill="#069D6E"/>
<path d="M264.645 97.3755C264.61 97.3754 264.576 97.3621 264.55 97.3383C264.524 97.3144 264.508 97.2818 264.506 97.2468L264.34 95.1216C264.337 95.0869 264.347 95.0525 264.369 95.025C264.39 94.9976 264.421 94.9791 264.455 94.9731L292.992 90.047C293.011 90.0437 293.031 90.0444 293.05 90.0491C293.069 90.0538 293.086 90.0624 293.102 90.0743C293.117 90.0863 293.13 90.1013 293.139 90.1184C293.148 90.1355 293.154 90.1544 293.155 90.1738L293.321 92.2988C293.324 92.3335 293.314 92.3679 293.292 92.3954C293.271 92.4229 293.24 92.4414 293.206 92.4473L264.669 97.3734C264.661 97.3748 264.653 97.3755 264.645 97.3755ZM264.628 95.2268L264.772 97.0722L293.033 92.1936L292.889 90.3484L264.628 95.2268Z" fill="#111111"/>
<path d="M263.298 55.8194L261.099 55.3066L267.364 49.2727L269.563 49.7856L263.298 55.8194Z" fill="white"/>
<path d="M263.298 55.959C263.288 55.959 263.277 55.9577 263.267 55.9554L261.068 55.4425C261.043 55.4368 261.021 55.4246 261.002 55.4072C260.984 55.3898 260.971 55.3678 260.965 55.3436C260.958 55.3194 260.958 55.2938 260.965 55.2696C260.971 55.2453 260.984 55.2233 261.002 55.2059L267.267 49.1721C267.284 49.1559 267.304 49.1442 267.327 49.138C267.349 49.1319 267.373 49.1314 267.396 49.1367L269.595 49.6496C269.619 49.6553 269.642 49.6675 269.66 49.6849C269.678 49.7023 269.691 49.7243 269.698 49.7485C269.705 49.7727 269.705 49.7983 269.698 49.8225C269.691 49.8467 269.678 49.8687 269.66 49.8862L263.395 55.92C263.369 55.9453 263.334 55.959 263.298 55.959ZM261.381 55.2287L263.256 55.666L269.281 49.8631L267.406 49.4258L261.381 55.2287Z" fill="#111111"/>
<path d="M263.298 55.8195L269.563 49.7856L267.578 77.8489L252.412 92.4557L263.298 55.8195Z" fill="#B6F1CF"/>
<path d="M252.412 92.5957C252.39 92.5957 252.368 92.5906 252.349 92.5809C252.329 92.5711 252.313 92.5569 252.3 92.5395C252.287 92.5221 252.278 92.5019 252.274 92.4805C252.27 92.4591 252.271 92.4371 252.278 92.4162L263.164 55.78C263.171 55.7569 263.184 55.7359 263.201 55.7191L269.466 49.6853C269.486 49.6657 269.512 49.6528 269.54 49.6481C269.568 49.6435 269.596 49.6474 269.622 49.6594C269.648 49.6713 269.669 49.6907 269.683 49.715C269.698 49.7394 269.704 49.7675 269.702 49.7956L267.717 77.8588C267.714 77.8933 267.699 77.9257 267.674 77.9496L252.509 92.5566C252.482 92.5817 252.448 92.5958 252.412 92.5957ZM263.422 55.8948L252.697 91.9876L267.442 77.7859L269.398 50.1389L263.422 55.8948Z" fill="#111111"/>
<path d="M252.412 92.4557L250.212 91.9427L261.099 55.3066L263.298 55.8195L252.412 92.4557Z" fill="white"/>
<path d="M252.412 92.5954C252.401 92.5954 252.39 92.5942 252.38 92.5917L250.181 92.0789C250.162 92.0746 250.145 92.0665 250.129 92.0552C250.114 92.0439 250.101 92.0295 250.092 92.0131C250.082 91.9966 250.076 91.9784 250.074 91.9595C250.071 91.9406 250.073 91.9214 250.078 91.9032L260.965 55.267C260.975 55.2328 260.998 55.2037 261.029 55.1858C261.06 55.1679 261.096 55.1625 261.131 55.1707L263.33 55.6836C263.348 55.6879 263.366 55.696 263.381 55.7073C263.397 55.7186 263.409 55.7329 263.419 55.7494C263.429 55.7658 263.435 55.7841 263.437 55.803C263.439 55.8219 263.438 55.841 263.432 55.8593L252.546 92.4955C252.537 92.5243 252.519 92.5496 252.495 92.5676C252.471 92.5856 252.442 92.5953 252.412 92.5954ZM250.389 91.8405L252.315 92.2898L263.122 55.9219L261.196 55.4725L250.389 91.8405Z" fill="#111111"/>
</g>
<g clip-path="url(#clip2_999_29003)">
<path d="M64.8041 58.8249L61.0222 64.1787C61.9601 62.8619 63.2819 61.8705 64.8131 61.3503C69.2814 59.7775 74.5697 62.1762 76.625 66.6857C77.9305 69.5757 77.6053 72.6255 76.0247 74.8637L79.7947 69.5252C81.3753 67.287 81.7124 64.222 80.395 61.3472C78.3532 56.8361 73.0514 54.439 68.5831 56.0118C67.0654 56.5304 65.7419 57.5081 64.8041 58.8249Z" fill="#111111"/>
<path d="M76.0415 74.9996C76.0821 74.9945 76.1075 74.9776 76.1313 74.9471L79.9013 69.6086C81.5752 67.2346 81.8107 64.1269 80.512 61.2912C78.4347 56.7154 73.0617 54.2995 68.5257 55.8807C66.9691 56.4178 65.6337 57.4109 64.6721 58.7582L60.9021 64.0967C60.8547 64.1578 60.8783 64.2377 60.9392 64.2854C61.0001 64.3331 61.0797 64.3095 61.1271 64.2484C62.0531 62.9469 63.3376 61.9877 64.8553 61.4692C69.2592 59.9319 74.4866 62.283 76.4929 66.7294C77.7393 69.4749 77.5191 72.4841 75.9046 74.7817C75.8571 74.8428 75.8807 74.9227 75.9416 74.9705C75.9737 75.0079 76.0144 75.0029 76.0415 74.9996ZM70.3765 55.7214C74.3322 55.2335 78.5201 57.5195 80.2765 61.3893C81.5229 64.1348 81.3027 67.144 79.6882 69.4416L77.1019 73.1154C77.8424 71.0913 77.7367 68.7849 76.7555 66.628C74.6782 62.0523 69.3053 59.6363 64.7692 61.2175C63.8579 61.5232 63.0362 61.9973 62.3109 62.5838L64.9107 58.9083C65.8367 57.6068 67.1212 56.6476 68.6253 56.1307C69.2063 55.9348 69.7939 55.7933 70.3765 55.7214Z" fill="#111111"/>
<path d="M50.2238 56.468L53.9938 51.1295C50.1288 56.5901 49.3312 64.0608 52.5248 71.1081C57.5289 82.1291 86.7049 98.4519 88.2413 99.3116L84.4712 104.65C82.9349 103.79 53.7436 87.4557 48.7548 76.4466C45.5476 69.4009 46.3605 61.9422 50.2238 56.468Z" fill="url(#paint0_linear_999_29003)"/>
<path d="M84.4897 104.8C84.5304 104.795 84.5558 104.778 84.5795 104.747L88.3495 99.4086C88.3733 99.378 88.3818 99.3356 88.3768 99.2948C88.3717 99.254 88.3413 99.2301 88.3108 99.2063C85.1653 97.4544 57.4938 81.733 52.6434 71.0658C49.5663 64.294 50.1099 56.8822 54.0902 51.2417L54.1021 51.2265C54.1495 51.1654 54.1259 51.0854 54.065 51.0377C54.0041 50.99 53.9245 51.0137 53.877 51.0747L53.8652 51.09L50.0952 56.4285C46.0572 62.1589 45.4999 69.6828 48.6159 76.5465C53.5001 87.2647 81.2579 103.017 84.4051 104.782C84.4339 104.793 84.4626 104.803 84.4897 104.8ZM88.0414 99.3637L84.424 104.49C80.8183 102.464 53.6562 86.9693 48.8734 76.4042C45.7963 69.6324 46.3382 62.2071 50.332 56.5649L52.2518 53.8431C49.7518 59.1077 49.7547 65.3752 52.3961 71.1791C57.211 81.7817 84.3172 97.2691 88.0414 99.3637Z" fill="#111111"/>
<path d="M63.2514 44.2303C52.3364 48.0617 47.5343 60.0852 52.5248 71.1079C57.5153 82.1305 86.7049 98.4516 88.2413 99.3113C88.6833 97.7658 97.0797 68.2764 92.0757 57.2554C87.0716 46.2344 74.1665 40.3988 63.2514 44.2303ZM76.0039 72.3534C71.5356 73.9262 66.2473 71.5274 64.1919 67.018C62.1366 62.5085 64.1131 57.5708 68.5831 56.0116C73.0531 54.4524 78.3397 56.8375 80.3951 61.347C82.4504 65.8564 80.4858 70.7789 76.0039 72.3534Z" fill="#B6F1CF"/>
<path d="M88.258 99.4477L88.2987 99.4426C88.3376 99.424 88.3614 99.3935 88.3834 99.3494C89.2845 96.1733 97.0801 67.9454 92.2061 57.1983C87.1818 46.1245 74.1751 40.2462 63.2075 44.098C58.0396 45.9089 54.0396 49.6053 51.9513 54.5292C49.7341 59.7452 49.8983 65.6476 52.3943 71.1657C57.2819 81.9111 85.0279 97.6786 88.1734 99.4305C88.2038 99.4543 88.2309 99.451 88.258 99.4477ZM67.5851 43.3509C77.3255 42.1494 87.6336 47.7807 91.9588 57.3116C96.7196 67.8104 89.2517 95.2386 88.1619 99.1144C84.3785 96.9856 57.4194 81.5766 52.6417 71.0524C50.1675 65.6006 50.0117 59.7661 52.1984 54.6368C54.2561 49.7995 58.1934 46.1523 63.2817 44.3649C64.691 43.8597 66.1356 43.5297 67.5851 43.3509ZM74.2559 72.9007C74.8655 72.8255 75.4532 72.684 76.0477 72.4864L76.0613 72.4847C78.1972 71.738 79.8514 70.2086 80.7139 68.1694C81.6307 66.0131 81.5624 63.5641 80.5255 61.2898C78.4482 56.714 73.0752 54.2981 68.5392 55.8793C66.4033 56.6259 64.749 58.1553 63.8865 60.1945C62.9697 62.3509 63.038 64.7999 64.075 67.0742C65.8854 71.0478 70.1782 73.4037 74.2559 72.9007ZM75.9735 72.2194C71.5577 73.7719 66.3422 71.4056 64.3223 66.9608C63.3208 64.7512 63.2491 62.3855 64.1471 60.3004C64.9774 58.3343 66.5825 56.8523 68.6405 56.1429C73.0444 54.6056 78.2718 56.9567 80.2781 61.4031C81.2796 63.6128 81.3514 65.9785 80.4668 68.0618C79.635 70.0144 78.0298 71.4964 75.9735 72.2194Z" fill="#111111"/>
</g>
<defs>
<linearGradient id="paint0_linear_999_29003" x1="50.553" y1="65.0486" x2="88.2446" y2="93.0606" gradientUnits="userSpaceOnUse">
<stop stop-color="#36C170"/>
<stop offset="1" stop-color="#111111"/>
</linearGradient>
<clipPath id="clip0_999_29003">
<rect width="207.111" height="207.111" fill="white" transform="translate(45.3023 55.2573)"/>
</clipPath>
<clipPath id="clip1_999_29003">
<rect width="132.089" height="110.515" fill="white" transform="translate(173.911 49.1331)"/>
</clipPath>
<clipPath id="clip2_999_29003">
<rect width="47.3237" height="63.3302" fill="white" transform="matrix(-0.992478 0.122425 0.122425 0.992478 90.7984 40.2112)"/>
</clipPath>
</defs>
</svg>
