<svg width="56" height="56" viewBox="0 0 56 56" fill="none" xmlns="http://www.w3.org/2000/svg">
<g clip-path="url(#clip0_999_29176)">
<path d="M0.139344 49.1546C0.310666 48.6197 0.673412 48.1576 1.08272 47.7827C1.22054 47.6561 1.36486 47.5368 1.5151 47.4253L17.5359 35.5647C17.4569 36.1754 19.2372 38.5807 19.8351 38.6706C19.6929 38.7726 3.80598 50.5437 3.6723 50.6329C3.48732 50.7598 3.2947 50.8751 3.09554 50.9783C1.70998 51.8177 -0.336489 51.1472 0.139344 49.1546Z" fill="#069D6E"/>
<path d="M1.83273 51.4033C1.40745 51.4111 0.990607 51.2842 0.641772 51.0408C0.0795182 50.6305 -0.122752 49.955 0.0721956 49.1387C0.0726101 49.137 0.0730936 49.1354 0.0736463 49.1337C0.229977 48.6453 0.553831 48.1735 1.03602 47.7319C1.17532 47.604 1.32118 47.4834 1.47303 47.3707L17.4948 35.5094C17.5057 35.5014 17.5187 35.4967 17.5322 35.4959C17.5458 35.4952 17.5592 35.4985 17.5709 35.5054C17.5826 35.5122 17.592 35.5224 17.598 35.5345C17.6039 35.5467 17.6062 35.5604 17.6044 35.5738C17.5309 36.1414 19.29 38.5191 19.8454 38.6025C19.8589 38.6046 19.8716 38.6107 19.8817 38.6199C19.8918 38.6292 19.8989 38.6413 19.9021 38.6546C19.9053 38.668 19.9045 38.682 19.8997 38.6948C19.895 38.7077 19.8865 38.7189 19.8753 38.7269C19.8236 38.764 17.6582 40.3676 14.9168 42.3979C9.96244 46.0669 3.79672 50.6331 3.71057 50.6905C3.52334 50.8189 3.32844 50.9356 3.12697 51.0402C2.73646 51.2763 2.28909 51.4018 1.83273 51.4033ZM0.206006 49.1733C0.0257729 49.9307 0.20946 50.5542 0.723288 50.9291C1.34302 51.3814 2.30394 51.3773 3.05983 50.9195C3.25776 50.8169 3.44924 50.7022 3.6332 50.5762C3.73379 50.5078 10.1499 45.7563 14.8346 42.2868C17.2503 40.4976 19.2186 39.04 19.6889 38.6927C19.0141 38.3611 17.5957 36.4448 17.4732 35.6973L1.55613 47.481C1.40819 47.5908 1.26606 47.7082 1.13032 47.8329C0.66595 48.2583 0.355291 48.7091 0.206006 49.1733Z" fill="#111111"/>
<path d="M19.8347 38.6706C19.9835 38.5605 19.5894 37.7761 18.9547 36.9187C18.3199 36.0613 17.6848 35.4554 17.5361 35.5655C17.3873 35.6756 17.7813 36.46 18.4161 37.3174C19.0509 38.1748 19.686 38.7807 19.8347 38.6706Z" fill="white"/>
<path d="M19.7935 38.7525C19.7348 38.7486 19.678 38.7302 19.6282 38.6988C19.254 38.4898 18.5075 37.6312 17.9639 36.7846C17.7107 36.3902 17.3108 35.7019 17.4777 35.5244C17.533 35.4654 17.6225 35.4692 17.7427 35.5367C18.1168 35.7455 18.8634 36.6042 19.4071 37.4509C19.6603 37.8452 20.0602 38.5334 19.8932 38.711C19.8805 38.7246 19.865 38.7353 19.8478 38.7425C19.8307 38.7496 19.8121 38.753 19.7935 38.7525ZM17.5789 35.6213C17.5775 35.6212 17.576 35.6212 17.5746 35.6213C17.5458 35.6679 17.6248 36.0002 18.0803 36.7096C18.6134 37.5401 19.3381 38.3782 19.6956 38.5778C19.7701 38.6193 19.796 38.6137 19.7964 38.6135C19.8252 38.5669 19.7462 38.2346 19.2908 37.5252C18.7575 36.6946 18.0328 35.8565 17.6754 35.6569C17.6465 35.6376 17.6134 35.6254 17.5789 35.6213Z" fill="#111111"/>
<path d="M29.6678 31.391C29.8165 31.2809 29.4225 30.4966 28.7877 29.6392C28.153 28.7817 27.5178 28.1759 27.3691 28.286C27.2204 28.3961 27.6144 29.1804 28.2492 30.0379C28.8839 30.8953 29.5191 31.5011 29.6678 31.391Z" fill="white"/>
<path d="M29.6265 31.4729C29.5678 31.4691 29.511 31.4506 29.4612 31.4193C29.087 31.2104 28.3404 30.3516 27.7969 29.5051C27.5436 29.1107 27.1437 28.4225 27.3107 28.2449C27.366 28.1858 27.4554 28.1896 27.5757 28.2571C27.9499 28.4661 28.6964 29.3248 29.24 30.1714C29.4933 30.5658 29.8932 31.254 29.7262 31.4315C29.7135 31.4451 29.698 31.4558 29.6808 31.463C29.6636 31.4701 29.6451 31.4735 29.6265 31.4729ZM27.4119 28.3418C27.4105 28.3416 27.409 28.3416 27.4076 28.3418C27.3788 28.3884 27.4577 28.7207 27.9132 29.4301C28.4463 30.2606 29.1711 31.0987 29.5285 31.2983C29.603 31.3397 29.6289 31.3341 29.6293 31.3339C29.6581 31.2874 29.5792 30.955 29.1237 30.2456C28.5905 29.4151 27.8658 28.577 27.5083 28.3774C27.4794 28.3581 27.4464 28.3459 27.4119 28.3418Z" fill="#111111"/>
<path d="M17.5056 35.6713C17.5015 35.6525 17.5021 35.6328 17.5073 35.6142C17.5126 35.5956 17.5224 35.5786 17.5359 35.5647L27.3689 28.2852C27.1211 28.7342 29.2367 31.5389 29.668 31.3911L19.8351 38.6706C19.803 38.6944 19.7457 38.6852 19.6619 38.6385C18.9872 38.1912 17.712 36.553 17.5056 35.6713Z" fill="white"/>
<path d="M19.7918 38.7524C19.7337 38.748 19.6776 38.7296 19.6282 38.6987C18.9155 38.2265 17.6428 36.561 17.4383 35.6868C17.4374 35.6832 17.4368 35.6795 17.4366 35.6758C17.4309 35.6453 17.4333 35.614 17.4435 35.5847C17.4537 35.5555 17.4713 35.5294 17.4946 35.509L27.3276 28.2294C27.3403 28.22 27.3558 28.2152 27.3715 28.2159C27.3873 28.2165 27.4023 28.2225 27.4142 28.2329C27.4261 28.2433 27.434 28.2574 27.4368 28.2729C27.4395 28.2884 27.4369 28.3044 27.4293 28.3182C27.3148 28.5255 27.9282 29.5814 28.6912 30.491C29.2898 31.2044 29.5771 31.3489 29.6456 31.3254C29.6612 31.3201 29.6782 31.3205 29.6935 31.3266C29.7088 31.3327 29.7214 31.3441 29.7291 31.3587C29.7367 31.3733 29.7389 31.3901 29.7352 31.4062C29.7315 31.4223 29.7223 31.4365 29.709 31.4463L19.8762 38.7261C19.8517 38.7439 19.8221 38.7531 19.7918 38.7524ZM17.5743 35.6613C17.7771 36.5115 19.0119 38.1246 19.7001 38.5808C19.7701 38.6198 19.7961 38.614 19.7964 38.6138L29.4991 31.4302C29.2401 31.3139 28.876 30.9263 28.5855 30.5801C28.1446 30.0545 27.3432 28.9486 27.2845 28.4336L17.577 35.6202C17.5742 35.6337 17.5733 35.6475 17.5743 35.6613Z" fill="#111111"/>
<path d="M34.1484 32.5071L35.8566 33.2853C33.972 32.4267 32.3076 31.0194 31.0835 29.0985C27.4498 23.3953 29.0703 15.3185 34.706 11.0613C38.4451 8.23686 43.0096 7.80213 46.7198 9.49249L45.0117 8.71456C41.3012 7.02414 36.737 7.45894 32.9979 10.2833C27.3622 14.5404 25.7416 22.6171 29.3754 28.3205C30.5995 30.2417 32.2638 31.6488 34.1484 32.5073" fill="white"/>
<path d="M35.8565 33.3544C35.8466 33.3544 35.8369 33.3522 35.8279 33.3482L34.1197 32.57C32.1445 31.6607 30.476 30.1972 29.3171 28.3574C25.6693 22.6321 27.3018 14.4996 32.9563 10.2282C34.7704 8.85784 36.8628 7.99646 39.0072 7.73727C41.064 7.48196 43.1515 7.79835 45.0403 8.6517L46.7485 9.42983C46.7567 9.4336 46.7642 9.43895 46.7704 9.44559C46.7766 9.45223 46.7814 9.46003 46.7846 9.46853C46.7877 9.47703 46.7892 9.48608 46.7889 9.49515C46.7886 9.50422 46.7865 9.51314 46.7827 9.5214C46.7789 9.52966 46.7736 9.5371 46.767 9.54329C46.7603 9.54948 46.7525 9.5543 46.744 9.55748C46.7355 9.56066 46.7265 9.56213 46.7174 9.56181C46.7083 9.5615 46.6994 9.5594 46.6911 9.55563C44.8255 8.7127 42.7636 8.40027 40.7319 8.65267C38.6117 8.90889 36.5424 9.76108 34.7479 11.1166C29.1497 15.3455 27.5321 23.3954 31.1419 29.0614C32.2865 30.8787 33.9344 32.3243 35.8853 33.2224C35.8997 33.229 35.9113 33.2402 35.9184 33.2544C35.9255 33.2685 35.9275 33.2846 35.9242 33.3C35.9208 33.3154 35.9123 33.3292 35.9 33.3391C35.8877 33.349 35.8723 33.3544 35.8565 33.3544ZM40.3982 7.7915C39.9388 7.79152 39.4797 7.81921 39.0235 7.8744C36.9033 8.13076 34.8343 8.98274 33.0396 10.3385C27.4412 14.5673 25.8236 22.6171 29.4336 28.2832C30.5782 30.1005 32.2261 31.5461 34.177 32.4442L34.3125 32.506C32.9936 31.6242 31.8738 30.4761 31.0252 29.1356C27.3777 23.4103 29.01 15.2778 34.6643 11.0064C36.4786 9.63597 38.571 8.77467 40.7153 8.51547C42.1875 8.33509 43.6808 8.44393 45.1112 8.83587L44.983 8.77743C43.5428 8.1246 41.9794 7.78839 40.3982 7.7915Z" fill="#111111"/>
<path d="M34.1484 32.5071L35.8566 33.2853C33.972 32.4267 32.3076 31.0194 31.0835 29.0985C27.4498 23.3953 29.0703 15.3185 34.706 11.0613C38.4451 8.23686 43.0096 7.80213 46.7198 9.49249L45.0117 8.71456C41.3012 7.02414 36.737 7.45894 32.9979 10.2833C27.3622 14.5404 25.7416 22.6171 29.3754 28.3205C30.5995 30.2417 32.2638 31.6488 34.1484 32.5073" fill="white"/>
<path d="M35.8565 33.3544C35.8466 33.3544 35.8369 33.3522 35.8279 33.3482L34.1197 32.57C32.1445 31.6607 30.476 30.1972 29.3171 28.3574C25.6693 22.6321 27.3018 14.4996 32.9563 10.2282C34.7704 8.85784 36.8628 7.99646 39.0072 7.73727C41.064 7.48196 43.1515 7.79835 45.0403 8.6517L46.7485 9.42983C46.7567 9.4336 46.7642 9.43895 46.7704 9.44559C46.7766 9.45223 46.7814 9.46003 46.7846 9.46853C46.7877 9.47703 46.7892 9.48608 46.7889 9.49515C46.7886 9.50422 46.7865 9.51314 46.7827 9.5214C46.7789 9.52966 46.7736 9.5371 46.767 9.54329C46.7603 9.54948 46.7525 9.5543 46.744 9.55748C46.7355 9.56066 46.7265 9.56213 46.7174 9.56181C46.7083 9.5615 46.6994 9.5594 46.6911 9.55563C44.8255 8.7127 42.7636 8.40027 40.7319 8.65267C38.6117 8.90889 36.5424 9.76108 34.7479 11.1166C29.1497 15.3455 27.5321 23.3954 31.1419 29.0614C32.2865 30.8787 33.9344 32.3243 35.8853 33.2224C35.8997 33.229 35.9113 33.2402 35.9184 33.2544C35.9255 33.2685 35.9275 33.2846 35.9242 33.3C35.9208 33.3154 35.9123 33.3292 35.9 33.3391C35.8877 33.349 35.8723 33.3544 35.8565 33.3544ZM40.3982 7.7915C39.9388 7.79152 39.4797 7.81921 39.0235 7.8744C36.9033 8.13076 34.8343 8.98274 33.0396 10.3385C27.4412 14.5673 25.8236 22.6171 29.4336 28.2832C30.5782 30.1005 32.2261 31.5461 34.177 32.4442L34.3125 32.506C32.9936 31.6242 31.8738 30.4761 31.0252 29.1356C27.3777 23.4103 29.01 15.2778 34.6643 11.0064C36.4786 9.63597 38.571 8.77467 40.7153 8.51547C42.1875 8.33509 43.6808 8.44393 45.1112 8.83587L44.983 8.77743C43.5428 8.1246 41.9794 7.78839 40.3982 7.7915Z" fill="#111111"/>
<path d="M32.9979 10.2833C27.3622 14.5404 25.7416 22.6171 29.3754 28.3205C33.0092 34.0238 40.5227 35.1959 46.1584 30.9386C51.7972 26.6791 53.4201 18.6057 49.7863 12.9025C46.1524 7.19938 38.6368 6.02376 32.9979 10.2833Z" fill="white"/>
<path d="M38.7823 33.5713C38.0991 33.5713 37.4172 33.5102 36.7449 33.3889C33.669 32.8347 31.031 31.0478 29.3168 28.3573C25.669 22.6321 27.3015 14.4996 32.956 10.2281C35.7821 8.09346 39.1408 7.24224 42.4133 7.83213C45.4904 8.38657 48.1293 10.174 49.844 12.8653C53.4907 18.5887 51.8558 26.721 46.1996 30.9937C43.9597 32.686 41.3842 33.5713 38.7823 33.5713ZM33.0396 10.3383C27.4413 14.5671 25.8237 22.617 29.4336 28.2831C31.1269 30.9406 33.7322 32.7056 36.7697 33.253C40.003 33.8355 43.3226 32.9941 46.1168 30.8835C51.7169 26.6533 53.3368 18.6037 49.728 12.9396C48.0342 10.2812 45.4279 8.51569 42.3892 7.96808C39.155 7.38517 35.8346 8.22734 33.0396 10.3383Z" fill="#111111"/>
<path d="M33.03 34.9533L34.7382 35.7314C39.2118 37.7693 44.7149 37.2449 49.2204 33.8416C56.0176 28.7072 57.9746 18.9699 53.594 12.0948C52.1177 9.77763 50.1103 8.08058 47.8374 7.04491L46.1292 6.26685C48.402 7.30231 50.4095 8.99929 51.8859 11.3167C56.2665 18.192 54.3094 27.9292 47.5123 33.0635C43.0067 36.4668 37.5037 36.9913 33.03 34.9533Z" fill="url(#paint0_linear_999_29176)"/>
<path d="M40.3005 36.9967C38.3723 37.0005 36.4657 36.5906 34.7095 35.7947L33.0014 35.0165C32.9931 35.0128 32.9856 35.0074 32.9793 35.0008C32.973 34.9942 32.9681 34.9864 32.9649 34.9778C32.9616 34.9693 32.9601 34.9602 32.9604 34.9511C32.9607 34.942 32.9628 34.933 32.9666 34.9247C32.9704 34.9164 32.9758 34.9089 32.9825 34.9027C32.9892 34.8965 32.997 34.8917 33.0056 34.8885C33.0141 34.8854 33.0232 34.8839 33.0324 34.8843C33.0415 34.8847 33.0504 34.8869 33.0587 34.8907C35.3104 35.9079 37.7989 36.2849 40.2508 35.9806C42.8093 35.6715 45.3058 34.6438 47.4706 33.0086C54.2285 27.9035 56.1831 18.1896 51.8276 11.3539C50.4094 9.12794 48.4288 7.39068 46.1008 6.33001C46.0841 6.32241 46.0711 6.3085 46.0647 6.29134C46.0583 6.27417 46.0589 6.25516 46.0665 6.23847C46.0741 6.22179 46.088 6.20881 46.1052 6.20238C46.1224 6.19596 46.1414 6.19661 46.1581 6.20421L47.8662 6.98241C50.2189 8.05421 52.2198 9.80929 53.6525 12.0578C55.7809 15.3983 56.4962 19.5098 55.6668 23.6348C54.8374 27.7599 52.5628 31.4033 49.2619 33.8967C47.0777 35.5466 44.5581 36.5839 41.9755 36.8956C41.4197 36.9628 40.8604 36.9966 40.3005 36.9967ZM34.7931 35.6803C37.0382 36.6883 39.5168 37.0611 41.959 36.758C44.5174 36.4489 47.014 35.4212 49.1788 33.786C55.9367 28.6813 57.8912 18.967 53.5358 12.1313C52.1214 9.91139 50.1477 8.17745 47.8275 7.11601C49.4841 8.19025 50.8885 9.61042 51.9442 11.2789C54.0726 14.6194 54.788 18.7309 53.9585 22.856C53.1291 26.9811 50.8546 30.6248 47.5538 33.1182C45.3696 34.7685 42.85 35.8054 40.2676 36.1174C38.4319 36.3424 36.5698 36.1937 34.7931 35.6803Z" fill="#111111"/>
<path d="M51.8859 11.3164C56.2665 18.1917 54.3094 27.9289 47.5122 33.0632C40.7184 38.1951 31.6564 36.7813 27.2758 29.9062C22.8932 23.0276 24.8502 13.2903 31.644 8.15827C38.4413 3.024 47.5033 4.43782 51.8859 11.3164ZM46.1584 30.9385C51.7972 26.679 53.4201 18.6056 49.7863 12.9024C46.1524 7.19915 38.6368 6.02366 32.9979 10.2832C27.3622 14.5403 25.7416 22.6169 29.3754 28.3204C33.0092 34.0238 40.5227 35.1958 46.1584 30.9385Z" fill="#B6F1CF"/>
<path d="M38.5939 36.2205C37.7793 36.2205 36.9664 36.1478 36.1647 36.0031C32.4594 35.3354 29.2819 33.1833 27.2175 29.9434C25.0884 26.6017 24.3722 22.4895 25.201 18.3638C26.0299 14.2396 28.3027 10.5957 31.6025 8.10315C33.2652 6.83238 35.171 5.91614 37.2019 5.41104C39.0976 4.93881 41.0717 4.87264 42.9948 5.21686C46.7006 5.88467 49.8788 8.03759 51.9442 11.2791C54.0726 14.6196 54.788 18.731 53.9585 22.8562C53.129 26.9813 50.8546 30.625 47.5538 33.1183C45.8917 34.3885 43.9867 35.3043 41.9565 35.809C40.8562 36.0807 39.7272 36.2189 38.5939 36.2205ZM40.5659 5.13797C39.4432 5.13945 38.3248 5.27628 37.2349 5.54548C35.2222 6.04611 33.3335 6.95422 31.6857 8.21368C24.9295 13.3171 22.9775 23.0316 27.3341 29.8692C29.3775 33.0762 32.5221 35.2063 36.1893 35.8672C38.0929 36.2079 40.0471 36.1424 41.9236 35.6751C43.9356 35.175 45.8236 34.2674 47.4709 33.0086C54.2288 27.9035 56.1833 18.1896 51.8279 11.3538C49.7833 8.14501 46.6377 6.01399 42.9703 5.35308C42.1768 5.20995 41.3722 5.13796 40.5659 5.13797ZM38.7823 33.5714C38.0991 33.5714 37.4172 33.5104 36.7449 33.3891C33.669 32.8348 31.031 31.0479 29.3168 28.3575C25.669 22.6321 27.3015 14.4997 32.956 10.2282C35.7821 8.09361 39.1408 7.24253 42.4133 7.83228C45.4904 8.38672 48.1293 10.1741 49.844 12.8654C53.4907 18.5889 51.8558 26.7212 46.1996 30.9938C43.9597 32.6862 41.3842 33.5714 38.7823 33.5714ZM40.376 7.78807C37.8033 7.78807 35.2561 8.66388 33.0396 10.3385C27.4412 14.5673 25.8236 22.6171 29.4336 28.2832C31.1269 30.9407 33.7322 32.7058 36.7697 33.2531C40.003 33.8357 43.3226 32.9943 46.1168 30.8836C51.7169 26.6534 53.3368 18.6039 49.728 12.9397C48.0342 10.2814 45.4279 8.51584 42.3892 7.96823C41.7249 7.84841 41.0513 7.78812 40.3763 7.78807H40.376Z" fill="#111111"/>
</g>
<defs>
<linearGradient id="paint0_linear_999_29176" x1="52.1412" y1="10.8844" x2="41.68" y2="36.0526" gradientUnits="userSpaceOnUse">
<stop offset="0.326" stop-color="#3658C1"/>
<stop offset="0.769" stop-color="#B0C3FF"/>
<stop offset="1" stop-color="#3658C1"/>
</linearGradient>
<clipPath id="clip0_999_29176">
<rect width="56" height="56" fill="white"/>
</clipPath>
</defs>
</svg>
