<svg width="56" height="56" viewBox="0 0 56 56" fill="none" xmlns="http://www.w3.org/2000/svg">
<g clip-path="url(#clip0_999_29362)">
<path d="M53.3379 42.4434L17.7468 49.5703C15.7403 49.9721 13.5329 48.6484 12.817 46.6142L1.94017 15.7081C1.49836 14.4526 1.72769 13.2198 2.43967 12.3652L0.822275 14.3064C0.110304 15.1609 -0.119033 16.3938 0.322781 17.6493L11.1996 48.5553C11.9156 50.5896 14.1229 51.9132 16.1294 51.5114L51.7206 44.3845C52.4888 44.2307 53.1163 43.8462 53.558 43.316L55.1754 41.3748C54.7337 41.905 54.1062 42.2894 53.3379 42.4433V42.4434Z" fill="url(#paint0_linear_999_29362)"/>
<path d="M15.4012 51.6813C13.5759 51.6813 11.7491 50.4136 11.1065 48.588L0.229764 17.6819C-0.206924 16.4412 -0.0137716 15.1557 0.746413 14.2433L2.3638 12.3021C2.39871 12.2603 2.46082 12.2546 2.50263 12.2895C2.54453 12.3244 2.55015 12.3865 2.51535 12.4283C1.79993 13.2869 1.61969 14.5007 2.03311 15.6753L12.9099 46.5814C13.609 48.5679 15.7695 49.8656 17.7272 49.4737L53.3184 42.3467C54.0398 42.2022 54.6557 41.8444 55.0993 41.3119C55.1342 41.2699 55.1964 41.2643 55.2382 41.2992C55.2801 41.3341 55.2857 41.3962 55.2509 41.438L53.6336 43.3792C53.1606 43.9468 52.5058 44.3279 51.7397 44.4812L16.1485 51.6081C15.9014 51.6576 15.6512 51.6813 15.401 51.6813H15.4012ZM1.81304 13.2713L0.897957 14.3696C0.182634 15.2281 0.00229973 16.4419 0.415718 17.6165L11.2925 48.5225C11.9916 50.509 14.1525 51.8068 16.1098 51.4147L51.7011 44.2878C52.4224 44.1434 53.0384 43.7856 53.4821 43.253L54.3981 42.1535C54.0837 42.3341 53.7339 42.4647 53.357 42.5401L17.7659 49.667C15.7159 50.0778 13.4543 48.7225 12.7237 46.6469L1.84715 15.7408C1.54929 14.8942 1.54456 14.0268 1.81304 13.2713Z" fill="#111111"/>
<path d="M39.8682 4.17C41.8747 3.76822 44.0821 5.09189 44.798 7.12615L55.6748 38.0322C56.3908 40.0665 55.3444 42.0416 53.338 42.4434L17.7468 49.5703C15.7404 49.9721 13.533 48.6484 12.8171 46.6142L1.94021 15.7082C1.2243 13.6739 2.27061 11.6987 4.27707 11.2969L39.8682 4.17Z" fill="white"/>
<path d="M17.0187 49.7404C15.1934 49.7404 13.3666 48.4725 12.724 46.647L1.84724 15.7409C1.47839 14.6929 1.54938 13.6342 2.0469 12.7599C2.50952 11.9469 3.29465 11.393 4.25774 11.2002L39.8489 4.07326C41.8986 3.66299 44.1606 5.01762 44.8911 7.09339L55.7679 37.9995C56.1367 39.0475 56.0658 40.106 55.5683 40.9804C55.1056 41.7933 54.3204 42.3472 53.3573 42.5401L17.7662 49.667C17.5191 49.7165 17.2688 49.7404 17.0187 49.7404ZM40.5997 4.1968C40.3613 4.1968 40.123 4.21948 39.8876 4.26661L4.29649 11.3936C3.39038 11.575 2.65229 12.0949 2.21836 12.8575C1.74943 13.6814 1.68367 14.6822 2.03329 15.6755L12.9101 46.5816C13.6092 48.5681 15.7697 49.8658 17.7274 49.4739L53.3186 42.3469C54.2247 42.1654 54.9629 41.6456 55.3968 40.883C55.8656 40.0591 55.9314 39.0582 55.5819 38.0651L44.705 7.15886C44.0901 5.41112 42.3435 4.1968 40.5997 4.1968Z" fill="#111111"/>
<path d="M21.1671 35.3125L13.9387 36.7599L17.0899 45.7138L24.3182 44.2663L21.1671 35.3125Z" fill="#B6F1CF"/>
<path d="M17.09 45.8126C17.0489 45.8126 17.0112 45.7867 16.9971 45.7467L13.8459 36.7928C13.8364 36.7659 13.8391 36.7361 13.8532 36.7114C13.8674 36.6865 13.8916 36.669 13.9196 36.6634L21.1478 35.2159C21.1953 35.2059 21.244 35.2335 21.2602 35.2798L24.4114 44.2337C24.4209 44.2607 24.4182 44.2904 24.4041 44.3152C24.3899 44.34 24.3658 44.3576 24.3378 44.3631L17.1095 45.8106C17.1031 45.812 17.0964 45.8126 17.09 45.8126ZM14.0695 36.8344L17.1546 45.6004L24.1876 44.192L21.1025 35.4261L14.0695 36.8344Z" fill="#111111"/>
<path d="M27.7205 26.5039L20.4922 27.9514L26.1078 43.9079L33.3361 42.4605L27.7205 26.5039Z" fill="#B6F1CF"/>
<path d="M26.1076 44.0064C26.0666 44.0064 26.0288 43.9806 26.0147 43.9406L20.399 27.9841C20.3895 27.9572 20.3922 27.9274 20.4063 27.9025C20.4204 27.8777 20.4447 27.8602 20.4727 27.8546L27.701 26.4072C27.7488 26.3975 27.7971 26.4249 27.8134 26.4711L33.429 42.4276C33.4385 42.4545 33.4358 42.4843 33.4217 42.509C33.4075 42.5339 33.3834 42.5514 33.3554 42.557L26.1271 44.0044C26.1207 44.0057 26.1141 44.0063 26.1077 44.0063L26.1076 44.0064ZM20.6226 28.0257L26.1723 43.7942L33.2052 42.386L27.6557 26.6173L20.6226 28.0257Z" fill="#111111"/>
<path d="M37.4998 26.8623L30.2729 28.3095L35.1269 42.1017L42.3538 40.6545L37.4998 26.8623Z" fill="#B6F1CF"/>
<path d="M35.1268 42.2003C35.0858 42.2003 35.0481 42.1745 35.034 42.1345L30.18 28.3423C30.1706 28.3154 30.1732 28.2856 30.1873 28.2607C30.2014 28.2359 30.2257 28.2184 30.2537 28.2128L37.4807 26.7656C37.5282 26.756 37.5767 26.7832 37.5931 26.8295L42.4469 40.6217C42.4564 40.6486 42.4537 40.6784 42.4396 40.7031C42.4254 40.728 42.4013 40.7455 42.3733 40.751L35.1464 42.1983C35.14 42.1996 35.1334 42.2002 35.1269 42.2002L35.1268 42.2003ZM30.4036 28.3839L35.1916 41.9882L42.2232 40.5802L37.4353 26.9758L30.4036 28.3839Z" fill="#111111"/>
<path d="M43.6185 16.8149L36.3903 18.2624L44.1447 40.2963L51.373 38.8489L43.6185 16.8149Z" fill="#B6F1CF"/>
<path d="M44.1447 40.395C44.1037 40.395 44.0659 40.3692 44.0518 40.3292L36.2973 18.2951C36.2879 18.2682 36.2905 18.2385 36.3046 18.2136C36.3187 18.1888 36.343 18.1713 36.371 18.1657L43.5993 16.7183C43.6469 16.7085 43.6953 16.7358 43.7117 16.7822L51.4661 38.8162C51.4756 38.8431 51.4729 38.8729 51.4588 38.8976C51.4446 38.9225 51.4205 38.94 51.3925 38.9456L44.1642 40.3931C44.1578 40.3944 44.1511 40.395 44.1447 40.395ZM36.5209 18.3368L44.2095 40.1829L51.2424 38.7745L43.554 16.9284L36.5209 18.3368Z" fill="#111111"/>
<path d="M35.3893 10.5499L36.759 10.869L31.1268 20.1183L21.5901 19.77C21.554 19.7687 21.5186 19.7714 21.4848 19.7781C21.3888 19.7974 21.3054 19.8482 21.2494 19.9243L14.6961 28.7327C14.5545 28.9219 14.6174 29.2093 14.8345 29.3754C14.9611 29.4736 15.1132 29.5076 15.2468 29.4809C15.3395 29.4624 15.4238 29.4125 15.4815 29.3349L21.9147 20.6883L31.4731 21.038C31.5104 21.0396 31.5465 21.0368 31.5809 21.0299C31.6885 21.0084 31.779 20.9471 31.8341 20.8566L37.5826 11.4147L38.4413 12.5714L38.8657 8.35791L35.3895 10.5498L35.3893 10.5499Z" fill="#B6F1CF"/>
<path d="M15.1561 29.5888C15.0225 29.5888 14.8876 29.5419 14.7739 29.4537C14.5144 29.2551 14.4438 28.9052 14.617 28.674L21.1701 19.8658C21.2396 19.7715 21.3446 19.706 21.4653 19.6818C21.5069 19.6735 21.5504 19.6705 21.5937 19.6718L31.0725 20.018L36.6039 10.9345L35.3669 10.6463C35.3281 10.6372 35.2987 10.6059 35.292 10.5666C35.2855 10.5274 35.303 10.488 35.3367 10.4668L38.8129 8.27501C38.8448 8.2549 38.8853 8.2546 38.9174 8.27462C38.9495 8.29444 38.9674 8.33082 38.9637 8.36829L38.5393 12.5817C38.5352 12.6223 38.5067 12.6561 38.4674 12.6669C38.4284 12.678 38.3864 12.6635 38.3621 12.6306L37.5907 11.5915L31.9184 20.9084C31.8489 21.0223 31.7359 21.0999 31.6002 21.1271C31.5579 21.1355 31.5135 21.139 31.4691 21.137L21.9628 20.7892L15.5605 29.3942C15.4902 29.4887 15.3857 29.5541 15.2661 29.578C15.2299 29.5853 15.1932 29.5889 15.1563 29.5889L15.1561 29.5888ZM21.5724 19.8686C21.5489 19.8686 21.526 19.8707 21.504 19.8752C21.4316 19.8897 21.3693 19.9281 21.3287 19.9831L14.7751 28.7919C14.6663 28.9373 14.7197 29.1638 14.8942 29.2974C14.9947 29.3753 15.1157 29.4067 15.2273 29.3846C15.2989 29.3702 15.3609 29.3317 15.4021 29.2763L21.8354 20.6297C21.8547 20.6037 21.8872 20.5886 21.9181 20.59L31.4765 20.9397C31.5062 20.9412 31.5344 20.9388 31.5613 20.9335C31.6423 20.9173 31.7093 20.8719 31.7497 20.8056L37.4981 11.3638C37.5152 11.3358 37.5452 11.318 37.5779 11.3165C37.6096 11.3153 37.642 11.3299 37.6616 11.3563L38.3685 12.3085L38.7472 8.54951L35.6414 10.5077L36.7813 10.7733C36.8122 10.7805 36.8376 10.8021 36.8499 10.8311C36.8621 10.8603 36.8596 10.8936 36.8432 10.9206L31.211 20.1699C31.1924 20.2004 31.1577 20.2182 31.1231 20.2171L21.5865 19.8688C21.5818 19.8686 21.577 19.8686 21.5724 19.8686Z" fill="#111111"/>
</g>
<defs>
<linearGradient id="paint0_linear_999_29362" x1="5.56242" y1="17.7131" x2="33.9934" y2="46.0765" gradientUnits="userSpaceOnUse">
<stop offset="0.61" stop-color="#36C170"/>
<stop offset="1" stop-color="#111111"/>
</linearGradient>
<clipPath id="clip0_999_29362">
<rect width="56" height="56" fill="white"/>
</clipPath>
</defs>
</svg>
