<svg width="305" height="429" viewBox="0 0 305 429" fill="none" xmlns="http://www.w3.org/2000/svg">
<g opacity="0.3" filter="url(#filter0_f_1008_32783)">
<rect x="20" y="22" width="266" height="395" rx="44" fill="#030303"/>
</g>
<g clip-path="url(#clip0_1008_32783)">
<mask id="mask0_1008_32783" style="mask-type:luminance" maskUnits="userSpaceOnUse" x="30" y="31" width="246" height="533">
<rect x="30.4709" y="31.8477" width="245.058" height="531.27" rx="31.1778" fill="white"/>
</mask>
<g mask="url(#mask0_1008_32783)">
<path d="M246.747 33.095H59.2524C43.3568 33.095 30.4709 45.9809 30.4709 61.8764L30.4709 527.846C30.4709 543.741 43.3568 556.627 59.2524 556.627H246.747C262.643 556.627 275.529 543.741 275.529 527.846V61.8764C275.529 45.9809 262.643 33.095 246.747 33.095Z" fill="white"/>
<path d="M145.891 276.977C147.044 276.977 148.058 277.23 148.931 277.736C149.823 278.225 150.513 278.934 151.002 279.859C151.508 280.768 151.763 281.825 151.763 283.03C151.763 284.271 151.473 285.381 150.897 286.36C150.342 287.334 149.525 288.133 148.538 288.666C147.543 289.207 146.415 289.478 145.158 289.478C143.864 289.478 142.711 289.199 141.698 288.64C140.702 288.098 139.876 287.29 139.312 286.307C138.754 285.311 138.474 284.193 138.474 282.952C138.474 281.974 138.649 280.995 138.998 280.017C139.347 279.039 139.898 277.998 140.65 276.898L145.262 270.214H149.272L144.318 277.186C144.843 277.046 145.367 276.977 145.891 276.977ZM145.158 286.386C146.171 286.386 146.957 286.089 147.516 285.494C148.093 284.883 148.381 284.071 148.381 283.057C148.381 282.026 148.093 281.214 147.516 280.619C146.957 280.008 146.171 279.702 145.158 279.702C144.145 279.702 143.34 280.008 142.746 280.619C142.169 281.214 141.881 282.026 141.881 283.057C141.881 284.071 142.169 284.883 142.746 285.494C143.34 286.089 144.144 286.386 145.158 286.386ZM154.141 279.44C154.141 276.418 154.682 274.05 155.765 272.338C156.866 270.625 158.684 269.769 161.217 269.769C163.751 269.769 165.559 270.625 166.642 272.338C167.744 274.05 168.294 276.418 168.294 279.44C168.294 282.48 167.744 284.865 166.642 286.595C165.559 288.325 163.751 289.19 161.217 289.19C158.684 289.19 156.866 288.325 155.765 286.595C154.682 284.865 154.141 282.48 154.141 279.44ZM164.677 279.44C164.677 278.147 164.589 277.064 164.415 276.19C164.257 275.299 163.925 274.574 163.419 274.015C162.93 273.455 162.195 273.176 161.217 273.176C160.239 273.176 159.496 273.455 158.989 274.015C158.5 274.574 158.168 275.299 157.993 276.19C157.836 277.064 157.757 278.147 157.757 279.44C157.757 280.768 157.836 281.886 157.993 282.795C158.15 283.686 158.483 284.411 158.989 284.97C159.496 285.511 160.238 285.783 161.217 285.783C162.196 285.783 162.939 285.511 163.445 284.97C163.952 284.411 164.284 283.686 164.441 282.795C164.598 281.886 164.677 280.768 164.677 279.44ZM169.024 260.177C169.024 259.73 169.152 259.382 169.409 259.131C169.672 258.874 170.008 258.745 170.418 258.745C170.827 258.745 171.161 258.874 171.417 259.131C171.68 259.382 171.812 259.73 171.812 260.177C171.812 260.623 171.68 260.975 171.417 261.231C171.161 261.488 170.827 261.617 170.418 261.617C170.008 261.617 169.672 261.488 169.409 261.231C169.152 260.975 169.024 260.623 169.024 260.177ZM174.619 258.865L170.959 265.249H169.932L173.592 258.865H174.619ZM170.418 259.379C170.033 259.379 169.84 259.645 169.84 260.177C169.84 260.715 170.033 260.984 170.418 260.984C170.601 260.984 170.742 260.92 170.84 260.791C170.944 260.657 170.995 260.452 170.995 260.177C170.995 259.645 170.803 259.379 170.418 259.379ZM172.757 263.929C172.757 263.482 172.885 263.133 173.142 262.883C173.405 262.626 173.741 262.498 174.152 262.498C174.555 262.498 174.885 262.626 175.142 262.883C175.405 263.133 175.536 263.482 175.536 263.929C175.536 264.375 175.405 264.726 175.142 264.984C174.885 265.241 174.555 265.369 174.152 265.369C173.741 265.369 173.405 265.241 173.142 264.984C172.885 264.726 172.757 264.375 172.757 263.929ZM174.142 263.13C173.757 263.13 173.565 263.396 173.565 263.929C173.565 264.461 173.757 264.726 174.142 264.726C174.527 264.726 174.72 264.461 174.72 263.929C174.72 263.397 174.527 263.13 174.142 263.13Z" fill="#069D6E"/>
<path d="M154.639 337.779C187.75 337.779 214.593 310.936 214.593 277.825C214.593 244.713 187.75 217.871 154.639 217.871C121.527 217.871 94.6851 244.713 94.6851 277.825C94.6851 310.936 121.527 337.779 154.639 337.779Z" stroke="#1B8037" stroke-width="3.27578"/>
<path d="M154.638 217.858C154.638 216.96 155.366 216.23 156.265 216.253C165.169 216.489 173.924 218.653 181.923 222.605C190.407 226.797 197.81 232.889 203.561 240.405C209.311 247.921 213.25 256.662 215.074 265.948C216.899 275.234 216.56 284.815 214.083 293.948C211.604 303.082 207.056 311.522 200.788 318.613C194.522 325.704 186.705 331.256 177.945 334.837C169.185 338.417 159.718 339.932 150.279 339.262C141.38 338.63 132.731 336.074 124.928 331.777C124.141 331.343 123.882 330.346 124.335 329.571C124.789 328.795 125.784 328.537 126.572 328.97C133.949 333.018 142.115 335.423 150.509 336.018C159.45 336.653 168.418 335.218 176.715 331.827C185.012 328.435 192.417 323.177 198.353 316.46C204.289 309.743 208.597 301.749 210.944 293.098C213.291 284.446 213.612 275.371 211.884 266.575C210.155 257.779 206.423 249.5 200.978 242.38C195.531 235.26 188.518 229.491 180.482 225.52C172.932 221.79 164.669 219.741 156.264 219.507C155.366 219.482 154.638 218.756 154.638 217.858Z" fill="white"/>
<path d="M154.639 337.779C187.75 337.779 214.593 310.936 214.593 277.825C214.593 244.713 187.75 217.871 154.639 217.871C121.527 217.871 94.6851 244.713 94.6851 277.825C94.6851 310.936 121.527 337.779 154.639 337.779Z" stroke="#D7DBE0" stroke-width="3.27578"/>
<path d="M154.638 217.858C154.638 216.96 155.366 216.23 156.265 216.253C165.169 216.489 173.924 218.653 181.923 222.605C190.407 226.797 197.81 232.889 203.561 240.405C209.311 247.921 213.25 256.662 215.074 265.948C216.899 275.234 216.56 284.815 214.083 293.948C211.604 303.082 207.056 311.522 200.788 318.613C194.522 325.704 186.705 331.256 177.945 334.837C169.185 338.417 159.718 339.932 150.279 339.262C141.38 338.63 132.731 336.074 124.928 331.777C124.141 331.343 123.882 330.346 124.335 329.571C124.789 328.795 125.784 328.537 126.572 328.97C133.949 333.018 142.115 335.423 150.509 336.018C159.45 336.653 168.418 335.218 176.715 331.827C185.012 328.435 192.417 323.177 198.353 316.46C204.289 309.743 208.597 301.749 210.944 293.098C213.291 284.446 213.612 275.371 211.884 266.575C210.155 257.779 206.423 249.5 200.978 242.38C195.531 235.26 188.518 229.491 180.482 225.52C172.932 221.79 164.669 219.741 156.264 219.507C155.366 219.482 154.638 218.756 154.638 217.858Z" fill="#069D6E"/>
<path d="M51.2963 104.831H46.925L46.2022 106.923H43.8909L47.8381 95.9316H50.4017L54.3489 106.923H52.0211L51.2982 104.831H51.2963ZM50.6986 103.07L49.1102 98.4786L47.5218 103.07H50.6986ZM60.6501 98.0847C61.6884 98.0847 62.5267 98.4146 63.1662 99.0754C63.8056 99.7255 64.1258 100.638 64.1258 101.812V106.922H61.9242V102.111C61.9242 101.419 61.7514 100.889 61.405 100.522C61.0596 100.145 60.5871 99.9564 59.9894 99.9564C59.381 99.9564 58.8987 100.145 58.5426 100.522C58.1962 100.889 58.0235 101.419 58.0235 102.111V106.922H55.8219V98.2099H58.0235V99.2947C58.3175 98.9172 58.6891 98.6232 59.1403 98.4136C59.6012 98.1934 60.1048 98.0847 60.6501 98.0847ZM65.6531 102.536C65.6531 101.654 65.8258 100.873 66.1722 100.192C66.5283 99.5111 67.0057 98.9861 67.6034 98.6193C68.2118 98.2526 68.8881 98.0692 69.6323 98.0692C70.2824 98.0692 70.8481 98.2002 71.3304 98.4621C71.8233 98.7241 72.2163 99.055 72.5103 99.4528V98.2108H74.7275V106.923H72.5093V105.649C72.226 106.058 71.833 106.398 71.3294 106.671C70.8365 106.933 70.265 107.064 69.6149 107.064C68.8813 107.064 68.2099 106.875 67.6015 106.498C67.0038 106.121 66.5273 105.591 66.1703 104.91C65.8239 104.218 65.6511 103.426 65.6511 102.536H65.6531ZM72.5093 102.567C72.5093 102.032 72.4045 101.576 72.1949 101.198C71.9853 100.81 71.702 100.517 71.3459 100.317C70.9898 100.108 70.6065 100.003 70.198 100.003C69.7895 100.003 69.4121 100.103 69.0657 100.302C68.7193 100.501 68.4369 100.795 68.2166 101.183C68.0071 101.56 67.9023 102.012 67.9023 102.536C67.9023 103.059 68.0071 103.521 68.2166 103.919C68.4369 104.307 68.7202 104.606 69.0657 104.816C69.4218 105.025 69.7992 105.13 70.198 105.13C70.6065 105.13 70.9898 105.03 71.3459 104.831C71.702 104.622 71.9853 104.328 72.1949 103.95C72.4045 103.562 72.5093 103.101 72.5093 102.567ZM79.0783 95.2853V106.922H76.8767V95.2863L79.0783 95.2853ZM89.5878 98.2099L84.1938 111.042H81.8505L83.7378 106.702L80.2466 98.2099H82.7151L84.9643 104.296L87.2445 98.2099H89.5878ZM92.7869 105.114H96.6711V106.922H90.2864V105.146L94.092 100.019H90.302V98.2108H96.6236V99.9875L92.7869 105.114ZM99.4928 97.1726C99.1047 97.1726 98.7796 97.0523 98.5176 96.8107C98.3947 96.69 98.2978 96.5455 98.2329 96.3859C98.168 96.2264 98.1364 96.0552 98.1402 95.883C98.1402 95.5163 98.2663 95.2126 98.5176 94.971C98.7796 94.7196 99.1047 94.5935 99.4928 94.5935C99.8809 94.5935 100.2 94.7196 100.452 94.971C100.58 95.0855 100.681 95.2263 100.749 95.3838C100.817 95.5413 100.85 95.7116 100.845 95.883C100.845 96.2498 100.714 96.5594 100.452 96.8107C100.201 97.0513 99.8809 97.1726 99.4928 97.1726ZM100.578 98.2108V106.923H98.3759V98.2108H100.578ZM107.58 98.0847C108.619 98.0847 109.457 98.4146 110.096 99.0754C110.736 99.7255 111.056 100.638 111.056 101.812V106.922H108.854V102.111C108.854 101.419 108.682 100.889 108.335 100.522C107.99 100.145 107.517 99.9564 106.921 99.9564C106.312 99.9564 105.83 100.145 105.474 100.522C105.127 100.889 104.955 101.419 104.955 102.111V106.922H102.754V98.2099H104.956V99.2947C105.251 98.9155 105.634 98.6133 106.072 98.4136C106.533 98.1934 107.036 98.0837 107.581 98.0837L107.58 98.0847ZM116.562 98.0692C117.212 98.0692 117.783 98.2002 118.276 98.4621C118.769 98.7135 119.157 99.0443 119.44 99.4528V98.2108H121.657V106.985C121.657 107.793 121.495 108.511 121.17 109.139C120.845 109.778 120.336 110.305 119.707 110.649C119.057 111.027 118.271 111.215 117.349 111.215C116.111 111.215 115.094 110.927 114.298 110.35C113.511 109.774 113.066 108.987 112.961 107.992H115.147C115.262 108.39 115.509 108.705 115.886 108.935C116.273 109.176 116.74 109.297 117.285 109.297C117.925 109.297 118.444 109.103 118.842 108.714C119.241 108.337 119.44 107.761 119.44 106.984V105.632C119.157 106.04 118.763 106.381 118.261 106.654C117.768 106.926 117.201 107.062 116.562 107.062C115.828 107.062 115.158 106.873 114.549 106.496C113.941 106.12 113.459 105.589 113.102 104.908C112.756 104.216 112.583 103.424 112.583 102.534C112.583 101.653 112.756 100.871 113.102 100.19C113.459 99.5091 113.936 98.9842 114.534 98.6174C115.141 98.2506 115.817 98.0672 116.562 98.0672V98.0692ZM119.44 102.567C119.44 102.032 119.335 101.576 119.125 101.198C118.916 100.81 118.632 100.517 118.276 100.317C117.92 100.108 117.537 100.003 117.128 100.003C116.72 100.003 116.342 100.103 115.996 100.302C115.649 100.501 115.367 100.795 115.147 101.183C114.937 101.56 114.832 102.012 114.832 102.536C114.832 103.059 114.937 103.521 115.147 103.919C115.367 104.307 115.649 104.606 115.996 104.816C116.352 105.025 116.729 105.13 117.128 105.13C117.537 105.13 117.92 105.03 118.276 104.831C118.634 104.62 118.927 104.315 119.125 103.95C119.335 103.562 119.44 103.101 119.44 102.567ZM128.671 97.1726C128.283 97.1726 127.958 97.0523 127.696 96.8107C127.573 96.69 127.476 96.5455 127.411 96.3859C127.346 96.2264 127.315 96.0552 127.318 95.883C127.318 95.5163 127.445 95.2126 127.696 94.971C127.958 94.7196 128.283 94.5935 128.671 94.5935C129.059 94.5935 129.378 94.7196 129.63 94.971C129.758 95.0854 129.859 95.2262 129.927 95.3837C129.995 95.5412 130.028 95.7116 130.024 95.883C130.027 96.0567 129.994 96.2291 129.926 96.389C129.858 96.5488 129.757 96.6925 129.63 96.8107C129.378 97.0513 129.059 97.1726 128.671 97.1726ZM129.756 98.2108V106.923H127.554V98.2108H129.756ZM136.759 98.0847C137.797 98.0847 138.635 98.4146 139.275 99.0754C139.914 99.7255 140.234 100.638 140.234 101.812V106.922H138.033V102.111C138.033 101.419 137.86 100.889 137.514 100.522C137.168 100.145 136.696 99.9564 136.099 99.9564C135.49 99.9564 135.008 100.145 134.652 100.522C134.306 100.889 134.133 101.419 134.133 102.111V106.922H131.931V98.2099H134.133V99.2947C134.426 98.9172 134.799 98.6232 135.249 98.4136C135.711 98.1934 136.213 98.0847 136.759 98.0847ZM148.276 99.4684C148.56 99.0696 148.948 98.7397 149.441 98.4777C149.943 98.205 150.515 98.0692 151.154 98.0692C151.898 98.0692 152.57 98.2526 153.168 98.6193C153.775 98.9861 154.252 99.5101 154.598 100.192C154.955 100.863 155.133 101.644 155.133 102.536C155.133 103.427 154.955 104.218 154.598 104.91C154.252 105.591 153.775 106.121 153.168 106.498C152.57 106.876 151.898 107.064 151.154 107.064C150.515 107.064 149.949 106.933 149.456 106.671C148.974 106.409 148.581 106.078 148.276 105.68V111.074H146.075V98.2108H148.276V99.4684ZM152.884 102.535C152.884 102.011 152.774 101.559 152.554 101.182C152.362 100.812 152.067 100.506 151.704 100.301C151.359 100.102 150.982 100.002 150.572 100.002C150.174 100.002 149.797 100.107 149.441 100.316C149.083 100.528 148.789 100.832 148.591 101.197C148.381 101.586 148.276 102.042 148.276 102.566C148.276 103.09 148.381 103.546 148.591 103.934C148.811 104.322 149.094 104.621 149.441 104.83C149.797 105.029 150.174 105.129 150.572 105.129C150.982 105.129 151.359 105.024 151.704 104.815C152.061 104.605 152.344 104.306 152.554 103.918C152.774 103.53 152.884 103.069 152.884 102.535ZM158.934 99.5625C159.204 99.1141 159.583 98.741 160.036 98.4777C160.496 98.2157 161.02 98.0847 161.607 98.0847V100.396H161.026C160.334 100.396 159.809 100.558 159.453 100.883C159.107 101.208 158.934 101.774 158.934 102.581V106.921H156.733V98.2089H158.934V99.5625ZM166.959 107.064C166.12 107.064 165.365 106.881 164.695 106.514C164.024 106.136 163.495 105.607 163.107 104.925C162.729 104.244 162.54 103.457 162.54 102.567C162.54 101.676 162.734 100.889 163.122 100.208C163.521 99.5266 164.06 99.0016 164.742 98.6349C165.424 98.2574 166.183 98.0692 167.022 98.0692C167.86 98.0692 168.621 98.2574 169.302 98.6349C169.976 98.9946 170.533 99.5406 170.906 100.208C171.305 100.889 171.504 101.676 171.504 102.567C171.504 103.457 171.299 104.244 170.89 104.925C170.503 105.596 169.937 106.146 169.255 106.514C168.573 106.881 167.809 107.064 166.959 107.064ZM166.959 105.146C167.358 105.146 167.73 105.052 168.076 104.862C168.432 104.663 168.715 104.369 168.925 103.981C169.134 103.593 169.239 103.122 169.239 102.566C169.239 101.737 169.019 101.103 168.579 100.663C168.377 100.444 168.131 100.271 167.857 100.154C167.584 100.038 167.288 99.9806 166.991 99.9865C166.693 99.9806 166.398 100.038 166.124 100.154C165.85 100.271 165.604 100.444 165.402 100.663C164.983 101.103 164.774 101.737 164.774 102.566C164.774 103.394 164.977 104.034 165.387 104.484C165.806 104.924 166.33 105.146 166.959 105.146ZM172.553 102.567C172.553 101.665 172.736 100.879 173.103 100.208C173.47 99.5266 173.978 99.0016 174.628 98.6349C175.278 98.2574 176.022 98.0692 176.862 98.0692C177.942 98.0692 178.832 98.3418 179.535 98.8871C180.248 99.4218 180.725 100.177 180.966 101.152H178.591C178.466 100.774 178.25 100.481 177.947 100.271C177.653 100.051 177.286 99.9409 176.845 99.9409C176.217 99.9409 175.719 100.172 175.352 100.633C174.985 101.084 174.802 101.728 174.802 102.567C174.802 103.395 174.985 104.04 175.352 104.5C175.719 104.952 176.217 105.177 176.845 105.177C177.737 105.177 178.318 104.778 178.591 103.981H180.966C180.725 104.924 180.248 105.674 179.535 106.23C178.822 106.786 177.931 107.064 176.862 107.064C176.022 107.064 175.278 106.881 174.628 106.514C173.978 106.136 173.47 105.612 173.103 104.941C172.736 104.26 172.553 103.468 172.553 102.567ZM190.677 102.377C190.677 102.692 190.657 102.975 190.614 103.226H184.246C184.298 103.855 184.519 104.348 184.906 104.704C185.293 105.06 185.771 105.239 186.337 105.239C187.155 105.239 187.737 104.888 188.082 104.185H190.457C190.206 105.023 189.723 105.715 189.01 106.261C188.298 106.795 187.423 107.063 186.384 107.063C185.546 107.063 184.791 106.88 184.12 106.513C183.463 106.139 182.924 105.589 182.563 104.924C182.196 104.243 182.012 103.456 182.012 102.566C182.012 101.664 182.196 100.872 182.563 100.191C182.931 99.5101 183.443 98.9851 184.104 98.6184C184.765 98.2516 185.525 98.0682 186.384 98.0682C187.212 98.0682 187.951 98.2467 188.602 98.6028C189.262 98.9589 189.771 99.4674 190.127 100.128C190.494 100.778 190.677 101.528 190.677 102.377ZM188.397 101.749C188.387 101.183 188.182 100.732 187.784 100.396C187.386 100.05 186.898 99.8769 186.321 99.8769C185.776 99.8769 185.315 100.045 184.938 100.38C184.571 100.706 184.345 101.162 184.261 101.749H188.397ZM195.618 107.064C194.906 107.064 194.265 106.938 193.7 106.687C193.134 106.425 192.683 106.073 192.347 105.633C192.022 105.192 191.844 104.705 191.812 104.171H194.03C194.072 104.506 194.234 104.784 194.518 105.004C194.811 105.224 195.173 105.334 195.602 105.334C196.022 105.334 196.347 105.249 196.578 105.083C196.818 104.915 196.94 104.7 196.94 104.437C196.94 104.154 196.792 103.944 196.499 103.809C196.216 103.662 195.76 103.505 195.131 103.337C194.481 103.18 193.946 103.018 193.527 102.85C193.115 102.68 192.749 102.416 192.458 102.079C192.164 101.733 192.017 101.267 192.017 100.68C192.017 100.198 192.153 99.7575 192.426 99.3597C192.709 98.9619 193.108 98.6465 193.621 98.4165C194.145 98.1856 194.758 98.0711 195.461 98.0711C196.499 98.0711 197.327 98.3331 197.946 98.8571C198.564 99.3704 198.904 100.068 198.967 100.949H196.861C196.851 100.789 196.807 100.633 196.731 100.492C196.655 100.35 196.549 100.227 196.42 100.131C196.168 99.9215 195.828 99.8167 195.398 99.8167C195 99.8167 194.69 99.8905 194.47 100.037C194.26 100.183 194.156 100.388 194.156 100.65C194.156 100.943 194.302 101.169 194.596 101.327C194.889 101.473 195.345 101.625 195.964 101.783C196.593 101.94 197.112 102.102 197.521 102.27C197.932 102.439 198.295 102.709 198.574 103.056C198.878 103.402 199.035 103.863 199.046 104.439C199.052 104.924 198.903 105.398 198.622 105.792C198.349 106.19 197.951 106.505 197.427 106.735C196.913 106.955 196.31 107.064 195.618 107.064ZM204.188 107.064C203.475 107.064 202.835 106.938 202.268 106.687C201.703 106.425 201.252 106.073 200.917 105.633C200.598 105.209 200.412 104.7 200.382 104.171H202.599C202.619 104.335 202.673 104.494 202.756 104.638C202.84 104.781 202.953 104.906 203.086 105.004C203.38 105.224 203.741 105.334 204.171 105.334C204.591 105.334 204.916 105.249 205.146 105.083C205.388 104.915 205.508 104.7 205.508 104.437C205.508 104.154 205.362 103.944 205.068 103.809C204.784 103.662 204.329 103.505 203.7 103.337C203.05 103.18 202.515 103.018 202.096 102.85C201.684 102.68 201.318 102.416 201.026 102.079C200.733 101.733 200.586 101.267 200.586 100.68C200.583 100.208 200.726 99.7472 200.995 99.3597C201.278 98.9619 201.677 98.6465 202.19 98.4165C202.715 98.1856 203.328 98.0711 204.031 98.0711C205.068 98.0711 205.896 98.3331 206.515 98.8571C207.134 99.3704 207.474 100.068 207.537 100.949H205.43C205.399 100.603 205.251 100.33 204.989 100.131C204.738 99.9215 204.397 99.8167 203.967 99.8167C203.569 99.8167 203.259 99.8905 203.04 100.037C202.829 100.183 202.725 100.388 202.725 100.65C202.725 100.943 202.872 101.169 203.165 101.327C203.459 101.473 203.915 101.625 204.533 101.783C205.162 101.94 205.681 102.102 206.091 102.27C206.5 102.438 206.85 102.7 207.144 103.056C207.448 103.402 207.605 103.863 207.616 104.439C207.616 104.943 207.474 105.393 207.191 105.792C206.918 106.19 206.52 106.505 205.995 106.735C205.482 106.955 204.88 107.064 204.188 107.064Z" fill="#2A3033"/>
<path d="M43.8738 121.867C43.8738 121.243 44.0145 120.684 44.2959 120.188C44.5644 119.7 44.9609 119.294 45.4428 119.014C45.9318 118.733 46.4733 118.592 47.0661 118.592C47.7628 118.592 48.3722 118.761 48.8913 119.097C49.4104 119.432 49.7908 119.91 50.0285 120.528H49.0291C48.8515 120.143 48.5953 119.846 48.2586 119.638C47.9287 119.43 47.5309 119.326 47.0661 119.326C46.6198 119.326 46.219 119.43 45.8649 119.638C45.5075 119.849 45.2179 120.158 45.0304 120.528C44.8286 120.907 44.7277 121.353 44.7277 121.867C44.7277 122.374 44.8286 122.822 45.0304 123.207C45.2322 123.585 45.5107 123.879 45.8649 124.087C46.219 124.295 46.6198 124.399 47.0661 124.399C47.5309 124.399 47.9287 124.298 48.2586 124.097C48.5953 123.888 48.8515 123.592 49.0291 123.207H50.0285C49.7898 123.818 49.4104 124.292 48.8913 124.628C48.3712 124.958 47.7628 125.123 47.0661 125.123C46.4983 125.13 45.9386 124.988 45.4428 124.711C44.9596 124.429 44.5773 124.041 44.2959 123.545C44.0145 123.05 43.8738 122.491 43.8738 121.867ZM53.7671 119.949C54.1465 119.949 54.489 120.033 54.7947 120.198C55.1003 120.357 55.339 120.599 55.5098 120.923C55.6874 121.247 55.7757 121.641 55.7757 122.105V125.069H54.9499V122.225C54.9499 121.723 54.8247 121.341 54.5734 121.078C54.3231 120.809 53.9806 120.674 53.5459 120.674C53.1053 120.674 52.7541 120.812 52.4911 121.088C52.234 121.362 52.1059 121.763 52.1059 122.289V125.069H51.2715V118.28H52.1059V120.757C52.2709 120.501 52.497 120.302 52.7851 120.161C53.0922 120.017 53.428 119.945 53.7671 119.949ZM61.7266 122.363C61.7266 122.522 61.7179 122.69 61.6994 122.867H57.6814C57.7124 123.362 57.8803 123.751 58.1859 124.032C58.4984 124.307 58.8739 124.445 59.3144 124.445C59.6753 124.445 59.9752 124.362 60.2129 124.197C60.4574 124.026 60.6292 123.8 60.7262 123.518H61.6247C61.4898 124.001 61.2211 124.395 60.8174 124.702C60.4138 125.001 59.9121 125.151 59.3134 125.151C58.8644 125.159 58.4214 125.048 58.0287 124.83C57.6552 124.616 57.3621 124.313 57.1477 123.922C56.9332 123.524 56.8265 123.066 56.8265 122.546C56.8265 122.026 56.9303 121.571 57.1389 121.179C57.3476 120.787 57.6377 120.488 58.0103 120.28C58.3897 120.066 58.8234 119.959 59.3134 119.959C59.7908 119.959 60.2119 120.063 60.5797 120.271C60.9385 120.471 61.2317 120.77 61.4239 121.133C61.6257 121.494 61.7266 121.904 61.7266 122.363ZM60.864 122.188C60.864 121.87 60.7941 121.598 60.6525 121.372C60.5118 121.139 60.3196 120.965 60.0741 120.849C59.8354 120.727 59.5696 120.666 59.2765 120.666C58.8545 120.666 58.4935 120.8 58.1937 121.069C57.9006 121.338 57.7318 121.712 57.6891 122.188H60.864ZM62.5164 122.546C62.5164 122.026 62.6203 121.574 62.8279 121.189C63.0355 120.797 63.3237 120.494 63.6905 120.28C64.0631 120.066 64.4881 119.959 64.9655 119.959C65.5826 119.959 66.0911 120.109 66.4879 120.408C66.8916 120.708 67.1574 121.124 67.2855 121.656H66.387C66.3016 121.351 66.1338 121.109 65.8824 120.931C65.6379 120.754 65.3323 120.666 64.9655 120.666C64.4881 120.666 64.1029 120.83 63.8099 121.16C63.5158 121.484 63.3693 121.946 63.3693 122.546C63.3693 123.151 63.5158 123.619 63.8099 123.949C64.1039 124.279 64.4891 124.445 64.9655 124.445C65.3323 124.445 65.6379 124.36 65.8824 124.188C66.127 124.016 66.2948 123.772 66.387 123.454H67.2855C67.1649 123.947 66.8801 124.383 66.4782 124.692C66.0746 124.998 65.57 125.151 64.9645 125.151C64.4871 125.151 64.0621 125.045 63.6895 124.83C63.3219 124.615 63.0228 124.3 62.8269 123.922C62.6193 123.531 62.5164 123.072 62.5164 122.546ZM71.2075 125.069L69.2349 122.849V125.069H68.4004V118.28H69.2349V122.27L71.1707 120.042H72.336L69.9694 122.546L72.3457 125.069H71.2075ZM73.5528 119.226C73.3937 119.226 73.2597 119.17 73.1491 119.06C73.0385 118.949 72.9842 118.815 72.9842 118.656C72.9829 118.581 72.9968 118.507 73.0252 118.437C73.0536 118.368 73.0957 118.305 73.1491 118.252C73.2597 118.143 73.3937 118.087 73.5528 118.087C73.7061 118.087 73.8342 118.143 73.938 118.252C73.9914 118.305 74.0336 118.368 74.0619 118.437C74.0903 118.507 74.1042 118.581 74.1029 118.656C74.1029 118.815 74.0476 118.95 73.938 119.06C73.8342 119.17 73.7051 119.226 73.5528 119.226ZM73.9564 120.042V125.069H73.122V120.042H73.9564ZM77.828 119.949C78.4393 119.949 78.9351 120.137 79.3145 120.509C79.6939 120.876 79.8831 121.409 79.8831 122.105V125.069H79.0574V122.225C79.0574 121.723 78.9322 121.341 78.6809 121.078C78.4306 120.809 78.088 120.674 77.6533 120.674C77.2128 120.674 76.8616 120.812 76.5986 121.088C76.3415 121.362 76.2134 121.763 76.2134 122.289V125.069H75.3789V120.042H76.2134V120.757C76.3781 120.501 76.6096 120.295 76.8829 120.161C77.1701 120.02 77.4855 119.949 77.828 119.949ZM83.32 119.959C83.7547 119.959 84.1331 120.054 84.4572 120.243C84.7871 120.433 85.0316 120.671 85.1907 120.959V120.042H86.0349V125.178C86.0349 125.637 85.9369 126.044 85.7409 126.399C85.5449 126.754 85.2635 127.04 84.8967 127.242C84.5358 127.444 84.1137 127.545 83.6305 127.545C82.9697 127.545 82.4195 127.39 81.979 127.077C81.7663 126.932 81.5868 126.743 81.4523 126.523C81.3179 126.304 81.2315 126.058 81.1989 125.802H82.0246C82.1158 126.108 82.306 126.353 82.5932 126.536C82.8804 126.726 83.2258 126.82 83.6295 126.82C84.0885 126.82 84.4611 126.677 84.7483 126.389C85.0413 126.102 85.1888 125.699 85.1888 125.178V124.124C85.0238 124.418 84.7793 124.662 84.4552 124.857C84.1312 125.052 83.7518 125.151 83.318 125.151C82.8717 125.151 82.4651 125.041 82.0983 124.82C81.7374 124.601 81.4531 124.292 81.2454 123.895C81.0378 123.498 80.934 123.045 80.934 122.536C80.934 122.023 81.0378 121.574 81.2454 121.189C81.4531 120.797 81.7374 120.494 82.0983 120.28C82.4651 120.066 82.8717 119.959 83.318 119.959H83.32ZM85.1917 122.546C85.1917 122.167 85.115 121.837 84.9627 121.555C84.8104 121.274 84.6018 121.059 84.3388 120.913C84.0808 120.76 83.7858 120.681 83.4859 120.684C83.1735 120.684 82.8891 120.757 82.633 120.904C82.3768 121.052 82.1711 121.265 82.0188 121.546C81.8664 121.826 81.7898 122.158 81.7898 122.536C81.7898 122.922 81.8664 123.258 82.0188 123.545C82.1721 123.827 82.3768 124.044 82.633 124.197C82.8901 124.344 83.1744 124.418 83.4859 124.418C83.7974 124.418 84.0817 124.344 84.3388 124.197C84.6018 124.044 84.8094 123.827 84.9627 123.545C85.116 123.258 85.1917 122.925 85.1917 122.546ZM94.2214 120.042L91.1941 127.435H90.3315L91.3221 125.014L89.2952 120.042H90.2218L91.7995 124.115L93.3588 120.042H94.2214ZM97.2527 125.151C96.7821 125.151 96.3532 125.045 95.968 124.83C95.5897 124.617 95.2782 124.302 95.0685 123.922C94.8541 123.524 94.7474 123.066 94.7474 122.546C94.7474 122.032 94.857 121.58 95.0773 121.189C95.3033 120.791 95.609 120.488 95.9942 120.28C96.3794 120.066 96.8102 119.959 97.2876 119.959C97.765 119.959 98.1959 120.066 98.5811 120.28C98.9642 120.486 99.2797 120.798 99.4893 121.179C99.7154 121.571 99.8289 122.026 99.8289 122.546C99.8289 123.066 99.7125 123.524 99.4806 123.922C99.2623 124.305 98.9413 124.62 98.5539 124.83C98.1629 125.045 97.7291 125.151 97.2527 125.151ZM97.2527 124.418C97.5525 124.418 97.8339 124.347 98.0969 124.206C98.3598 124.066 98.5704 123.855 98.7295 123.574C98.8945 123.292 98.977 122.95 98.977 122.546C98.977 122.142 98.8974 121.8 98.7383 121.518C98.5959 121.254 98.379 121.037 98.1143 120.895C97.8587 120.754 97.5714 120.682 97.2799 120.684C96.9851 120.681 96.6945 120.753 96.4357 120.895C96.1765 121.038 95.9658 121.255 95.8302 121.518C95.6769 121.8 95.6012 122.142 95.6012 122.546C95.6012 122.955 95.675 123.301 95.8215 123.582C95.9738 123.864 96.1757 124.075 96.427 124.216C96.6811 124.351 96.9649 124.42 97.2527 124.418ZM105.387 120.042V125.069H104.551V124.326C104.392 124.583 104.169 124.785 103.882 124.931C103.601 125.072 103.289 125.142 102.947 125.142C102.581 125.147 102.219 125.066 101.892 124.904C101.58 124.738 101.332 124.493 101.149 124.169C100.971 123.845 100.883 123.451 100.883 122.987V120.042H101.708V122.876C101.708 123.372 101.834 123.754 102.085 124.023C102.335 124.286 102.678 124.418 103.112 124.418C103.559 124.418 103.911 124.28 104.167 124.004C104.423 123.729 104.552 123.329 104.552 122.803V120.042H105.387ZM107.631 120.858C107.77 120.579 107.986 120.346 108.254 120.188C108.53 120.029 108.863 119.949 109.255 119.949V120.812H109.034C108.099 120.812 107.631 121.32 107.631 122.334V125.069H106.796V120.042H107.631V120.858ZM112.352 122.536C112.352 122.023 112.456 121.574 112.663 121.189C112.872 120.797 113.156 120.494 113.517 120.28C113.884 120.066 114.29 119.959 114.737 119.959C115.177 119.959 115.56 120.054 115.884 120.243C116.208 120.433 116.449 120.671 116.609 120.959V120.042H117.452V125.069H116.609V124.132C116.443 124.426 116.195 124.671 115.865 124.867C115.541 125.056 115.162 125.151 114.728 125.151C114.281 125.151 113.878 125.041 113.517 124.82C113.156 124.6 112.872 124.292 112.663 123.895C112.455 123.498 112.352 123.045 112.352 122.536ZM116.609 122.546C116.609 122.167 116.532 121.837 116.379 121.555C116.225 121.274 116.018 121.059 115.755 120.913C115.499 120.761 115.214 120.684 114.902 120.684C114.589 120.684 114.306 120.757 114.049 120.904C113.787 121.055 113.574 121.278 113.435 121.546C113.281 121.827 113.205 122.158 113.205 122.536C113.205 122.922 113.281 123.258 113.435 123.545C113.576 123.815 113.788 124.041 114.049 124.197C114.306 124.344 114.59 124.418 114.902 124.418C115.201 124.421 115.495 124.345 115.755 124.197C116.018 124.044 116.226 123.827 116.379 123.545C116.532 123.258 116.609 122.925 116.609 122.546ZM121.312 119.949C121.924 119.949 122.419 120.137 122.798 120.509C123.178 120.876 123.367 121.409 123.367 122.105V125.069H122.541V122.225C122.541 121.723 122.416 121.341 122.166 121.078C121.914 120.809 121.572 120.674 121.138 120.674C120.697 120.674 120.346 120.812 120.083 121.088C119.826 121.362 119.698 121.763 119.698 122.289V125.069H118.863V120.042H119.698V120.757C119.863 120.501 120.086 120.302 120.368 120.161C120.662 120.018 120.985 119.946 121.312 119.949ZM126.51 125.151C126.124 125.151 125.779 125.087 125.473 124.958C125.168 124.824 124.926 124.641 124.749 124.408C124.572 124.171 124.47 123.887 124.455 123.592H125.317C125.342 123.842 125.458 124.047 125.666 124.206C125.875 124.365 126.158 124.445 126.501 124.445C126.819 124.445 127.069 124.374 127.253 124.233C127.436 124.093 127.528 123.916 127.528 123.702C127.533 123.601 127.507 123.501 127.455 123.414C127.402 123.328 127.326 123.259 127.234 123.216C127.039 123.106 126.737 122.998 126.326 122.894C126.015 122.816 125.709 122.718 125.409 122.601C125.176 122.497 124.976 122.347 124.804 122.151C124.639 121.949 124.556 121.686 124.556 121.362C124.556 121.108 124.636 120.861 124.785 120.656C124.939 120.442 125.155 120.274 125.436 120.151C125.718 120.023 126.039 119.959 126.4 119.959C126.957 119.959 127.406 120.1 127.749 120.381C128.091 120.663 128.275 121.048 128.299 121.537H127.464C127.446 121.274 127.338 121.063 127.143 120.904C126.948 120.745 126.697 120.666 126.373 120.666C126.073 120.666 125.834 120.73 125.657 120.858C125.479 120.986 125.391 121.155 125.391 121.362C125.391 121.528 125.443 121.665 125.547 121.776C125.665 121.885 125.802 121.971 125.951 122.032C126.174 122.112 126.4 122.182 126.629 122.243C126.99 122.341 127.284 122.439 127.51 122.536C127.736 122.628 127.929 122.769 128.088 122.958C128.253 123.149 128.339 123.396 128.344 123.702C128.344 123.977 128.268 124.225 128.115 124.445C127.95 124.675 127.725 124.856 127.464 124.968C127.189 125.09 126.871 125.151 126.51 125.151ZM136.22 120.042L134.651 125.069H133.789L132.578 121.078L131.367 125.069H130.504L128.927 120.042H129.78L130.936 124.262L132.183 120.042H133.037L134.257 124.27L135.394 120.042H136.22ZM141.635 122.363C141.635 122.522 141.625 122.69 141.607 122.867H137.59C137.62 123.362 137.788 123.751 138.094 124.032C138.406 124.307 138.782 124.445 139.222 124.445C139.583 124.445 139.883 124.362 140.121 124.197C140.361 124.032 140.541 123.794 140.635 123.518H141.534C141.399 124.001 141.13 124.395 140.727 124.702C140.323 125.001 139.821 125.151 139.222 125.151C138.773 125.159 138.33 125.048 137.938 124.83C137.564 124.616 137.271 124.313 137.057 123.922C136.843 123.524 136.736 123.066 136.736 122.546C136.736 122.026 136.841 121.571 137.048 121.179C137.256 120.787 137.547 120.488 137.92 120.28C138.299 120.066 138.733 119.959 139.222 119.959C139.699 119.959 140.121 120.063 140.488 120.271C140.855 120.478 141.136 120.766 141.332 121.133C141.538 121.51 141.642 121.933 141.635 122.363ZM140.772 122.188C140.772 121.87 140.702 121.598 140.562 121.372C140.426 121.144 140.224 120.962 139.983 120.849C139.745 120.727 139.479 120.666 139.186 120.666C138.764 120.666 138.403 120.8 138.103 121.069C137.81 121.338 137.641 121.712 137.598 122.188H140.772ZM143.572 120.858C143.718 120.57 143.926 120.347 144.196 120.188C144.465 120.029 144.804 119.949 145.195 119.949V120.812H144.975C144.039 120.812 143.572 121.32 143.572 122.334V125.069H142.736V120.042H143.572V120.858ZM147.938 125.151C147.553 125.151 147.207 125.087 146.902 124.958C146.596 124.824 146.354 124.641 146.177 124.408C145.999 124.169 145.901 123.898 145.884 123.592H146.746C146.77 123.842 146.886 124.047 147.094 124.206C147.308 124.365 147.587 124.445 147.929 124.445C148.248 124.445 148.498 124.374 148.681 124.233C148.865 124.093 148.957 123.916 148.957 123.702C148.961 123.601 148.935 123.501 148.883 123.414C148.831 123.328 148.754 123.259 148.663 123.216C148.467 123.106 148.164 122.998 147.755 122.894C147.443 122.816 147.137 122.718 146.838 122.601C146.605 122.497 146.403 122.347 146.232 122.151C146.067 121.949 145.985 121.686 145.985 121.362C145.985 121.106 146.06 120.87 146.214 120.656C146.367 120.441 146.583 120.274 146.865 120.151C147.146 120.023 147.467 119.959 147.828 119.959C148.384 119.959 148.835 120.1 149.177 120.381C149.52 120.663 149.703 121.048 149.727 121.537H148.892C148.887 121.415 148.856 121.295 148.801 121.186C148.745 121.077 148.667 120.981 148.572 120.904C148.381 120.745 148.124 120.666 147.8 120.666C147.501 120.666 147.263 120.73 147.085 120.858C146.908 120.986 146.819 121.155 146.819 121.362C146.819 121.528 146.871 121.665 146.975 121.776C147.093 121.885 147.23 121.971 147.379 122.032C147.602 122.112 147.828 122.182 148.057 122.243C148.418 122.341 148.712 122.439 148.938 122.536C149.165 122.628 149.357 122.769 149.516 122.958C149.681 123.149 149.767 123.396 149.773 123.702C149.773 123.977 149.696 124.225 149.544 124.445C149.392 124.665 149.173 124.839 148.892 124.968C148.617 125.09 148.299 125.151 147.938 125.151ZM153.085 122.536C153.085 122.023 153.189 121.574 153.397 121.189C153.605 120.797 153.889 120.494 154.25 120.28C154.617 120.066 155.027 119.959 155.479 119.959C155.87 119.959 156.234 120.05 156.571 120.235C156.908 120.411 157.164 120.647 157.341 120.94V118.28H158.186V125.069H157.341V124.124C157.176 124.424 156.932 124.671 156.608 124.867C156.284 125.056 155.904 125.151 155.47 125.151C155.023 125.151 154.617 125.041 154.25 124.82C153.885 124.597 153.59 124.276 153.397 123.895C153.189 123.497 153.085 123.045 153.085 122.536ZM157.341 122.546C157.341 122.167 157.265 121.837 157.112 121.555C156.971 121.286 156.754 121.063 156.488 120.913C156.231 120.761 155.947 120.684 155.636 120.684C155.324 120.684 155.039 120.757 154.782 120.904C154.525 121.052 154.321 121.265 154.167 121.546C154.014 121.826 153.938 122.158 153.938 122.536C153.938 122.922 154.014 123.258 154.167 123.545C154.321 123.827 154.526 124.044 154.782 124.197C155.039 124.344 155.323 124.418 155.636 124.418C155.948 124.418 156.231 124.344 156.488 124.197C156.753 124.042 156.969 123.817 157.112 123.545C157.265 123.258 157.341 122.925 157.341 122.546ZM159.284 122.536C159.284 122.023 159.388 121.574 159.596 121.189C159.804 120.797 160.088 120.494 160.449 120.28C160.816 120.066 161.223 119.959 161.669 119.959C162.109 119.959 162.492 120.054 162.816 120.243C163.14 120.433 163.382 120.671 163.541 120.959V120.042H164.385V125.069H163.541V124.132C163.376 124.426 163.127 124.671 162.797 124.867C162.473 125.056 162.094 125.151 161.66 125.151C161.234 125.156 160.814 125.042 160.449 124.82C160.085 124.597 159.789 124.276 159.596 123.895C159.388 123.497 159.284 123.045 159.284 122.536ZM163.541 122.546C163.541 122.167 163.464 121.837 163.312 121.555C163.17 121.286 162.953 121.063 162.688 120.913C162.431 120.761 162.146 120.684 161.834 120.684C161.521 120.684 161.238 120.757 160.981 120.904C160.724 121.052 160.519 121.265 160.367 121.546C160.214 121.826 160.137 122.158 160.137 122.536C160.137 122.922 160.214 123.258 160.367 123.545C160.519 123.827 160.725 124.044 160.981 124.197C161.238 124.344 161.522 124.418 161.834 124.418C162.145 124.418 162.431 124.344 162.688 124.197C162.952 124.042 163.168 123.817 163.312 123.545C163.464 123.258 163.541 122.925 163.541 122.546ZM166.814 120.73V123.693C166.814 123.937 166.865 124.111 166.97 124.216C167.074 124.313 167.254 124.362 167.51 124.362H168.125V125.069H167.373C166.909 125.069 166.559 124.961 166.327 124.748C166.096 124.534 165.979 124.182 165.979 123.693V120.73H165.327V120.042H165.979V118.775H166.814V120.042H168.125V120.73H166.813H166.814ZM168.825 122.536C168.825 122.023 168.929 121.574 169.137 121.189C169.344 120.797 169.628 120.494 169.989 120.28C170.36 120.065 170.782 119.954 171.21 119.959C171.651 119.959 172.032 120.054 172.356 120.243C172.68 120.433 172.922 120.671 173.081 120.959V120.042H173.925V125.069H173.081V124.132C172.916 124.426 172.668 124.671 172.339 124.867C172.014 125.056 171.635 125.151 171.2 125.151C170.774 125.156 170.354 125.042 169.989 124.82C169.625 124.597 169.33 124.276 169.137 123.895C168.929 123.497 168.825 123.045 168.825 122.536ZM173.081 122.546C173.081 122.167 173.005 121.837 172.852 121.555C172.71 121.286 172.493 121.063 172.228 120.913C171.971 120.761 171.687 120.684 171.375 120.684C171.076 120.68 170.782 120.756 170.522 120.904C170.261 121.056 170.047 121.278 169.907 121.546C169.755 121.827 169.678 122.158 169.678 122.536C169.678 122.922 169.755 123.258 169.907 123.545C170.049 123.815 170.261 124.04 170.522 124.197C170.782 124.345 171.076 124.421 171.375 124.418C171.687 124.418 171.971 124.344 172.228 124.197C172.492 124.042 172.709 123.817 172.852 123.545C173.005 123.258 173.081 122.925 173.081 122.546ZM176.198 123.913L175.171 126.381H174.611L175.281 123.913H176.198ZM180.435 120.968C180.6 120.681 180.844 120.442 181.168 120.252C181.498 120.057 181.881 119.959 182.315 119.959C182.762 119.959 183.165 120.066 183.526 120.28C183.893 120.494 184.18 120.797 184.388 121.189C184.597 121.574 184.7 122.023 184.7 122.536C184.7 123.045 184.597 123.497 184.388 123.895C184.193 124.278 183.895 124.599 183.526 124.82C183.162 125.042 182.742 125.156 182.315 125.151C181.887 125.151 181.508 125.056 181.178 124.867C180.874 124.691 180.619 124.442 180.435 124.142V127.454H179.6V120.042H180.435V120.968ZM183.847 122.536C183.847 122.158 183.771 121.827 183.617 121.546C183.464 121.264 183.257 121.051 182.994 120.904C182.734 120.756 182.44 120.68 182.141 120.684C181.835 120.684 181.551 120.761 181.288 120.913C181.031 121.059 180.823 121.277 180.664 121.564C180.512 121.845 180.435 122.172 180.435 122.546C180.435 122.925 180.512 123.258 180.664 123.545C180.823 123.827 181.031 124.044 181.288 124.197C181.551 124.344 181.835 124.418 182.141 124.418C182.439 124.421 182.734 124.345 182.994 124.197C183.257 124.044 183.465 123.827 183.617 123.545C183.771 123.258 183.847 122.922 183.847 122.536ZM186.634 118.28V125.069H185.799V118.28H186.634ZM192.643 122.363C192.643 122.522 192.634 122.69 192.615 122.867H188.598C188.628 123.362 188.796 123.751 189.103 124.032C189.414 124.307 189.791 124.445 190.23 124.445C190.591 124.445 190.891 124.362 191.13 124.197C191.374 124.026 191.545 123.8 191.643 123.518H192.542C192.408 124.001 192.139 124.395 191.735 124.702C191.331 125.001 190.83 125.151 190.23 125.151C189.782 125.159 189.339 125.048 188.946 124.83C188.573 124.616 188.28 124.313 188.065 123.922C187.852 123.524 187.744 123.066 187.744 122.546C187.744 122.026 187.849 121.571 188.057 121.179C188.264 120.787 188.555 120.488 188.928 120.28C189.307 120.066 189.741 119.959 190.23 119.959C190.708 119.959 191.13 120.063 191.496 120.271C191.863 120.478 192.145 120.766 192.341 121.133C192.546 121.51 192.651 121.933 192.643 122.363ZM191.781 122.188C191.781 121.87 191.711 121.598 191.57 121.372C191.434 121.144 191.233 120.962 190.992 120.849C190.753 120.727 190.487 120.666 190.194 120.666C189.772 120.666 189.411 120.8 189.111 121.069C188.818 121.338 188.65 121.712 188.607 122.188H191.781ZM193.433 122.536C193.433 122.023 193.537 121.574 193.745 121.189C193.953 120.797 194.238 120.494 194.599 120.28C194.965 120.066 195.372 119.959 195.818 119.959C196.259 119.959 196.641 120.054 196.965 120.243C197.289 120.433 197.531 120.671 197.69 120.959V120.042H198.533V125.069H197.69V124.132C197.524 124.426 197.277 124.671 196.947 124.867C196.623 125.056 196.243 125.151 195.809 125.151C195.362 125.151 194.959 125.041 194.599 124.82C194.239 124.6 193.953 124.292 193.745 123.895C193.536 123.498 193.433 123.045 193.433 122.536ZM197.69 122.546C197.69 122.167 197.613 121.837 197.46 121.555C197.307 121.274 197.099 121.059 196.836 120.913C196.58 120.761 196.296 120.684 195.983 120.684C195.671 120.684 195.387 120.757 195.13 120.904C194.869 121.055 194.656 121.278 194.516 121.546C194.363 121.827 194.286 122.158 194.286 122.536C194.286 122.922 194.363 123.258 194.516 123.545C194.657 123.815 194.87 124.041 195.13 124.197C195.387 124.344 195.672 124.418 195.983 124.418C196.282 124.421 196.576 124.345 196.836 124.197C197.099 124.044 197.308 123.827 197.46 123.545C197.613 123.258 197.69 122.925 197.69 122.546ZM201.724 125.151C201.338 125.151 200.993 125.087 200.687 124.958C200.382 124.824 200.14 124.641 199.962 124.408C199.785 124.169 199.687 123.898 199.669 123.592H200.531C200.555 123.842 200.672 124.047 200.879 124.206C201.094 124.365 201.372 124.445 201.715 124.445C202.033 124.445 202.283 124.374 202.467 124.233C202.65 124.093 202.742 123.916 202.742 123.702C202.747 123.601 202.721 123.501 202.669 123.414C202.616 123.328 202.54 123.259 202.448 123.216C202.252 123.106 201.95 122.998 201.54 122.894C201.229 122.816 200.922 122.718 200.623 122.601C200.39 122.497 200.189 122.347 200.018 122.151C199.853 121.949 199.77 121.686 199.77 121.362C199.77 121.106 199.846 120.87 199.999 120.656C200.153 120.441 200.369 120.274 200.65 120.151C200.932 120.023 201.253 119.959 201.614 119.959C202.17 119.959 202.62 120.1 202.962 120.381C203.303 120.663 203.489 121.048 203.513 121.537H202.677C202.672 121.415 202.641 121.295 202.586 121.186C202.531 121.077 202.453 120.981 202.357 120.904C202.167 120.745 201.91 120.666 201.586 120.666C201.287 120.666 201.048 120.73 200.871 120.858C200.693 120.986 200.605 121.155 200.605 121.362C200.605 121.528 200.656 121.665 200.761 121.776C200.879 121.885 201.016 121.971 201.165 122.032C201.388 122.112 201.614 122.182 201.843 122.243C202.204 122.341 202.498 122.439 202.724 122.536C202.95 122.628 203.142 122.769 203.301 122.958C203.466 123.149 203.553 123.396 203.558 123.702C203.558 123.977 203.482 124.225 203.329 124.445C203.177 124.665 202.959 124.839 202.677 124.968C202.403 125.09 202.085 125.151 201.724 125.151ZM209.323 122.363C209.323 122.522 209.314 122.69 209.296 122.867H205.278C205.309 123.362 205.477 123.751 205.782 124.032C206.095 124.307 206.47 124.445 206.911 124.445C207.272 124.445 207.572 124.362 207.81 124.197C208.055 124.026 208.226 123.8 208.324 123.518H209.222C209.094 123.992 208.809 124.409 208.415 124.702C208.012 125.001 207.511 125.151 206.911 125.151C206.433 125.151 206.006 125.045 205.626 124.83C205.254 124.616 204.949 124.301 204.746 123.922C204.532 123.524 204.425 123.066 204.425 122.546C204.425 122.026 204.529 121.571 204.736 121.179C204.944 120.787 205.235 120.488 205.609 120.28C205.987 120.066 206.422 119.959 206.911 119.959C207.388 119.959 207.81 120.063 208.177 120.271C208.544 120.478 208.825 120.766 209.02 121.133C209.226 121.51 209.33 121.933 209.323 122.363ZM208.461 122.188C208.461 121.87 208.391 121.598 208.25 121.372C208.109 121.139 207.917 120.965 207.673 120.849C207.434 120.727 207.168 120.666 206.874 120.666C206.475 120.657 206.088 120.801 205.792 121.069C205.498 121.338 205.33 121.712 205.288 122.188H208.461ZM219.568 120.042L217.999 125.069H217.136L215.926 121.078L214.715 125.069H213.852L212.275 120.042H213.128L214.283 124.262L215.531 120.042H216.384L217.605 124.27L218.742 120.042H219.568ZM220.084 122.536C220.084 122.023 220.188 121.574 220.396 121.189C220.604 120.797 220.888 120.494 221.249 120.28C221.616 120.066 222.023 119.959 222.469 119.959C222.909 119.959 223.292 120.054 223.616 120.243C223.94 120.433 224.181 120.671 224.341 120.959V120.042H225.185V125.069H224.341V124.132C224.176 124.426 223.927 124.671 223.597 124.867C223.273 125.056 222.894 125.151 222.46 125.151C222.033 125.156 221.614 125.042 221.249 124.82C220.885 124.597 220.589 124.276 220.396 123.895C220.188 123.497 220.084 123.045 220.084 122.536ZM224.341 122.546C224.341 122.167 224.264 121.837 224.111 121.555C223.97 121.285 223.753 121.062 223.488 120.913C223.231 120.761 222.946 120.684 222.634 120.684C222.321 120.684 222.038 120.757 221.781 120.904C221.519 121.055 221.306 121.278 221.167 121.546C221.013 121.827 220.937 122.158 220.937 122.536C220.937 122.922 221.013 123.258 221.167 123.545C221.308 123.815 221.52 124.041 221.781 124.197C222.038 124.344 222.322 124.418 222.634 124.418C222.945 124.418 223.231 124.344 223.488 124.197C223.752 124.043 223.968 123.817 224.111 123.545C224.264 123.258 224.341 122.925 224.341 122.546ZM227.026 119.226C226.867 119.226 226.732 119.17 226.623 119.06C226.513 118.949 226.458 118.815 226.458 118.656C226.458 118.497 226.512 118.363 226.623 118.252C226.733 118.142 226.867 118.087 227.026 118.087C227.179 118.087 227.308 118.143 227.412 118.252C227.465 118.305 227.507 118.368 227.536 118.437C227.564 118.507 227.578 118.581 227.577 118.656C227.577 118.815 227.521 118.95 227.412 119.06C227.308 119.17 227.179 119.226 227.026 119.226ZM227.43 120.042V125.069H226.595V120.042H227.43ZM229.87 120.73V123.693C229.87 123.937 229.923 124.111 230.027 124.216C230.13 124.313 230.311 124.362 230.568 124.362H231.182V125.069H230.43C229.966 125.069 229.617 124.961 229.384 124.748C229.151 124.534 229.036 124.182 229.036 123.693V120.73H228.385V120.042H229.036V118.775H229.87V120.042H231.182V120.73H229.87ZM232.46 125.123C232.301 125.123 232.166 125.069 232.057 124.958C231.947 124.848 231.892 124.714 231.892 124.555C231.892 124.395 231.946 124.262 232.057 124.151C232.167 124.04 232.301 123.986 232.46 123.986C232.613 123.986 232.742 124.041 232.845 124.151C232.899 124.203 232.941 124.266 232.969 124.336C232.998 124.405 233.012 124.48 233.01 124.555C233.01 124.714 232.955 124.849 232.845 124.958C232.742 125.069 232.613 125.123 232.46 125.123ZM45.0032 132.259V136.305C45.0032 136.874 45.141 137.296 45.4156 137.57C45.697 137.846 46.0851 137.984 46.581 137.984C47.07 137.984 47.4523 137.846 47.7279 137.57C48.0093 137.296 48.15 136.874 48.15 136.305V132.259H48.9844V136.295C48.9844 136.827 48.8777 137.277 48.6633 137.644C48.4604 137.995 48.1568 138.276 47.7919 138.451C47.4114 138.633 46.9939 138.724 46.5722 138.717C46.1475 138.724 45.727 138.633 45.3428 138.451C44.9815 138.274 44.6813 137.993 44.4802 137.644C44.2726 137.277 44.1688 136.827 44.1688 136.295V132.259H45.0032ZM52.1564 138.736C51.7712 138.736 51.4257 138.672 51.1201 138.543C50.8144 138.414 50.5728 138.225 50.3953 137.992C50.2177 137.754 50.1197 137.482 50.1013 137.176H50.9639C50.9881 137.427 51.1046 137.631 51.3122 137.791C51.5266 137.95 51.8042 138.029 52.1467 138.029C52.4649 138.029 52.7153 137.958 52.8987 137.818C53.0821 137.677 53.1742 137.5 53.1742 137.286C53.1785 137.185 53.153 137.085 53.1009 136.999C53.0488 136.912 52.9724 136.843 52.8812 136.8C52.6852 136.69 52.3825 136.583 51.973 136.479C51.6004 136.381 51.2938 136.283 51.056 136.186C50.8241 136.081 50.6223 135.931 50.4506 135.735C50.2856 135.534 50.2031 135.271 50.2031 134.947C50.2031 134.69 50.2798 134.455 50.4321 134.24C50.5845 134.026 50.8018 133.858 51.0832 133.736C51.3646 133.608 51.6858 133.544 52.0467 133.544C52.6027 133.544 53.053 133.684 53.3955 133.966C53.738 134.247 53.9214 134.632 53.9456 135.121H53.1112C53.1061 134.999 53.0748 134.879 53.0194 134.77C52.964 134.661 52.8858 134.565 52.79 134.489C52.6008 134.329 52.3437 134.25 52.0196 134.25C51.7197 134.25 51.481 134.314 51.3044 134.442C51.1279 134.57 51.0386 134.739 51.0386 134.947C51.0386 135.113 51.091 135.249 51.1948 135.36C51.3129 135.469 51.4496 135.556 51.5985 135.616C51.7634 135.678 51.9895 135.748 52.2777 135.828C52.5777 135.905 52.872 136.003 53.1587 136.121C53.3848 136.213 53.5779 136.354 53.737 136.543C53.902 136.733 53.9874 136.98 53.9942 137.286C53.9974 137.552 53.9173 137.812 53.7652 138.029C53.6119 138.25 53.3955 138.423 53.1141 138.552C52.8385 138.675 52.5212 138.736 52.1603 138.736H52.1564ZM59.6278 133.626V138.653H58.7933V137.91C58.6342 138.167 58.411 138.369 58.1238 138.515C57.8424 138.656 57.531 138.726 57.1884 138.726C56.823 138.732 56.4614 138.65 56.1337 138.488C55.8222 138.322 55.5738 138.078 55.3904 137.754C55.2129 137.43 55.1246 137.036 55.1246 136.571V133.626H55.9503V136.46C55.9503 136.956 56.0755 137.338 56.3268 137.607C56.5771 137.87 56.9197 138.002 57.3544 138.002C57.8007 138.002 58.152 137.864 58.4091 137.589C58.6662 137.313 58.7943 136.913 58.7943 136.388V133.626H59.6278ZM60.7252 136.121C60.7252 135.607 60.8291 135.158 61.0367 134.773C61.2443 134.381 61.5286 134.078 61.8896 133.865C62.2564 133.65 62.6629 133.544 63.1093 133.544C63.5498 133.544 63.9321 133.639 64.2562 133.828C64.5586 133.996 64.8093 134.243 64.981 134.543V133.626H65.8252V138.653H64.981V137.717C64.8161 138.011 64.5686 138.255 64.2378 138.451C63.9137 138.641 63.5343 138.736 63.1006 138.736C62.6542 138.736 62.2506 138.625 61.8896 138.405C61.5286 138.185 61.2443 137.876 61.0367 137.479C60.8291 137.082 60.7252 136.629 60.7252 136.121ZM64.982 136.13C64.982 135.751 64.9053 135.421 64.753 135.14C64.6007 134.858 64.392 134.644 64.1291 134.497C63.8711 134.344 63.5761 134.265 63.2762 134.268C62.9647 134.268 62.6804 134.341 62.4233 134.489C62.1661 134.636 61.9614 134.85 61.8091 135.13C61.6567 135.41 61.5801 135.742 61.5801 136.121C61.5801 136.507 61.6567 136.843 61.8091 137.13C61.9614 137.411 62.1671 137.629 62.4233 137.782C62.6804 137.928 62.9647 138.002 63.2762 138.002C63.5877 138.002 63.872 137.928 64.1291 137.782C64.392 137.629 64.5997 137.411 64.753 137.13C64.9063 136.843 64.982 136.51 64.982 136.13ZM68.0715 131.865V138.653H67.237V131.865H68.0715ZM70.3294 131.865V138.653H69.4949V131.865H70.3294ZM76.0824 133.626L73.055 141.02H72.1924L73.1831 138.598L71.1561 133.626H72.0828L73.6605 137.699L75.2198 133.626H76.0824ZM80.3857 134.314V137.277C80.3857 137.522 80.4381 137.696 80.542 137.8C80.6458 137.897 80.8263 137.947 81.0834 137.947H81.6976V138.653H80.9456C80.4808 138.653 80.1325 138.546 79.8996 138.332C79.6667 138.119 79.5513 137.766 79.5513 137.277V134.314H78.9002V133.626H79.5513V132.36H80.3857V133.626H81.6976V134.314H80.3857ZM85.2043 133.534C85.5837 133.534 85.9262 133.617 86.2319 133.782C86.5375 133.941 86.7762 134.183 86.947 134.507C87.1246 134.831 87.2129 135.225 87.2129 135.69V138.653H86.3871V135.809C86.3871 135.308 86.262 134.925 86.0106 134.662C85.7603 134.394 85.4178 134.259 84.9831 134.259C84.5426 134.259 84.1913 134.396 83.9284 134.672C83.6712 134.947 83.5431 135.347 83.5431 135.873V138.653H82.7087V131.865H83.5431V134.341C83.7081 134.085 83.9342 133.886 84.2224 133.745C84.5292 133.602 84.8655 133.529 85.2043 133.534ZM88.2647 136.121C88.2647 135.607 88.3685 135.158 88.5771 134.773C88.7848 134.381 89.0691 134.078 89.43 133.865C89.7968 133.65 90.2034 133.544 90.6497 133.544C91.0902 133.544 91.4725 133.639 91.7966 133.828C92.1207 134.017 92.3623 134.256 92.5215 134.543V133.626H93.3656V138.653H92.5215V137.717C92.3565 138.011 92.1091 138.255 91.7782 138.451C91.4541 138.641 91.0747 138.736 90.641 138.736C90.1946 138.736 89.791 138.625 89.43 138.405C89.0691 138.185 88.7848 137.876 88.5771 137.479C88.3695 137.082 88.2647 136.629 88.2647 136.121ZM92.5215 136.13C92.5215 135.751 92.4448 135.421 92.2925 135.14C92.1401 134.858 91.9315 134.644 91.6686 134.497C91.4105 134.344 91.1155 134.265 90.8156 134.268C90.5042 134.268 90.2199 134.341 89.9627 134.489C89.7056 134.636 89.5009 134.85 89.3485 135.13C89.1962 135.41 89.1195 135.742 89.1195 136.121C89.1195 136.507 89.1962 136.843 89.3485 137.13C89.5018 137.411 89.7066 137.629 89.9627 137.782C90.2199 137.928 90.5042 138.002 90.8156 138.002C91.1271 138.002 91.4124 137.928 91.6686 137.782C91.9315 137.629 92.1392 137.411 92.2925 137.13C92.4458 136.843 92.5215 136.51 92.5215 136.13ZM95.7943 134.314V137.277C95.7943 137.522 95.8467 137.696 95.9506 137.8C96.0544 137.897 96.2349 137.947 96.492 137.947H97.1062V138.653H96.3542C95.8894 138.653 95.5411 138.546 95.3082 138.332C95.0753 138.119 94.9599 137.766 94.9599 137.277V134.314H94.3088V133.626H94.9599V132.36H95.7943V133.626H97.1062V134.314H95.7943ZM101.581 134.314V137.277C101.581 137.522 101.634 137.696 101.738 137.8C101.841 137.897 102.022 137.947 102.279 137.947H102.893V138.653H102.141C101.676 138.653 101.328 138.546 101.095 138.332C100.862 138.119 100.747 137.766 100.747 137.277V134.314H100.096V133.626H100.747V132.36H101.581V133.626H102.893V134.314H101.578H101.581ZM103.593 136.121C103.593 135.607 103.697 135.158 103.904 134.773C104.112 134.381 104.396 134.078 104.757 133.865C105.124 133.65 105.531 133.544 105.978 133.544C106.418 133.544 106.8 133.639 107.125 133.828C107.45 134.017 107.69 134.256 107.849 134.543V133.626H108.693V138.653H107.849V137.717C107.684 138.011 107.436 138.255 107.106 138.451C106.782 138.641 106.403 138.736 105.968 138.736C105.522 138.736 105.118 138.625 104.757 138.405C104.396 138.185 104.112 137.876 103.904 137.479C103.697 137.082 103.593 136.629 103.593 136.121ZM107.849 136.13C107.849 135.751 107.773 135.421 107.62 135.14C107.478 134.87 107.261 134.647 106.996 134.497C106.738 134.345 106.454 134.268 106.143 134.268C105.831 134.268 105.546 134.341 105.29 134.489C105.034 134.636 104.828 134.85 104.676 135.13C104.523 135.41 104.447 135.742 104.447 136.121C104.447 136.507 104.523 136.843 104.676 137.13C104.829 137.411 105.034 137.629 105.29 137.782C105.546 137.928 105.831 138.002 106.143 138.002C106.454 138.002 106.738 137.928 106.996 137.782C107.26 137.627 107.476 137.401 107.62 137.13C107.773 136.843 107.849 136.51 107.849 136.13ZM112.911 138.653L110.938 136.433V138.653H110.104V131.865H110.938V135.855L112.874 133.626H114.039L111.673 136.13L114.048 138.653H112.911ZM119.411 135.947C119.411 136.106 119.402 136.274 119.384 136.452H115.366C115.397 136.946 115.564 137.336 115.87 137.616C116.183 137.892 116.558 138.029 116.999 138.029C117.36 138.029 117.659 137.947 117.897 137.782C118.137 137.617 118.318 137.379 118.411 137.103H119.31C119.182 137.577 118.897 137.994 118.503 138.286C118.099 138.585 117.598 138.736 116.999 138.736C116.521 138.736 116.093 138.629 115.714 138.415C115.341 138.2 115.047 137.897 114.834 137.506C114.619 137.108 114.513 136.65 114.513 136.13C114.513 135.61 114.616 135.155 114.824 134.763C115.032 134.371 115.323 134.072 115.696 133.865C116.075 133.65 116.51 133.544 116.999 133.544C117.476 133.544 117.897 133.647 118.265 133.855C118.633 134.063 118.913 134.351 119.108 134.718C119.314 135.094 119.418 135.518 119.411 135.947ZM118.549 135.772C118.549 135.454 118.478 135.182 118.338 134.956C118.197 134.723 118.005 134.55 117.76 134.433C117.522 134.311 117.256 134.25 116.962 134.25C116.563 134.241 116.176 134.386 115.88 134.654C115.586 134.922 115.418 135.296 115.375 135.772H118.549ZM122.647 136.121C122.647 135.607 122.751 135.158 122.958 134.773C123.167 134.381 123.451 134.078 123.812 133.865C124.179 133.65 124.586 133.544 125.032 133.544C125.472 133.544 125.855 133.639 126.179 133.828C126.503 134.017 126.744 134.256 126.904 134.543V133.626H127.747V138.653H126.904V137.717C126.738 138.011 126.49 138.255 126.16 138.451C125.836 138.641 125.457 138.736 125.023 138.736C124.576 138.736 124.172 138.625 123.812 138.405C123.452 138.185 123.167 137.876 122.958 137.479C122.75 137.082 122.647 136.629 122.647 136.121ZM126.904 136.13C126.904 135.751 126.827 135.421 126.674 135.14C126.52 134.858 126.313 134.644 126.05 134.497C125.794 134.345 125.509 134.268 125.197 134.268C124.884 134.268 124.601 134.341 124.344 134.489C124.082 134.64 123.869 134.862 123.73 135.13C123.576 135.411 123.5 135.742 123.5 136.121C123.5 136.507 123.576 136.843 123.73 137.13C123.871 137.399 124.083 137.625 124.344 137.782C124.601 137.928 124.885 138.002 125.197 138.002C125.496 138.005 125.79 137.929 126.05 137.782C126.313 137.629 126.521 137.411 126.674 137.13C126.827 136.843 126.904 136.51 126.904 136.13ZM129.992 134.561C130.172 134.253 130.432 134 130.745 133.828C131.075 133.639 131.451 133.544 131.874 133.544C132.326 133.544 132.732 133.65 133.093 133.865C133.454 134.079 133.738 134.381 133.946 134.773C134.154 135.158 134.259 135.607 134.259 136.121C134.259 136.629 134.154 137.081 133.946 137.479C133.738 137.877 133.451 138.186 133.084 138.405C132.724 138.625 132.32 138.736 131.874 138.736C131.439 138.736 131.057 138.641 130.727 138.451C130.403 138.261 130.158 138.02 129.992 137.727V138.653H129.158V131.865H129.992V134.561ZM133.405 136.121C133.405 135.742 133.329 135.411 133.176 135.13C133.022 134.849 132.815 134.635 132.552 134.489C132.295 134.341 132.01 134.268 131.699 134.268C131.393 134.268 131.109 134.345 130.846 134.497C130.589 134.644 130.381 134.861 130.222 135.148C130.069 135.43 129.992 135.757 129.992 136.13C129.992 136.51 130.069 136.843 130.222 137.13C130.381 137.411 130.589 137.629 130.846 137.782C131.109 137.928 131.393 138.002 131.699 138.002C132.01 138.002 132.295 137.928 132.552 137.782C132.816 137.627 133.032 137.401 133.176 137.13C133.329 136.843 133.405 136.507 133.405 136.121ZM137.549 138.736C137.078 138.736 136.65 138.629 136.265 138.415C135.887 138.201 135.575 137.887 135.366 137.506C135.152 137.108 135.045 136.65 135.045 136.13C135.045 135.616 135.155 135.164 135.375 134.773C135.601 134.375 135.907 134.072 136.292 133.865C136.678 133.65 137.109 133.544 137.586 133.544C138.062 133.544 138.494 133.65 138.879 133.865C139.264 134.072 139.567 134.372 139.787 134.763C140.013 135.155 140.127 135.61 140.127 136.13C140.127 136.65 140.011 137.108 139.779 137.506C139.56 137.889 139.239 138.204 138.852 138.415C138.461 138.629 138.026 138.736 137.549 138.736ZM137.549 138.002C137.849 138.002 138.13 137.931 138.393 137.791C138.656 137.65 138.868 137.439 139.027 137.158C139.192 136.877 139.274 136.534 139.274 136.13C139.274 135.727 139.195 135.384 139.035 135.103C138.876 134.821 138.669 134.614 138.412 134.479C138.156 134.339 137.869 134.266 137.577 134.268C137.271 134.268 136.99 134.338 136.733 134.479C136.483 134.614 136.281 134.821 136.127 135.103C135.974 135.384 135.898 135.727 135.898 136.13C135.898 136.54 135.971 136.885 136.119 137.167C136.266 137.448 136.473 137.66 136.724 137.8C136.974 137.934 137.25 138.002 137.549 138.002ZM145.683 133.626V138.653H144.848V137.91C144.689 138.167 144.466 138.369 144.178 138.515C143.897 138.656 143.585 138.726 143.243 138.726C142.852 138.726 142.499 138.646 142.188 138.488C141.876 138.322 141.628 138.078 141.445 137.754C141.267 137.43 141.179 137.036 141.179 136.571V133.626H142.005V136.46C142.005 136.956 142.13 137.338 142.38 137.607C142.631 137.87 142.974 138.002 143.408 138.002C143.854 138.002 144.206 137.864 144.462 137.589C144.719 137.313 144.848 136.913 144.848 136.388V133.626H145.683ZM148.111 134.314V137.277C148.111 137.522 148.162 137.696 148.266 137.8C148.371 137.897 148.551 137.947 148.807 137.947H149.423V138.653H148.67C148.205 138.653 147.857 138.546 147.625 138.332C147.393 138.119 147.275 137.766 147.275 137.277V134.314H146.624V133.626H147.275V132.36H148.111V133.626H149.423V134.314H148.111ZM155.503 138.653L154.31 136.781L153.164 138.653H152.292L153.916 136.158L152.292 133.626H153.237L154.429 135.488L155.567 133.626H156.439L154.824 136.112L156.448 138.653H155.503ZM161.494 138.736C161.139 138.742 160.786 138.676 160.457 138.543C160.151 138.409 159.91 138.225 159.733 137.992C159.556 137.756 159.454 137.472 159.439 137.176H160.302C160.326 137.427 160.442 137.631 160.65 137.791C160.865 137.95 161.142 138.029 161.485 138.029C161.803 138.029 162.053 137.958 162.238 137.818C162.422 137.677 162.512 137.5 162.512 137.286C162.516 137.185 162.491 137.085 162.439 136.999C162.387 136.912 162.31 136.843 162.219 136.8C162.023 136.69 161.72 136.583 161.311 136.479C160.937 136.381 160.632 136.283 160.393 136.186C160.161 136.081 159.959 135.931 159.788 135.735C159.623 135.534 159.54 135.271 159.54 134.947C159.539 134.693 159.62 134.445 159.769 134.24C159.922 134.027 160.14 133.858 160.421 133.736C160.703 133.608 161.023 133.544 161.384 133.544C161.941 133.544 162.39 133.684 162.732 133.966C163.075 134.247 163.258 134.632 163.283 135.121H162.448C162.443 134.999 162.412 134.879 162.356 134.77C162.301 134.661 162.223 134.565 162.127 134.489C161.938 134.329 161.681 134.25 161.357 134.25C161.057 134.25 160.818 134.314 160.641 134.442C160.465 134.57 160.375 134.739 160.375 134.947C160.375 135.113 160.427 135.249 160.531 135.36C160.641 135.464 160.775 135.549 160.934 135.616C161.099 135.678 161.325 135.748 161.614 135.828C161.975 135.926 162.268 136.024 162.494 136.121C162.72 136.213 162.913 136.354 163.072 136.543C163.237 136.733 163.322 136.98 163.329 137.286C163.332 137.552 163.252 137.812 163.099 138.029C162.947 138.25 162.73 138.423 162.448 138.552C162.173 138.675 161.855 138.736 161.494 138.736ZM169.094 135.947C169.094 136.106 169.085 136.274 169.067 136.452H165.049C165.079 136.946 165.247 137.336 165.553 137.616C165.865 137.892 166.241 138.029 166.682 138.029C167.042 138.029 167.341 137.947 167.58 137.782C167.82 137.617 168 137.379 168.093 137.103H168.993C168.858 137.586 168.589 137.98 168.186 138.286C167.782 138.585 167.28 138.736 166.682 138.736C166.204 138.736 165.776 138.629 165.397 138.415C165.024 138.2 164.719 137.885 164.516 137.506C164.302 137.108 164.196 136.65 164.196 136.13C164.196 135.61 164.299 135.155 164.507 134.763C164.715 134.371 165.006 134.072 165.378 133.865C165.758 133.65 166.192 133.544 166.682 133.544C167.158 133.544 167.58 133.647 167.947 133.855C168.314 134.063 168.595 134.351 168.791 134.718C168.997 135.094 169.101 135.518 169.094 135.947ZM168.231 135.772C168.231 135.454 168.161 135.182 168.021 134.956C167.884 134.728 167.683 134.546 167.442 134.433C167.204 134.311 166.938 134.25 166.645 134.25C166.223 134.25 165.862 134.385 165.562 134.654C165.269 134.922 165.1 135.296 165.057 135.772H168.231ZM169.884 136.13C169.884 135.61 169.987 135.158 170.196 134.773C170.404 134.381 170.691 134.078 171.058 133.865C171.431 133.65 171.856 133.544 172.333 133.544C172.951 133.544 173.458 133.693 173.856 133.993C174.26 134.293 174.526 134.709 174.654 135.241H173.755C173.677 134.947 173.499 134.691 173.251 134.516C173.006 134.338 172.7 134.25 172.333 134.25C171.856 134.25 171.471 134.415 171.177 134.745C170.884 135.069 170.737 135.531 170.737 136.13C170.737 136.736 170.884 137.204 171.177 137.533C171.47 137.863 171.856 138.029 172.333 138.029C172.7 138.029 173.006 137.944 173.251 137.772C173.495 137.6 173.663 137.357 173.755 137.039H174.654C174.519 137.552 174.25 137.965 173.846 138.277C173.443 138.582 172.938 138.736 172.333 138.736C171.856 138.736 171.431 138.629 171.058 138.415C170.691 138.2 170.404 137.897 170.196 137.506C169.988 137.115 169.884 136.656 169.884 136.13ZM177.961 138.736C177.489 138.736 177.061 138.629 176.676 138.415C176.298 138.201 175.986 137.887 175.777 137.506C175.563 137.108 175.456 136.65 175.456 136.13C175.456 135.616 175.566 135.164 175.786 134.773C176.012 134.375 176.318 134.072 176.703 133.865C177.088 133.65 177.52 133.544 177.996 133.544C178.473 133.544 178.905 133.65 179.29 133.865C179.675 134.072 179.978 134.372 180.198 134.763C180.425 135.155 180.538 135.61 180.538 136.13C180.538 136.65 180.421 137.108 180.189 137.506C179.971 137.889 179.65 138.204 179.263 138.415C178.872 138.629 178.437 138.736 177.961 138.736ZM177.961 138.002C178.259 138.002 178.541 137.931 178.804 137.791C179.067 137.65 179.278 137.439 179.437 137.158C179.602 136.877 179.685 136.534 179.685 136.13C179.685 135.727 179.605 135.384 179.446 135.103C179.287 134.821 179.079 134.614 178.822 134.479C178.567 134.339 178.279 134.266 177.988 134.268C177.682 134.268 177.401 134.338 177.144 134.479C176.893 134.614 176.691 134.821 176.538 135.103C176.385 135.384 176.309 135.727 176.309 136.13C176.309 136.54 176.382 136.885 176.529 137.167C176.677 137.448 176.883 137.66 177.135 137.8C177.385 137.934 177.661 138.002 177.961 138.002ZM184.084 133.534C184.696 133.534 185.191 133.721 185.571 134.094C185.95 134.46 186.139 134.993 186.139 135.69V138.653H185.314V135.809C185.314 135.308 185.188 134.925 184.938 134.662C184.687 134.394 184.344 134.259 183.911 134.259C183.47 134.259 183.119 134.396 182.856 134.672C182.599 134.947 182.471 135.347 182.471 135.873V138.653H181.635V133.626H182.471V134.341C182.636 134.085 182.859 133.886 183.14 133.745C183.434 133.603 183.757 133.53 184.084 133.534ZM187.191 136.121C187.191 135.607 187.295 135.158 187.503 134.773C187.711 134.381 187.996 134.078 188.356 133.865C188.729 133.649 189.154 133.538 189.585 133.544C189.966 133.541 190.342 133.635 190.677 133.819C191.013 133.996 191.27 134.231 191.448 134.525V131.865H192.291V138.653H191.448V137.708C191.282 138.008 191.037 138.255 190.713 138.451C190.389 138.641 190.011 138.736 189.576 138.736C189.13 138.736 188.723 138.625 188.356 138.405C187.996 138.186 187.711 137.876 187.503 137.479C187.294 137.082 187.191 136.629 187.191 136.121ZM191.448 136.13C191.448 135.751 191.371 135.421 191.218 135.14C191.065 134.858 190.857 134.644 190.594 134.497C190.338 134.345 190.054 134.268 189.741 134.268C189.429 134.268 189.145 134.341 188.888 134.489C188.627 134.64 188.414 134.862 188.274 135.13C188.121 135.411 188.044 135.742 188.044 136.121C188.044 136.507 188.121 136.843 188.274 137.13C188.415 137.399 188.628 137.625 188.888 137.782C189.145 137.928 189.43 138.002 189.741 138.002C190.04 138.005 190.334 137.929 190.594 137.782C190.857 137.629 191.066 137.411 191.218 137.13C191.371 136.843 191.448 136.51 191.448 136.13ZM195.482 138.736C195.096 138.736 194.751 138.672 194.445 138.543C194.14 138.414 193.898 138.225 193.72 137.992C193.544 137.756 193.442 137.472 193.427 137.176H194.289C194.313 137.427 194.43 137.631 194.638 137.791C194.847 137.95 195.13 138.029 195.473 138.029C195.791 138.029 196.041 137.958 196.225 137.818C196.408 137.677 196.5 137.5 196.5 137.286C196.505 137.185 196.479 137.085 196.427 136.999C196.374 136.912 196.298 136.843 196.206 136.8C196.01 136.69 195.708 136.583 195.298 136.479C194.987 136.4 194.68 136.302 194.381 136.186C194.148 136.081 193.946 135.931 193.776 135.735C193.611 135.534 193.528 135.271 193.528 134.947C193.528 134.69 193.604 134.455 193.757 134.24C193.911 134.026 194.127 133.858 194.408 133.736C194.69 133.608 195.011 133.544 195.372 133.544C195.928 133.544 196.378 133.684 196.721 133.966C197.063 134.247 197.247 134.632 197.271 135.121H196.435C196.43 134.999 196.399 134.879 196.344 134.77C196.289 134.661 196.211 134.565 196.115 134.489C195.925 134.329 195.669 134.25 195.344 134.25C195.045 134.25 194.806 134.314 194.629 134.442C194.451 134.57 194.363 134.739 194.363 134.947C194.363 135.113 194.414 135.249 194.519 135.36C194.637 135.469 194.774 135.556 194.923 135.616C195.146 135.696 195.372 135.767 195.601 135.828C195.962 135.926 196.256 136.024 196.482 136.121C196.708 136.213 196.9 136.354 197.059 136.543C197.225 136.733 197.311 136.98 197.316 137.286C197.316 137.562 197.24 137.809 197.087 138.029C196.935 138.25 196.717 138.423 196.435 138.552C196.161 138.675 195.842 138.736 195.482 138.736Z" fill="#6A7381"/>
<path d="M69.1309 61.5969C69.1309 54.5403 63.4104 48.8198 56.3538 48.8198C49.2972 48.8198 43.5767 54.5403 43.5767 61.5969C43.5767 68.6535 49.2972 74.374 56.3538 74.374C63.4104 74.374 69.1309 68.6535 69.1309 61.5969Z" fill="white"/>
<path fill-rule="evenodd" clip-rule="evenodd" d="M55.415 57.3488C55.5751 57.5089 55.5751 57.768 55.415 57.9281L52.2915 61.0516H61.1311C61.3572 61.0516 61.5406 61.235 61.5406 61.461C61.5406 61.6871 61.3572 61.8705 61.1311 61.8705H52.2915L55.415 64.994C55.5751 65.1541 55.5751 65.4131 55.415 65.5732C55.2549 65.7333 54.9958 65.7333 54.8357 65.5732L51.0136 61.7512C50.8535 61.5911 50.8535 61.332 51.0136 61.1719L54.8357 57.3498C54.9958 57.1897 55.2549 57.1887 55.415 57.3488Z" fill="#6A7381"/>
<path d="M69.1309 61.5969C69.1309 54.5403 63.4104 48.8198 56.3538 48.8198C49.2972 48.8198 43.5767 54.5403 43.5767 61.5969C43.5767 68.6535 49.2972 74.374 56.3538 74.374C63.4104 74.374 69.1309 68.6535 69.1309 61.5969Z" stroke="#D7DBE0" stroke-width="0.654962"/>
<path d="M246.747 33.095H59.2524C43.3568 33.095 30.4709 45.9809 30.4709 61.8764L30.4709 527.846C30.4709 543.741 43.3568 556.627 59.2524 556.627H246.747C262.643 556.627 275.529 543.741 275.529 527.846V61.8764C275.529 45.9809 262.643 33.095 246.747 33.095Z" stroke="#F1F2F4" stroke-width="0.654962"/>
</g>
<mask id="mask1_1008_32783" style="mask-type:luminance" maskUnits="userSpaceOnUse" x="15" y="20" width="276" height="558">
<path fill-rule="evenodd" clip-rule="evenodd" d="M290.494 20L15.5056 20L15.5056 577.46H290.494L290.494 20ZM34.141 51.4801C30.4709 58.6829 30.4709 68.112 30.4709 86.9701L30.4709 510.49C30.4709 529.348 30.4709 538.777 34.141 545.98C37.3692 552.316 42.5204 557.467 48.8562 560.695C56.0591 564.365 65.4881 564.365 84.3463 564.365H221.653C240.512 564.365 249.941 564.365 257.143 560.695C263.479 557.467 268.63 552.316 271.859 545.98C275.529 538.777 275.529 529.348 275.529 510.49L275.529 86.9701C275.529 68.112 275.529 58.6829 271.859 51.4801C268.63 45.1443 263.479 39.9931 257.143 36.7649C249.941 33.0948 240.512 33.0948 221.653 33.0948H84.3462C65.4881 33.0948 56.0591 33.0948 48.8562 36.7649C42.5204 39.9931 37.3692 45.1443 34.141 51.4801Z" fill="white"/>
</mask>
<g mask="url(#mask1_1008_32783)">
<g filter="url(#filter1_i_1008_32783)">
<rect x="17.0645" y="221.409" width="3.11778" height="42.0901" rx="0.935335" fill="url(#paint0_linear_1008_32783)"/>
</g>
<rect x="17.2203" y="221.565" width="2.806" height="41.7783" rx="0.779446" stroke="url(#paint1_linear_1008_32783)" stroke-width="0.311778"/>
<g filter="url(#filter2_i_1008_32783)">
<rect x="17.0645" y="167.783" width="3.11778" height="42.0901" rx="0.935335" fill="url(#paint2_linear_1008_32783)"/>
</g>
<rect x="17.2203" y="167.939" width="2.806" height="41.7783" rx="0.779446" stroke="url(#paint3_linear_1008_32783)" stroke-width="0.311778"/>
<g filter="url(#filter3_i_1008_32783)">
<rect x="16.7527" y="127.875" width="3.11778" height="21.2009" rx="0.935335" fill="url(#paint4_linear_1008_32783)"/>
</g>
<rect x="16.9086" y="128.031" width="2.806" height="20.8891" rx="0.779446" stroke="url(#paint5_linear_1008_32783)" stroke-width="0.311778"/>
<g filter="url(#filter4_i_1008_32783)">
<rect x="286.441" y="197.09" width="3.11778" height="66.097" rx="0.685912" fill="url(#paint6_linear_1008_32783)"/>
</g>
<rect x="286.597" y="197.246" width="2.806" height="65.7852" rx="0.530023" stroke="url(#paint7_linear_1008_32783)" stroke-width="0.311778"/>
<path d="M19.2471 94.0787C19.2471 68.5853 19.2471 55.8386 24.2084 46.1015C28.5725 37.5364 35.5361 30.5728 44.1012 26.2087C53.8384 21.2473 66.5851 21.2473 92.0785 21.2473H214.545C240.038 21.2473 252.785 21.2473 262.522 26.2087C271.087 30.5728 278.051 37.5364 282.415 46.1015C287.376 55.8386 287.376 68.5853 287.376 94.0787V503.381C287.376 528.875 287.376 541.621 282.415 551.358C278.051 559.924 271.087 566.887 262.522 571.251C252.785 576.213 240.038 576.213 214.545 576.213H92.0785C66.5851 576.213 53.8384 576.213 44.1012 571.251C35.5361 566.887 28.5725 559.924 24.2084 551.358C19.2471 541.621 19.2471 528.875 19.2471 503.381L19.2471 94.0787Z" fill="black"/>
<path d="M91.7667 22.9621L214.857 22.9621C227.637 22.9621 237.1 22.9637 244.589 23.5755C252.054 24.1855 257.379 25.3917 261.914 27.7026C270.098 31.8724 276.751 38.526 280.921 46.7097C283.232 51.245 284.438 56.5696 285.048 64.0348C285.66 71.5236 285.662 80.9868 285.662 93.767V503.693C285.662 516.473 285.66 525.936 285.048 533.425C284.438 540.89 283.232 546.215 280.921 550.75C276.751 558.934 270.098 565.588 261.914 569.757C257.379 572.068 252.054 573.275 244.589 573.884C237.1 574.496 227.637 574.498 214.857 574.498H91.7667C78.9866 574.498 69.5234 574.496 62.0345 573.884C54.5694 573.275 49.2448 572.068 44.7095 569.757C36.5257 565.588 29.8721 558.934 25.7023 550.75C23.3915 546.215 22.1852 540.89 21.5753 533.425C20.9634 525.936 20.9619 516.473 20.9619 503.693L20.9619 93.7669C20.9619 80.9868 20.9634 71.5236 21.5753 64.0348C22.1852 56.5696 23.3915 51.245 25.7023 46.7097C29.8721 38.526 36.5257 31.8724 44.7095 27.7026C49.2448 25.3917 54.5694 24.1855 62.0345 23.5755C69.5233 22.9637 78.9866 22.9621 91.7667 22.9621Z" stroke="#121214" stroke-width="4.05312"/>
<path d="M91.7667 22.9621L214.857 22.9621C227.637 22.9621 237.1 22.9637 244.589 23.5755C252.054 24.1855 257.379 25.3917 261.914 27.7026C270.098 31.8724 276.751 38.526 280.921 46.7097C283.232 51.245 284.438 56.5696 285.048 64.0348C285.66 71.5236 285.662 80.9868 285.662 93.767V503.693C285.662 516.473 285.66 525.936 285.048 533.425C284.438 540.89 283.232 546.215 280.921 550.75C276.751 558.934 270.098 565.588 261.914 569.757C257.379 572.068 252.054 573.275 244.589 573.884C237.1 574.496 227.637 574.498 214.857 574.498H91.7667C78.9866 574.498 69.5234 574.496 62.0345 573.884C54.5694 573.275 49.2448 572.068 44.7095 569.757C36.5257 565.588 29.8721 558.934 25.7023 550.75C23.3915 546.215 22.1852 540.89 21.5753 533.425C20.9634 525.936 20.9619 516.473 20.9619 503.693L20.9619 93.7669C20.9619 80.9868 20.9634 71.5236 21.5753 64.0348C22.1852 56.5696 23.3915 51.245 25.7023 46.7097C29.8721 38.526 36.5257 31.8724 44.7095 27.7026C49.2448 25.3917 54.5694 24.1855 62.0345 23.5755C69.5233 22.9637 78.9866 22.9621 91.7667 22.9621Z" stroke="url(#paint8_linear_1008_32783)" stroke-width="4.05312"/>
<path d="M91.7667 22.9621L214.857 22.9621C227.637 22.9621 237.1 22.9637 244.589 23.5755C252.054 24.1855 257.379 25.3917 261.914 27.7026C270.098 31.8724 276.751 38.526 280.921 46.7097C283.232 51.245 284.438 56.5696 285.048 64.0348C285.66 71.5236 285.662 80.9868 285.662 93.767V503.693C285.662 516.473 285.66 525.936 285.048 533.425C284.438 540.89 283.232 546.215 280.921 550.75C276.751 558.934 270.098 565.588 261.914 569.757C257.379 572.068 252.054 573.275 244.589 573.884C237.1 574.496 227.637 574.498 214.857 574.498H91.7667C78.9866 574.498 69.5234 574.496 62.0345 573.884C54.5694 573.275 49.2448 572.068 44.7095 569.757C36.5257 565.588 29.8721 558.934 25.7023 550.75C23.3915 546.215 22.1852 540.89 21.5753 533.425C20.9634 525.936 20.9619 516.473 20.9619 503.693L20.9619 93.7669C20.9619 80.9868 20.9634 71.5236 21.5753 64.0348C22.1852 56.5696 23.3915 51.245 25.7023 46.7097C29.8721 38.526 36.5257 31.8724 44.7095 27.7026C49.2448 25.3917 54.5694 24.1855 62.0345 23.5755C69.5233 22.9637 78.9866 22.9621 91.7667 22.9621Z" stroke="#F0EEEA" stroke-width="4.05312"/>
<path d="M91.7667 22.9621L214.857 22.9621C227.637 22.9621 237.1 22.9637 244.589 23.5755C252.054 24.1855 257.379 25.3917 261.914 27.7026C270.098 31.8724 276.751 38.526 280.921 46.7097C283.232 51.245 284.438 56.5696 285.048 64.0348C285.66 71.5236 285.662 80.9868 285.662 93.767V503.693C285.662 516.473 285.66 525.936 285.048 533.425C284.438 540.89 283.232 546.215 280.921 550.75C276.751 558.934 270.098 565.588 261.914 569.757C257.379 572.068 252.054 573.275 244.589 573.884C237.1 574.496 227.637 574.498 214.857 574.498H91.7667C78.9866 574.498 69.5234 574.496 62.0345 573.884C54.5694 573.275 49.2448 572.068 44.7095 569.757C36.5257 565.588 29.8721 558.934 25.7023 550.75C23.3915 546.215 22.1852 540.89 21.5753 533.425C20.9634 525.936 20.9619 516.473 20.9619 503.693L20.9619 93.7669C20.9619 80.9868 20.9634 71.5236 21.5753 64.0348C22.1852 56.5696 23.3915 51.245 25.7023 46.7097C29.8721 38.526 36.5257 31.8724 44.7095 27.7026C49.2448 25.3917 54.5694 24.1855 62.0345 23.5755C69.5233 22.9637 78.9866 22.9621 91.7667 22.9621Z" stroke="#E1E0E1" stroke-width="4.05312"/>
<path d="M92.4524 20.9356L214.171 20.9356C227.097 20.9356 236.773 20.9358 244.452 21.5632C252.127 22.1903 257.78 23.4424 262.664 25.9309C271.287 30.3249 278.299 37.3362 282.693 45.9599C285.181 50.8439 286.433 56.4963 287.06 64.1715C287.688 71.8503 287.688 81.5264 287.688 94.4529V503.007C287.688 515.934 287.688 525.61 287.06 533.289C286.433 540.964 285.181 546.616 282.693 551.5C278.299 560.124 271.287 567.135 262.664 571.529C257.78 574.018 252.127 575.27 244.452 575.897C236.773 576.524 227.097 576.524 214.171 576.524H92.4524C79.5259 576.524 69.8499 576.524 62.171 575.897C54.4958 575.27 48.8435 574.018 43.9594 571.529C35.3357 567.135 28.3244 560.124 23.9304 551.5C21.4419 546.616 20.1898 540.964 19.5627 533.289C18.9353 525.61 18.9351 515.934 18.9351 503.007L18.9351 94.4528C18.9351 81.5264 18.9353 71.8503 19.5627 64.1715C20.1898 56.4963 21.4419 50.8439 23.9304 45.9599C28.3244 37.3362 35.3357 30.3249 43.9594 25.9309C48.8435 23.4424 54.4958 22.1903 62.171 21.5632C69.8498 20.9358 79.5259 20.9356 92.4524 20.9356Z" stroke="#717170" stroke-width="0.623556"/>
<g filter="url(#filter5_i_1008_32783)">
<path d="M19.8706 93.7043C19.8706 68.5602 19.8706 55.9881 24.764 46.3843C29.0683 37.9365 35.9365 31.0683 44.3843 26.764C53.9881 21.8706 66.5602 21.8706 91.7043 21.8706L214.919 21.8706C240.063 21.8706 252.635 21.8706 262.239 26.764C270.687 31.0683 277.555 37.9365 281.859 46.3843C286.753 55.9881 286.753 68.5602 286.753 93.7043V503.755C286.753 528.899 286.753 541.471 281.859 551.075C277.555 559.523 270.687 566.391 262.239 570.695C252.635 575.589 240.063 575.589 214.919 575.589H91.7043C66.5602 575.589 53.9881 575.589 44.3843 570.695C35.9365 566.391 29.0683 559.523 24.764 551.075C19.8706 541.471 19.8706 528.899 19.8706 503.755L19.8706 93.7043Z" fill="black" fill-opacity="0.01"/>
</g>
<g filter="url(#filter6_b_1008_32783)">
<rect x="18.6233" y="79.5496" width="3.74134" height="3.74134" fill="#6B6B6A" fill-opacity="0.6"/>
</g>
<g filter="url(#filter7_b_1008_32783)">
<rect x="284.258" y="79.5496" width="3.74134" height="3.74134" fill="#6B6B6A" fill-opacity="0.6"/>
</g>
<g filter="url(#filter8_b_1008_32783)">
<rect x="227.515" y="20.6238" width="3.74134" height="3.74134" fill="#6B6B6A" fill-opacity="0.6"/>
</g>
<g filter="url(#filter9_i_1008_32783)">
<path fill-rule="evenodd" clip-rule="evenodd" d="M180.118 24.9885C180.039 25.8627 179.304 26.5479 178.41 26.5479H128.213C127.319 26.5479 126.584 25.8627 126.506 24.9885H180.118Z" fill="#121214"/>
</g>
</g>
</g>
<defs>
<filter id="filter0_f_1008_32783" x="8.12433" y="10.1243" width="289.751" height="418.751" filterUnits="userSpaceOnUse" color-interpolation-filters="sRGB">
<feFlood flood-opacity="0" result="BackgroundImageFix"/>
<feBlend mode="normal" in="SourceGraphic" in2="BackgroundImageFix" result="shape"/>
<feGaussianBlur stdDeviation="5.93784" result="effect1_foregroundBlur_1008_32783"/>
</filter>
<filter id="filter1_i_1008_32783" x="17.0645" y="221.409" width="3.11768" height="42.0901" filterUnits="userSpaceOnUse" color-interpolation-filters="sRGB">
<feFlood flood-opacity="0" result="BackgroundImageFix"/>
<feBlend mode="normal" in="SourceGraphic" in2="BackgroundImageFix" result="shape"/>
<feColorMatrix in="SourceAlpha" type="matrix" values="0 0 0 0 0 0 0 0 0 0 0 0 0 0 0 0 0 0 127 0" result="hardAlpha"/>
<feOffset dx="0.623556"/>
<feComposite in2="hardAlpha" operator="arithmetic" k2="-1" k3="1"/>
<feColorMatrix type="matrix" values="0 0 0 0 0.858824 0 0 0 0 0.858824 0 0 0 0 0.858824 0 0 0 1 0"/>
<feBlend mode="normal" in2="shape" result="effect1_innerShadow_1008_32783"/>
</filter>
<filter id="filter2_i_1008_32783" x="17.0645" y="167.783" width="3.11768" height="42.0901" filterUnits="userSpaceOnUse" color-interpolation-filters="sRGB">
<feFlood flood-opacity="0" result="BackgroundImageFix"/>
<feBlend mode="normal" in="SourceGraphic" in2="BackgroundImageFix" result="shape"/>
<feColorMatrix in="SourceAlpha" type="matrix" values="0 0 0 0 0 0 0 0 0 0 0 0 0 0 0 0 0 0 127 0" result="hardAlpha"/>
<feOffset dx="0.623556"/>
<feComposite in2="hardAlpha" operator="arithmetic" k2="-1" k3="1"/>
<feColorMatrix type="matrix" values="0 0 0 0 0.858824 0 0 0 0 0.858824 0 0 0 0 0.858824 0 0 0 1 0"/>
<feBlend mode="normal" in2="shape" result="effect1_innerShadow_1008_32783"/>
</filter>
<filter id="filter3_i_1008_32783" x="16.7527" y="127.875" width="3.11768" height="21.2009" filterUnits="userSpaceOnUse" color-interpolation-filters="sRGB">
<feFlood flood-opacity="0" result="BackgroundImageFix"/>
<feBlend mode="normal" in="SourceGraphic" in2="BackgroundImageFix" result="shape"/>
<feColorMatrix in="SourceAlpha" type="matrix" values="0 0 0 0 0 0 0 0 0 0 0 0 0 0 0 0 0 0 127 0" result="hardAlpha"/>
<feOffset dx="0.623556"/>
<feComposite in2="hardAlpha" operator="arithmetic" k2="-1" k3="1"/>
<feColorMatrix type="matrix" values="0 0 0 0 0.858824 0 0 0 0 0.858824 0 0 0 0 0.858824 0 0 0 1 0"/>
<feBlend mode="normal" in2="shape" result="effect1_innerShadow_1008_32783"/>
</filter>
<filter id="filter4_i_1008_32783" x="286.441" y="197.09" width="3.11768" height="66.0969" filterUnits="userSpaceOnUse" color-interpolation-filters="sRGB">
<feFlood flood-opacity="0" result="BackgroundImageFix"/>
<feBlend mode="normal" in="SourceGraphic" in2="BackgroundImageFix" result="shape"/>
<feColorMatrix in="SourceAlpha" type="matrix" values="0 0 0 0 0 0 0 0 0 0 0 0 0 0 0 0 0 0 127 0" result="hardAlpha"/>
<feOffset dx="-0.623556"/>
<feComposite in2="hardAlpha" operator="arithmetic" k2="-1" k3="1"/>
<feColorMatrix type="matrix" values="0 0 0 0 0.858824 0 0 0 0 0.858824 0 0 0 0 0.858824 0 0 0 1 0"/>
<feBlend mode="normal" in2="shape" result="effect1_innerShadow_1008_32783"/>
</filter>
<filter id="filter5_i_1008_32783" x="19.8706" y="21.8706" width="266.882" height="553.718" filterUnits="userSpaceOnUse" color-interpolation-filters="sRGB">
<feFlood flood-opacity="0" result="BackgroundImageFix"/>
<feBlend mode="normal" in="SourceGraphic" in2="BackgroundImageFix" result="shape"/>
<feColorMatrix in="SourceAlpha" type="matrix" values="0 0 0 0 0 0 0 0 0 0 0 0 0 0 0 0 0 0 127 0" result="hardAlpha"/>
<feOffset/>
<feGaussianBlur stdDeviation="0.935335"/>
<feComposite in2="hardAlpha" operator="arithmetic" k2="-1" k3="1"/>
<feColorMatrix type="matrix" values="0 0 0 0 1 0 0 0 0 1 0 0 0 0 1 0 0 0 0.25 0"/>
<feBlend mode="normal" in2="shape" result="effect1_innerShadow_1008_32783"/>
</filter>
<filter id="filter6_b_1008_32783" x="17.7758" y="78.7021" width="5.43646" height="5.43646" filterUnits="userSpaceOnUse" color-interpolation-filters="sRGB">
<feFlood flood-opacity="0" result="BackgroundImageFix"/>
<feGaussianBlur in="BackgroundImageFix" stdDeviation="0.423751"/>
<feComposite in2="SourceAlpha" operator="in" result="effect1_backgroundBlur_1008_32783"/>
<feBlend mode="normal" in="SourceGraphic" in2="effect1_backgroundBlur_1008_32783" result="shape"/>
</filter>
<filter id="filter7_b_1008_32783" x="283.411" y="78.7021" width="5.43646" height="5.43646" filterUnits="userSpaceOnUse" color-interpolation-filters="sRGB">
<feFlood flood-opacity="0" result="BackgroundImageFix"/>
<feGaussianBlur in="BackgroundImageFix" stdDeviation="0.423751"/>
<feComposite in2="SourceAlpha" operator="in" result="effect1_backgroundBlur_1008_32783"/>
<feBlend mode="normal" in="SourceGraphic" in2="effect1_backgroundBlur_1008_32783" result="shape"/>
</filter>
<filter id="filter8_b_1008_32783" x="226.667" y="19.7763" width="5.43646" height="5.43646" filterUnits="userSpaceOnUse" color-interpolation-filters="sRGB">
<feFlood flood-opacity="0" result="BackgroundImageFix"/>
<feGaussianBlur in="BackgroundImageFix" stdDeviation="0.423751"/>
<feComposite in2="SourceAlpha" operator="in" result="effect1_backgroundBlur_1008_32783"/>
<feBlend mode="normal" in="SourceGraphic" in2="effect1_backgroundBlur_1008_32783" result="shape"/>
</filter>
<filter id="filter9_i_1008_32783" x="126.506" y="24.9885" width="53.6121" height="1.55933" filterUnits="userSpaceOnUse" color-interpolation-filters="sRGB">
<feFlood flood-opacity="0" result="BackgroundImageFix"/>
<feBlend mode="normal" in="SourceGraphic" in2="BackgroundImageFix" result="shape"/>
<feColorMatrix in="SourceAlpha" type="matrix" values="0 0 0 0 0 0 0 0 0 0 0 0 0 0 0 0 0 0 127 0" result="hardAlpha"/>
<feOffset dy="-0.155889"/>
<feComposite in2="hardAlpha" operator="arithmetic" k2="-1" k3="1"/>
<feColorMatrix type="matrix" values="0 0 0 0 1 0 0 0 0 1 0 0 0 0 1 0 0 0 0.2 0"/>
<feBlend mode="normal" in2="shape" result="effect1_innerShadow_1008_32783"/>
</filter>
<linearGradient id="paint0_linear_1008_32783" x1="17.0903" y1="221.767" x2="17.0903" y2="263.161" gradientUnits="userSpaceOnUse">
<stop stop-color="#1F1B27"/>
<stop stop-color="#272727"/>
<stop offset="0.0128274" stop-color="#919191"/>
<stop offset="0.0265834" stop-color="#E0E0E0"/>
<stop offset="0.0494867" stop-color="#E0E0E0"/>
<stop offset="0.0629992" stop-color="#8F8F8F"/>
<stop offset="0.0781288" stop-color="#313131"/>
<stop offset="0.0889895" stop-color="#2F2F2F"/>
<stop offset="0.121558" stop-color="#C9CBCA"/>
<stop offset="0.482664" stop-color="#D6D8D6"/>
<stop offset="0.890578" stop-color="#C9CBCA"/>
<stop offset="0.924415" stop-color="#2E2E2E"/>
<stop offset="0.933175" stop-color="#2E2E2E"/>
<stop offset="0.947745" stop-color="#8E8E8E"/>
<stop offset="0.959336" stop-color="#E0E0E0"/>
<stop offset="0.980295" stop-color="#E0E0E0"/>
<stop offset="0.989929" stop-color="#7B7B7B"/>
<stop offset="1" stop-color="#343434"/>
</linearGradient>
<linearGradient id="paint1_linear_1008_32783" x1="17.0697" y1="221.409" x2="17.0697" y2="263.357" gradientUnits="userSpaceOnUse">
<stop stop-color="#0D0D0D"/>
<stop offset="0.203726" stop-color="#454545"/>
<stop offset="0.778081" stop-color="#454545"/>
<stop offset="1" stop-color="#0D0D0D"/>
</linearGradient>
<linearGradient id="paint2_linear_1008_32783" x1="17.0903" y1="168.142" x2="17.0903" y2="209.535" gradientUnits="userSpaceOnUse">
<stop stop-color="#1F1B27"/>
<stop stop-color="#272727"/>
<stop offset="0.0128274" stop-color="#919191"/>
<stop offset="0.0265834" stop-color="#E0E0E0"/>
<stop offset="0.0494867" stop-color="#E0E0E0"/>
<stop offset="0.0629992" stop-color="#8F8F8F"/>
<stop offset="0.0781288" stop-color="#313131"/>
<stop offset="0.0889895" stop-color="#2F2F2F"/>
<stop offset="0.121558" stop-color="#C9CBCA"/>
<stop offset="0.482664" stop-color="#D6D8D6"/>
<stop offset="0.890578" stop-color="#C9CBCA"/>
<stop offset="0.924415" stop-color="#2E2E2E"/>
<stop offset="0.933175" stop-color="#2E2E2E"/>
<stop offset="0.947745" stop-color="#8E8E8E"/>
<stop offset="0.959336" stop-color="#E0E0E0"/>
<stop offset="0.980295" stop-color="#E0E0E0"/>
<stop offset="0.989929" stop-color="#7B7B7B"/>
<stop offset="1" stop-color="#343434"/>
</linearGradient>
<linearGradient id="paint3_linear_1008_32783" x1="17.0697" y1="167.783" x2="17.0697" y2="209.731" gradientUnits="userSpaceOnUse">
<stop stop-color="#0D0D0D"/>
<stop offset="0.203726" stop-color="#454545"/>
<stop offset="0.778081" stop-color="#454545"/>
<stop offset="1" stop-color="#0D0D0D"/>
</linearGradient>
<linearGradient id="paint4_linear_1008_32783" x1="16.7944" y1="128.177" x2="16.7944" y2="148.81" gradientUnits="userSpaceOnUse">
<stop stop-color="#272727"/>
<stop offset="0.0128274" stop-color="#919191"/>
<stop offset="0.0222069" stop-color="#E0E0E0"/>
<stop offset="0.0582652" stop-color="#E0E0E0"/>
<stop offset="0.0716356" stop-color="#8F8F8F"/>
<stop offset="0.0873934" stop-color="#313131"/>
<stop offset="0.099098" stop-color="#2F2F2F"/>
<stop offset="0.133506" stop-color="#D1D2CF"/>
<stop offset="0.479704" stop-color="#E1E3E2"/>
<stop offset="0.842712" stop-color="#CFD1D0"/>
<stop offset="0.897125" stop-color="#2E2E2E"/>
<stop offset="0.91095" stop-color="#2E2E2E"/>
<stop offset="0.928399" stop-color="#8E8E8E"/>
<stop offset="0.94133" stop-color="#E0E0E0"/>
<stop offset="0.971681" stop-color="#E0E0E0"/>
<stop offset="0.989929" stop-color="#7B7B7B"/>
<stop offset="1" stop-color="#343434"/>
</linearGradient>
<linearGradient id="paint5_linear_1008_32783" x1="16.7579" y1="127.875" x2="16.7579" y2="149.005" gradientUnits="userSpaceOnUse">
<stop offset="0.0139314" stop-color="#0D0D0D"/>
<stop offset="0.203726" stop-color="#454545"/>
<stop offset="0.79051" stop-color="#454545"/>
<stop offset="0.991068" stop-color="#0D0D0D"/>
</linearGradient>
<linearGradient id="paint6_linear_1008_32783" x1="286.46" y1="197.466" x2="286.46" y2="262.756" gradientUnits="userSpaceOnUse">
<stop stop-color="#262626"/>
<stop offset="0.00895078" stop-color="#858585"/>
<stop offset="0.0148141" stop-color="#E0E0E0"/>
<stop offset="0.0257073" stop-color="#E0E0E0"/>
<stop offset="0.0344213" stop-color="#868686"/>
<stop offset="0.0449677" stop-color="#313131"/>
<stop offset="0.0503533" stop-color="#2F2F2F"/>
<stop offset="0.0722192" stop-color="#CCCCCC"/>
<stop offset="0.49044" stop-color="#D3D5D3"/>
<stop offset="0.915803" stop-color="#D1D3D2"/>
<stop offset="0.947894" stop-color="#2E2E2E"/>
<stop offset="0.954408" stop-color="#2E2E2E"/>
<stop offset="0.961734" stop-color="#8E8E8E"/>
<stop offset="0.970575" stop-color="#E0E0E0"/>
<stop offset="0.986829" stop-color="#E0E0E0"/>
<stop offset="0.993206" stop-color="#7B7B7B"/>
<stop offset="1" stop-color="#343434"/>
</linearGradient>
<linearGradient id="paint7_linear_1008_32783" x1="286.446" y1="197.09" x2="286.446" y2="262.964" gradientUnits="userSpaceOnUse">
<stop stop-color="#0D0D0D"/>
<stop offset="0.227764" stop-color="#454545"/>
<stop offset="0.76232" stop-color="#454545"/>
<stop offset="1" stop-color="#0D0D0D"/>
</linearGradient>
<linearGradient id="paint8_linear_1008_32783" x1="18.9353" y1="20.9355" x2="18.9353" y2="576.524" gradientUnits="userSpaceOnUse">
<stop stop-color="#7C7F80"/>
<stop offset="1" stop-color="#797A7D"/>
</linearGradient>
<clipPath id="clip0_1008_32783">
<rect width="305" height="420" fill="white"/>
</clipPath>
</defs>
</svg>
